;TYPE=PLATED
;Layer: PTH_Through_Via
;EasyEDA Pro v2.2.40.8, 2025-09-22 20:40:29
;Gerber Generator version 0.3
M48
METRIC,LZ,0000.00000
;Hole size 1 = 0.30500 METRIC
T01C0.30500
%
G05
G90
T01
X117.602Y68.834
X114.3Y57.15
X109.728Y56.896
X59.944Y12.192
X99.314Y54.737
X14.986Y48.006
X62.23Y69.85
X94.234Y63.246
X16.002Y49.022
X61.468Y69.088
X92.964Y62.484
X44.958Y47.752
X87.63Y37.592
X17.78Y56.896
X36.322Y44.45
X85.598Y83.566
X80.06146Y51.562
X86.28975Y53.52375
X37.592Y64.48338
X47.244Y53.09543
X49.784Y57.404
X60.452Y64.77
X65.278Y62.738
X76.962Y55.626
X83.312Y51.816
X92.71Y58.42
X88.392Y58.42
X53.848Y53.34
X50.8Y60.96
X100.584Y47.752
X100.584Y43.18
X42.418Y42.672
X75.438Y22.606
X78.994Y24.638
M30