;TYPE=PLATED
;Layer: PTH_Through
;EasyEDA Pro v2.2.40.8, 2025-09-22 20:40:29
;Gerber Generator version 0.3
M48
METRIC,LZ,0000.00000
;Hole size 1 = 0.30500 METRIC
T01C0.30500
;Hole size 2 = 0.50002 METRIC
T02C0.50002
;Hole size 3 = 0.80000 METRIC
T03C0.80000
;Hole size 4 = 0.89916 METRIC
T04C0.89916
;Hole size 5 = 0.90002 METRIC
T05C0.90002
;Hole size 6 = 0.91440 METRIC
T06C0.91440
;Hole size 7 = 0.96520 METRIC
T07C0.96520
;Hole size 8 = 1.00000 METRIC
T08C1.00000
;Hole size 9 = 1.00000 METRIC
T09C1.00000
;Hole size 10 = 1.10002 METRIC
T10C1.10002
;Hole size 11 = 1.20000 METRIC
T11C1.20000
%
G05
G90
T01
X117.602Y68.834
X114.3Y57.15
X109.728Y56.896
X59.944Y12.192
X99.314Y54.737
X14.986Y48.006
X62.23Y69.85
X94.234Y63.246
X16.002Y49.022
X61.468Y69.088
X92.964Y62.484
X44.958Y47.752
X87.63Y37.592
X17.78Y56.896
X36.322Y44.45
X85.598Y83.566
X80.06146Y51.562
X86.28975Y53.52375
X37.592Y64.48338
X47.244Y53.09543
X49.784Y57.404
X60.452Y64.77
X65.278Y62.738
X76.962Y55.626
X83.312Y51.816
X92.71Y58.42
X88.392Y58.42
X53.848Y53.34
X50.8Y60.96
X100.584Y47.752
X100.584Y43.18
X42.418Y42.672
X75.438Y22.606
X78.994Y24.638
T02
X109.06981Y1.80409G85X109.06981Y2.90406
X122.06978Y1.80409G85X122.06978Y2.90406
T03
X98.02401Y78.994
X95.52399Y78.994
X6.35Y54.84401
X6.35Y52.34399
X71.35401Y21.844
X68.85399Y21.844
X69.61599Y69.85
X72.11601Y69.85
X103.55402Y87.122
X100.15398Y87.122
X89.662Y82.78401
X89.662Y80.28399
X113.538Y82.78401
X113.538Y80.28399
X25.654Y86.44199
X27.94Y85.20199
X25.654Y83.96199
X27.94Y82.72201
X26.162Y7.44799
X28.448Y6.20799
X26.162Y4.96799
X28.448Y3.72801
X70.56801Y59.182
X77.76799Y59.182
X125.222Y16.29999
X125.222Y9.10001
X100.79401Y78.994
X107.99399Y78.994
X57.658Y67.52001
X57.658Y74.71999
X100.62799Y82.804
X93.42801Y82.804
X56.388Y20.78401
X56.388Y27.98399
X103.33401Y82.804
X110.53399Y82.804
X53.34Y20.78401
X53.34Y27.98399
X41.08399Y52.8319
X33.08401Y52.8319
X40.17599Y36.068
X32.97601Y36.068
X32.004Y83.54601
X32.004Y81.04599
X54.14599Y87.376
X46.94601Y87.376
X32.512Y9.63201
X32.512Y7.13199
X44.15201Y51.562
X51.35199Y51.562
X118.872Y80.28399
X118.872Y82.78401
T04
X54.102Y77.724
X54.102Y67.564
X59.69Y17.78
X59.69Y27.94
T05
X90.678Y60.452
X93.218Y75.692
X98.29856Y75.69246
X103.37853Y75.69246
X108.45853Y75.69246
X113.53853Y75.69246
X118.61853Y75.69246
X123.69853Y75.69246
X126.238Y60.452
X121.15749Y60.45246
X116.07749Y60.45246
X110.99749Y60.45246
X105.91747Y60.45246
X100.83749Y60.45246
X95.75752Y60.45246
X93.218Y60.45197
X98.298Y60.45197
X103.378Y60.45197
X108.45797Y60.45197
X113.53797Y60.45197
X118.61797Y60.45197
X123.69797Y60.45197
X126.23803Y75.69197
X121.15805Y75.69197
X116.07805Y75.69197
X110.99805Y75.69197
X105.91805Y75.69197
X100.83805Y75.69197
X95.75808Y75.69197
X90.678Y75.692
X27.686Y56.13397
X30.226Y56.13397
X32.766Y56.13397
X35.30597Y56.13397
X37.84597Y56.13397
X40.38597Y56.13397
X42.92597Y56.13397
X45.46597Y56.13397
X45.46597Y33.27403
X42.92597Y33.27403
X40.38597Y33.27403
X37.84597Y33.27403
X35.30597Y33.27403
X32.766Y33.27403
X30.226Y33.27403
X27.686Y33.27403
T06
X81.76768Y66.25336
X79.26832Y66.25336
X76.66736Y66.25336
X74.168Y66.25336
X125.222Y23.114
X125.222Y20.574
X122.936Y80.518
X122.936Y83.058
X122.936Y85.598
X78.05205Y47.87899
X78.05205Y35.17901
X56.388Y48.006
X56.388Y45.466
X56.388Y42.926
X56.388Y40.386
X56.388Y37.846
X56.388Y35.306
X71.628Y35.306
X71.628Y37.846
X71.628Y40.386
X71.628Y42.926
X71.628Y45.466
X71.628Y48.006
T07
X-1.016Y86.868
X-1.016Y84.328
X-1.016Y6.35
X-1.016Y3.81
T08
X67.818Y54.864
X70.358Y54.864
X72.898Y54.864
X6.604Y48.76799
X6.604Y46.228
X6.604Y43.688
X6.604Y41.14801
X5.842Y84.328
X5.842Y86.868
X5.842Y3.81
X5.842Y6.35
X55.88Y15.748
X53.34Y15.748
X50.8Y15.748
X106.426Y17.04604
X106.426Y20.54616
X87.60196Y18.796
X84.10184Y18.796
X96.52Y17.04604
X96.52Y20.54616
X59.182Y54.87401
X59.182Y62.47399
X32.80207Y20.88007
X37.30193Y20.88007
X32.80207Y27.37993
X37.30219Y27.37993
X23.65807Y20.88007
X28.15793Y20.88007
X23.65807Y27.37993
X28.15819Y27.37993
X120.27009Y10.45393G85X120.27009Y11.25393
X115.57003Y10.45393G85X115.57003Y11.25393
X110.87001Y10.45393G85X110.87001Y11.25393
X45.466Y27.40396
X45.466Y23.90384
X114.55397Y21.85396
X114.55403Y16.75397
T09
X65.35801Y73.31601
X75.35799Y73.31601
X75.35799Y17.61599
X65.35801Y17.61599
T10
X48.768Y47.752
X48.768Y45.212
X48.768Y42.672
X48.768Y40.132
X104.902Y12.192
X104.902Y9.652
X104.902Y7.112
X104.902Y4.572
X10.414Y52.832
X10.414Y50.292
X10.414Y47.752
X10.414Y45.212
X10.414Y42.672
X10.414Y40.132
X10.414Y37.592
X-5.842Y83.566
X-5.842Y86.106
X-5.842Y88.646
X-5.842Y7.112
X-5.842Y4.572
X-5.842Y2.032
X36.9163Y84.074
X39.116Y85.344
X41.3157Y86.614
X36.9163Y6.858
X39.116Y5.588
X41.3157Y4.318
X42.926Y62.23
X45.466Y62.23
X48.006Y62.23
X42.926Y64.7954
X45.466Y64.7954
X48.006Y64.7954
X42.926Y67.3862
X45.466Y67.3862
X48.006Y67.3862
T11
X101.98098Y2.92101
X101.98098Y12.31899
X86.48702Y12.31899
X86.48702Y2.92101
X51.68898Y39.49701
X51.68898Y48.89499
X36.19502Y48.89499
X36.19502Y39.49701
X119.634Y16.764
X119.634Y21.84399
M30