G04 Layer: TopLayer*
G04 EasyEDA Pro v2.2.40.8, 2025-09-22 20:40:29*
G04 Gerber Generator version 0.3*
G04 Scale: 100 percent, Rotated: No, Reflected: No*
G04 Dimensions in millimeters*
G04 Leading zeros omitted, absolute positions, 4 integers and 5 decimals*
G04 Generated by one-click*
%FSLAX45Y45*%
%MOMM*%
%AMRect*21,1,$1,$2,0,0,$3*%
%ADD10C,0.508*%
%ADD11C,0.254*%
%ADD12R,1.6X1.6*%
%ADD13C,1.6*%
%ADD14R,2.0X2.0*%
%ADD15C,1.4*%
%ADD16R,1.8X1.8*%
%ADD17C,1.8095*%
%ADD18C,1.8*%
%ADD19O,3.0X2.0*%
%ADD20C,1.524*%
%ADD21C,1.5*%
%ADD22R,1.524X1.524*%
%ADD23C,1.651*%
%ADD24C,1.8796*%
%ADD25C,2.2*%
%ADD26R,3.0X2.0*%
%ADD27C,2.0*%
%ADD28R,2.0X1.5748*%
%ADD29O,2.0X3.0*%
%ADD30O,2.5X4.0*%
%ADD31O,4.0X2.5*%
%ADD32O,3.0X1.6*%
%ADD33R,1.7X2.0*%
%ADD34Rect,2.0X1.7X30.0*%
%ADD35Rect,2.0X1.7X150.0*%
%ADD36R,1.7X1.7*%
%ADD37C,1.7*%
%ADD38R,2.4X2.4*%
%ADD39C,2.4*%
%ADD40C,0.61*%
%ADD41C,0.762*%
%ADD42C,1.016*%
%ADD43C,0.381*%
%ADD44C,0.1778*%
G75*

G54D10*

G04 Copper Start*
G01X654969Y1777462D02*
G03X-131948Y1619527I1J-2039394D01*
G01X-131948Y2133193D01*
G03X-117833Y2147285I-368271J383031D01*
G03X43911Y2532986I-357695J376763D01*
G01X43916Y2556861D01*
G01X43916Y2556861D01*
G01X44332Y4504677D01*
G01X44332Y4504677D01*
G01X38378Y6463694D01*
G03X-108973Y6860058I-530598J28318D01*
G03X-131948Y6882577I-383247J-368047D01*
G01X-131948Y7385804D01*
G03X682519Y7216107I814469J1869698D01*
G01X688232Y7216115D01*
G03X787938Y7302524I-282J101055D01*
G03X824728Y7236185I101062J12676D01*
G03X897167Y7213674I64272J79015D01*
G03X2295225Y8047132I-147795J1837208D01*
G03X2311654Y8102600I-85425J55468D01*
G01X2311654Y8683804D01*
G02X2421922Y8883692I267347J-17123D01*
G03X2464031Y8964024I-59722J82508D01*
G03X2425391Y9046082I-101831J2176D01*
G01X2868141Y9046082D01*
G01X2589907Y8767848D01*
G03X2441572Y8667784I-24507J-123649D01*
G03X2542739Y8520199I123828J-23585D01*
G03X2565400Y8270145I22661J-124000D01*
G03X2588061Y8520199I0J126054D01*
G03X2689049Y8668706I-22661J124000D01*
G01X2967239Y8946896D01*
G01X4386168Y8946896D01*
G01X4570957Y8762107D01*
G03X4783739Y8648466I123649J-24507D01*
G03X4670099Y8861249I-89134J89134D01*
G01X4485266Y9046082D01*
G01X11962047Y9046082D01*
G02X12671511Y8771453I3433J-1044845D01*
G02X13006501Y8090604I-706032J-770215D01*
G01X13006500Y978582D01*
G02X12336703Y108002I-1017126J89595D01*
G03X12358043Y185407I-129714J77405D01*
G01X12358043Y285407D01*
G03X12055934Y285407I-151054J0D01*
G01X12055934Y185407D01*
G03X12128113Y56582I151054J0D01*
G02X11989374Y47112I-138739J1011595D01*
G02X11966994Y47357I0J1021066D01*
G01X11965903Y47369D01*
G01X10968333Y47369D01*
G03X11058045Y185407I-61342J138038D01*
G01X11058045Y285407D01*
G03X10755937Y285407I-151054J0D01*
G01X10755937Y185407D01*
G03X10845649Y47369I151054J0D01*
G01X2346817Y47370D01*
G03X2359084Y127584I-86217J54230D01*
G03X2308841Y191305I-98484J-25984D01*
G02X2268706Y232653I45175J84003D01*
G02X2259709Y289570I85310J42655D01*
G03X2260854Y304800I-100709J15230D01*
G01X2260854Y889000D01*
G03X2244425Y944468I-101854J0D01*
G03X846367Y1777926I-1545853J-1003751D01*
G03X748843Y1725284I-8167J-101526D01*
G03X660681Y1777454I-88444J-48885D01*
G01X654969Y1777462D01*
G01X528618Y4241801D02*
G03X610400Y3963747I81783J-127000D01*
G01X710400Y3963747D01*
G03X792182Y4241801I0J151054D01*
G03X843382Y4297154I-81783J127000D01*
G01X887461Y4297154D01*
G03X893397Y4297406I0J70104D01*
G03X959618Y4140200I148003J-30206D01*
G03X955434Y3888994I81782J-127000D01*
G01X941400Y3888994D01*
G03X890346Y3837940I0J-51054D01*
G01X890346Y3680460D01*
G03X941400Y3629406I51054J0D01*
G01X1141400Y3629406D01*
G03X1192454Y3680460I0J51054D01*
G01X1192454Y3837940D01*
G03X1141400Y3888994I-51054J0D01*
G01X1127366Y3888994D01*
G03X1123182Y4140200I-85966J124206D01*
G03X1181329Y4324096I-81782J127000D01*
G01X1244600Y4324096D01*
G03X1294171Y4344629I0J70104D01*
G01X1649771Y4700229D01*
G03X1670304Y4749800I-49571J49571D01*
G01X1670304Y4860529D01*
G03X1610122Y4983148I-70104J41671D01*
G03X1522107Y4878693I-9922J-80948D01*
G03X1420037Y4822485I-23507J-78093D01*
G01X1315856Y4718304D01*
G01X1181329Y4718304D01*
G03X1123182Y4902200I-139929J56896D01*
G03X1123182Y5156200I-81782J127000D01*
G03X1041400Y5434254I-81782J127000D01*
G03X959618Y5156200I0J-151054D01*
G03X959618Y4902200I81782J-127000D01*
G03X901255Y4718839I81782J-127000D01*
G01X864135Y4718839D01*
G03X832732Y4711412I0J-70104D01*
G03X792182Y4749799I-122332J-88612D01*
G03X710400Y5027853I-81783J127000D01*
G01X610400Y5027853D01*
G03X528618Y4749799I0J-151054D01*
G03X528618Y4495800I81783J-127000D01*
G03X528618Y4241801I81783J-127000D01*
G01X635000Y5113353D02*
G03X635000Y5355460I0J121054D01*
G03X635000Y5113353I0J-121054D01*
G01X635000Y5363340D02*
G03X635000Y5605447I0J121054D01*
G03X635000Y5363340I0J-121054D01*
G01X1707896Y5731271D02*
G03X1778000Y5608046I70104J-41671D01*
G03X1848104Y5731271I0J81554D01*
G01X1848104Y7176363D01*
G01X2820762Y8149020D01*
G03X2816668Y8396200I-26762J123180D01*
G03X2794000Y8646253I-22668J123999D01*
G03X2771332Y8396200I0J-126054D01*
G03X2684035Y8210578I22668J-123999D01*
G01X1728429Y7254972D01*
G03X1707896Y7205401I49571J-49571D01*
G01X1707896Y5731271D01*
G01X2032192Y5321200D02*
G03X2683500Y5321200I325654J0D01*
G03X2032192Y5321200I-325654J0D01*
G01X2032192Y3721200D02*
G03X2683500Y3721200I325654J0D01*
G03X2032192Y3721200I-325654J0D01*
G01X2214753Y2787993D02*
G01X2214753Y2687993D01*
G03X2516861Y2687993I151054J0D01*
G01X2516861Y2787993D01*
G03X2214753Y2787993I-151054J0D01*
G01X2214753Y2138007D02*
G01X2214753Y2038007D01*
G03X2516861Y2038007I151054J0D01*
G01X2516861Y2138007D01*
G03X2214753Y2138007I-151054J0D01*
G01X2616200Y370745D02*
G03X2638861Y620799I0J126054D01*
G03X2616200Y870853I-22661J124000D01*
G03X2593539Y620799I0J-126054D01*
G03X2616200Y370745I22661J-124000D01*
G01X3941140Y3707022D02*
G03X3928461Y3517666I76454J-100222D01*
G03X4117816Y3530346I89134J89134D01*
G01X4444743Y3530346D01*
G01X4444743Y3438951D01*
G03X4419597Y3409185I101854J-111549D01*
G03X4165597Y3409185I-127000J-81782D01*
G03X3911597Y3409185I-127000J-81782D01*
G03X3657597Y3409185I-127000J-81782D01*
G03X3403599Y3409187I-127000J-81782D01*
G03X3149600Y3409185I-126999J-81784D01*
G03X3092704Y3461204I-127000J-81782D01*
G01X3092704Y3806362D01*
G01X3652305Y4365963D01*
G03X3689867Y4502667I-20105J79037D01*
G03X3553163Y4465105I-57667J-57667D01*
G01X2973029Y3884971D01*
G03X2952496Y3835400I49571J-49571D01*
G01X2952496Y3461204D01*
G03X2895600Y3409185I70104J-133801D01*
G03X2617546Y3327403I-127000J-81782D01*
G03X2895600Y3245620I151054J0D01*
G03X3022600Y3176348I127000J81782D01*
G03X3149600Y3245620I0J151054D01*
G03X3403599Y3245618I127000J81782D01*
G03X3657597Y3245620I126999J81784D01*
G03X3911597Y3245620I127000J81782D01*
G03X4165597Y3245620I127000J81782D01*
G03X4419597Y3245620I127000J81782D01*
G03X4444743Y3215854I127000J81782D01*
G01X4444743Y2851943D01*
G03X4546615Y2589347I101862J-111542D01*
G03X4648451Y2851956I-10J151054D01*
G01X4648451Y3215854D01*
G03X4648451Y3438951I-101854J111549D01*
G01X4648451Y3818608D01*
G01X4728420Y3898576D01*
G03X4826800Y3862146I98381J114624D01*
G01X4926800Y3862146D01*
G03X5017845Y3892667I0J151054D01*
G01X5017845Y3849701D01*
G03X5068899Y3798647I51054J0D01*
G01X5268898Y3798647D01*
G03X5319952Y3849701I0J51054D01*
G01X5319952Y4049701D01*
G03X5268898Y4100755I-51054J0D01*
G01X5068899Y4100755D01*
G03X5051910Y4097845I0J-51054D01*
G03X5008582Y4140200I-125110J-84645D01*
G03X5008582Y4394200I-81782J127000D01*
G03X5038348Y4419346I-81782J127000D01*
G01X5080000Y4419346D01*
G03X5152022Y4449178I0J101854D01*
G01X5240920Y4538077D01*
G03X5270752Y4610098I-72022J72022D01*
G01X5270752Y4738479D01*
G03X5319952Y4789499I-1854J51020D01*
G01X5319952Y4876546D01*
G01X5461995Y4876546D01*
G03X5536456Y4673600I106805J-75946D01*
G03X5536456Y4419600I32344J-127000D01*
G03X5536456Y4165600I32344J-127000D01*
G03X5536456Y3911600I32344J-127000D01*
G03X5536456Y3657600I32344J-127000D01*
G03X5568800Y3399546I32344J-127000D01*
G01X5708800Y3399546D01*
G03X5741144Y3657600I0J131054D01*
G03X5741144Y3911600I-32344J127000D01*
G03X5741144Y4165600I-32344J127000D01*
G03X5741144Y4419600I-32344J127000D01*
G03X5741144Y4673600I-32344J127000D01*
G03X5815605Y4876546I-32344J127000D01*
G01X5861132Y4876546D01*
G01X6372139Y4365539D01*
G03X6426200Y4343146I54061J54061D01*
G01X6971886Y4343146D01*
G03X7060456Y4165600I120914J-50546D01*
G03X7060456Y3911600I32344J-127000D01*
G03X7060456Y3657600I32344J-127000D01*
G03X7092800Y3399546I32344J-127000D01*
G01X7232800Y3399546D01*
G03X7265144Y3657600I0J131054D01*
G03X7265144Y3911600I-32344J127000D01*
G03X7315268Y3936746I-32344J127000D01*
G01X8822411Y3936746D01*
G01X9321546Y3437611D01*
G01X9321546Y1930400D01*
G03X9351378Y1858378I101854J0D01*
G01X9500998Y1708759D01*
G03X9598860Y1563199I150997J-4159D01*
G03X9768363Y1608288I53135J141400D01*
G01X10526227Y1608288D01*
G03X10540741Y1593050I116368J96311D01*
G01X10540741Y1498605D01*
G03X10570573Y1426583I101854J0D01*
G01X10626903Y1370254D01*
G01X10340200Y1370254D01*
G03X10332455Y1369663I0J-51054D01*
G03X10298098Y1382953I-34357J-37764D01*
G01X10098099Y1382953D01*
G03X10047045Y1331899I0J-51054D01*
G01X10047045Y1131899D01*
G03X10096244Y1080879I51054J0D01*
G01X10096244Y1028702D01*
G03X10126077Y956680I101854J0D01*
G01X10189578Y893178D01*
G03X10261600Y863346I72022J72022D01*
G01X10328652Y863346D01*
G03X10358418Y838200I111549J101854D01*
G03X10358418Y584200I81782J-127000D01*
G03X10289800Y443155I81782J-127000D01*
G01X10098099Y443155D01*
G03X10047045Y392101I0J-51054D01*
G01X10047045Y192101D01*
G03X10098099Y141047I51054J0D01*
G01X10298098Y141047D01*
G03X10349152Y192101I0J51054D01*
G01X10349152Y336669D01*
G03X10440200Y306146I91048J120531D01*
G01X10540200Y306146D01*
G03X10621982Y584200I0J151054D01*
G03X10621982Y838200I-81782J127000D01*
G03X10651748Y863346I-81782J127000D01*
G01X10744200Y863346D01*
G03X10816222Y893178I0J101854D01*
G01X10892422Y969378D01*
G03X10911542Y995931I-72022J72022D01*
G03X11263055Y1010393I175459J14461D01*
G01X11263055Y1160393D01*
G03X10922254Y1222469I-176054J0D01*
G01X10922254Y1320800D01*
G03X10919060Y1346108I-101854J0D01*
G03X10924804Y1345946I5744J101692D01*
G01X11870411Y1345946D01*
G01X11917840Y1298517D01*
G03X11850950Y1160393I109164J-138124D01*
G01X11850950Y1010393D01*
G03X12202666Y998652I176054J0D01*
G01X12332871Y998652D01*
G01X12398302Y933221D01*
G03X12591041Y804410I123898J-23215D01*
G03X12550952Y1032737I-68841J105596D01*
G01X12432841Y1150847D01*
G03X12369800Y1176960I-63041J-63041D01*
G01X12202277Y1176960D01*
G03X12128858Y1303992I-175273J-16567D01*
G01X12128858Y1333396D01*
G03X12099026Y1405418I-101854J0D01*
G01X11999097Y1505346D01*
G01X12083400Y1505346D01*
G03X12134454Y1556400I0J51054D01*
G01X12134454Y1796400D01*
G03X12083400Y1847454I-51054J0D01*
G01X11843400Y1847454D01*
G03X11792346Y1796400I0J-51054D01*
G01X11792346Y1556400D01*
G03X11792794Y1549654I51054J0D01*
G01X11539102Y1549654D01*
G03X11541601Y1799440I-83702J125743D01*
G01X11546020Y1803859D01*
G03X11564693Y1848939I-45081J45081D01*
G01X11564693Y1884861D01*
G03X11546020Y1929941I-63754J0D01*
G01X11486315Y1989647D01*
G01X11486315Y1998153D01*
G01X11500481Y2012319D01*
G03X11518479Y2048151I-45081J45081D01*
G03X11468183Y2335915I-63079J137253D01*
G03X11370077Y2060755I-12783J-150512D01*
G03X11358807Y2024561I52484J-36194D01*
G01X11358807Y1963239D01*
G03X11377480Y1918159I63754J0D01*
G01X11428738Y1866900D01*
G01X11410319Y1848481D01*
G03X11392321Y1812649I45081J-45081D01*
G03X11371698Y1549654I63079J-137253D01*
G01X10966993Y1549654D01*
G01X10792360Y1724287D01*
G03X10604536Y1850780I-149766J-19688D01*
G01X10572455Y1882861D01*
G03X10518394Y1905254I-54061J-54061D01*
G01X10166268Y1905254D01*
G01X9906254Y2165268D01*
G01X9906254Y3479800D01*
G03X9883861Y3533861I-76454J0D01*
G01X8966626Y4451096D01*
G01X10337800Y4451096D01*
G03X10387371Y4471629I0J70104D01*
G01X11405154Y5489412D01*
G03X11914272Y5090928I278846J-168212D01*
G03X11515788Y5600046I-230272J230272D01*
G01X11833075Y5917333D01*
G03X11988800Y6012856I28725J127867D01*
G03X12242800Y6012856I127000J32344D01*
G03X12496800Y6012856I127000J32344D01*
G03X12754854Y6045200I127000J32344D01*
G03X12496800Y6077544I-131054J0D01*
G03X12242800Y6077544I-127000J-32344D01*
G03X11988800Y6077544I-127000J-32344D01*
G03X11734800Y6077544I-127000J-32344D01*
G03X11677904Y6155927I-127000J-32344D01*
G01X11677904Y6701962D01*
G01X11780305Y6804363D01*
G03X11817867Y6941067I-20105J79037D01*
G03X11681163Y6903505I-57667J-57667D01*
G01X11558229Y6780571D01*
G03X11537696Y6731000I49571J-49571D01*
G01X11537696Y6155927D01*
G03X11480800Y6077544I70104J-110727D01*
G03X11423904Y6155927I-127000J-32344D01*
G01X11423904Y6502400D01*
G03X11403371Y6551971I-70104J0D01*
G01X10742971Y7212371D01*
G03X10693400Y7232904I-49571J-49571D01*
G01X9046038Y7232904D01*
G01X8629904Y7649038D01*
G01X8629904Y8314929D01*
G03X8559800Y8438154I-70104J41671D01*
G03X8489696Y8314929I0J-81554D01*
G01X8489696Y7620000D01*
G03X8510229Y7570429I70104J0D01*
G01X8967429Y7113229D01*
G03X9017000Y7092696I49571J49571D01*
G01X10664362Y7092696D01*
G01X11283696Y6473362D01*
G01X11283696Y6155927D01*
G03X11226800Y6077544I70104J-110727D01*
G03X10972800Y6077544I-127000J-32344D01*
G03X10845800Y6176254I-127000J-32344D01*
G03X10718800Y6077544I0J-131054D01*
G03X10464800Y6077544I-127000J-32344D01*
G03X10406325Y6156911I-127000J-32344D01*
G03X10309075Y6173067I-68525J-111711D01*
G01X9904771Y6577371D01*
G03X9855200Y6597904I-49571J-49571D01*
G01X8303342Y6597904D01*
G01X8301436Y6599810D01*
G03X8201537Y6750156I-124668J25526D01*
G03X8051800Y6649348I-24769J-124820D01*
G03X7850589Y6727221I-124968J-24012D01*
G03X7868546Y6512215I76243J-101885D01*
G03X7877261Y6501597I58286J38953D01*
G01X7984154Y6394704D01*
G01X6912438Y6394704D01*
G01X6302037Y7005105D01*
G03X6215450Y7066204I-79037J-20105D01*
G03X6141611Y6990189I7550J-81204D01*
G03X6065596Y6916350I5189J-81389D01*
G03X6126695Y6829763I81204J-7550D01*
G01X6746158Y6210300D01*
G01X6676562Y6140704D01*
G01X6025130Y6140704D01*
G03X6035121Y6343036I-106930J106693D01*
G01X6176378Y6201778D01*
G03X6248400Y6171946I72022J72022D01*
G01X6527800Y6171946D01*
G03X6527800Y6375654I0J101854D01*
G01X6290589Y6375654D01*
G01X6117222Y6549022D01*
G03X5973178Y6404978I-72022J-72022D01*
G01X6013839Y6364317D01*
G03X5806251Y6348810I-95639J-116921D01*
G03X5811270Y6140704I111949J-101414D01*
G01X5236038Y6140704D01*
G01X5048504Y6328238D01*
G01X5048504Y6807200D01*
G03X5027971Y6856771I-70104J0D01*
G01X4951771Y6932971D01*
G03X4902200Y6953504I-49571J-49571D01*
G01X4437380Y6953504D01*
G03X4387809Y6932971I0J-70104D01*
G01X4329512Y6874674D01*
G01X4207600Y6874674D01*
G03X4156546Y6823620I0J-51054D01*
G01X4156546Y6653620D01*
G03X4182647Y6609080I51054J0D01*
G03X4156546Y6564540I24954J-44540D01*
G01X4156546Y6394540D01*
G03X4180504Y6351270I51054J0D01*
G03X4156546Y6308000I27096J-43270D01*
G01X4156546Y6138000D01*
G03X4207600Y6086946I51054J0D01*
G01X4377600Y6086946D01*
G03X4428654Y6138000I0J51054D01*
G01X4428654Y6155182D01*
G03X4606568Y6100875I117946J67818D01*
G03X4624029Y6071829I67032J20525D01*
G01X4751029Y5944829D01*
G03X4800600Y5924296I49571J49571D01*
G01X6731000Y5924296D01*
G03X6780571Y5944829I0J70104D01*
G01X6861638Y6025896D01*
G01X6991299Y6025896D01*
G03X7056806Y5792146I65507J-107696D01*
G03X7122313Y6025896I0J126054D01*
G01X7711287Y6025896D01*
G03X7776794Y5792146I65507J-107696D01*
G03X7842301Y6025896I0J126054D01*
G01X8936746Y6025896D01*
G01X8936746Y5965200D01*
G03X8987800Y5914146I51054J0D01*
G01X9091604Y5914146D01*
G01X8608870Y5431412D01*
G03X8571307Y5294707I20105J-79037D01*
G03X8708012Y5332270I57667J57667D01*
G01X9293075Y5917333D01*
G03X9390325Y5933489I28725J127867D01*
G03X9448800Y6012856I-68525J111711D01*
G03X9575800Y5914146I127000J32344D01*
G03X9702800Y6012856I0J131054D01*
G03X9956800Y6012856I127000J32344D01*
G03X10083800Y5914146I127000J32344D01*
G03X10210800Y6012856I0J131054D01*
G03X10364314Y5916856I127000J32344D01*
G01X9991262Y5543804D01*
G01X9973071Y5543804D01*
G03X9849846Y5473700I-41671J-70104D01*
G03X9973071Y5403596I81554J0D01*
G01X10020300Y5403596D01*
G03X10069871Y5424129I0J70104D01*
G01X10563075Y5917333D01*
G03X10718800Y6012856I28725J127867D01*
G03X10775696Y5934473I127000J32344D01*
G01X10775696Y5816600D01*
G03X10796229Y5767029I70104J0D01*
G01X10893763Y5669495D01*
G03X11030467Y5631933I79037J20105D01*
G03X10992905Y5768637I-57667J57667D01*
G01X10915904Y5845638D01*
G01X10915904Y5934473D01*
G03X10972800Y6012856I-70104J110727D01*
G03X11226800Y6012856I127000J32344D01*
G03X11480800Y6012856I127000J32344D01*
G03X11634314Y5916856I127000J32344D01*
G01X11488883Y5771425D01*
G03X11350963Y5735105I-58883J-56425D01*
G01X10283362Y4667504D01*
G01X8008658Y4667504D01*
G03X7880205Y4963953I-128453J120395D01*
G01X7730205Y4963953D01*
G03X7601752Y4667504I0J-176054D01*
G01X7547438Y4667504D01*
G01X7364771Y4850171D01*
G03X7348397Y4862346I-49571J-49571D01*
G03X7232800Y4931654I-115597J-61746D01*
G01X7092800Y4931654D01*
G03X7060456Y4673600I0J-131054D01*
G03X6971886Y4496054I32344J-127000D01*
G01X6457868Y4496054D01*
G01X5946861Y5007061D01*
G03X5892800Y5029454I-54061J-54061D01*
G01X5300680Y5029454D01*
G03X5268898Y5040553I-31782J-39955D01*
G01X5185347Y5040553D01*
G03X5135194Y5282254I-50153J115647D01*
G03X5085041Y5040553I0J-126054D01*
G01X5068899Y5040553D01*
G03X5017845Y4989499I0J-51054D01*
G01X5017845Y4926254D01*
G01X4754976Y4926254D01*
G01X4778461Y4949739D01*
G03X4800854Y5003800I-54061J54061D01*
G01X4800854Y5281155D01*
G03X4728153Y5391011I-76454J28388D01*
G01X4998505Y5661363D01*
G03X5036067Y5798067I-20105J79037D01*
G03X4899363Y5760505I-57667J-57667D01*
G01X4678320Y5539462D01*
G03X4624492Y5742818I-131723J73935D01*
G03X4419597Y5695180I-77894J-129421D01*
G03X4292597Y5764452I-127000J-81782D01*
G03X4165597Y5695180I0J-151054D01*
G03X3911597Y5695180I-127000J-81782D01*
G03X3657597Y5695180I-127000J-81782D01*
G03X3403599Y5695182I-127000J-81782D01*
G03X3149600Y5695180I-126999J-81784D01*
G03X2895600Y5695180I-127000J-81782D01*
G03X2617546Y5613397I-127000J-81782D01*
G03X2895600Y5531615I151054J0D01*
G03X3149600Y5531615I127000J81782D01*
G03X3403599Y5531613I127000J81782D01*
G03X3657597Y5531615I126999J81784D01*
G03X3911597Y5531615I127000J81782D01*
G03X4165597Y5531615I127000J81782D01*
G03X4211823Y5485754I127000J81782D01*
G01X4211233Y5485171D01*
G01X4137124Y5411062D01*
G03X4015730Y5190526I-28725J-127867D01*
G03X4236266Y5311920I92669J92669D01*
G01X4289842Y5365496D01*
G01X4665068Y5365496D01*
G03X4647946Y5281155I59332J-55953D01*
G01X4647946Y5035468D01*
G01X4461812Y4849334D01*
G03X4438133Y4717533I33988J-74134D01*
G03X4569934Y4741212I57667J57667D01*
G01X4675746Y4847024D01*
G01X4675746Y4675200D01*
G03X4717127Y4625071I51054J0D01*
G03X4745018Y4394200I109673J-103871D01*
G03X4715252Y4369054I81782J-127000D01*
G01X4241800Y4369054D01*
G03X4241800Y4165346I0J-101854D01*
G01X4715252Y4165346D01*
G03X4745018Y4140200I111549J101854D01*
G03X4715252Y4115054I81782J-127000D01*
G01X4699000Y4115054D01*
G03X4626978Y4085222I0J-101854D01*
G01X4474576Y3932819D01*
G03X4444743Y3860797I72022J-72022D01*
G01X4444743Y3683254D01*
G01X4117816Y3683254D01*
G03X4094048Y3707022I-100222J-76454D01*
G01X4094048Y4720006D01*
G03X4071655Y4774067I-76454J0D01*
G01X3902162Y4943560D01*
G03X3848101Y4965953I-54061J-54061D01*
G01X3770555Y4965953D01*
G01X3770555Y4989499D01*
G03X3719501Y5040553I-51054J0D01*
G01X3519502Y5040553D01*
G03X3468448Y4989499I0J-51054D01*
G01X3468448Y4789499D01*
G03X3519502Y4738445I51054J0D01*
G01X3719501Y4738445D01*
G03X3770555Y4789499I0J51054D01*
G01X3770555Y4813045D01*
G01X3816433Y4813045D01*
G01X3941140Y4688338D01*
G01X3941140Y3707022D01*
G01X2664739Y2138007D02*
G01X2664739Y2038007D01*
G03X2966847Y2038007I151054J0D01*
G01X2966847Y2138007D01*
G03X2664739Y2138007I-151054J0D01*
G01X2664765Y2787993D02*
G01X2664765Y2687993D01*
G03X2966873Y2687993I151054J0D01*
G01X2966873Y2787993D01*
G03X2664765Y2787993I-151054J0D01*
G01X2844800Y246747D02*
G03X2867468Y496800I0J126054D01*
G03X2844800Y746853I-22668J123999D01*
G03X2822132Y496800I0J-126054D01*
G03X2844800Y246747I22668J-123999D01*
G01X3200400Y7983553D02*
G03X3200400Y8225660I0J121054D01*
G03X3200400Y7983553I0J-121054D01*
G01X3200400Y8233540D02*
G03X3200400Y8475647I0J121054D01*
G03X3200400Y8233540I0J-121054D01*
G01X3129153Y2787993D02*
G01X3129153Y2687993D01*
G03X3431261Y2687993I151054J0D01*
G01X3431261Y2787993D01*
G03X3129153Y2787993I-151054J0D01*
G01X3129153Y2138007D02*
G01X3129153Y2038007D01*
G03X3431261Y2038007I151054J0D01*
G01X3431261Y2138007D01*
G03X3129153Y2138007I-151054J0D01*
G01X3251200Y592153D02*
G03X3251200Y834260I0J121054D01*
G03X3251200Y592153I0J-121054D01*
G01X3251200Y842140D02*
G03X3251200Y1084247I0J121054D01*
G03X3251200Y842140I0J-121054D01*
G01X3423660Y3606800D02*
G03X3171552Y3606800I-126054J0D01*
G03X3423660Y3606800I126054J0D01*
G01X3177347Y5283195D02*
G03X3439455Y5283195I131054J0D01*
G03X3177347Y5283195I-131054J0D01*
G01X3519502Y4100755D02*
G03X3468448Y4049701I0J-51054D01*
G01X3468448Y3849701D01*
G03X3519502Y3798647I51054J0D01*
G01X3719501Y3798647D01*
G03X3770555Y3849701I0J51054D01*
G01X3770555Y4049701D01*
G03X3719501Y4100755I-51054J0D01*
G01X3519502Y4100755D01*
G01X3759200Y6366784D02*
G03X3835654Y6476725I0J81554D01*
G01X3835654Y7537532D01*
G01X4194261Y7896139D01*
G03X4216654Y7950200I-54061J54061D01*
G01X4216654Y8536588D01*
G03X4205376Y8793196I-85084J124812D01*
G03X3980694Y8668725I-73806J-131796D01*
G03X3765439Y8572534I-69094J-134325D01*
G03X3710205Y8575226I-29706J-41522D01*
G01X3537000Y8475226D01*
G03X3518313Y8405485I25527J-44214D01*
G01X3603313Y8258261D01*
G03X3673054Y8239574I44214J25527D01*
G01X3846259Y8339574D01*
G03X3871544Y8388754I-25527J44214D01*
G03X4062476Y8527075I40056J145646D01*
G01X4063746Y8526429D01*
G01X4063746Y7981868D01*
G01X3705139Y7623261D01*
G03X3682746Y7569200I54061J-54061D01*
G01X3682746Y6476725D01*
G03X3759200Y6366784I76454J-28388D01*
G01X5517476Y2044198D02*
G01X5353132Y1879854D01*
G01X4902200Y1879854D01*
G03X4848139Y1857461I0J-76454D01*
G01X4670339Y1679661D01*
G03X4647946Y1625600I54061J-54061D01*
G01X4647946Y1403268D01*
G01X3949659Y704981D01*
G03X3871544Y704446I-38059J-146181D01*
G03X3846259Y753626I-50812J4966D01*
G01X3673054Y853626D01*
G03X3603313Y834939I-25527J-44214D01*
G01X3518313Y687715D01*
G03X3537000Y617974I44214J-25527D01*
G01X3710205Y517974D01*
G03X3765439Y520666I25527J44214D01*
G03X3980694Y424475I146161J38134D01*
G03X4262387Y356273I150876J7325D01*
G03X4062476Y566125I-130817J75527D01*
G03X4057781Y596859I-150876J-7325D01*
G01X4778461Y1317539D01*
G03X4800854Y1371600I-54061J54061D01*
G01X4800854Y1593932D01*
G01X4933868Y1726946D01*
G01X5384800Y1726946D01*
G03X5438861Y1749339I0J76454D01*
G01X5641913Y1952390D01*
G03X5762449Y2102913I-3113J126016D01*
G01X6078632Y2419096D01*
G01X7620000Y2419096D01*
G03X7669571Y2439629I0J70104D01*
G01X8812571Y3582629D01*
G03X8833104Y3632200I-49571J49571D01*
G01X8833104Y3717529D01*
G03X8763000Y3840754I-70104J41671D01*
G03X8692896Y3717529I0J-81554D01*
G01X8692896Y3661238D01*
G01X7590962Y2559304D01*
G01X6049594Y2559304D01*
G03X6000023Y2538771I0J-70104D01*
G01X5663307Y2202055D01*
G03X5517476Y2044198I-24507J-123649D01*
G01X3579139Y2138007D02*
G01X3579139Y2038007D01*
G03X3881247Y2038007I151054J0D01*
G01X3881247Y2138007D01*
G03X3579139Y2138007I-151054J0D01*
G01X3579165Y2787993D02*
G01X3579165Y2687993D01*
G03X3881273Y2687993I151054J0D01*
G01X3881273Y2787993D01*
G03X3579165Y2787993I-151054J0D01*
G01X4289152Y5156200D02*
G03X4541260Y5156200I126054J0D01*
G03X4289152Y5156200I-126054J0D01*
G01X4395551Y2390389D02*
G03X4697659Y2390389I151054J0D01*
G03X4395551Y2390389I-151054J0D01*
G01X5718638Y1289304D02*
G01X5573443Y1434499D01*
G03X5711200Y1643488I14557J140301D01*
G03X5461000Y1636177I-123200J-68688D01*
G03X5221054Y1659295I-127000J-61377D01*
G01X5221054Y1664800D01*
G03X5170000Y1715854I-51054J0D01*
G01X4990000Y1715854D01*
G03X4938946Y1664800I0J-51054D01*
G01X4938946Y1484800D01*
G03X4990000Y1433746I51054J0D01*
G01X5170000Y1433746D01*
G03X5221054Y1484800I0J51054D01*
G01X5221054Y1490305D01*
G03X5370978Y1438680I112946J84495D01*
G01X5640029Y1169629D01*
G03X5689600Y1149096I49571J49571D01*
G01X5952729Y1149096D01*
G03X6075954Y1219200I41671J70104D01*
G03X5952729Y1289304I-81554J0D01*
G01X5718638Y1289304D01*
G01X5334000Y2672340D02*
G03X5334000Y2924448I0J126054D01*
G03X5334000Y2672340I0J-126054D01*
G01X5334000Y1952352D02*
G03X5334000Y2204460I0J126054D01*
G03X5334000Y1952352I0J-126054D01*
G01X5410200Y7917434D02*
G03X5410200Y7627366I0J-145034D01*
G03X5410200Y7917434I0J145034D01*
G01X5410200Y6901434D02*
G03X5410200Y6611366I0J-145034D01*
G03X5410200Y6901434I0J145034D01*
G01X5540648Y8737600D02*
G03X5288540Y8737600I-126054J0D01*
G03X5540648Y8737600I126054J0D01*
G01X5463837Y5354105D02*
G03X5327133Y5391667I-79037J-20105D01*
G03X5364695Y5254963I57667J-57667D01*
G01X5513029Y5106629D01*
G03X5562600Y5086096I49571J49571D01*
G01X7964475Y5086096D01*
G03X8087700Y5156200I41671J70104D01*
G03X7964475Y5226304I-81554J0D01*
G01X5591638Y5226304D01*
G01X5463837Y5354105D01*
G01X5638800Y2672340D02*
G03X5638800Y2924448I0J126054D01*
G03X5638800Y2672340I0J-126054D01*
G01X5765800Y7345940D02*
G03X5765800Y7598048I0J126054D01*
G03X5765800Y7345940I0J-126054D01*
G01X5765800Y6625952D02*
G03X5765800Y6878060I0J126054D01*
G03X5765800Y6625952I0J-126054D01*
G01X6640746Y5410949D02*
G01X6640746Y5396400D01*
G03X6691800Y5345346I51054J0D01*
G01X6871800Y5345346D01*
G03X6922854Y5396400I0J51054D01*
G01X6922854Y5401905D01*
G03X7162800Y5425023I112946J84495D01*
G03X7430854Y5486400I127000J61377D01*
G03X7162800Y5547777I-141054J0D01*
G03X6922854Y5570895I-127000J-61377D01*
G01X6922854Y5576400D01*
G03X6871800Y5627454I-51054J0D01*
G01X6691800Y5627454D01*
G03X6640746Y5576400I0J-51054D01*
G01X6640746Y5563857D01*
G01X6048477Y5563857D01*
G03X5767146Y5487403I-130277J-76454D01*
G03X6048477Y5410949I151054J0D01*
G01X6640746Y5410949D01*
G01X5969000Y2648966D02*
G03X5969000Y2939034I0J145034D01*
G03X5969000Y2648966I0J-145034D01*
G01X5969000Y1632966D02*
G03X5969000Y1923034I0J145034D01*
G03X5969000Y1632966I0J-145034D01*
G01X5934748Y8356600D02*
G03X6336856Y8356600I201054J0D01*
G03X5934748Y8356600I-201054J0D01*
G01X5934748Y736600D02*
G03X6336856Y736600I201054J0D01*
G03X5934748Y736600I-201054J0D01*
G01X6535801Y7492662D02*
G03X6535801Y7170554I0J-161054D01*
G03X6535801Y7492662I0J161054D01*
G01X6535801Y1600538D02*
G03X6535801Y1922646I0J161054D01*
G03X6535801Y1600538I0J-161054D01*
G01X6764353Y2184400D02*
G03X7006460Y2184400I121054J0D01*
G03X6764353Y2184400I-121054J0D01*
G01X7082660Y6985000D02*
G03X6840553Y6985000I-121054J0D01*
G03X7082660Y6985000I121054J0D01*
G01X7014340Y2184400D02*
G03X7256447Y2184400I121054J0D01*
G03X7014340Y2184400I-121054J0D01*
G01X7332647Y6985000D02*
G03X7090540Y6985000I-121054J0D01*
G03X7332647Y6985000I121054J0D01*
G01X7793990Y6625336D02*
G03X7541768Y6649348I-127254J0D01*
G03X7289546Y6625336I-124968J-24012D01*
G03X7541768Y6601324I127254J0D01*
G03X7793990Y6625336I124968J24012D01*
G01X7535799Y7492662D02*
G03X7535799Y7170554I0J-161054D01*
G03X7535799Y7492662I0J161054D01*
G01X7535799Y1600538D02*
G03X7535799Y1922646I0J161054D01*
G03X7535799Y1600538I0J-161054D01*
G01X7543800Y2362454D02*
G03X7543800Y2158746I0J-101854D01*
G01X7696200Y2158746D01*
G03X7768222Y2188578I0J101854D01*
G01X7971422Y2391778D01*
G03X7827378Y2535822I-72022J72022D01*
G01X7654011Y2362454D01*
G01X7543800Y2362454D01*
G01X7730205Y3341847D02*
G01X7880205Y3341847D01*
G03X7880205Y3693955I0J176054D01*
G01X7730205Y3693955D01*
G03X7730205Y3341847I0J-176054D01*
G01X7696200Y5664454D02*
G03X7696200Y5460746I0J-101854D01*
G01X7908011Y5460746D01*
G01X8259178Y5109578D01*
G03X8403222Y5253622I72022J72022D01*
G01X8022222Y5634622D01*
G03X7950200Y5664454I-72022J-72022D01*
G01X7696200Y5664454D01*
G01X7734744Y8356600D02*
G03X8136852Y8356600I201054J0D01*
G03X7734744Y8356600I-201054J0D01*
G01X7734744Y736600D02*
G03X8136852Y736600I201054J0D01*
G03X7734744Y736600I-201054J0D01*
G01X8433054Y1730281D02*
G03X8505958Y1996409I-22865J149313D01*
G03X8259234Y1872684I-95785J-116855D01*
G03X8229346Y1800606I71966J-72078D01*
G01X8229346Y1092200D01*
G03X8259178Y1020178I101854J0D01*
G01X8546848Y732509D01*
G01X8546848Y443121D01*
G03X8497648Y392101I1854J-51020D01*
G01X8497648Y192101D01*
G03X8548702Y141047I51054J0D01*
G01X8748701Y141047D01*
G03X8799755Y192101I0J51054D01*
G01X8799755Y392101D01*
G03X8750556Y443121I-51054J0D01*
G01X8750556Y774698D01*
G03X8720723Y846720I-101854J0D01*
G01X8433054Y1134389D01*
G01X8433054Y1730281D01*
G01X8548702Y1382953D02*
G03X8497648Y1331899I0J-51054D01*
G01X8497648Y1131899D01*
G03X8548702Y1080845I51054J0D01*
G01X8748701Y1080845D01*
G03X8799755Y1131899I0J51054D01*
G01X8799755Y1331899D01*
G03X8748701Y1382953I-51054J0D01*
G01X8548702Y1382953D01*
G01X8760201Y2030649D02*
G03X8760201Y1728541I0J-151054D01*
G03X8760201Y2030649I0J151054D01*
G01X8965203Y3200956D02*
G03X8965203Y2869848I0J-165554D01*
G03X8965203Y3200956I0J165554D01*
G01X8966200Y7907353D02*
G03X8966200Y8149460I0J121054D01*
G03X8966200Y7907353I0J-121054D01*
G01X8966200Y8157340D02*
G03X8966200Y8399447I0J121054D01*
G03X8966200Y8157340I0J-121054D01*
G01X9219946Y7651667D02*
G03X9198854Y7614580I101854J-82467D01*
G01X9198854Y7649200D01*
G03X9147800Y7700254I-51054J0D01*
G01X8987800Y7700254D01*
G03X8936746Y7649200I0J-51054D01*
G01X8936746Y7489200D01*
G03X8987800Y7438146I51054J0D01*
G01X9147800Y7438146D01*
G03X9198854Y7489200I0J51054D01*
G01X9198854Y7523820D01*
G03X9328626Y7438324I122946J45380D01*
G03X9448800Y7536856I-6826J130876D01*
G03X9702800Y7536856I127000J32344D01*
G03X9956800Y7536856I127000J32344D01*
G03X10210800Y7536856I127000J32344D01*
G03X10464800Y7536856I127000J32344D01*
G03X10718800Y7536856I127000J32344D01*
G03X10972800Y7536856I127000J32344D01*
G03X11226800Y7536856I127000J32344D01*
G03X11480800Y7536856I127000J32344D01*
G03X11734800Y7536856I127000J32344D01*
G03X11988800Y7536856I127000J32344D01*
G03X12242800Y7536856I127000J32344D01*
G03X12496800Y7536856I127000J32344D01*
G03X12754854Y7569200I127000J32344D01*
G03X12496800Y7601544I-131054J0D01*
G03X12242800Y7601544I-127000J-32344D01*
G03X11988800Y7601544I-127000J-32344D01*
G03X11734800Y7601544I-127000J-32344D01*
G03X11480800Y7601544I-127000J-32344D01*
G03X11226800Y7601544I-127000J-32344D01*
G03X10972800Y7601544I-127000J-32344D01*
G03X10718800Y7601544I-127000J-32344D01*
G03X10464800Y7601544I-127000J-32344D01*
G03X10210800Y7601544I-127000J-32344D01*
G03X9956800Y7601544I-127000J-32344D01*
G03X9702800Y7601544I-127000J-32344D01*
G03X9448800Y7601544I-127000J-32344D01*
G03X9423654Y7651667I-127000J-32344D01*
G01X9423654Y7730211D01*
G01X9489449Y7796006D01*
G03X9673452Y7900852I62958J103394D01*
G03X9486986Y8001254I-121045J-1452D01*
G01X9448800Y8001254D01*
G03X9376778Y7971422I0J-101854D01*
G01X9249778Y7844422D01*
G03X9219946Y7772400I72022J-72022D01*
G01X9219946Y7651667D01*
G01X9468860Y8280400D02*
G03X9216752Y8280400I-126054J0D01*
G03X9468860Y8280400I126054J0D01*
G01X9681340Y7899400D02*
G03X9923447Y7899400I121054J0D01*
G03X9681340Y7899400I-121054J0D01*
G01X9889344Y8712200D02*
G03X10141452Y8712200I126054J0D01*
G03X9889344Y8712200I-126054J0D01*
G01X10188848Y8280400D02*
G03X9936740Y8280400I-126054J0D01*
G03X10188848Y8280400I126054J0D01*
G01X9953352Y7899400D02*
G03X10205460Y7899400I126054J0D01*
G03X9953352Y7899400I-126054J0D01*
G01X10313200Y5435952D02*
G03X10313200Y5104844I0J-165554D01*
G03X10313200Y5435952I0J165554D01*
G01X10207352Y8280400D02*
G03X10459460Y8280400I126054J0D01*
G03X10207352Y8280400I-126054J0D01*
G01X10229348Y8712200D02*
G03X10481456Y8712200I126054J0D01*
G03X10229348Y8712200I-126054J0D01*
G01X10793649Y2054611D02*
G03X10491541Y2054611I-151054J0D01*
G03X10793649Y2054611I151054J0D01*
G01X10673340Y7899400D02*
G03X10925448Y7899400I126054J0D01*
G03X10673340Y7899400I-126054J0D01*
G01X10927340Y8280400D02*
G03X11179448Y8280400I126054J0D01*
G03X10927340Y8280400I-126054J0D01*
G01X11353800Y7907353D02*
G03X11353800Y8149460I0J121054D01*
G03X11353800Y7907353I0J-121054D01*
G01X11353800Y8157340D02*
G03X11353800Y8399447I0J121054D01*
G03X11353800Y8157340I0J-121054D01*
G01X11358346Y3721200D02*
G03X12009654Y3721200I325654J0D01*
G03X11358346Y3721200I-325654J0D01*
G01X11733057Y1010393D02*
G01X11733057Y1160393D01*
G03X11380949Y1160393I-176054J0D01*
G01X11380949Y1010393D01*
G03X11733057Y1010393I176054J0D01*
G01X11496643Y3035402D02*
G03X11827751Y3035402I165554J0D01*
G03X11496643Y3035402I-165554J0D01*
G01X11801602Y7942809D02*
G03X12005481Y8002644I85598J85598D01*
G01X12206783Y8203946D01*
G01X12217315Y8203946D01*
G03X12282241Y8179054I76285J101854D01*
G01X12217400Y8179054D01*
G03X12166346Y8128000I0J-51054D01*
G01X12166346Y7975600D01*
G03X12217400Y7924546I51054J0D01*
G01X12369800Y7924546D01*
G03X12420854Y7975600I0J51054D01*
G01X12420854Y8128000D01*
G03X12369800Y8179054I-51054J0D01*
G01X12304959Y8179054D01*
G03X12420843Y8307466I-11359J126746D01*
G03X12301636Y8432800I-127243J-1666D01*
G03X12293600Y8687054I-8036J127000D01*
G03X12285564Y8432800I0J-127254D01*
G03X12217315Y8407654I8036J-127000D01*
G01X12164593Y8407654D01*
G03X12092572Y8377822I0J-101854D01*
G01X12007410Y8292660D01*
G03X11801602Y8363991I-120210J-14267D01*
G03X11872933Y8158183I85598J-85598D01*
G01X11861437Y8146687D01*
G03X11801602Y7942809I25763J-118281D01*
G01X11963400Y2013345D02*
G03X11963400Y2355453I0J171054D01*
G03X11963400Y2013345I0J-171054D01*
G01X12433046Y1966597D02*
G01X12433046Y1719107D01*
G03X12522200Y1503940I89154J-89113D01*
G03X12611354Y1719107I0J126054D01*
G01X12611354Y1966597D01*
G03X12530236Y2184400I-89154J90803D01*
G03X12522200Y2438654I-8036J127000D01*
G03X12514164Y2184400I0J-127254D01*
G03X12433046Y1966597I8036J-127000D01*
G01X-131948Y7286988D02*
G01X-62051Y7356886D01*
G01X-131948Y7143304D02*
G01X43541Y7318794D01*
G01X-131948Y6999620D02*
G01X154168Y7285737D01*
G01X-118327Y6869557D02*
G01X270315Y7258199D01*
G01X-53062Y6791138D02*
G01X392617Y7236817D01*
G01X-2448Y6698069D02*
G01X521924Y7222440D01*
G01X30512Y6587344D02*
G01X659406Y7216238D01*
G01X2453835Y9010667D02*
G01X2489250Y9046082D01*
G01X38415Y6451563D02*
G01X823801Y7236949D01*
G01X2319306Y8732454D02*
G01X2632934Y9046082D01*
G01X38851Y6308315D02*
G01X949132Y7218596D01*
G01X2311654Y8581118D02*
G01X2776618Y9046082D01*
G01X39286Y6165066D02*
G01X1119506Y7245286D01*
G01X2311654Y8437434D02*
G01X2455927Y8581707D01*
G01X39721Y6021817D02*
G01X1314379Y7296475D01*
G01X2311654Y8293750D02*
G01X2442612Y8424708D01*
G01X2536890Y8518986D02*
G01X2538872Y8520968D01*
G01X40157Y5878568D02*
G01X1554453Y7392865D01*
G01X2311654Y8150066D02*
G01X2472541Y8310953D01*
G01X2650646Y8489057D02*
G01X2668634Y8507046D01*
G01X2807153Y8645565D02*
G01X3108484Y8946896D01*
G01X40592Y5735320D02*
G01X2575851Y8270579D01*
G01X2691020Y8385748D02*
G01X2722002Y8416730D01*
G01X2897469Y8592197D02*
G01X3252168Y8946896D01*
G01X41027Y5592071D02*
G01X2676226Y8227269D01*
G01X2838932Y8389975D02*
G01X2864996Y8416039D01*
G01X2898159Y8449203D02*
G01X3395852Y8946896D01*
G01X41463Y5448822D02*
G01X1707896Y7115255D01*
G01X2911214Y8318574D02*
G01X3539537Y8946896D01*
G01X41898Y5305573D02*
G01X1707896Y6971571D01*
G01X1848104Y7111779D02*
G01X3079853Y8343528D01*
G01X3211465Y8475140D02*
G01X3683221Y8946896D01*
G01X42333Y5162325D02*
G01X1707896Y6827887D01*
G01X1848104Y6968095D02*
G01X3133629Y8253620D01*
G01X3301373Y8421365D02*
G01X3826905Y8946896D01*
G01X42769Y5019076D02*
G01X514095Y5490403D01*
G01X628991Y5605298D02*
G01X1707896Y6684203D01*
G01X1848104Y6824411D02*
G01X3086713Y8063021D01*
G01X3241986Y8218293D02*
G01X3970589Y8946896D01*
G01X43204Y4875827D02*
G01X558199Y5390822D01*
G01X728571Y5561195D02*
G01X1707896Y6540519D01*
G01X1848104Y6680727D02*
G01X3158436Y7991059D01*
G01X3313948Y8146571D02*
G01X3538279Y8370902D01*
G01X3747958Y8580581D02*
G01X3786633Y8619256D01*
G01X3826744Y8659367D02*
G01X4114273Y8946896D01*
G01X43640Y4732578D02*
G01X517275Y5206214D01*
G01X663193Y5352132D02*
G01X685384Y5374323D01*
G01X745070Y5434009D02*
G01X1707896Y6396835D01*
G01X1848104Y6537043D02*
G01X3590871Y8279810D01*
G01X3980094Y8669033D02*
G01X3980744Y8669683D01*
G01X4123288Y8812227D02*
G01X4257957Y8946896D01*
G01X44075Y4589330D02*
G01X580873Y5126128D01*
G01X743279Y5288534D02*
G01X1707896Y6253151D01*
G01X1848104Y6393359D02*
G01X3723368Y8268623D01*
G01X4230390Y8775645D02*
G01X4393904Y8939159D01*
G01X4493046Y9038301D02*
G01X4500827Y9046082D01*
G01X44306Y4445877D02*
G01X460105Y4861676D01*
G01X626283Y5027853D02*
G01X890613Y5292184D01*
G01X1032416Y5433987D02*
G01X1707896Y6109467D01*
G01X1848104Y6249675D02*
G01X4063746Y8465317D01*
G01X4281117Y8682688D02*
G01X4465747Y8867317D01*
G01X4564889Y8966459D02*
G01X4644511Y9046082D01*
G01X44245Y4302132D02*
G01X507930Y4765816D01*
G01X761177Y5019063D02*
G01X926849Y5184735D01*
G01X1139865Y5397751D02*
G01X1707896Y5965783D01*
G01X1848104Y6105991D02*
G01X4063746Y8321633D01*
G01X4216654Y8474541D02*
G01X4537589Y8795475D01*
G01X4636731Y8894617D02*
G01X4788195Y9046082D01*
G01X44190Y4158393D02*
G01X465596Y4579799D01*
G01X840072Y4954275D02*
G01X892093Y5006295D01*
G01X1190863Y5305066D02*
G01X1707896Y5822099D01*
G01X1848104Y5962307D02*
G01X4063746Y8177949D01*
G01X4216654Y8330857D02*
G01X4577288Y8691490D01*
G01X4740715Y8854918D02*
G01X4931879Y9046082D01*
G01X44140Y4014658D02*
G01X491687Y4462206D01*
G01X516995Y4487513D02*
G01X526602Y4497121D01*
G01X850959Y4821477D02*
G01X943580Y4914098D01*
G01X1156502Y5127020D02*
G01X1698966Y5669484D01*
G01X1848104Y5818622D02*
G01X4063746Y8034264D01*
G01X4216654Y8187172D02*
G01X4649409Y8619927D01*
G01X4812278Y8782797D02*
G01X5075563Y9046082D01*
G01X44094Y3870929D02*
G01X475001Y4301835D01*
G01X892004Y4718839D02*
G01X898733Y4725567D01*
G01X1192105Y5018940D02*
G01X1781277Y5608112D01*
G01X1859488Y5686323D02*
G01X3682746Y7509580D01*
G01X4216654Y8043488D02*
G01X5219247Y9046082D01*
G01X44054Y3727205D02*
G01X462538Y4145688D01*
G01X1170491Y4853641D02*
G01X3682746Y7365896D01*
G01X3835654Y7518804D02*
G01X5362932Y9046082D01*
G01X44019Y3583485D02*
G01X487505Y4026971D01*
G01X1182921Y4722387D02*
G01X3682746Y7222212D01*
G01X3835654Y7375120D02*
G01X5506616Y9046082D01*
G01X43989Y3439771D02*
G01X572736Y3968518D01*
G01X821434Y4217216D02*
G01X891716Y4287498D01*
G01X1485276Y4881058D02*
G01X1519742Y4915524D01*
G01X1586876Y4982658D02*
G01X2062407Y5458189D01*
G01X2220857Y5616640D02*
G01X3682746Y7078528D01*
G01X3835654Y7231436D02*
G01X5296838Y8692620D01*
G01X5459574Y8855356D02*
G01X5650300Y9046082D01*
G01X43964Y3296062D02*
G01X711654Y3963752D01*
G01X861449Y4113547D02*
G01X922252Y4174350D01*
G01X1677141Y4929239D02*
G01X2034081Y5286179D01*
G01X2392867Y5644965D02*
G01X3682746Y6934844D01*
G01X3835654Y7087752D02*
G01X5368269Y8620367D01*
G01X5531827Y8783925D02*
G01X5793984Y9046082D01*
G01X43944Y3152358D02*
G01X890978Y3999392D01*
G01X1189333Y4297747D02*
G01X1215682Y4324096D01*
G01X1670304Y4778718D02*
G01X2066765Y5175179D01*
G01X2503867Y5612281D02*
G01X3682746Y6791160D01*
G01X3835654Y6944068D02*
G01X5937668Y9046082D01*
G01X43929Y3008659D02*
G01X895439Y3860169D01*
G01X919171Y3883901D02*
G01X938182Y3902912D01*
G01X1151688Y4116418D02*
G01X2126887Y5091617D01*
G01X2587429Y5552159D02*
G01X2620244Y5584974D01*
G01X2797023Y5761753D02*
G01X3682746Y6647476D01*
G01X3835654Y6800384D02*
G01X6081352Y9046082D01*
G01X43920Y2864965D02*
G01X890346Y3711392D01*
G01X1192454Y4013499D02*
G01X2209997Y5031043D01*
G01X2648003Y5469049D02*
G01X2674327Y5495372D01*
G01X2886625Y5707671D02*
G01X3682746Y6503792D01*
G01X3835654Y6656700D02*
G01X6225036Y9046082D01*
G01X43915Y2721277D02*
G01X952044Y3629406D01*
G01X1185793Y3863155D02*
G01X2320350Y4997712D01*
G01X2681334Y5358696D02*
G01X2785986Y5463347D01*
G01X3076967Y5754329D02*
G01X3707722Y6385084D01*
G01X3835654Y6513016D02*
G01X4157889Y6835250D01*
G01X4195970Y6873331D02*
G01X6368720Y9046082D01*
G01X43915Y2577593D02*
G01X1095729Y3629406D01*
G01X1192454Y3726132D02*
G01X2489800Y5023477D01*
G01X2655569Y5189246D02*
G01X2948238Y5481915D01*
G01X3219611Y5753289D02*
G01X4156546Y6690224D01*
G01X4416710Y6950387D02*
G01X5268191Y7801869D01*
G01X5380731Y7914409D02*
G01X6512404Y9046082D01*
G01X34326Y2424319D02*
G01X3086559Y5476552D01*
G01X3353449Y5743442D02*
G01X4156546Y6546540D01*
G01X4563511Y6953504D02*
G01X5294695Y7684688D01*
G01X5497912Y7887905D02*
G01X5936948Y8326941D01*
G01X6165461Y8555454D02*
G01X6656088Y9046082D01*
G01X-131948Y2114361D02*
G01X3225089Y5471398D01*
G01X3517580Y5763890D02*
G01X4156546Y6402855D01*
G01X4707195Y6953504D02*
G01X5383530Y7629839D01*
G01X5552761Y7799070D02*
G01X5981453Y8227762D01*
G01X6264639Y8510949D02*
G01X6799773Y9046082D01*
G01X-131948Y1970677D02*
G01X3177386Y5280011D01*
G01X3311585Y5414210D02*
G01X3414334Y5516960D01*
G01X3627035Y5729660D02*
G01X4156546Y6259171D01*
G01X4850879Y6953504D02*
G01X6065582Y8168207D01*
G01X6324195Y8426820D02*
G01X6943457Y9046082D01*
G01X-131948Y1826993D02*
G01X3223998Y5182939D01*
G01X3408657Y5367598D02*
G01X3505502Y5464443D01*
G01X3804229Y5763170D02*
G01X4160169Y6119110D01*
G01X4962900Y6921842D02*
G01X6211331Y8170272D01*
G01X6322129Y8281071D02*
G01X7087141Y9046082D01*
G01X-131948Y1683309D02*
G01X2087497Y3902754D01*
G01X2176292Y3991549D02*
G01X3341004Y5156261D01*
G01X3435334Y5250591D02*
G01X3684772Y5500029D01*
G01X3897965Y5713222D02*
G01X4271689Y6086946D01*
G01X5034278Y6849535D02*
G01X5640762Y7456019D01*
G01X5781775Y7597032D02*
G01X7230825Y9046082D01*
G01X-3254Y1668319D02*
G01X2032636Y3704209D01*
G01X2374838Y4046410D02*
G01X3790902Y5462475D01*
G01X4085434Y5757007D02*
G01X4452839Y6124412D01*
G01X5048504Y6720077D02*
G01X5695674Y7367247D01*
G01X5870547Y7542120D02*
G01X7374509Y9046082D01*
G01X197632Y1725521D02*
G01X2060504Y3588392D01*
G01X2490654Y4018543D02*
G01X3468983Y4996872D01*
G01X3512129Y5040018D02*
G01X3957849Y5485738D01*
G01X4215268Y5743157D02*
G01X4559688Y6087577D01*
G01X5048504Y6576393D02*
G01X5271766Y6799655D01*
G01X5366945Y6894834D02*
G01X7518193Y9046082D01*
G01X373779Y1757983D02*
G01X2117385Y3501590D01*
G01X2577457Y3961661D02*
G01X3468448Y4852652D01*
G01X3656348Y5040553D02*
G01X4085656Y5469861D01*
G01X4362893Y5747098D02*
G01X4655827Y6040031D01*
G01X5048504Y6432709D02*
G01X5290419Y6674624D01*
G01X5491976Y6876181D02*
G01X7661877Y9046082D01*
G01X533309Y1773829D02*
G01X2197332Y3437853D01*
G01X2641194Y3881714D02*
G01X3501285Y4741806D01*
G01X3767195Y5007715D02*
G01X3988890Y5229411D01*
G01X4521898Y5762418D02*
G01X4727669Y5968189D01*
G01X5068111Y6308631D02*
G01X5375145Y6615666D01*
G01X5550934Y6791455D02*
G01X7805561Y9046082D01*
G01X678908Y1775745D02*
G01X2303309Y3400145D01*
G01X2678901Y3775737D02*
G01X3641609Y4738445D01*
G01X3866796Y4963632D02*
G01X4063307Y5160143D01*
G01X4637329Y5734166D02*
G01X4827459Y5924296D01*
G01X5139953Y6236789D02*
G01X5640592Y6737428D01*
G01X5780378Y6877214D02*
G01X7949245Y9046082D01*
G01X824124Y1777277D02*
G01X2458262Y3411414D01*
G01X2667632Y3620784D02*
G01X3838163Y4791315D01*
G01X3946285Y4899437D02*
G01X4412344Y5365496D01*
G01X4693863Y5647015D02*
G01X4971144Y5924296D01*
G01X5211795Y6164947D02*
G01X5694739Y6647891D01*
G01X5869915Y6823067D02*
G01X6374789Y7327941D01*
G01X6539468Y7492621D02*
G01X8092930Y9046082D01*
G01X956287Y1765755D02*
G01X2952496Y3761964D01*
G01X3691509Y4500978D02*
G01X3910005Y4719473D01*
G01X4018127Y4827595D02*
G01X4298673Y5108141D01*
G01X4463265Y5272733D02*
G01X4556028Y5365496D01*
G01X5007223Y5816691D02*
G01X5114828Y5924296D01*
G01X5331236Y6140704D02*
G01X5842517Y6651985D01*
G01X5865821Y6675289D02*
G01X6070509Y6879977D01*
G01X6251823Y7061291D02*
G01X6415293Y7224761D01*
G01X6642648Y7452116D02*
G01X8236614Y9046082D01*
G01X1078496Y1744280D02*
G01X2622657Y3288441D01*
G01X2807561Y3473345D02*
G01X2952496Y3618280D01*
G01X3092704Y3758488D02*
G01X3941140Y4606924D01*
G01X4086773Y4752557D02*
G01X4371998Y5037782D01*
G01X4533623Y5199408D02*
G01X4642851Y5308635D01*
G01X5058307Y5724091D02*
G01X5258512Y5924296D01*
G01X5474920Y6140704D02*
G01X6145337Y6811121D01*
G01X6320679Y6986463D02*
G01X6507310Y7173094D01*
G01X6694315Y7360099D02*
G01X7741146Y8406930D01*
G01X7885468Y8551252D02*
G01X8380298Y9046082D01*
G01X1193944Y1716044D02*
G01X2214753Y2736853D01*
G01X2410258Y2932358D02*
G01X2681728Y3203828D01*
G01X2892174Y3414274D02*
G01X2952496Y3474596D01*
G01X3092704Y3614804D02*
G01X3468448Y3990548D01*
G01X3578655Y4100755D02*
G01X3941140Y4463240D01*
G01X4094048Y4616148D02*
G01X4647946Y5170046D01*
G01X4804211Y5326312D02*
G01X5402196Y5924296D01*
G01X5618604Y6140704D02*
G01X5775860Y6297960D01*
G01X5867637Y6389737D02*
G01X5943938Y6466038D01*
G01X6056162Y6578262D02*
G01X6217179Y6739279D01*
G01X6392521Y6914621D02*
G01X7752311Y8274411D01*
G01X8017987Y8540087D02*
G01X8523982Y9046082D01*
G01X1303387Y1681803D02*
G01X2234647Y2613063D01*
G01X2492237Y2870653D02*
G01X2801576Y3179992D01*
G01X3092704Y3471120D02*
G01X3180855Y3559271D01*
G01X3345134Y3723550D02*
G01X3468523Y3846939D01*
G01X3722264Y4100680D02*
G01X3941140Y4319556D01*
G01X4094048Y4472464D02*
G01X4416720Y4795136D01*
G01X4800854Y5179270D02*
G01X5545880Y5924296D01*
G01X5762288Y6140704D02*
G01X5789653Y6168069D01*
G01X5997528Y6375944D02*
G01X5999870Y6378286D01*
G01X6143914Y6522330D02*
G01X6289021Y6667437D01*
G01X6464363Y6842779D02*
G01X7816413Y8194829D01*
G01X8097569Y8475985D02*
G01X8667666Y9046082D01*
G01X1407386Y1642117D02*
G01X2312084Y2546815D01*
G01X2516861Y2751593D02*
G01X2956733Y3191465D01*
G01X3238960Y3473692D02*
G01X3253851Y3488583D01*
G01X3415822Y3650554D02*
G01X3563915Y3798647D01*
G01X3770555Y4005287D02*
G01X3941140Y4175872D01*
G01X4094048Y4328780D02*
G01X4464967Y4699699D01*
G01X4800854Y5035586D02*
G01X5689564Y5924296D01*
G01X6061233Y6295965D02*
G01X6071712Y6306444D01*
G01X6215756Y6450488D02*
G01X6360863Y6595595D01*
G01X6536205Y6770937D02*
G01X7921335Y8156067D01*
G01X8136331Y8371063D02*
G01X8811350Y9046082D01*
G01X1506367Y1597415D02*
G01X2664765Y2755812D01*
G01X2845128Y2936176D02*
G01X3151579Y3242626D01*
G01X3361376Y3452424D02*
G01X3707599Y3798647D01*
G01X3770555Y3861603D02*
G01X3941140Y4032188D01*
G01X4094048Y4185096D02*
G01X4144869Y4235917D01*
G01X4278006Y4369054D02*
G01X4675746Y4766794D01*
G01X4835206Y4926254D02*
G01X5018208Y5109256D01*
G01X5182139Y5273186D02*
G01X5833248Y5924296D01*
G01X6049656Y6140704D02*
G01X6143554Y6234602D01*
G01X6287598Y6378646D02*
G01X6432705Y6523753D01*
G01X6608047Y6699095D02*
G01X6849149Y6940197D01*
G01X7006410Y7097458D02*
G01X8955034Y9046082D01*
G01X1600657Y1548020D02*
G01X2217085Y2164449D01*
G01X2339365Y2286729D02*
G01X2678247Y2625611D01*
G01X2934312Y2881676D02*
G01X3234865Y3182229D01*
G01X3531092Y3478456D02*
G01X3941140Y3888504D01*
G01X4094048Y4041412D02*
G01X4220281Y4167645D01*
G01X4421690Y4369054D02*
G01X4691221Y4638585D01*
G01X4978890Y4926254D02*
G01X5017845Y4965208D01*
G01X5253188Y5200552D02*
G01X5328058Y5275422D01*
G01X5443378Y5390742D02*
G01X5976932Y5924296D01*
G01X6193340Y6140704D02*
G01X6226881Y6174245D01*
G01X6428290Y6375654D02*
G01X6504547Y6451911D01*
G01X6679889Y6627253D02*
G01X6922928Y6870292D01*
G01X7076315Y7023679D02*
G01X7375010Y7322374D01*
G01X7545034Y7492397D02*
G01X9098718Y9046082D01*
G01X1690503Y1494182D02*
G01X2215883Y2019563D01*
G01X2455712Y2259392D02*
G01X2748894Y2552574D01*
G01X2966873Y2770552D02*
G01X3420404Y3224084D01*
G01X3633916Y3437596D02*
G01X3941140Y3744820D01*
G01X4094048Y3897728D02*
G01X4361666Y4165346D01*
G01X4565374Y4369054D02*
G01X4680383Y4484062D01*
G01X5236873Y5040553D02*
G01X5407989Y5211669D01*
G01X5507131Y5310811D02*
G01X6120616Y5924296D01*
G01X6337024Y6140704D02*
G01X6368266Y6171946D01*
G01X6564956Y6368635D02*
G01X6576389Y6380069D01*
G01X6751731Y6555411D02*
G01X7112208Y6915887D01*
G01X7280706Y7084386D02*
G01X7418049Y7221729D01*
G01X7645678Y7449358D02*
G01X8489696Y8293376D01*
G01X8613925Y8417605D02*
G01X9242402Y9046082D01*
G01X1776092Y1436087D02*
G01X2265272Y1925268D01*
G01X2512800Y2172796D02*
G01X2909511Y2569507D01*
G01X2934305Y2594301D02*
G01X3129157Y2789153D01*
G01X3279047Y2939043D02*
G01X3516969Y3176965D01*
G01X3815307Y3475302D02*
G01X3900395Y3560390D01*
G01X4094048Y3754044D02*
G01X4505350Y4165346D01*
G01X4709058Y4369054D02*
G01X4738585Y4398581D01*
G01X5369458Y5029454D02*
G01X5479831Y5139827D01*
G01X5578973Y5238969D02*
G01X5776120Y5436115D01*
G01X5969488Y5629484D02*
G01X6264300Y5924296D01*
G01X6480708Y6140704D02*
G01X6511950Y6171946D01*
G01X6628577Y6288573D02*
G01X6648231Y6308227D01*
G01X6823573Y6483569D02*
G01X7204178Y6864173D01*
G01X7332420Y6992415D02*
G01X7512285Y7172280D01*
G01X7695127Y7355123D02*
G01X8489696Y8149692D01*
G01X8629904Y8289900D02*
G01X9386086Y9046082D01*
G01X1857559Y1373871D02*
G01X2370722Y1887033D01*
G01X2516781Y2033092D02*
G01X2674133Y2190444D01*
G01X2763356Y2279667D02*
G01X3133943Y2650254D01*
G01X3382670Y2898982D02*
G01X3691858Y3208169D01*
G01X3903831Y3420142D02*
G01X3972700Y3489012D01*
G01X4166943Y3683254D02*
G01X4649035Y4165346D01*
G01X5319952Y4836264D02*
G01X5360235Y4876546D01*
G01X5513143Y5029454D02*
G01X5569785Y5086096D01*
G01X5709993Y5226304D02*
G01X5841160Y5357472D01*
G01X6048132Y5564443D02*
G01X6407985Y5924296D01*
G01X6624393Y6140704D02*
G01X6720073Y6236385D01*
G01X6895415Y6411727D02*
G01X8489696Y8006007D01*
G01X8629904Y8146215D02*
G01X9529771Y9046082D01*
G01X1934997Y1307624D02*
G01X2664740Y2037368D01*
G01X2894381Y2267008D02*
G01X3192432Y2565059D01*
G01X3430501Y2803128D02*
G01X3805122Y3177749D01*
G01X4094932Y3467559D02*
G01X4157719Y3530346D01*
G01X4310627Y3683254D02*
G01X4444743Y3817371D01*
G01X5016275Y4388903D02*
G01X5046719Y4419346D01*
G01X5270752Y4643380D02*
G01X5438141Y4810768D01*
G01X5656827Y5029454D02*
G01X5713469Y5086096D01*
G01X5853677Y5226304D02*
G01X5974677Y5347305D01*
G01X6191230Y5563857D02*
G01X6551669Y5924296D01*
G01X7022077Y6394704D02*
G01X7297804Y6670432D01*
G01X7371704Y6744332D02*
G01X8489696Y7862323D01*
G01X8629904Y8002531D02*
G01X8855896Y8228523D01*
G01X9016070Y8388698D02*
G01X9673455Y9046082D01*
G01X2008456Y1237399D02*
G01X2705670Y1934613D01*
G01X2958521Y2187464D02*
G01X3311212Y2540155D01*
G01X3428045Y2656988D02*
G01X3580728Y2809671D01*
G01X3708540Y2937483D02*
G01X3965996Y3194940D01*
G01X4240096Y3469039D02*
G01X4301403Y3530346D01*
G01X5073649Y4302592D02*
G01X5477570Y4706513D01*
G01X5800511Y5029454D02*
G01X5857153Y5086096D01*
G01X5997361Y5226304D02*
G01X6182006Y5410949D01*
G01X6334914Y5563857D02*
G01X6695353Y5924296D01*
G01X7165761Y6394704D02*
G01X7317195Y6546138D01*
G01X7495998Y6724941D02*
G01X8489696Y7718639D01*
G01X8629904Y7858847D02*
G01X8863422Y8092365D01*
G01X8902242Y8131185D02*
G01X8933030Y8161973D01*
G01X9082621Y8311564D02*
G01X9817139Y9046082D01*
G01X2077952Y1163211D02*
G01X2802298Y1887557D01*
G01X2966847Y2052106D02*
G01X3580770Y2666029D01*
G01X3822400Y2907659D02*
G01X4107952Y3193212D01*
G01X4371160Y3456419D02*
G01X4444743Y3530003D01*
G01X4648451Y3733711D02*
G01X4783289Y3868548D01*
G01X5034180Y4119439D02*
G01X5439567Y4524827D01*
G01X5932860Y5018119D02*
G01X6000837Y5086096D01*
G01X6141045Y5226304D02*
G01X6325690Y5410949D01*
G01X6478598Y5563857D02*
G01X6940637Y6025896D01*
G01X7309445Y6394704D02*
G01X7412883Y6498142D01*
G01X7667329Y6752589D02*
G01X8499309Y7584568D01*
G01X8629904Y7715163D02*
G01X8869855Y7955114D01*
G01X9039492Y8124751D02*
G01X9219038Y8304297D01*
G01X9318909Y8404168D02*
G01X9960823Y9046082D01*
G01X2143463Y1085038D02*
G01X3129153Y2070728D01*
G01X3336575Y2278150D02*
G01X3631815Y2573390D01*
G01X3877946Y2819521D02*
G01X4243110Y3184685D01*
G01X4648451Y3590027D02*
G01X4920571Y3862146D01*
G01X5159180Y4100755D02*
G01X5496031Y4437606D01*
G01X5838187Y4779762D02*
G01X5898051Y4839626D01*
G01X6006174Y4947749D02*
G01X6144521Y5086096D01*
G01X6284729Y5226304D02*
G01X6469374Y5410949D01*
G01X6622282Y5563857D02*
G01X6641138Y5582713D01*
G01X6685487Y5627062D02*
G01X6937107Y5878682D01*
G01X7453129Y6394704D02*
G01X7585670Y6527245D01*
G01X7764827Y6706402D02*
G01X8569541Y7511117D01*
G01X8668683Y7610259D02*
G01X8965778Y7907353D01*
G01X9087253Y8028828D02*
G01X9251704Y8193279D01*
G01X9429927Y8371502D02*
G01X10104507Y9046082D01*
G01X2204930Y1002821D02*
G01X3155248Y1953139D01*
G01X3412686Y2210577D02*
G01X3739323Y2537214D01*
G01X3880998Y2678889D02*
G01X4431585Y3229476D01*
G01X4648451Y3446342D02*
G01X5025279Y3823170D01*
G01X5295429Y4093320D02*
G01X5446812Y4244703D01*
G01X5819250Y4617141D02*
G01X5969893Y4767784D01*
G01X6078016Y4875907D02*
G01X6288205Y5086096D01*
G01X6428413Y5226304D02*
G01X6613058Y5410949D01*
G01X6829563Y5627454D02*
G01X7005271Y5803162D01*
G01X7171844Y5969735D02*
G01X7228005Y6025896D01*
G01X7596813Y6394704D02*
G01X7706594Y6504485D01*
G01X7787587Y6585478D02*
G01X7802123Y6600014D01*
G01X7952154Y6750045D02*
G01X8641384Y7439274D01*
G01X8740526Y7538416D02*
G01X9357290Y8155181D01*
G01X9468025Y8265916D02*
G01X9891436Y8689327D01*
G01X10038270Y8836161D02*
G01X10248191Y9046082D01*
G01X2258142Y912349D02*
G01X3238592Y1892799D01*
G01X3431261Y2085468D02*
G01X4444743Y3098950D01*
G01X4695931Y3350138D02*
G01X5144440Y3798647D01*
G01X5319952Y3974159D02*
G01X5467318Y4121524D01*
G01X5485876Y4140082D02*
G01X5517708Y4171915D01*
G01X5759319Y4413526D02*
G01X5787910Y4442116D01*
G01X5813284Y4467490D02*
G01X6041735Y4695942D01*
G01X6149858Y4804065D02*
G01X6431889Y5086096D01*
G01X6572097Y5226304D02*
G01X6691144Y5345350D01*
G01X6922850Y5577056D02*
G01X7371689Y6025896D01*
G01X7740497Y6394704D02*
G01X7861767Y6515974D01*
G01X8036194Y6690401D02*
G01X8713226Y7367432D01*
G01X8812368Y7466574D02*
G01X8936746Y7590953D01*
G01X9046047Y7700254D02*
G01X9950144Y8604351D01*
G01X10123247Y8777454D02*
G01X10391875Y9046082D01*
G01X2260854Y771377D02*
G01X3579139Y2089662D01*
G01X3772494Y2283017D02*
G01X4444743Y2955266D01*
G01X4648451Y3158974D02*
G01X5295766Y3806289D01*
G01X5312311Y3822833D02*
G01X5458034Y3968557D01*
G01X5830557Y4341080D02*
G01X6113577Y4624100D01*
G01X6221700Y4732223D02*
G01X6575573Y5086096D01*
G01X6715781Y5226304D02*
G01X6834823Y5345346D01*
G01X7100972Y5611495D02*
G01X7515373Y6025896D01*
G01X7884181Y6394704D02*
G01X7934168Y6444690D01*
G01X8230273Y6740795D02*
G01X8785068Y7295590D01*
G01X8884210Y7394732D02*
G01X8947427Y7457950D01*
G01X9179050Y7689573D02*
G01X9219946Y7730469D01*
G01X9495971Y8006494D02*
G01X10233407Y8743930D01*
G01X10323672Y8834195D02*
G01X10535559Y9046082D01*
G01X2260854Y627693D02*
G01X3598028Y1964866D01*
G01X3855509Y2222347D02*
G01X4397452Y2764291D01*
G01X4648451Y3015290D02*
G01X5439574Y3806413D01*
G01X5781080Y4147919D02*
G01X6185420Y4552258D01*
G01X6293542Y4660380D02*
G01X6719257Y5086096D01*
G01X6859465Y5226304D02*
G01X6987159Y5353998D01*
G01X7256669Y5623508D02*
G01X7659057Y6025896D01*
G01X8297800Y6664639D02*
G01X8856910Y7223748D01*
G01X8956052Y7322890D02*
G01X9071308Y7438146D01*
G01X9627505Y7994344D02*
G01X9939421Y8306260D01*
G01X10036934Y8403773D02*
G01X10261390Y8628228D01*
G01X10439374Y8806212D02*
G01X10679243Y9046082D01*
G01X2260854Y484009D02*
G01X2493360Y716515D01*
G01X2644484Y867639D02*
G01X3674457Y1897612D01*
G01X3881247Y2104402D02*
G01X4426128Y2649282D01*
G01X4648451Y2871606D02*
G01X5472527Y3695681D01*
G01X5837914Y4061068D02*
G01X6257262Y4480416D01*
G01X6365384Y4588538D02*
G01X6862941Y5086096D01*
G01X7003149Y5226304D02*
G01X7177670Y5400825D01*
G01X7375375Y5598530D02*
G01X7656711Y5879865D01*
G01X8374749Y6597904D02*
G01X8928752Y7151906D01*
G01X9027894Y7251048D02*
G01X9242050Y7465205D01*
G01X9425795Y7648950D02*
G01X9555224Y7778379D01*
G01X9673428Y7896582D02*
G01X9681452Y7904606D01*
G01X9797187Y8020342D02*
G01X9970929Y8194084D01*
G01X10149110Y8372265D02*
G01X10363235Y8586390D01*
G01X10481212Y8704367D02*
G01X10822927Y9046082D01*
G01X2260854Y340324D02*
G01X2555082Y634553D01*
G01X2726446Y805917D02*
G01X4513540Y2593010D01*
G01X4693996Y2773466D02*
G01X5438369Y3517839D01*
G01X5799616Y3879086D02*
G01X6329104Y4408574D01*
G01X6437226Y4516696D02*
G01X7006626Y5086096D01*
G01X7146834Y5226304D02*
G01X7267629Y5347100D01*
G01X7429100Y5508571D02*
G01X7724181Y5803651D01*
G01X7891343Y5970813D02*
G01X7946426Y6025896D01*
G01X8518434Y6597904D02*
G01X9013322Y7092793D01*
G01X9153434Y7232904D02*
G01X9366554Y7446025D01*
G01X9444975Y7524446D02*
G01X9450695Y7530165D01*
G01X9614835Y7694305D02*
G01X9726014Y7805484D01*
G01X9896309Y7975780D02*
G01X10075520Y8154990D01*
G01X10188204Y8267675D02*
G01X10207524Y8286995D01*
G01X10326811Y8406281D02*
G01X10966612Y9046082D01*
G01X2279716Y215502D02*
G01X2503851Y439638D01*
G01X2673361Y609147D02*
G01X2725387Y661173D01*
G01X2804426Y740212D02*
G01X4404206Y2339992D01*
G01X4597002Y2532788D02*
G01X5490055Y3425841D01*
G01X5839524Y3775311D02*
G01X6409260Y4345046D01*
G01X6560268Y4496054D02*
G01X7150310Y5086096D01*
G01X7290518Y5226304D02*
G01X7598392Y5534178D01*
G01X7728668Y5664454D02*
G01X8090110Y6025896D01*
G01X8662118Y6597904D02*
G01X9156910Y7092696D01*
G01X9297118Y7232904D02*
G01X9516529Y7452315D01*
G01X9692685Y7628471D02*
G01X9854211Y7789997D01*
G01X9911796Y7847583D02*
G01X9953739Y7889526D01*
G01X10089280Y8025067D02*
G01X10250052Y8185839D01*
G01X10427967Y8363753D02*
G01X11110296Y9046082D01*
G01X2352794Y144896D02*
G01X2583073Y375175D01*
G01X2737823Y529926D02*
G01X2747979Y540081D01*
G01X2925518Y717620D02*
G01X3135497Y927600D01*
G01X3286794Y1078896D02*
G01X4468807Y2260910D01*
G01X4676084Y2468187D02*
G01X5607444Y3399546D01*
G01X5815121Y3607223D02*
G01X6551044Y4343146D01*
G01X6703952Y4496054D02*
G01X6968121Y4760223D01*
G01X7139552Y4931654D02*
G01X7293994Y5086096D01*
G01X7434202Y5226304D02*
G01X7671647Y5463750D01*
G01X7872352Y5664454D02*
G01X8233794Y6025896D01*
G01X8805802Y6597904D02*
G01X9300594Y7092696D01*
G01X9440802Y7232904D02*
G01X9714605Y7506708D01*
G01X9892292Y7684395D02*
G01X10005316Y7797418D01*
G01X10181388Y7973490D02*
G01X10366728Y8158830D01*
G01X10454976Y8247078D02*
G01X11253980Y9046082D01*
G01X2398951Y47370D02*
G01X2718867Y367285D01*
G01X2970845Y619263D02*
G01X3203511Y851929D01*
G01X3362464Y1010883D02*
G01X4601082Y2249500D01*
G01X4687494Y2335912D02*
G01X5762746Y3411164D01*
G01X5828236Y3476654D02*
G01X6694728Y4343146D01*
G01X6847636Y4496054D02*
G01X7034707Y4683125D01*
G01X7275934Y4924352D02*
G01X7437678Y5086096D01*
G01X7577886Y5226304D02*
G01X7812328Y5460746D01*
G01X8001925Y5650343D02*
G01X8377478Y6025896D01*
G01X8949486Y6597904D02*
G01X9444278Y7092696D01*
G01X9584486Y7232904D02*
G01X9794556Y7442974D01*
G01X9956026Y7604444D02*
G01X9958202Y7606620D01*
G01X10046380Y7694798D02*
G01X10141003Y7789421D01*
G01X10189385Y7837803D02*
G01X11397664Y9046082D01*
G01X2542636Y47370D02*
G01X2768062Y272796D01*
G01X2944805Y449539D02*
G01X3146947Y651681D01*
G01X3312725Y817459D02*
G01X5227009Y2731743D01*
G01X5400652Y2905386D02*
G01X6838412Y4343146D01*
G01X7354152Y4858886D02*
G01X7581362Y5086096D01*
G01X7721570Y5226304D02*
G01X7932011Y5436745D01*
G01X8076055Y5580789D02*
G01X8521162Y6025896D01*
G01X9093170Y6597904D02*
G01X9587962Y7092696D01*
G01X9728170Y7232904D02*
G01X9981970Y7486704D01*
G01X10166296Y7671030D02*
G01X11541348Y9046082D01*
G01X2686320Y47370D02*
G01X2897024Y258074D01*
G01X2959527Y320577D02*
G01X3232548Y593598D01*
G01X3370808Y731858D02*
G01X5313044Y2674094D01*
G01X5458300Y2819350D02*
G01X6966489Y4327539D01*
G01X7426946Y4787996D02*
G01X7725046Y5086096D01*
G01X7865254Y5226304D02*
G01X8003853Y5364903D01*
G01X8147897Y5508947D02*
G01X8664846Y6025896D01*
G01X9236854Y6597904D02*
G01X9731646Y7092696D01*
G01X9871854Y7232904D02*
G01X10077260Y7438309D01*
G01X10339196Y7700246D02*
G01X10927611Y8288661D01*
G01X11045133Y8406183D02*
G01X11685032Y9046082D01*
G01X2830004Y47370D02*
G01X3583833Y801199D01*
G01X3642889Y860255D02*
G01X5525591Y2742957D01*
G01X5694237Y2911603D02*
G01X6991765Y4209131D01*
G01X7498788Y4716154D02*
G01X7554851Y4772217D01*
G01X7746587Y4963953D02*
G01X7868730Y5086096D01*
G01X8019317Y5236683D02*
G01X8075695Y5293061D01*
G01X8219739Y5437105D02*
G01X8808530Y6025896D01*
G01X9380538Y6597904D02*
G01X9875330Y7092696D01*
G01X10015538Y7232904D02*
G01X10252414Y7469780D01*
G01X10437220Y7654586D02*
G01X10673621Y7890987D01*
G01X10807807Y8025173D02*
G01X10969211Y8186577D01*
G01X11147217Y8364583D02*
G01X11828716Y9046082D01*
G01X2973688Y47370D02*
G01X3541623Y615305D01*
G01X3740820Y814501D02*
G01X5603656Y2677338D01*
G01X5759856Y2833538D02*
G01X6961784Y4035465D01*
G01X7593822Y4667504D02*
G01X7597979Y4671661D01*
G01X7889998Y4963680D02*
G01X8001119Y5074801D01*
G01X8087545Y5161227D02*
G01X8147537Y5221219D01*
G01X8291581Y5365263D02*
G01X8936746Y6010428D01*
G01X9524222Y6597904D02*
G01X10019014Y7092696D01*
G01X10159222Y7232904D02*
G01X10367989Y7441671D01*
G01X10622843Y7696524D02*
G01X10724400Y7798082D01*
G01X10900713Y7974394D02*
G01X11084584Y8158266D01*
G01X11175529Y8249210D02*
G01X11237182Y8310864D01*
G01X11321329Y8395011D02*
G01X11972383Y9046065D01*
G01X3117372Y47370D02*
G01X3632715Y562713D01*
G01X3831912Y761909D02*
G01X4647946Y1577944D01*
G01X4949856Y1879854D02*
G01X5828403Y2758401D01*
G01X6004599Y2934597D02*
G01X7008369Y3938367D01*
G01X7993042Y4923039D02*
G01X8219380Y5149377D01*
G01X8363423Y5293420D02*
G01X8984271Y5914268D01*
G01X9667906Y6597904D02*
G01X10162698Y7092696D01*
G01X10302906Y7232904D02*
G01X10525914Y7455912D01*
G01X10705088Y7635086D02*
G01X10857582Y7787580D01*
G01X10911215Y7841212D02*
G01X11265543Y8195540D01*
G01X11436653Y8366651D02*
G01X12106526Y9036524D01*
G01X3261056Y47370D02*
G01X3725797Y512110D01*
G01X3923102Y709416D02*
G01X4647946Y1434260D01*
G01X4800854Y1587168D02*
G01X4940632Y1726946D01*
G01X5093540Y1879854D02*
G01X5226410Y2012724D01*
G01X5399682Y2185995D02*
G01X5887629Y2673943D01*
G01X6089057Y2875371D02*
G01X6965829Y3752143D01*
G01X8049588Y4835902D02*
G01X8298742Y5085056D01*
G01X8427744Y5214058D02*
G01X8549186Y5335499D01*
G01X9811590Y6597904D02*
G01X10306382Y7092696D01*
G01X10446590Y7232904D02*
G01X10727177Y7513490D01*
G01X10901510Y7687823D02*
G01X11233082Y8019396D01*
G01X11362811Y8149125D02*
G01X11372475Y8158789D01*
G01X11473405Y8259718D02*
G01X12226616Y9012929D01*
G01X3404740Y47370D02*
G01X3807098Y449728D01*
G01X4800854Y1443483D02*
G01X4938946Y1581576D01*
G01X5073224Y1715854D02*
G01X5084317Y1726946D01*
G01X5237225Y1879854D02*
G01X5311709Y1954338D01*
G01X5458067Y2100697D02*
G01X6013253Y2655882D01*
G01X6107118Y2749747D02*
G01X7028037Y3670666D01*
G01X7268163Y3910793D02*
G01X7270437Y3913067D01*
G01X8024875Y4667504D02*
G01X8628195Y5270824D01*
G01X9919756Y6562386D02*
G01X10450067Y7092696D01*
G01X10590275Y7232904D02*
G01X10802779Y7445409D01*
G01X10969591Y7612221D02*
G01X10980239Y7622869D01*
G01X11046131Y7688761D02*
G01X11285697Y7928327D01*
G01X11453880Y8096510D02*
G01X12335678Y8978307D01*
G01X3548424Y47370D02*
G01X3908826Y407771D01*
G01X4071413Y570358D02*
G01X4951886Y1450832D01*
G01X5203968Y1702914D02*
G01X5228001Y1726946D01*
G01X6060359Y2559304D02*
G01X6974747Y3473692D01*
G01X7348048Y3846994D02*
G01X7437801Y3936746D01*
G01X8168559Y4667504D02*
G01X9469543Y5968489D01*
G01X9991598Y6490544D02*
G01X10593751Y7092696D01*
G01X10725946Y7224891D02*
G01X10993543Y7492489D01*
G01X11176511Y7675457D02*
G01X11766808Y8265753D01*
G01X11899840Y8398786D02*
G01X12435470Y8934415D01*
G01X3692108Y47370D02*
G01X4000848Y356110D01*
G01X4207261Y562522D02*
G01X5078485Y1433746D01*
G01X5358456Y1713718D02*
G01X5371685Y1726946D01*
G01X6204043Y2559304D02*
G01X7051097Y3406358D01*
G01X7292172Y3647434D02*
G01X7581485Y3936746D01*
G01X8312243Y4667504D02*
G01X9559858Y5915119D01*
G01X10063440Y6418702D02*
G01X10700898Y7056160D01*
G01X10800040Y7155302D02*
G01X11083858Y7439119D01*
G01X11344674Y7699936D02*
G01X11821475Y8176736D01*
G01X11988857Y8344119D02*
G01X12170878Y8526140D01*
G01X12327260Y8682522D02*
G01X12527071Y8882332D01*
G01X3835792Y47370D02*
G01X4078717Y290294D01*
G01X4273076Y484653D02*
G01X5249947Y1461525D01*
G01X5447275Y1658853D02*
G01X6207519Y2419096D01*
G01X6347727Y2559304D02*
G01X7187969Y3399546D01*
G01X7357942Y3569519D02*
G01X7725169Y3936746D01*
G01X8455927Y4667504D02*
G01X9739062Y5950639D01*
G01X10135282Y6346860D02*
G01X10772740Y6984318D01*
G01X10871882Y7083460D02*
G01X11263062Y7474639D01*
G01X11448361Y7659938D02*
G01X11773983Y7985560D01*
G01X12196077Y8407654D02*
G01X12235174Y8446751D01*
G01X12406649Y8618226D02*
G01X12611142Y8822719D01*
G01X3979477Y47370D02*
G01X5370715Y1438608D01*
G01X5638580Y1706473D02*
G01X6351203Y2419096D01*
G01X6491411Y2559304D02*
G01X7868853Y3936746D01*
G01X8599611Y4667504D02*
G01X9847447Y5915340D01*
G01X10207124Y6275018D02*
G01X10844582Y6912476D01*
G01X10943724Y7011618D02*
G01X11371447Y7439340D01*
G01X11630398Y7698291D02*
G01X11846505Y7914398D01*
G01X12351318Y8419211D02*
G01X12688058Y8755951D01*
G01X4123161Y47370D02*
G01X5442724Y1366933D01*
G01X5713999Y1638208D02*
G01X5826548Y1750757D01*
G01X5996243Y1920452D02*
G01X6494887Y2419096D01*
G01X6635095Y2559304D02*
G01X7557840Y3482049D01*
G01X7769746Y3693955D02*
G01X8012537Y3936746D01*
G01X8743295Y4667504D02*
G01X10011611Y5935820D01*
G01X10278967Y6203176D02*
G01X10916424Y6840633D01*
G01X11015567Y6939776D02*
G01X11535611Y7459820D01*
G01X11717180Y7641389D02*
G01X12166346Y8090555D01*
G01X12254845Y8179054D02*
G01X12259102Y8183311D01*
G01X12416089Y8340298D02*
G01X12757966Y8682175D01*
G01X4266845Y47370D02*
G01X5514567Y1295091D01*
G01X5613709Y1394233D02*
G01X5881676Y1662201D01*
G01X6084799Y1865324D02*
G01X6638571Y2419096D01*
G01X6778779Y2559304D02*
G01X7609353Y3389878D01*
G01X7910759Y3691284D02*
G01X8156221Y3936746D01*
G01X8886979Y4667504D02*
G01X10154024Y5934549D01*
G01X10194451Y5974976D02*
G01X10216086Y5996611D01*
G01X10386389Y6166914D02*
G01X10988267Y6768791D01*
G01X11087409Y6867933D02*
G01X11678024Y7458549D01*
G01X11718451Y7498976D02*
G01X11740086Y7520611D01*
G01X11910389Y7690914D02*
G01X12171906Y7952431D01*
G01X12392969Y8173494D02*
G01X12820812Y8601336D01*
G01X4410529Y47370D02*
G01X5586409Y1223249D01*
G01X5685551Y1322391D02*
G01X5999333Y1636173D01*
G01X6110827Y1747667D02*
G01X6782255Y2419096D01*
G01X6922463Y2559304D02*
G01X7706597Y3343437D01*
G01X8005121Y3641962D02*
G01X8299905Y3936746D01*
G01X9030663Y4667504D02*
G01X9851099Y5487939D01*
G01X9917161Y5554001D02*
G01X10287389Y5924230D01*
G01X10458770Y6095611D02*
G01X10486854Y6123695D01*
G01X10513305Y6150146D02*
G01X11060109Y6696949D01*
G01X11159251Y6796091D02*
G01X11811389Y7448230D01*
G01X11982770Y7619611D02*
G01X12010854Y7647695D01*
G01X12037305Y7674146D02*
G01X12287705Y7924546D01*
G01X12420854Y8057695D02*
G01X12876326Y8513166D01*
G01X4554213Y47370D02*
G01X5661721Y1154878D01*
G01X5796147Y1289304D02*
G01X6925939Y2419096D01*
G01X7066147Y2559304D02*
G01X7848691Y3341847D01*
G01X8053838Y3546995D02*
G01X8443589Y3936746D01*
G01X9174347Y4667504D02*
G01X9903801Y5396958D01*
G01X10662434Y6155590D02*
G01X11131951Y6625107D01*
G01X11231093Y6724249D02*
G01X12005410Y7498566D01*
G01X12186434Y7679590D02*
G01X12923986Y8417143D01*
G01X4697897Y47370D02*
G01X5799623Y1149096D01*
G01X5939831Y1289304D02*
G01X6378331Y1727804D01*
G01X6569589Y1919062D02*
G01X6778375Y2127847D01*
G01X6941959Y2291432D02*
G01X7069623Y2419096D01*
G01X7209831Y2559304D02*
G01X8587273Y3936746D01*
G01X9034125Y4383597D02*
G01X9101623Y4451096D01*
G01X9318031Y4667504D02*
G01X10567035Y5916507D01*
G01X10825143Y6174616D02*
G01X11203793Y6553265D01*
G01X11302935Y6652407D02*
G01X12091035Y7440507D01*
G01X12349143Y7698616D02*
G01X12962922Y8312395D01*
G01X4841581Y47370D02*
G01X5943308Y1149096D01*
G01X6060784Y1266573D02*
G01X6432360Y1638148D01*
G01X6659244Y1865033D02*
G01X6860209Y2065998D01*
G01X7003809Y2209597D02*
G01X7022624Y2228412D01*
G01X7091381Y2297169D02*
G01X7213308Y2419096D01*
G01X7353516Y2559304D02*
G01X8730958Y3936746D01*
G01X9105967Y4311755D02*
G01X9245308Y4451096D01*
G01X9461716Y4667504D02*
G01X10749992Y5955780D01*
G01X10935220Y6141008D02*
G01X11275635Y6481423D01*
G01X11374777Y6580565D02*
G01X11539082Y6744870D01*
G01X11759159Y6964947D02*
G01X12273992Y7479780D01*
G01X12459220Y7665008D02*
G01X12991728Y8197516D01*
G01X4985265Y47370D02*
G01X6538455Y1600559D01*
G01X6696833Y1758938D02*
G01X7043497Y2105602D01*
G01X7214192Y2276296D02*
G01X7356992Y2419096D01*
G01X7497200Y2559304D02*
G01X8682722Y3744827D01*
G01X8777373Y3839478D02*
G01X8848526Y3910631D01*
G01X9177809Y4239913D02*
G01X9388992Y4451096D01*
G01X9605400Y4667504D02*
G01X10156092Y5218196D01*
G01X10365402Y5427506D02*
G01X10775696Y5837800D01*
G01X11113438Y6175542D02*
G01X11283696Y6345800D01*
G01X11423904Y6486008D02*
G01X11537696Y6599800D01*
G01X11839660Y6901764D02*
G01X12376198Y7438302D01*
G01X12637438Y7699542D02*
G01X13006501Y8068605D01*
G01X5128949Y47370D02*
G01X7145335Y2063755D01*
G01X7256038Y2174459D02*
G01X7500676Y2419096D01*
G01X8844471Y3762891D02*
G01X8920368Y3838788D01*
G01X9249651Y4168071D02*
G01X9532676Y4451096D01*
G01X9749084Y4667504D02*
G01X10217141Y5135562D01*
G01X10448036Y5366457D02*
G01X10822419Y5740839D01*
G01X10921561Y5839981D02*
G01X11021608Y5940028D01*
G01X11204972Y6123392D02*
G01X11283696Y6202116D01*
G01X11423904Y6342324D02*
G01X11537696Y6456116D01*
G01X11677904Y6596324D02*
G01X12545608Y7464028D01*
G01X12728972Y7647392D02*
G01X13006501Y7924921D01*
G01X5272633Y47370D02*
G01X5936371Y711107D01*
G01X6161295Y936031D02*
G01X7448893Y2223629D01*
G01X7587718Y2362454D02*
G01X7652184Y2426920D01*
G01X8825280Y3600016D02*
G01X8992210Y3766946D01*
G01X9321493Y4096229D02*
G01X9676360Y4451096D01*
G01X9892768Y4667504D02*
G01X10331075Y5105812D01*
G01X10477786Y5252522D02*
G01X10893968Y5668704D01*
G01X10993696Y5768432D02*
G01X11148993Y5923729D01*
G01X11221271Y5996007D02*
G01X11229359Y6004095D01*
G01X11423904Y6198640D02*
G01X11537696Y6312432D01*
G01X11677904Y6452640D02*
G01X12672993Y7447729D01*
G01X12745271Y7520007D02*
G01X13006501Y7781237D01*
G01X5416317Y47370D02*
G01X5979315Y610367D01*
G01X6262034Y893086D02*
G01X7528804Y2159856D01*
G01X7929921Y2560973D02*
G01X9064052Y3695104D01*
G01X9393335Y4024387D02*
G01X9820044Y4451096D01*
G01X10036452Y4667504D02*
G01X10977108Y5608160D01*
G01X11054240Y5685292D02*
G01X11296355Y5927407D01*
G01X11471593Y6102645D02*
G01X11537696Y6168748D01*
G01X11677904Y6308956D02*
G01X13006501Y7637553D01*
G01X5560002Y47370D02*
G01X6062153Y549521D01*
G01X6322881Y810249D02*
G01X7671378Y2158746D01*
G01X7998774Y2486142D02*
G01X9135894Y3623262D01*
G01X9465177Y3952545D02*
G01X9963728Y4451096D01*
G01X10180136Y4667504D02*
G01X11493578Y5980946D01*
G01X11677904Y6165272D02*
G01X13006501Y7493869D01*
G01X5703686Y47370D02*
G01X6203660Y547344D01*
G01X6325058Y668742D02*
G01X7379413Y1723097D01*
G01X7574294Y1917978D02*
G01X9207736Y3551420D01*
G01X9537019Y3880703D02*
G01X10107412Y4451096D01*
G01X11450303Y5793987D02*
G01X11574709Y5918393D01*
G01X11734607Y6078291D02*
G01X11735130Y6078814D01*
G01X11828186Y6171870D02*
G01X13006501Y7350184D01*
G01X5847370Y47370D02*
G01X7435546Y1635545D01*
G01X7661845Y1861845D02*
G01X8802875Y3002875D01*
G01X8997729Y3197729D02*
G01X9279578Y3479578D01*
G01X9608861Y3808861D02*
G01X10251096Y4451096D01*
G01X11945797Y6145797D02*
G01X13006500Y7206500D01*
G01X5991054Y47370D02*
G01X7544455Y1600770D01*
G01X7696620Y1752936D02*
G01X8855286Y2911602D01*
G01X9089003Y3145318D02*
G01X9321546Y3377862D01*
G01X9680703Y3737019D02*
G01X11378992Y5435308D01*
G01X11569892Y5626208D02*
G01X11857889Y5914205D01*
G01X12119875Y6176190D02*
G01X13006500Y7062816D01*
G01X6134738Y47370D02*
G01X8957401Y2870032D01*
G01X9130572Y3043204D02*
G01X9321546Y3234178D01*
G01X9752545Y3665177D02*
G01X11361732Y5274363D01*
G01X11730837Y5643468D02*
G01X12031895Y5944527D01*
G01X12216473Y6129105D02*
G01X13006500Y6919132D01*
G01X6278422Y47370D02*
G01X9321546Y3090494D01*
G01X9824387Y3593335D02*
G01X11397477Y5166425D01*
G01X11838775Y5607722D02*
G01X12149644Y5918592D01*
G01X12242408Y6011356D02*
G01X12243028Y6011975D01*
G01X12403025Y6171972D02*
G01X13006500Y6775448D01*
G01X6422106Y47370D02*
G01X8259157Y1884420D01*
G01X8405308Y2030571D02*
G01X9321546Y2946809D01*
G01X9894796Y3520059D02*
G01X11459774Y5085037D01*
G01X11920163Y5545426D02*
G01X12305654Y5930918D01*
G01X12484082Y6109346D02*
G01X13006500Y6631764D01*
G01X6565790Y47370D02*
G01X8229346Y1710925D01*
G01X8510740Y1992319D02*
G01X9321546Y2803125D01*
G01X9906254Y3387833D02*
G01X11545083Y5026662D01*
G01X11978538Y5460117D02*
G01X12506062Y5987642D01*
G01X12681358Y6162938D02*
G01X13006500Y6488080D01*
G01X6709474Y47370D02*
G01X8229346Y1567241D01*
G01X8560116Y1898011D02*
G01X9321546Y2659441D01*
G01X9906254Y3244149D02*
G01X11658640Y4996535D01*
G01X12008665Y5346560D02*
G01X12582822Y5920717D01*
G01X12748283Y6086178D02*
G01X13006500Y6344396D01*
G01X6853158Y47370D02*
G01X8229346Y1423557D01*
G01X8433054Y1627265D02*
G01X8622746Y1816957D01*
G01X8822839Y2017050D02*
G01X9321546Y2515757D01*
G01X9906254Y3100465D02*
G01X11842522Y5036734D01*
G01X11968466Y5162677D02*
G01X13006500Y6200712D01*
G01X6996843Y47370D02*
G01X7742960Y793487D01*
G01X7878911Y929438D02*
G01X8229346Y1279873D01*
G01X8433054Y1483581D02*
G01X8693526Y1744053D01*
G01X8895743Y1946270D02*
G01X9321546Y2372073D01*
G01X9906254Y2956781D02*
G01X13006500Y6057027D01*
G01X7140527Y47370D02*
G01X7750868Y657711D01*
G01X8014687Y921530D02*
G01X8229346Y1136189D01*
G01X8433054Y1339897D02*
G01X8855791Y1762634D01*
G01X8877162Y1784005D02*
G01X9321546Y2228389D01*
G01X9906254Y2813097D02*
G01X13006500Y5913343D01*
G01X7284211Y47370D02*
G01X7813704Y576863D01*
G01X8095535Y858694D02*
G01X8258107Y1021266D01*
G01X8433054Y1196213D02*
G01X8497648Y1260807D01*
G01X8619794Y1382953D02*
G01X9321546Y2084705D01*
G01X9906254Y2669413D02*
G01X13006500Y5769659D01*
G01X7427895Y47370D02*
G01X7916956Y536431D01*
G01X8135967Y755442D02*
G01X8329941Y949416D01*
G01X8473984Y1093459D02*
G01X8499350Y1118825D01*
G01X8761776Y1381250D02*
G01X9321546Y1941021D01*
G01X9906254Y2525729D02*
G01X13006500Y5625975D01*
G01X7571579Y47370D02*
G01X8401783Y877574D01*
G01X8545826Y1021617D02*
G01X8605055Y1080845D01*
G01X8799755Y1275546D02*
G01X9366983Y1842774D01*
G01X9906254Y2382045D02*
G01X11394456Y3870247D01*
G01X11534953Y4010744D02*
G01X13006500Y5482291D01*
G01X7715263Y47370D02*
G01X8473625Y805732D01*
G01X8617668Y949775D02*
G01X8748739Y1080845D01*
G01X8799755Y1131862D02*
G01X9438825Y1770932D01*
G01X9906254Y2238361D02*
G01X11359677Y3691784D01*
G01X11713416Y4045523D02*
G01X13006500Y5338607D01*
G01X7858947Y47370D02*
G01X8545467Y733890D01*
G01X8689510Y877933D02*
G01X9501642Y1690064D01*
G01X9941550Y2129972D02*
G01X11390884Y3579307D01*
G01X11825893Y4014316D02*
G01X13006500Y5194923D01*
G01X8002631Y47370D02*
G01X8546848Y591586D01*
G01X8748798Y793537D02*
G01X9549189Y1593927D01*
G01X10013392Y2058130D02*
G01X11449990Y3494728D01*
G01X11910472Y3955210D02*
G01X13006500Y5051239D01*
G01X8146315Y47370D02*
G01X8498143Y399198D01*
G01X8541605Y442659D02*
G01X8546848Y447902D01*
G01X8750556Y651610D02*
G01X9652492Y1553546D01*
G01X10085234Y1986288D02*
G01X11532093Y3433147D01*
G01X11972053Y3873107D02*
G01X13006500Y4907555D01*
G01X8289999Y47370D02*
G01X8497648Y255018D01*
G01X8750556Y507926D02*
G01X9850918Y1608288D01*
G01X10157076Y1914446D02*
G01X11641024Y3398394D01*
G01X12006806Y3764176D02*
G01X13006500Y4763871D01*
G01X8433683Y47370D02*
G01X8530657Y144343D01*
G01X8796460Y410146D02*
G01X9994602Y1608288D01*
G01X10291568Y1905254D02*
G01X10506532Y2120219D01*
G01X10576987Y2190674D02*
G01X11805290Y3418976D01*
G01X11986224Y3599910D02*
G01X13006500Y4620186D01*
G01X8577368Y47370D02*
G01X8671045Y141047D01*
G01X8799755Y269757D02*
G01X10138286Y1608288D01*
G01X10435252Y1905254D02*
G01X10510801Y1980803D01*
G01X10716403Y2186405D02*
G01X11507208Y2977210D01*
G01X11720390Y3190392D02*
G01X13006500Y4476502D01*
G01X8721052Y47370D02*
G01X10281970Y1608288D01*
G01X10563911Y1890228D02*
G01X10587604Y1913922D01*
G01X10783284Y2109602D02*
G01X11570948Y2897266D01*
G01X11800334Y3126651D02*
G01X13006500Y4332818D01*
G01X8864736Y47369D02*
G01X10047045Y1229678D01*
G01X10200319Y1382953D02*
G01X10425654Y1608288D01*
G01X10670432Y1853066D02*
G01X11689478Y2872111D01*
G01X11825488Y3008122D02*
G01X13006500Y4189134D01*
G01X9008420Y47369D02*
G01X10059515Y1098465D01*
G01X10331532Y1370482D02*
G01X10540741Y1579691D01*
G01X10760310Y1799259D02*
G01X13006500Y4045450D01*
G01X9152104Y47369D02*
G01X10101410Y996676D01*
G01X10474988Y1370254D02*
G01X10553672Y1448937D01*
G01X10810691Y1705957D02*
G01X11305088Y2200353D01*
G01X11440450Y2335716D02*
G01X13006500Y3901766D01*
G01X9295788Y47369D02*
G01X10165588Y917169D01*
G01X10618673Y1370254D02*
G01X10622788Y1374369D01*
G01X10882533Y1634114D02*
G01X11338346Y2089927D01*
G01X11550876Y2302457D02*
G01X13006500Y3758082D01*
G01X9439472Y47369D02*
G01X10255624Y863521D01*
G01X10954375Y1562272D02*
G01X11358807Y1966704D01*
G01X11604095Y2211993D02*
G01X13006500Y3614398D01*
G01X9583156Y47369D02*
G01X10298032Y762246D01*
G01X11085441Y1549654D02*
G01X11415712Y1879926D01*
G01X11505874Y1970088D02*
G01X13006500Y3470714D01*
G01X9726840Y47369D02*
G01X10047045Y367574D01*
G01X10122626Y443155D02*
G01X10311535Y632064D01*
G01X10922254Y1242783D02*
G01X10948323Y1268852D01*
G01X10978542Y1299071D02*
G01X11025417Y1345946D01*
G01X11229125Y1549654D02*
G01X11310890Y1631419D01*
G01X11564692Y1885222D02*
G01X11803394Y2123923D01*
G01X12023876Y2344405D02*
G01X13006500Y3327030D01*
G01X9870524Y47369D02*
G01X10047045Y223890D01*
G01X10266310Y443155D02*
G01X10289418Y466263D01*
G01X10644049Y820894D02*
G01X10686501Y863346D01*
G01X11148508Y1325353D02*
G01X11169101Y1345946D01*
G01X11581585Y1758430D02*
G01X11866556Y2043401D01*
G01X12104398Y2281243D02*
G01X13006500Y3183345D01*
G01X10014209Y47369D02*
G01X10107886Y141047D01*
G01X10690721Y723882D02*
G01X10920379Y953540D01*
G01X11229969Y1263130D02*
G01X11312785Y1345946D01*
G01X11600604Y1633765D02*
G01X11981103Y2014264D01*
G01X12133535Y2166696D02*
G01X13006500Y3039661D01*
G01X10157893Y47369D02*
G01X10251570Y141047D01*
G01X10349152Y238629D02*
G01X10418270Y307746D01*
G01X10659883Y549359D02*
G01X10980630Y870107D01*
G01X11263055Y1152532D02*
G01X11456469Y1345946D01*
G01X11660177Y1549654D02*
G01X11792346Y1681823D01*
G01X11957977Y1847454D02*
G01X12397343Y2286819D01*
G01X12546781Y2436257D02*
G01X13006500Y2895977D01*
G01X10301577Y47369D02*
G01X10561923Y307716D01*
G01X10689684Y435477D02*
G01X11088553Y834346D01*
G01X11263048Y1008841D02*
G01X11380949Y1126741D01*
G01X11587918Y1333711D02*
G01X11600153Y1345946D01*
G01X12099166Y1844958D02*
G01X12456578Y2202371D01*
G01X12631229Y2377022D02*
G01X13006500Y2752293D01*
G01X10445261Y47369D02*
G01X11382802Y984911D01*
G01X11682131Y1284239D02*
G01X11743837Y1345946D01*
G01X12134454Y1736562D02*
G01X12405214Y2007322D01*
G01X12572278Y2174386D02*
G01X13006500Y2608609D01*
G01X10588945Y47369D02*
G01X10755937Y214362D01*
G01X10966024Y424448D02*
G01X11430022Y888446D01*
G01X11730697Y1189121D02*
G01X11878966Y1337391D01*
G01X12023009Y1481434D02*
G01X12046922Y1505346D01*
G01X12134454Y1592878D02*
G01X12433046Y1891471D01*
G01X12641971Y2100395D02*
G01X13006500Y2464925D01*
G01X10732629Y47369D02*
G01X10783573Y98314D01*
G01X11040785Y355525D02*
G01X11522927Y837668D01*
G01X11733057Y1047797D02*
G01X11851032Y1165773D01*
G01X12094851Y1409592D02*
G01X12433046Y1747786D01*
G01X12611354Y1926094D02*
G01X13006500Y2321241D01*
G01X11058045Y229102D02*
G01X11850950Y1022007D01*
G01X12131226Y1302283D02*
G01X12407237Y1578293D01*
G01X12611354Y1782410D02*
G01X13006500Y2177557D01*
G01X11019997Y47369D02*
G01X11882481Y909854D01*
G01X12192652Y1220024D02*
G01X12482863Y1510235D01*
G01X12641959Y1669331D02*
G01X13006500Y2033873D01*
G01X11163681Y47369D02*
G01X11962782Y846470D01*
G01X12293272Y1176960D02*
G01X13006500Y1890188D01*
G01X11307365Y47369D02*
G01X12122457Y862461D01*
G01X12174936Y914940D02*
G01X12258648Y998652D01*
G01X12420875Y1160879D02*
G01X13006500Y1746504D01*
G01X11451049Y47369D02*
G01X12367602Y963921D01*
G01X12493684Y1090004D02*
G01X13006500Y1602820D01*
G01X11594734Y47369D02*
G01X12406754Y859390D01*
G01X12572815Y1025451D02*
G01X13006500Y1459136D01*
G01X11738418Y47369D02*
G01X12481688Y790639D01*
G01X12641566Y950518D02*
G01X13006500Y1315452D01*
G01X11882102Y47369D02*
G01X12055934Y221202D01*
G01X12261150Y426417D02*
G01X13006500Y1171768D01*
G01X12026193Y47776D02*
G01X12080798Y102382D01*
G01X12338368Y359951D02*
G01X13006500Y1028084D01*
G01X12358043Y235942D02*
G01X12990755Y868655D01*
G01X12398404Y132620D02*
G01X12924931Y659147D01*
G01X-131948Y1662528D02*
G01X-101425Y1632004D01*
G01X-131948Y1806212D02*
G01X3616Y1670648D01*
G01X-131948Y1949896D02*
G01X113642Y1704306D01*
G01X-131948Y2093580D02*
G01X229125Y1732506D01*
G01X-80876Y2186192D02*
G01X350682Y1754633D01*
G01X-21876Y2270875D02*
G01X479133Y1769867D01*
G01X21109Y2371574D02*
G01X615602Y1777082D01*
G01X43077Y2493291D02*
G01X777889Y1758478D01*
G01X2258667Y277701D02*
G01X2488998Y47370D01*
G01X43915Y2636137D02*
G01X908144Y1771908D01*
G01X2260854Y419198D02*
G01X2632682Y47370D01*
G01X43916Y2779820D02*
G01X1079713Y1744023D01*
G01X2260854Y562882D02*
G01X2776366Y47370D01*
G01X43923Y2923497D02*
G01X1276513Y1690907D01*
G01X2260854Y706566D02*
G01X2491966Y475454D01*
G01X2594855Y372565D02*
G01X2920050Y47370D01*
G01X43935Y3067169D02*
G01X1520810Y1590294D01*
G01X2260854Y850250D02*
G01X2526124Y584980D01*
G01X2704381Y406723D02*
G01X2720071Y391033D01*
G01X2863032Y248072D02*
G01X3063735Y47370D01*
G01X43952Y3210837D02*
G01X2491508Y763280D01*
G01X2741120Y513668D02*
G01X2776221Y478567D01*
G01X2950566Y304222D02*
G01X3207419Y47370D01*
G01X43974Y3354499D02*
G01X2547795Y850678D01*
G01X2722079Y676394D02*
G01X2728664Y669809D01*
G01X2893810Y504663D02*
G01X3351103Y47370D01*
G01X44001Y3498156D02*
G01X2802583Y739573D01*
G01X2963574Y578582D02*
G01X3494787Y47370D01*
G01X44033Y3641808D02*
G01X3638471Y47370D01*
G01X44070Y3785455D02*
G01X3131045Y698479D01*
G01X3236473Y593052D02*
G01X3782155Y47370D01*
G01X44112Y3929097D02*
G01X3170116Y803092D01*
G01X3341086Y632123D02*
G01X3925839Y47370D01*
G01X44159Y4072733D02*
G01X3132090Y984802D01*
G01X3272809Y844084D02*
G01X3288533Y828360D01*
G01X3366353Y750540D02*
G01X4069523Y47370D01*
G01X44212Y4216365D02*
G01X2214753Y2045824D01*
G01X2373431Y1887146D02*
G01X3191867Y1068710D01*
G01X3356716Y903861D02*
G01X3538279Y722298D01*
G01X3747958Y512619D02*
G01X3786633Y473944D01*
G01X3826744Y433833D02*
G01X4213207Y47370D01*
G01X44269Y4359992D02*
G01X2221527Y2182734D01*
G01X2472841Y1931420D02*
G01X3590871Y813390D01*
G01X3980094Y424167D02*
G01X3980744Y423517D01*
G01X4123288Y280973D02*
G01X4356891Y47370D01*
G01X44332Y4503613D02*
G01X462159Y4085786D01*
G01X581386Y3966559D02*
G01X2283365Y2264580D01*
G01X2516709Y2031236D02*
G01X3723368Y824577D01*
G01X4230390Y317555D02*
G01X4500576Y47370D01*
G01X43897Y4647732D02*
G01X488130Y4203499D01*
G01X726971Y3964658D02*
G01X890346Y3801283D01*
G01X1062223Y3629406D02*
G01X2408823Y2282807D01*
G01X2510607Y2181023D02*
G01X2665182Y2026447D01*
G01X2804233Y1887396D02*
G01X3968153Y723476D01*
G01X4076276Y615353D02*
G01X4110283Y581347D01*
G01X4281117Y410512D02*
G01X4644260Y47370D01*
G01X43459Y4791854D02*
G01X459509Y4375805D01*
G01X822148Y4013166D02*
G01X946319Y3888994D01*
G01X1183595Y3651718D02*
G01X2667674Y2167639D01*
G01X2912960Y1922353D02*
G01X4039996Y795318D01*
G01X4148118Y687196D02*
G01X4787944Y47370D01*
G01X43021Y4935976D02*
G01X503487Y4475510D01*
G01X861429Y4117569D02*
G01X903700Y4075297D01*
G01X1192454Y3786543D02*
G01X2214753Y2764245D01*
G01X2428455Y2550543D02*
G01X2722326Y2256671D01*
G01X2964937Y2014060D02*
G01X4111838Y867160D01*
G01X4219960Y759038D02*
G01X4931628Y47370D01*
G01X42583Y5080098D02*
G01X463735Y4658947D01*
G01X836716Y4285966D02*
G01X895836Y4226845D01*
G01X1176683Y3945999D02*
G01X2244576Y2878106D01*
G01X2501354Y2621328D02*
G01X2834824Y2287857D01*
G01X2965644Y2157038D02*
G01X3139424Y1983258D01*
G01X3225457Y1897224D02*
G01X4183680Y939002D01*
G01X4291802Y830880D02*
G01X5075312Y47370D01*
G01X42145Y5224220D02*
G01X521467Y4744899D01*
G01X1124986Y4141380D02*
G01X1133230Y4133136D01*
G01X1161336Y4105030D02*
G01X2331310Y2935055D01*
G01X2516861Y2749505D02*
G01X3129153Y2137213D01*
G01X3357900Y1908465D02*
G01X4255522Y1010844D01*
G01X4363644Y902722D02*
G01X5218996Y47370D01*
G01X41707Y5368342D02*
G01X472223Y4937827D01*
G01X1186123Y4223927D02*
G01X2664765Y2745285D01*
G01X2864911Y2545139D02*
G01X3169391Y2240658D01*
G01X3422562Y1987487D02*
G01X4327364Y1082686D01*
G01X4435486Y974564D02*
G01X5362680Y47370D01*
G01X41269Y5512465D02*
G01X542169Y5011565D01*
G01X799160Y4754574D02*
G01X839403Y4714331D01*
G01X1229638Y4324096D02*
G01X2686945Y2866789D01*
G01X2944633Y2609100D02*
G01X3265400Y2288334D01*
G01X3431261Y2122473D02*
G01X4399206Y1154528D01*
G01X4507328Y1046406D02*
G01X5506364Y47370D01*
G01X40831Y5656587D02*
G01X669565Y5027853D01*
G01X857006Y4840412D02*
G01X893166Y4804252D01*
G01X1323480Y4373938D02*
G01X2038132Y3659286D01*
G01X2295932Y3401486D02*
G01X2766611Y2930807D01*
G01X2966873Y2730545D02*
G01X3579139Y2118279D01*
G01X3795580Y1901838D02*
G01X4471048Y1226370D01*
G01X4579170Y1118248D02*
G01X5650048Y47370D01*
G01X40393Y5800709D02*
G01X536428Y5304674D01*
G01X705268Y5135834D02*
G01X947545Y4893557D01*
G01X1395322Y4445780D02*
G01X2041717Y3799385D01*
G01X2436031Y3405071D02*
G01X3129153Y2711949D01*
G01X3302508Y2538594D02*
G01X3610696Y2230406D01*
G01X3867043Y1974059D02*
G01X4542890Y1298212D01*
G01X4651012Y1190090D02*
G01X5793732Y47370D01*
G01X39955Y5944831D02*
G01X514807Y5469979D01*
G01X620585Y5364201D02*
G01X629453Y5355333D01*
G01X755927Y5228859D02*
G01X900679Y5084107D01*
G01X1191349Y4793437D02*
G01X1266482Y4718304D01*
G01X1467164Y4517622D02*
G01X2085319Y3899467D01*
G01X2536114Y3448673D02*
G01X2621798Y3362989D01*
G01X2804186Y3180600D02*
G01X3140168Y2844618D01*
G01X3394989Y2589797D02*
G01X3698984Y2285802D01*
G01X3881247Y2103539D02*
G01X4614732Y1370054D01*
G01X4722854Y1261932D02*
G01X5937417Y47370D01*
G01X39517Y6088953D02*
G01X554061Y5574409D01*
G01X725016Y5403454D02*
G01X901004Y5227466D01*
G01X1173153Y4955318D02*
G01X1363011Y4765459D01*
G01X1539006Y4589464D02*
G01X2153616Y3974854D01*
G01X2611500Y3516970D02*
G01X2679263Y3449207D01*
G01X2890404Y3238066D02*
G01X3207870Y2920600D01*
G01X3431261Y2697209D02*
G01X4647946Y1480524D01*
G01X4792201Y1336269D02*
G01X6081101Y47370D01*
G01X39079Y6233075D02*
G01X672741Y5599414D01*
G01X750020Y5522134D02*
G01X911635Y5360520D01*
G01X1177570Y5094585D02*
G01X1429018Y4843137D01*
G01X1610848Y4661306D02*
G01X2245349Y4026806D01*
G01X2663452Y3608703D02*
G01X2796250Y3475904D01*
G01X3083142Y3189012D02*
G01X3350415Y2921740D01*
G01X3413953Y2858201D02*
G01X3579165Y2692990D01*
G01X3735135Y2537019D02*
G01X4647946Y1624208D01*
G01X4800854Y1471300D02*
G01X6224785Y47370D01*
G01X38641Y6377197D02*
G01X990440Y5425398D01*
G01X1183598Y5232240D02*
G01X1518810Y4897028D01*
G01X1670181Y4745657D02*
G01X2369182Y4046657D01*
G01X2683303Y3732536D02*
G01X2952496Y3463342D01*
G01X3233087Y3182751D02*
G01X3585285Y2830554D01*
G01X3835837Y2580002D02*
G01X4703258Y1712580D01*
G01X4811380Y1604458D02*
G01X4939683Y1476155D01*
G01X4981355Y1434483D02*
G01X6368469Y47370D01*
G01X38332Y6521191D02*
G01X1578663Y4980859D01*
G01X1678859Y4880663D02*
G01X2952496Y3607027D01*
G01X3092704Y3466819D02*
G01X3106527Y3452995D01*
G01X3148193Y3411330D02*
G01X3149890Y3409633D01*
G01X3358830Y3200692D02*
G01X3646079Y2913444D01*
G01X3880977Y2678546D02*
G01X4775100Y1784422D01*
G01X4883222Y1676300D02*
G01X4938946Y1620576D01*
G01X5125776Y1433746D02*
G01X6512153Y47370D01*
G01X-8338Y6711544D02*
G01X2952496Y3750711D01*
G01X3092704Y3610503D02*
G01X3231607Y3471600D01*
G01X3526811Y3176396D02*
G01X3769304Y2933903D01*
G01X3876128Y2827078D02*
G01X4846942Y1856264D01*
G01X4976261Y1726946D02*
G01X4987418Y1715788D01*
G01X5220988Y1482218D02*
G01X5936948Y766259D01*
G01X6165461Y537746D02*
G01X6655837Y47370D01*
G01X-131948Y6978839D02*
G01X2967787Y3879104D01*
G01X3092704Y3754187D02*
G01X3184481Y3662410D01*
G01X3353215Y3493675D02*
G01X3418376Y3428515D01*
G01X3631710Y3215181D02*
G01X4404708Y2442183D01*
G01X4598399Y2248492D02*
G01X4967037Y1879854D01*
G01X5119945Y1726946D02*
G01X5131037Y1715854D01*
G01X5697795Y1149096D02*
G01X5981453Y865438D01*
G01X6264639Y582251D02*
G01X6799521Y47370D01*
G01X-131948Y7122523D02*
G01X3039316Y3951258D01*
G01X3138458Y3852116D02*
G01X3262661Y3727914D01*
G01X3418719Y3571855D02*
G01X3513131Y3477443D01*
G01X3811763Y3178811D02*
G01X4469998Y2520576D01*
G01X4676792Y2313782D02*
G01X5110721Y1879854D01*
G01X5263629Y1726946D02*
G01X5283913Y1706662D01*
G01X5841479Y1149096D02*
G01X6065582Y924993D01*
G01X6324195Y666380D02*
G01X6943205Y47370D01*
G01X-131948Y7266207D02*
G01X3111158Y4023100D01*
G01X3210300Y3923958D02*
G01X3689497Y3444762D01*
G01X3901957Y3232302D02*
G01X4395561Y2738698D01*
G01X4544902Y2589356D02*
G01X4604246Y2530013D01*
G01X4686229Y2448030D02*
G01X5254405Y1879854D01*
G01X5404682Y1729577D02*
G01X5475016Y1659243D01*
G01X5672443Y1461816D02*
G01X5844955Y1289304D01*
G01X5996584Y1137675D02*
G01X6211331Y922928D01*
G01X6322129Y812129D02*
G01X7086889Y47370D01*
G01X-90240Y7368183D02*
G01X2044139Y5233804D01*
G01X2270451Y5007492D02*
G01X3183000Y4094943D01*
G01X3282143Y3995800D02*
G01X3800305Y3477638D01*
G01X4091884Y3186059D02*
G01X4435358Y2842585D01*
G01X4648789Y2629154D02*
G01X5208247Y2069696D01*
G01X5325290Y1952653D02*
G01X5375610Y1902333D01*
G01X5483733Y1794210D02*
G01X5564125Y1713818D01*
G01X5727018Y1550925D02*
G01X5978712Y1299231D01*
G01X6074431Y1203512D02*
G01X7230573Y47370D01*
G01X128953Y7292674D02*
G01X1702125Y5719502D01*
G01X1807902Y5613725D02*
G01X2038194Y5383433D01*
G01X2420079Y5001548D02*
G01X3254843Y4166785D01*
G01X3353985Y4067643D02*
G01X3468448Y3953179D01*
G01X3622980Y3798647D02*
G01X3963285Y3458343D01*
G01X4233043Y3188584D02*
G01X4444743Y2976884D01*
G01X4696849Y2724778D02*
G01X5249596Y2172031D01*
G01X5427625Y1994002D02*
G01X5447452Y1974175D01*
G01X5555575Y1866052D02*
G01X7374258Y47370D01*
G01X315998Y7249314D02*
G01X1707896Y5857415D01*
G01X1857493Y5707818D02*
G01X2077839Y5487472D01*
G01X2524118Y5041193D02*
G01X3326685Y4238627D01*
G01X3425827Y4139485D02*
G01X3481508Y4083803D01*
G01X3753604Y3811707D02*
G01X3903957Y3661354D01*
G01X4072148Y3493163D02*
G01X4099816Y3465495D01*
G01X4368505Y3196806D02*
G01X4444743Y3120568D01*
G01X4648451Y2916860D02*
G01X5364629Y2200682D01*
G01X5456276Y2109035D02*
G01X5516196Y2049115D01*
G01X5627417Y1937894D02*
G01X5830566Y1734745D01*
G01X5925745Y1639566D02*
G01X7517942Y47370D01*
G01X483116Y7225879D02*
G01X1707896Y6001099D01*
G01X1848104Y5860891D02*
G01X2143036Y5565959D01*
G01X2602605Y5106390D02*
G01X3398527Y4310469D01*
G01X3497669Y4211327D02*
G01X3608241Y4100755D01*
G01X3770555Y3938440D02*
G01X3941140Y3767855D01*
G01X4178649Y3530346D02*
G01X4239994Y3469001D01*
G01X4648451Y3060544D02*
G01X5545656Y2163340D01*
G01X5723734Y1985262D02*
G01X5849219Y1859776D01*
G01X6050776Y1658219D02*
G01X7661626Y47370D01*
G01X636042Y7216637D02*
G01X1707896Y6144783D01*
G01X1848104Y6004575D02*
G01X2231383Y5621296D01*
G01X2657942Y5194737D02*
G01X3470369Y4382311D01*
G01X3569511Y4283169D02*
G01X3941140Y3911539D01*
G01X4094048Y3758631D02*
G01X4169425Y3683254D01*
G01X4322333Y3530346D02*
G01X4429659Y3423020D01*
G01X4648451Y3204228D02*
G01X5648601Y2204078D01*
G01X5764472Y2088207D02*
G01X5933945Y1918734D01*
G01X6109734Y1742945D02*
G01X7805310Y47370D01*
G01X754894Y7241469D02*
G01X1707896Y6288467D01*
G01X1848104Y6148259D02*
G01X2349614Y5646750D01*
G01X2683396Y5312967D02*
G01X3542211Y4454153D01*
G01X3641353Y4355011D02*
G01X3941140Y4055223D01*
G01X4094048Y3902315D02*
G01X4313109Y3683254D01*
G01X4695332Y3301032D02*
G01X5208376Y2787987D01*
G01X5323593Y2672771D02*
G01X5728808Y2267556D01*
G01X5827950Y2168414D02*
G01X7948994Y47370D01*
G01X924016Y7216032D02*
G01X1707896Y6432152D01*
G01X1848104Y6291944D02*
G01X3615270Y4524777D01*
G01X3711977Y4428070D02*
G01X3941140Y4198907D01*
G01X4094048Y4045999D02*
G01X4444743Y3695304D01*
G01X4648451Y3491596D02*
G01X5248775Y2891272D01*
G01X5426878Y2713169D02*
G01X5800650Y2339398D01*
G01X5899792Y2240256D02*
G01X6374789Y1765259D01*
G01X6539468Y1600579D02*
G01X8092678Y47370D01*
G01X1051124Y7232607D02*
G01X1707896Y6575836D01*
G01X1848104Y6435628D02*
G01X2624627Y5659105D01*
G01X2814307Y5469425D02*
G01X3468448Y4815284D01*
G01X3545286Y4738445D02*
G01X3941140Y4342591D01*
G01X4094048Y4189683D02*
G01X4444743Y3838988D01*
G01X4648451Y3635280D02*
G01X5362562Y2921170D01*
G01X5456775Y2826956D02*
G01X5516713Y2767018D01*
G01X5607424Y2676307D02*
G01X5872492Y2411240D01*
G01X5971634Y2312098D02*
G01X6415293Y1868439D01*
G01X6642648Y1641084D02*
G01X8236362Y47370D01*
G01X1170842Y7256574D02*
G01X1707896Y6719520D01*
G01X1848104Y6579312D02*
G01X2686940Y5740476D01*
G01X2941376Y5486040D02*
G01X3183313Y5244103D01*
G01X3269308Y5158107D02*
G01X3468448Y4958968D01*
G01X3688971Y4738445D02*
G01X3941140Y4486276D01*
G01X4094048Y4333368D02*
G01X4141652Y4285764D01*
G01X4262070Y4165346D02*
G01X4484586Y3942830D01*
G01X4648451Y3778964D02*
G01X5544911Y2882504D01*
G01X5722910Y2704506D02*
G01X5944334Y2483082D01*
G01X6043476Y2383940D02*
G01X6507310Y1920106D01*
G01X6694315Y1733101D02*
G01X7741146Y686270D01*
G01X7885468Y541948D02*
G01X8380046Y47370D01*
G01X1284092Y7287008D02*
G01X1707896Y6863204D01*
G01X1848104Y6722996D02*
G01X2813465Y5757635D01*
G01X3091914Y5479186D02*
G01X3206052Y5365048D01*
G01X3390254Y5180846D02*
G01X3530547Y5040553D01*
G01X3770555Y4800545D02*
G01X3941140Y4629960D01*
G01X4094048Y4477052D02*
G01X4207865Y4363235D01*
G01X4405754Y4165346D02*
G01X4556428Y4014672D01*
G01X4700472Y3870628D02*
G01X5646913Y2924187D01*
G01X5764593Y2806507D02*
G01X5836842Y2734258D01*
G01X5909258Y2661842D02*
G01X6018882Y2552218D01*
G01X6152004Y2419096D02*
G01X7752311Y818789D01*
G01X8017987Y553113D02*
G01X8523730Y47370D01*
G01X1391554Y7323230D02*
G01X1707896Y7006888D01*
G01X1848104Y6866680D02*
G01X2962712Y5752072D01*
G01X3250097Y5464687D02*
G01X3300758Y5414026D01*
G01X3439232Y5275552D02*
G01X3674231Y5040553D01*
G01X4094048Y4620736D02*
G01X4345730Y4369054D01*
G01X4549438Y4165346D02*
G01X4628282Y4086502D01*
G01X4852638Y3862146D02*
G01X5845211Y2869573D01*
G01X6044573Y2670211D02*
G01X6155480Y2559304D01*
G01X6295688Y2419096D02*
G01X7816413Y898371D01*
G01X8097569Y617215D02*
G01X8497648Y217136D01*
G01X8573737Y141047D02*
G01X8667414Y47370D01*
G01X1493736Y7364733D02*
G01X1707896Y7150572D01*
G01X1848104Y7010364D02*
G01X3155194Y5703274D01*
G01X3366477Y5491991D02*
G01X4489414Y4369054D01*
G01X4693122Y4165346D02*
G01X4729623Y4128845D01*
G01X4984760Y3873708D02*
G01X5018850Y3839618D01*
G01X5058815Y3799653D02*
G01X5925966Y2932502D01*
G01X6107502Y2750966D02*
G01X6299164Y2559304D01*
G01X6439372Y2419096D02*
G01X7921335Y937133D01*
G01X8136331Y722137D02*
G01X8497648Y360820D01*
G01X8717421Y141047D02*
G01X8811099Y47370D01*
G01X1591025Y7411127D02*
G01X1737805Y7264348D01*
G01X1848104Y7154048D02*
G01X3241771Y5760381D01*
G01X3539544Y5462609D02*
G01X4633098Y4369054D01*
G01X5203505Y3798647D02*
G01X5441288Y3560864D01*
G01X5602606Y3399546D02*
G01X6442848Y2559304D01*
G01X6583056Y2419096D02*
G01X6772949Y2229203D01*
G01X6930210Y2071942D02*
G01X8546848Y455305D01*
G01X8799755Y202397D02*
G01X8954783Y47369D01*
G01X1683719Y7462117D02*
G01X1809647Y7336190D01*
G01X1908789Y7237048D02*
G01X3424711Y5721126D01*
G01X3638326Y5507511D02*
G01X4691206Y4454631D01*
G01X5315950Y3829886D02*
G01X5502305Y3643532D01*
G01X5742012Y3403824D02*
G01X6586532Y2559304D01*
G01X6726740Y2419096D02*
G01X6846728Y2299108D01*
G01X7000115Y2145721D02*
G01X7375010Y1770826D01*
G01X7545034Y1600803D02*
G01X8546848Y598989D01*
G01X8799755Y346081D02*
G01X9098467Y47369D01*
G01X1772041Y7517479D02*
G01X1881489Y7408032D01*
G01X1980631Y7308890D02*
G01X3525167Y5764354D01*
G01X3822376Y5467144D02*
G01X3980014Y5309507D01*
G01X4134711Y5154810D02*
G01X4448141Y4841379D01*
G01X4561979Y4727541D02*
G01X4694829Y4594691D01*
G01X5070099Y4219422D02*
G01X5188766Y4100755D01*
G01X5319952Y3969568D02*
G01X5449869Y3839651D01*
G01X5823077Y3466444D02*
G01X6730216Y2559304D01*
G01X6870424Y2419096D02*
G01X7036008Y2253513D01*
G01X7204506Y2085014D02*
G01X7418049Y1871471D01*
G01X7645678Y1643842D02*
G01X8237686Y1051834D01*
G01X8750556Y538965D02*
G01X9242151Y47369D01*
G01X1856160Y7577044D02*
G01X1953331Y7479874D01*
G01X2052473Y7380732D02*
G01X3696852Y5736353D01*
G01X3907553Y5525652D02*
G01X4038901Y5394303D01*
G01X4219508Y5213697D02*
G01X4289803Y5143401D01*
G01X4402407Y5030797D02*
G01X4522841Y4910363D01*
G01X4630963Y4802241D02*
G01X4675746Y4757458D01*
G01X5025957Y4407247D02*
G01X5450055Y3983149D01*
G01X5513350Y3919855D02*
G01X5525064Y3908141D01*
G01X5766348Y3666857D02*
G01X6873900Y2559304D01*
G01X7014108Y2419096D02*
G01X7127978Y2305227D01*
G01X7256220Y2176985D02*
G01X7512285Y1920920D01*
G01X7695127Y1738077D02*
G01X8229346Y1203858D01*
G01X8750556Y682649D02*
G01X9385835Y47369D01*
G01X1936194Y7640694D02*
G01X2025173Y7551716D01*
G01X2124315Y7452574D02*
G01X3815667Y5761222D01*
G01X4101036Y5475852D02*
G01X4151475Y5425413D01*
G01X4250617Y5326271D02*
G01X4328856Y5248033D01*
G01X4507039Y5069850D02*
G01X4594683Y4982205D01*
G01X5138833Y4438056D02*
G01X5462140Y4114749D01*
G01X5833279Y3743610D02*
G01X7017585Y2559304D01*
G01X7157793Y2419096D02*
G01X8229346Y1347543D01*
G01X8433054Y1143835D02*
G01X9529519Y47369D01*
G01X2012221Y7708351D02*
G01X2097015Y7623558D01*
G01X2196157Y7524416D02*
G01X3971728Y5748844D01*
G01X4355077Y5365496D02*
G01X4440982Y5279590D01*
G01X4538596Y5181977D02*
G01X4647946Y5072627D01*
G01X4774647Y4945925D02*
G01X4794319Y4926254D01*
G01X5211708Y4508865D02*
G01X5438141Y4282432D01*
G01X5787080Y3933493D02*
G01X7161269Y2559304D01*
G01X7301477Y2419096D02*
G01X7443317Y2277256D01*
G01X7561827Y2158746D02*
G01X8229346Y1491227D01*
G01X8433054Y1287519D02*
G01X8497648Y1222925D01*
G01X8639727Y1080845D02*
G01X9673203Y47369D01*
G01X2084280Y7779977D02*
G01X2168857Y7695400D01*
G01X2267999Y7596258D02*
G01X4132691Y5731565D01*
G01X4156765Y5707491D02*
G01X4166976Y5697281D01*
G01X4498761Y5365496D02*
G01X4647946Y5216311D01*
G01X4800854Y5063403D02*
G01X4938003Y4926254D01*
G01X5269578Y4594678D02*
G01X5477570Y4386687D01*
G01X5839157Y4025100D02*
G01X7304953Y2559304D01*
G01X7445161Y2419096D02*
G01X7508220Y2356037D01*
G01X7705119Y2159137D02*
G01X8229346Y1634911D01*
G01X8433054Y1431203D02*
G01X8505366Y1358890D01*
G01X8775693Y1088564D02*
G01X9816887Y47369D01*
G01X2152371Y7855570D02*
G01X2240699Y7767242D01*
G01X2339841Y7668100D02*
G01X4249707Y5758234D01*
G01X4642445Y5365496D02*
G01X4655216Y5352725D01*
G01X4800854Y5207087D02*
G01X5017848Y4990093D01*
G01X5270752Y4737188D02*
G01X5439567Y4568373D01*
G01X5804682Y4203259D02*
G01X7448637Y2559304D01*
G01X7588845Y2419096D02*
G01X7645487Y2362454D01*
G01X7793792Y2214149D02*
G01X8229346Y1778595D01*
G01X8433054Y1574887D02*
G01X8624988Y1382953D01*
G01X8799755Y1208186D02*
G01X9960571Y47369D01*
G01X2216461Y7935164D02*
G01X2312541Y7839084D01*
G01X2411683Y7739942D02*
G01X3680806Y6470819D01*
G01X3781682Y6369943D02*
G01X4435683Y5715942D01*
G01X4744383Y5407241D02*
G01X5009984Y5141641D01*
G01X5319952Y4831673D02*
G01X5496031Y4655594D01*
G01X5838187Y4313438D02*
G01X7591641Y2559983D01*
G01X7690783Y2460841D02*
G01X7721591Y2430034D01*
G01X7865634Y2285991D02*
G01X8259594Y1892031D01*
G01X8433054Y1718571D02*
G01X8777723Y1373902D01*
G01X8790704Y1360921D02*
G01X10104255Y47369D01*
G01X2276477Y8018832D02*
G01X2384383Y7910926D01*
G01X2483525Y7811784D02*
G01X3682746Y6612563D01*
G01X3840497Y6454812D02*
G01X4156546Y6138763D01*
G01X4208363Y6086946D02*
G01X4531604Y5763706D01*
G01X4696906Y5598404D02*
G01X4717084Y5578226D01*
G01X4816226Y5479084D02*
G01X5048040Y5247270D01*
G01X5226264Y5069045D02*
G01X5254756Y5040553D01*
G01X5418763Y4876546D02*
G01X5446812Y4848497D01*
G01X5819250Y4476059D02*
G01X7663484Y2631826D01*
G01X7762626Y2532684D02*
G01X7793433Y2501876D01*
G01X7937476Y2357833D02*
G01X8306160Y1989149D01*
G01X8519727Y1775582D02*
G01X10047045Y248264D01*
G01X10154262Y141047D02*
G01X10247940Y47369D01*
G01X2311654Y8127339D02*
G01X2456225Y7982768D01*
G01X2555367Y7883626D02*
G01X3682746Y6756247D01*
G01X3835654Y6603339D02*
G01X4156546Y6282447D01*
G01X4352047Y6086946D02*
G01X4788926Y5650068D01*
G01X4888068Y5550926D02*
G01X5159009Y5279984D01*
G01X5258978Y5180015D02*
G01X5409539Y5029454D01*
G01X5759319Y4679674D02*
G01X5787910Y4651084D01*
G01X5813284Y4625710D02*
G01X6991318Y3447676D01*
G01X7009876Y3429118D02*
G01X7735326Y2703668D01*
G01X7834468Y2604526D02*
G01X7876051Y2562942D01*
G01X7998542Y2440451D02*
G01X8408354Y2030639D01*
G01X8561232Y1877761D02*
G01X8623355Y1815639D01*
G01X8696245Y1742749D02*
G01X10047045Y391949D01*
G01X10297946Y141047D02*
G01X10391624Y47369D01*
G01X2311654Y8271023D02*
G01X2528067Y8054610D01*
G01X2627209Y7955468D02*
G01X3682746Y6899931D01*
G01X3835654Y6747023D02*
G01X4156546Y6426131D01*
G01X4428654Y6154023D02*
G01X4430329Y6152349D01*
G01X4475949Y6106729D02*
G01X4860768Y5721910D01*
G01X4959910Y5622768D02*
G01X5553223Y5029454D01*
G01X5830557Y4752120D02*
G01X6982034Y3600643D01*
G01X7183131Y3399546D02*
G01X7807168Y2775510D01*
G01X7906310Y2676368D02*
G01X8628719Y1953958D01*
G01X8834564Y1748113D02*
G01X10139523Y443155D01*
G01X10349152Y233525D02*
G01X10535308Y47369D01*
G01X2311654Y8414707D02*
G01X2599909Y8126452D01*
G01X2699051Y8027310D02*
G01X3682746Y7043615D01*
G01X3835654Y6890707D02*
G01X4156794Y6569567D01*
G01X4802065Y5924296D02*
G01X4924637Y5801724D01*
G01X5039724Y5686637D02*
G01X5331037Y5395324D01*
G01X5640265Y5086096D02*
G01X5696907Y5029454D01*
G01X5849815Y4876546D02*
G01X6963574Y3762787D01*
G01X7305080Y3421281D02*
G01X7879010Y2847352D01*
G01X7978152Y2748210D02*
G01X8705835Y2020526D01*
G01X8901132Y1825229D02*
G01X10283207Y443155D01*
G01X10418674Y307688D02*
G01X10678992Y47369D01*
G01X2311654Y8558391D02*
G01X2443143Y8426903D01*
G01X2596104Y8273941D02*
G01X2671751Y8198294D01*
G01X2770893Y8099152D02*
G01X3682746Y7187299D01*
G01X3835654Y7034391D02*
G01X4156546Y6713499D01*
G01X4945749Y5924296D02*
G01X5643741Y5226304D01*
G01X5783949Y5086096D02*
G01X5840591Y5029454D01*
G01X6526899Y4343146D02*
G01X6996527Y3873519D01*
G01X7361914Y3508132D02*
G01X7950852Y2919194D01*
G01X8049994Y2820052D02*
G01X10320591Y549455D01*
G01X10562277Y307768D02*
G01X10822676Y47369D01*
G01X2313247Y8700482D02*
G01X2506228Y8507501D01*
G01X2676703Y8337027D02*
G01X2682579Y8331150D01*
G01X2852949Y8160780D02*
G01X3682746Y7330984D01*
G01X3835654Y7178076D02*
G01X4163830Y6849900D01*
G01X5089434Y5924296D02*
G01X5787426Y5226304D01*
G01X5927634Y5086096D02*
G01X6517676Y4496054D01*
G01X6670584Y4343146D02*
G01X6962369Y4051361D01*
G01X7323616Y3690114D02*
G01X7571012Y3442717D01*
G01X7655021Y3358708D02*
G01X8022694Y2991036D01*
G01X8121836Y2891894D02*
G01X10289693Y724037D01*
G01X10654864Y358866D02*
G01X10755937Y257792D01*
G01X2350650Y8806764D02*
G01X2454078Y8703335D01*
G01X2624536Y8532877D02*
G01X2673188Y8484226D01*
G01X2758027Y8399387D02*
G01X2763024Y8394390D01*
G01X2916189Y8241225D02*
G01X3083232Y8074182D01*
G01X3169975Y7987438D02*
G01X3682746Y7474668D01*
G01X3835654Y7321760D02*
G01X4282740Y6874674D01*
G01X5233118Y5924296D02*
G01X5931110Y5226304D01*
G01X6071318Y5086096D02*
G01X6661360Y4496054D01*
G01X6814268Y4343146D02*
G01X7014055Y4143359D01*
G01X7363524Y3793889D02*
G01X7568923Y3588491D01*
G01X7815566Y3341847D02*
G01X8094536Y3062878D01*
G01X8193678Y2963736D02*
G01X9513798Y1643615D01*
G01X9591011Y1566402D02*
G01X10096244Y1061169D01*
G01X10294068Y863346D02*
G01X10336438Y820976D01*
G01X10690971Y466443D02*
G01X10784130Y373284D01*
G01X11041243Y116171D02*
G01X11110044Y47369D01*
G01X2419316Y8881782D02*
G01X2534652Y8766446D01*
G01X2687646Y8613451D02*
G01X2698557Y8602541D01*
G01X2876342Y8424756D02*
G01X3112870Y8188228D01*
G01X3284021Y8017076D02*
G01X3693240Y7607858D01*
G01X3835654Y7465444D02*
G01X4377968Y6923130D01*
G01X5376802Y5924296D02*
G01X5772790Y5528308D01*
G01X5959105Y5341993D02*
G01X6074794Y5226304D01*
G01X6215002Y5086096D02*
G01X6805044Y4496054D01*
G01X6957952Y4343146D02*
G01X6968121Y4332977D01*
G01X7364352Y3936746D02*
G01X7635064Y3666034D01*
G01X7946352Y3354746D02*
G01X8166378Y3134720D01*
G01X8265520Y3035578D02*
G01X9321546Y1979552D01*
G01X9727391Y1573707D02*
G01X10047045Y1254053D01*
G01X10668929Y632168D02*
G01X10869391Y431707D01*
G01X11058045Y243053D02*
G01X11253728Y47369D01*
G01X2462828Y8981953D02*
G01X2633420Y8811361D01*
G01X2732562Y8712219D02*
G01X2798613Y8646168D01*
G01X2919970Y8524812D02*
G01X3079793Y8364989D01*
G01X3210795Y8233987D02*
G01X3220864Y8223918D01*
G01X3319712Y8125070D02*
G01X3763330Y7681452D01*
G01X3871452Y7573330D02*
G01X4491278Y6953504D01*
G01X5048504Y6396278D02*
G01X5304078Y6140704D01*
G01X5520486Y5924296D02*
G01X5832790Y5611992D01*
G01X6042789Y5401993D02*
G01X6218478Y5226304D01*
G01X6358686Y5086096D02*
G01X6948728Y4496054D01*
G01X7508036Y3936746D02*
G01X7750827Y3693955D01*
G01X8025825Y3418957D02*
G01X8238220Y3206562D01*
G01X8337362Y3107420D02*
G01X9321546Y2123236D01*
G01X9836494Y1608288D02*
G01X10070155Y1374627D01*
G01X10682273Y762509D02*
G01X11397412Y47369D01*
G01X2542384Y9046082D02*
G01X2705262Y8883204D01*
G01X2804404Y8784062D02*
G01X3133190Y8455276D01*
G01X3301082Y8287384D02*
G01X3835172Y7753294D01*
G01X3943294Y7645172D02*
G01X4634962Y6953504D01*
G01X5048504Y6539962D02*
G01X5447762Y6140704D01*
G01X5664170Y5924296D02*
G01X5954414Y5634052D01*
G01X6177517Y5410949D02*
G01X6362162Y5226304D01*
G01X6502370Y5086096D02*
G01X6978232Y4610234D01*
G01X7651720Y3936746D02*
G01X7895146Y3693320D01*
G01X8055624Y3532842D02*
G01X8310062Y3278404D01*
G01X8409204Y3179262D02*
G01X9321546Y2266920D01*
G01X9980178Y1608288D02*
G01X10205513Y1382953D01*
G01X10725120Y863346D02*
G01X11541097Y47369D01*
G01X2686068Y9046082D02*
G01X2777104Y8955046D01*
G01X2876246Y8855904D02*
G01X3907014Y7825136D01*
G01X4015136Y7717014D02*
G01X4778646Y6953504D01*
G01X5048504Y6683646D02*
G01X5591446Y6140704D01*
G01X5807854Y5924296D02*
G01X6168293Y5563857D01*
G01X6321201Y5410949D02*
G01X6505846Y5226304D01*
G01X6646054Y5086096D02*
G01X6966489Y4765661D01*
G01X7057861Y4674289D02*
G01X7058945Y4673205D01*
G01X7795404Y3936746D02*
G01X8381904Y3350246D01*
G01X8481046Y3251104D02*
G01X9321546Y2410604D01*
G01X10123862Y1608288D02*
G01X10361896Y1370254D01*
G01X10827597Y904553D02*
G01X11684781Y47369D01*
G01X2829752Y9046082D02*
G01X2848946Y9026888D01*
G01X2948089Y8927746D02*
G01X3583833Y8292001D01*
G01X3642889Y8232945D02*
G01X3978856Y7896978D01*
G01X4086978Y7788856D02*
G01X4926781Y6949053D01*
G01X5044053Y6831781D02*
G01X5735130Y6140704D01*
G01X5951538Y5924296D02*
G01X6311977Y5563857D01*
G01X6464885Y5410949D02*
G01X6649530Y5226304D01*
G01X6789738Y5086096D02*
G01X6991765Y4884069D01*
G01X7939088Y3936746D02*
G01X8453746Y3422088D01*
G01X8552888Y3322946D02*
G01X8803761Y3072073D01*
G01X9001873Y2873961D02*
G01X9321546Y2554288D01*
G01X10267546Y1608288D02*
G01X10505580Y1370254D01*
G01X10899096Y976738D02*
G01X10919429Y956405D01*
G01X11033013Y842821D02*
G01X11828465Y47369D01*
G01X3072622Y8946896D02*
G01X3541623Y8477895D01*
G01X3740820Y8278699D02*
G01X4050698Y7968820D01*
G01X4158820Y7860698D02*
G01X5265181Y6754338D01*
G01X5408138Y6611381D02*
G01X5767225Y6252293D01*
G01X6095222Y5924296D02*
G01X6455661Y5563857D01*
G01X6608569Y5410949D02*
G01X6646326Y5373192D01*
G01X6668592Y5350926D02*
G01X6793214Y5226304D01*
G01X6933422Y5086096D02*
G01X7087954Y4931564D01*
G01X8082772Y3936746D02*
G01X8525588Y3493930D01*
G01X8624730Y3394788D02*
G01X8857978Y3161541D01*
G01X9091341Y2928177D02*
G01X9321546Y2697972D01*
G01X10411230Y1608288D02*
G01X10543212Y1476306D01*
G01X11166306Y853212D02*
G01X11972263Y47256D01*
G01X3216306Y8946896D02*
G01X3632715Y8530487D01*
G01X3831912Y8331291D02*
G01X4063746Y8099456D01*
G01X4216571Y7946632D02*
G01X5305961Y6857242D01*
G01X5511042Y6652161D02*
G01X5810198Y6353004D01*
G01X6238906Y5924296D02*
G01X6599345Y5563857D01*
G01X6817856Y5345346D02*
G01X6936898Y5226304D01*
G01X7077106Y5086096D02*
G01X7231548Y4931654D01*
G01X8226456Y3936746D02*
G01X8597430Y3565772D01*
G01X8696572Y3466630D02*
G01X8962272Y3200930D01*
G01X9130731Y3032472D02*
G01X9321546Y2841656D01*
G01X9906254Y2256948D02*
G01X10257948Y1905254D01*
G01X10922254Y1240948D02*
G01X10927750Y1235453D01*
G01X11239967Y923235D02*
G01X12109052Y54150D01*
G01X3359990Y8946896D02*
G01X3725797Y8581090D01*
G01X3923102Y8383784D02*
G01X4063746Y8243140D01*
G01X4216654Y8090232D02*
G01X5405528Y6901359D01*
G01X5555159Y6751728D02*
G01X5908733Y6398154D01*
G01X6068957Y6237929D02*
G01X6166182Y6140704D01*
G01X6382590Y5924296D02*
G01X6680662Y5626224D01*
G01X6921624Y5385262D02*
G01X7080582Y5226304D01*
G01X7220790Y5086096D02*
G01X7558685Y4748201D01*
G01X8370140Y3936746D02*
G01X8669272Y3637614D01*
G01X8768414Y3538472D02*
G01X9321546Y2985340D01*
G01X9906254Y2400632D02*
G01X10401632Y1905254D01*
G01X10960940Y1345946D02*
G01X10995864Y1311022D01*
G01X11263055Y1043831D02*
G01X12055934Y250952D01*
G01X3503675Y8946896D02*
G01X3807098Y8643472D01*
G01X4020672Y8429898D02*
G01X4063746Y8386825D01*
G01X4216654Y8233917D02*
G01X5649631Y6800939D01*
G01X5814733Y6635837D02*
G01X5946900Y6503671D01*
G01X6278625Y6171946D02*
G01X6309867Y6140704D01*
G01X6526275Y5924296D02*
G01X6823117Y5627454D01*
G01X7093073Y5357497D02*
G01X7224267Y5226304D01*
G01X7364475Y5086096D02*
G01X7576616Y4873954D01*
G01X8513825Y3936746D02*
G01X8681988Y3768583D01*
G01X8831805Y3618766D02*
G01X9321546Y3129025D01*
G01X9906254Y2544317D02*
G01X10554241Y1896329D01*
G01X11104625Y1345946D02*
G01X11116636Y1333935D01*
G01X11260543Y1190028D02*
G01X11380949Y1069622D01*
G01X11608524Y842046D02*
G01X12081332Y369239D01*
G01X12338850Y111720D02*
G01X12341002Y109568D01*
G01X3647359Y8946896D02*
G01X3908826Y8685429D01*
G01X4216654Y8377601D02*
G01X5723503Y6870752D01*
G01X5884546Y6709709D02*
G01X6018864Y6575390D01*
G01X6422309Y6171946D02*
G01X6453551Y6140704D01*
G01X6669959Y5924296D02*
G01X6978821Y5615433D01*
G01X7239718Y5354536D02*
G01X7367951Y5226304D01*
G01X7508159Y5086096D02*
G01X7649757Y4944497D01*
G01X8657509Y3936746D02*
G01X8753999Y3840256D01*
G01X8844056Y3750199D02*
G01X9321546Y3272709D01*
G01X9906254Y2688001D02*
G01X10497530Y2096724D01*
G01X10684708Y1909546D02*
G01X11044601Y1549654D01*
G01X11248309Y1345946D02*
G01X11387235Y1207019D01*
G01X11694195Y900060D02*
G01X12164031Y430224D01*
G01X12358043Y236212D02*
G01X12441557Y152697D01*
G01X3791043Y8946896D02*
G01X4000848Y8737090D01*
G01X4216654Y8521285D02*
G01X6362285Y6375654D01*
G01X6560575Y6177363D02*
G01X6597235Y6140704D01*
G01X6786840Y5951098D02*
G01X7172781Y5565158D01*
G01X7368558Y5369381D02*
G01X7511635Y5226304D01*
G01X7651843Y5086096D02*
G01X7773986Y4963953D01*
G01X8034614Y4703324D02*
G01X8070435Y4667504D01*
G01X8801193Y3936746D02*
G01X9321546Y3416393D01*
G01X9906254Y2831685D02*
G01X10558110Y2179829D01*
G01X10767813Y1970126D02*
G01X11188285Y1549654D01*
G01X11391993Y1345946D02*
G01X11443210Y1294729D01*
G01X11732973Y1004966D02*
G01X12533662Y204277D01*
G01X3934727Y8946896D02*
G01X4078717Y8802906D01*
G01X4273076Y8608547D02*
G01X6505969Y6375654D01*
G01X6627696Y6253926D02*
G01X6708740Y6172882D01*
G01X6858682Y6022940D02*
G01X6934189Y5947434D01*
G01X7086040Y5795583D02*
G01X7257838Y5623785D01*
G01X7427185Y5454438D02*
G01X7655319Y5226304D01*
G01X7795527Y5086096D02*
G01X7922934Y4958689D01*
G01X8050995Y4830628D02*
G01X8214119Y4667504D01*
G01X9906254Y2975369D02*
G01X10680893Y2200729D01*
G01X10788713Y2092910D02*
G01X11331969Y1549654D01*
G01X11535677Y1345946D02*
G01X11545549Y1336074D01*
G01X11733057Y1148566D02*
G01X11850950Y1030673D01*
G01X12046231Y835392D02*
G01X12618033Y263590D01*
G01X4078411Y8946896D02*
G01X5265734Y7759573D01*
G01X5397373Y7627934D02*
G01X6076011Y6949296D01*
G01X7167468Y5857839D02*
G01X7799003Y5226304D01*
G01X7939211Y5086096D02*
G01X8357803Y4667504D01*
G01X9906254Y3119053D02*
G01X11309775Y1715532D01*
G01X11679361Y1345946D02*
G01X11851465Y1173842D01*
G01X12145301Y880006D02*
G01X12695074Y330233D01*
G01X4222095Y8946896D02*
G01X5301067Y7867924D01*
G01X5505724Y7663267D02*
G01X5649171Y7519820D01*
G01X5813626Y7355365D02*
G01X6149227Y7019764D01*
G01X7143095Y6025896D02*
G01X7594986Y5574005D01*
G01X7708245Y5460746D02*
G01X7942687Y5226304D01*
G01X8067040Y5101951D02*
G01X8501487Y4667504D01*
G01X9906254Y3262737D02*
G01X11369407Y1799584D01*
G01X11579587Y1589404D02*
G01X11619337Y1549654D01*
G01X11823045Y1345946D02*
G01X11893653Y1275338D01*
G01X12198481Y970510D02*
G01X12764943Y404048D01*
G01X4365779Y8946896D02*
G01X4568713Y8743963D01*
G01X4700968Y8611707D02*
G01X5395944Y7916732D01*
G01X5554532Y7758144D02*
G01X5722352Y7590324D01*
G01X5884129Y7428546D02*
G01X6251124Y7061551D01*
G01X6299551Y7013124D02*
G01X6917971Y6394704D01*
G01X7286779Y6025896D02*
G01X7656343Y5656332D01*
G01X7851929Y5460746D02*
G01X8645171Y4667504D01*
G01X9906254Y3406421D02*
G01X11359626Y1953049D01*
G01X11602364Y1710312D02*
G01X11763021Y1549654D01*
G01X12314023Y998652D02*
G01X12396307Y916368D01*
G01X12528563Y784113D02*
G01X12827580Y485095D01*
G01X4794994Y8661365D02*
G01X7061655Y6394704D01*
G01X7430463Y6025896D02*
G01X7791905Y5664454D01*
G01X8369242Y5087117D02*
G01X8788855Y4667504D01*
G01X9005263Y4451096D02*
G01X11309291Y2147068D01*
G01X11564284Y1892075D02*
G01X11792346Y1664013D01*
G01X12128858Y1327501D02*
G01X12279399Y1176960D01*
G01X12622588Y833771D02*
G01X12882698Y573661D01*
G01X4553961Y9046082D02*
G01X4748484Y8851559D01*
G01X4808565Y8791478D02*
G01X7205339Y6394704D01*
G01X7574147Y6025896D02*
G01X7653881Y5946163D01*
G01X7804757Y5795287D02*
G01X7935589Y5664454D01*
G01X8432130Y5167913D02*
G01X8932539Y4667504D01*
G01X9148947Y4451096D02*
G01X11330171Y2269872D01*
G01X11539869Y2060174D02*
G01X11793387Y1806656D01*
G01X12093656Y1506387D02*
G01X12576078Y1023965D01*
G01X12636159Y963884D02*
G01X12929733Y670310D01*
G01X4697646Y9046082D02*
G01X6378331Y7365396D01*
G01X6569589Y7174138D02*
G01X7349023Y6394704D01*
G01X7886899Y5856828D02*
G01X9076223Y4667504D01*
G01X9292631Y4451096D02*
G01X11413265Y2330462D01*
G01X11600459Y2143269D02*
G01X11896274Y1847454D01*
G01X12134454Y1609274D02*
G01X12967739Y775988D01*
G01X4841330Y9046082D02*
G01X6432360Y7455052D01*
G01X6659244Y7228167D02*
G01X6851691Y7035721D01*
G01X7012327Y6875084D02*
G01X7293483Y6593929D01*
G01X7385393Y6502019D02*
G01X7492708Y6394704D01*
G01X7861516Y6025896D02*
G01X8548547Y5338864D01*
G01X8615464Y5271947D02*
G01X9219908Y4667504D01*
G01X9436316Y4451096D02*
G01X12039958Y1847454D01*
G01X12134454Y1752958D02*
G01X12995168Y892244D01*
G01X4985014Y9046082D02*
G01X5288634Y8742462D01*
G01X5419456Y8611640D02*
G01X6538455Y7492641D01*
G01X6696833Y7334262D02*
G01X6929404Y7101692D01*
G01X7078299Y6952797D02*
G01X7106944Y6924152D01*
G01X7150745Y6880350D02*
G01X7321467Y6709628D01*
G01X7501092Y6530003D02*
G01X7636392Y6394704D01*
G01X8005200Y6025896D02*
G01X8601820Y5429275D01*
G01X8705875Y5325220D02*
G01X9363592Y4667504D01*
G01X9580000Y4451096D02*
G01X11799101Y2231994D01*
G01X12010995Y2020100D02*
G01X12396240Y1634856D01*
G01X12527062Y1504034D02*
G01X13006500Y1024595D01*
G01X5128698Y9046082D02*
G01X5337472Y8837308D01*
G01X5514302Y8660477D02*
G01X7115786Y7058993D01*
G01X7285587Y6889193D02*
G01X7422309Y6752471D01*
G01X7676335Y6498445D02*
G01X7780076Y6394704D01*
G01X8148884Y6025896D02*
G01X8676119Y5498661D01*
G01X8775261Y5399519D02*
G01X9507276Y4667504D01*
G01X9723684Y4451096D02*
G01X11856692Y2318088D01*
G01X12097089Y2077691D02*
G01X12433046Y1741734D01*
G01X12621908Y1552872D02*
G01X13006500Y1168279D01*
G01X5272382Y9046082D02*
G01X5465582Y8852881D01*
G01X5529876Y8788588D02*
G01X5936371Y8382093D01*
G01X6161295Y8157169D02*
G01X7212413Y7106051D01*
G01X7332644Y6985819D02*
G01X7590923Y6727541D01*
G01X7768941Y6549523D02*
G01X7923760Y6394704D01*
G01X8292568Y6025896D02*
G01X8747961Y5570503D01*
G01X8847103Y5471361D02*
G01X9650960Y4667504D01*
G01X9867368Y4451096D02*
G01X11963011Y2355452D01*
G01X12134453Y2184010D02*
G01X12433046Y1885418D01*
G01X12637481Y1680982D02*
G01X13006500Y1311964D01*
G01X5416066Y9046082D02*
G01X5979315Y8482833D01*
G01X6262034Y8200114D02*
G01X7722357Y6739791D01*
G01X7781191Y6680957D02*
G01X7803906Y6658242D01*
G01X8436252Y6025896D02*
G01X8819803Y5642345D01*
G01X8918945Y5543203D02*
G01X9794644Y4667504D01*
G01X10011052Y4451096D02*
G01X12395297Y2066850D01*
G01X12611354Y1850794D02*
G01X13006500Y1455648D01*
G01X5559750Y9046082D02*
G01X6062153Y8543679D01*
G01X6322881Y8282951D02*
G01X7867775Y6738056D01*
G01X8579936Y6025896D02*
G01X8891645Y5714187D01*
G01X8990787Y5615045D02*
G01X9938328Y4667504D01*
G01X10154736Y4451096D02*
G01X11508616Y3097216D01*
G01X11724011Y2881821D02*
G01X12446295Y2159537D01*
G01X12624337Y1981495D02*
G01X13006500Y1599332D01*
G01X5703434Y9046082D02*
G01X6203660Y8545856D01*
G01X6325058Y8424458D02*
G01X7379413Y7370103D01*
G01X7574294Y7175222D02*
G01X8064419Y6685097D01*
G01X8723620Y6025896D02*
G01X8963487Y5786029D01*
G01X9062629Y5686887D02*
G01X10082012Y4667504D01*
G01X10298420Y4451096D02*
G01X11574006Y3175510D01*
G01X11802305Y2947211D02*
G01X12400601Y2348915D01*
G01X12559715Y2189801D02*
G01X12577511Y2172005D01*
G01X12636805Y2112711D02*
G01X13006500Y1743016D01*
G01X5847118Y9046082D02*
G01X7435546Y7457655D01*
G01X7661845Y7231355D02*
G01X8144714Y6748487D01*
G01X8867304Y6025896D02*
G01X8937670Y5955530D01*
G01X8978130Y5915070D02*
G01X9035329Y5857871D01*
G01X9134471Y5758729D02*
G01X10225696Y4667504D01*
G01X10404471Y4488729D02*
G01X11695662Y3197539D01*
G01X11824334Y3068867D02*
G01X12467096Y2426104D01*
G01X12636904Y2256296D02*
G01X13006500Y1886700D01*
G01X5990802Y9046082D02*
G01X7544455Y7492430D01*
G01X7696620Y7340264D02*
G01X8438980Y6597904D01*
G01X9206313Y5830571D02*
G01X10326371Y4710513D01*
G01X10476313Y4560571D02*
G01X11361599Y3675285D01*
G01X11638085Y3398799D02*
G01X13006500Y2030384D01*
G01X6134487Y9046082D02*
G01X8582664Y6597904D01*
G01X9278155Y5902413D02*
G01X10398213Y4782355D01*
G01X10548155Y4632413D02*
G01X11370661Y3809908D01*
G01X11772707Y3407861D02*
G01X13006500Y2174068D01*
G01X6278171Y9046082D02*
G01X8726348Y6597904D01*
G01X9390597Y5933656D02*
G01X9849849Y5474404D01*
G01X9932104Y5392149D02*
G01X10470055Y4854197D01*
G01X10619997Y4704255D02*
G01X11416839Y3907414D01*
G01X11870213Y3454039D02*
G01X13006500Y2317752D01*
G01X6421855Y9046082D02*
G01X8870033Y6597904D01*
G01X9551522Y5916415D02*
G01X9914461Y5553476D01*
G01X10055096Y5412841D02*
G01X10153587Y5314350D01*
G01X10357152Y5110785D02*
G01X10541897Y4926039D01*
G01X10691839Y4776097D02*
G01X11487243Y3980694D01*
G01X11943494Y3524443D02*
G01X13006500Y2461436D01*
G01X6565539Y9046082D02*
G01X9013717Y6597904D01*
G01X9663661Y5947960D02*
G01X10029539Y5582081D01*
G01X10128681Y5482939D02*
G01X10210989Y5400632D01*
G01X10443434Y5168186D02*
G01X10613739Y4997881D01*
G01X10763681Y4847939D02*
G01X11581364Y4030257D01*
G01X11993057Y3618564D02*
G01X13006500Y2605120D01*
G01X6709223Y9046082D02*
G01X9157401Y6597904D01*
G01X9840704Y5914601D02*
G01X10101381Y5653923D01*
G01X10200523Y5554781D02*
G01X10319472Y5435833D01*
G01X10478635Y5276670D02*
G01X10685581Y5069723D01*
G01X10835523Y4919781D02*
G01X11709447Y4045858D01*
G01X12008658Y3746647D02*
G01X13006500Y2748804D01*
G01X6852907Y9046082D02*
G01X9301085Y6597904D01*
G01X9933684Y5965305D02*
G01X10173223Y5725765D01*
G01X10272365Y5626623D02*
G01X10757423Y5141565D01*
G01X10907365Y4991623D02*
G01X13006500Y2892489D01*
G01X6996591Y9046082D02*
G01X7742960Y8299713D01*
G01X7878911Y8163762D02*
G01X9444769Y6597904D01*
G01X10122639Y5920034D02*
G01X10245065Y5797608D01*
G01X10344208Y5698465D02*
G01X10829265Y5213408D01*
G01X10979208Y5063465D02*
G01X13006500Y3036173D01*
G01X7140275Y9046082D02*
G01X7750868Y8435489D01*
G01X8014687Y8171670D02*
G01X8489696Y7696661D01*
G01X9093661Y7092696D02*
G01X9588453Y6597904D01*
G01X10200598Y5985759D02*
G01X10316908Y5869450D01*
G01X10416050Y5770308D02*
G01X10901108Y5285250D01*
G01X11051050Y5135308D02*
G01X13006500Y3179857D01*
G01X7283959Y9046082D02*
G01X7813704Y8516337D01*
G01X8095535Y8234506D02*
G01X8489696Y7840345D01*
G01X8629904Y7700137D02*
G01X9097137Y7232904D01*
G01X9237345Y7092696D02*
G01X9732137Y6597904D01*
G01X10487892Y5842150D02*
G01X10972950Y5357092D01*
G01X11122892Y5207150D02*
G01X13006500Y3323541D01*
G01X7427643Y9046082D02*
G01X7916956Y8556769D01*
G01X8135967Y8337758D02*
G01X8489696Y7984029D01*
G01X8629904Y7843821D02*
G01X8936746Y7536979D01*
G01X9035579Y7438146D02*
G01X9240821Y7232904D01*
G01X9381029Y7092696D02*
G01X9880575Y6593151D01*
G01X10559734Y5913992D02*
G01X11044792Y5428934D01*
G01X11194734Y5278992D02*
G01X13006500Y3467225D01*
G01X7571327Y9046082D02*
G01X8489696Y8127713D01*
G01X8629904Y7987505D02*
G01X8943259Y7674151D01*
G01X9172751Y7444659D02*
G01X9384505Y7232904D01*
G01X9524713Y7092696D02*
G01X10489855Y6127555D01*
G01X10674155Y5943255D02*
G01X10775696Y5841713D01*
G01X11003404Y5614006D02*
G01X11116634Y5500776D01*
G01X11266576Y5350834D02*
G01X11365888Y5251522D01*
G01X11614322Y5003088D02*
G01X13006500Y3610909D01*
G01X7715012Y9046082D02*
G01X8489696Y8271397D01*
G01X8629904Y8131189D02*
G01X9060840Y7700254D01*
G01X9322942Y7438151D02*
G01X9528189Y7232904D01*
G01X9668397Y7092696D02*
G01X10585015Y6176078D01*
G01X11051987Y5709107D02*
G01X11188476Y5572618D01*
G01X11338418Y5422676D02*
G01X11366682Y5394411D01*
G01X11757211Y5003882D02*
G01X13006500Y3754593D01*
G01X7858696Y9046082D02*
G01X8496615Y8408163D01*
G01X8629904Y8274874D02*
G01X8848418Y8056360D01*
G01X8994153Y7910624D02*
G01X9219946Y7684832D01*
G01X9421101Y7483676D02*
G01X9671874Y7232904D01*
G01X9812082Y7092696D02*
G01X10760276Y6144501D01*
G01X10945101Y5959676D02*
G01X11260318Y5644460D01*
G01X11858520Y5046258D02*
G01X13006500Y3898277D01*
G01X8002380Y9046082D02*
G01X8911875Y8136586D01*
G01X9074380Y7974082D02*
G01X9230636Y7817825D01*
G01X9606636Y7441826D02*
G01X9815558Y7232904D01*
G01X9955766Y7092696D02*
G01X10875653Y6172808D01*
G01X11130636Y5917826D02*
G01X11332160Y5716302D01*
G01X11934885Y5113577D02*
G01X13006500Y4041961D01*
G01X8146064Y9046082D02*
G01X8858494Y8333652D01*
G01X9021458Y8170687D02*
G01X9298751Y7893395D01*
G01X9442795Y7749351D02*
G01X9509752Y7682394D01*
G01X9688994Y7503152D02*
G01X9959242Y7232904D01*
G01X10099450Y7092696D02*
G01X11033752Y6158394D01*
G01X11212994Y5979152D02*
G01X11400943Y5791202D01*
G01X11553944Y5638202D02*
G01X11567026Y5625120D01*
G01X11987920Y5204226D02*
G01X13006500Y4185645D01*
G01X8289748Y9046082D02*
G01X8939389Y8396441D01*
G01X9084247Y8251582D02*
G01X9370593Y7965237D01*
G01X9557381Y7778448D02*
G01X9711095Y7624735D01*
G01X9885335Y7450495D02*
G01X10102926Y7232904D01*
G01X10243134Y7092696D02*
G01X11235095Y6100735D01*
G01X11409335Y5926495D02*
G01X11526644Y5809186D01*
G01X11625786Y5710044D02*
G01X11689015Y5646815D01*
G01X12009615Y5326215D02*
G01X13006500Y4329329D01*
G01X8433432Y9046082D02*
G01X9218206Y8261308D01*
G01X9323714Y8155800D02*
G01X9478260Y8001254D01*
G01X9650730Y7828784D02*
G01X9786589Y7692925D01*
G01X9953525Y7525989D02*
G01X9964450Y7515064D01*
G01X10029664Y7449850D02*
G01X10246610Y7232904D01*
G01X10386818Y7092696D02*
G01X11283696Y6195818D01*
G01X11477525Y6001989D02*
G01X11488450Y5991064D01*
G01X11553664Y5925850D02*
G01X11598486Y5881028D01*
G01X11697628Y5781886D02*
G01X13006500Y4473014D01*
G01X8577116Y9046082D02*
G01X9253668Y8369530D01*
G01X9431936Y8191263D02*
G01X9687052Y7936146D01*
G01X9839140Y7784058D02*
G01X9977436Y7645762D01*
G01X10160362Y7462836D02*
G01X10390294Y7232904D01*
G01X10530502Y7092696D02*
G01X11283696Y6339502D01*
G01X11423904Y6199294D02*
G01X11501436Y6121762D01*
G01X11769470Y5853728D02*
G01X13006500Y4616698D01*
G01X8720800Y9046082D02*
G01X9361880Y8405003D01*
G01X9467408Y8299474D02*
G01X9755768Y8011114D01*
G01X9914108Y7852774D02*
G01X10067630Y7699252D01*
G01X10328398Y7438484D02*
G01X10533978Y7232904D01*
G01X11423904Y6342978D02*
G01X11537696Y6229186D01*
G01X11852398Y5914484D02*
G01X13006500Y4760382D01*
G01X8864484Y9046082D02*
G01X9962941Y7947625D01*
G01X10127631Y7782936D02*
G01X10246931Y7663635D01*
G01X10432235Y7478331D02*
G01X10677662Y7232904D01*
G01X11423904Y6486662D02*
G01X11537696Y6372870D01*
G01X11677904Y6232662D02*
G01X11770931Y6139635D01*
G01X11956235Y5954331D02*
G01X13006500Y4904066D01*
G01X9008168Y9046082D02*
G01X10036370Y8017880D01*
G01X10197886Y7856364D02*
G01X10355150Y7699100D01*
G01X10614179Y7440071D02*
G01X11537696Y6516554D01*
G01X11677904Y6376346D02*
G01X11879150Y6175100D01*
G01X12138179Y5916071D02*
G01X13006500Y5047750D01*
G01X9151852Y9046082D02*
G01X9938495Y8259439D01*
G01X10041833Y8156101D02*
G01X10519457Y7678478D01*
G01X10701078Y7496857D02*
G01X11537696Y6660238D01*
G01X11677904Y6520030D02*
G01X12043457Y6154478D01*
G01X12225078Y5972857D02*
G01X13006500Y5191434D01*
G01X9295537Y9046082D02*
G01X9972876Y8368742D01*
G01X10151137Y8190482D02*
G01X10661330Y7680289D01*
G01X10702889Y7638730D02*
G01X10724013Y7617605D01*
G01X10894205Y7447413D02*
G01X11559638Y6781980D01*
G01X11677904Y6663715D02*
G01X12185330Y6156289D01*
G01X12226889Y6114730D02*
G01X12248013Y6093605D01*
G01X12418205Y5923413D02*
G01X13006500Y5335118D01*
G01X9439221Y9046082D02*
G01X10080033Y8405270D01*
G01X10187664Y8297639D02*
G01X10207376Y8277927D01*
G01X10330932Y8154370D02*
G01X10795208Y7690095D01*
G01X10966695Y7518608D02*
G01X10995648Y7489655D01*
G01X11020255Y7465048D02*
G01X11631480Y6853822D01*
G01X11730622Y6754680D02*
G01X12319208Y6166095D01*
G01X12490695Y5994608D02*
G01X12519648Y5965655D01*
G01X12544255Y5941048D02*
G01X13006500Y5478802D01*
G01X9582905Y9046082D02*
G01X9891838Y8737149D01*
G01X10040347Y8588640D02*
G01X10252186Y8376800D01*
G01X10429806Y8199181D02*
G01X10682475Y7946512D01*
G01X10846506Y7782481D02*
G01X10989310Y7639677D01*
G01X11170277Y7458710D02*
G01X11695691Y6933296D01*
G01X11810096Y6818891D02*
G01X12513310Y6115677D01*
G01X12694277Y5934710D02*
G01X13006500Y5622486D01*
G01X9726589Y9046082D02*
G01X9951697Y8820974D01*
G01X10124172Y8648499D02*
G01X10372400Y8400271D01*
G01X10453277Y8319394D02*
G01X10755213Y8017458D01*
G01X10917452Y7855219D02*
G01X11074820Y7697851D01*
G01X11332837Y7439834D02*
G01X12598820Y6173851D01*
G01X12752451Y6020220D02*
G01X13006500Y5766170D01*
G01X9870273Y9046082D02*
G01X10232600Y8683755D01*
G01X10326958Y8589397D02*
G01X11257868Y7658487D01*
G01X11443087Y7473268D02*
G01X13006500Y5909854D01*
G01X10013957Y9046082D02*
G01X10262567Y8797472D01*
G01X10440674Y8619365D02*
G01X11359929Y7700110D01*
G01X11621205Y7438834D02*
G01X13006500Y6053539D01*
G01X10157641Y9046082D02*
G01X10365908Y8837815D01*
G01X10481018Y8722706D02*
G01X10927406Y8276317D01*
G01X11049311Y8154412D02*
G01X11529461Y7674262D01*
G01X11712862Y7490861D02*
G01X13006500Y6197223D01*
G01X10301325Y9046082D02*
G01X10971327Y8376080D01*
G01X11149074Y8198333D02*
G01X11252589Y8094818D01*
G01X11420211Y7927196D02*
G01X11656563Y7690844D01*
G01X11729444Y7617963D02*
G01X11737296Y7610112D01*
G01X11902712Y7444696D02*
G01X13006500Y6340907D01*
G01X10445009Y9046082D02*
G01X11090100Y8400991D01*
G01X11173986Y8317106D02*
G01X11234777Y8256315D01*
G01X11331721Y8159370D02*
G01X11342189Y8148902D01*
G01X11474296Y8016796D02*
G01X11804183Y7686909D01*
G01X11979509Y7511583D02*
G01X13006500Y6484591D01*
G01X10588693Y9046082D02*
G01X11269503Y8365273D01*
G01X11440679Y8194096D02*
G01X12001486Y7633289D01*
G01X12179889Y7454886D02*
G01X13006500Y6628275D01*
G01X10732378Y9046082D02*
G01X11382452Y8396008D01*
G01X11471414Y8307045D02*
G01X11767395Y8011065D01*
G01X11869858Y7908601D02*
G01X12082505Y7695954D01*
G01X12242554Y7535905D02*
G01X12243224Y7535236D01*
G01X12335836Y7442624D02*
G01X13006500Y6771959D01*
G01X10876062Y9046082D02*
G01X11804933Y8117211D01*
G01X11976004Y7946140D02*
G01X12269087Y7653057D01*
G01X12453657Y7468487D02*
G01X13006500Y6915643D01*
G01X11019746Y9046082D02*
G01X11767756Y8298071D01*
G01X12034332Y8031496D02*
G01X12365640Y7700188D01*
G01X12627626Y7438202D02*
G01X13006500Y7059327D01*
G01X11163430Y9046082D02*
G01X11826426Y8383086D01*
G01X12106174Y8103338D02*
G01X12166346Y8043166D01*
G01X12284966Y7924546D02*
G01X12539755Y7669756D01*
G01X12724356Y7485155D02*
G01X13006500Y7203011D01*
G01X11307114Y9046082D02*
G01X12033973Y8319223D01*
G01X12178016Y8175180D02*
G01X12185408Y8167788D01*
G01X12409588Y7943608D02*
G01X12657295Y7695901D01*
G01X12750501Y7602695D02*
G01X13006501Y7346695D01*
G01X11450798Y9046082D02*
G01X12107043Y8389837D01*
G01X12316294Y8180586D02*
G01X12317826Y8179054D01*
G01X12420854Y8076026D02*
G01X13006501Y7490380D01*
G01X11594482Y9046082D02*
G01X12226585Y8413979D01*
G01X12401779Y8238785D02*
G01X13006501Y7634064D01*
G01X11738166Y9046082D02*
G01X12175950Y8608298D01*
G01X12342098Y8442150D02*
G01X13006501Y7777748D01*
G01X11881850Y9046082D02*
G01X12248964Y8678969D01*
G01X12412769Y8515164D02*
G01X13006501Y7921432D01*
G01X12027363Y9044253D02*
G01X13006501Y8065116D01*
G01X12194656Y9020644D02*
G01X12984886Y8230415D01*
G01X12414118Y8944866D02*
G01X12909108Y8449877D01*
G54D11*
G01X5489054Y4800600D02*
G01X5463146Y4800600D01*
G01X5788546Y4800600D02*
G01X5814454Y4800600D01*
G01X8760201Y1979341D02*
G01X8760201Y2005249D01*
G01X8760201Y1779849D02*
G01X8760201Y1753941D01*
G01X8859947Y1879595D02*
G01X8885855Y1879595D01*
G01X8660455Y1879595D02*
G01X8634547Y1879595D01*
G01X5969000Y2700274D02*
G01X5969000Y2674366D01*
G01X5969000Y2887726D02*
G01X5969000Y2913634D01*
G01X5875274Y2794000D02*
G01X5849366Y2794000D01*
G01X6062726Y2794000D02*
G01X6088634Y2794000D01*
G01X5638800Y2723648D02*
G01X5638800Y2697740D01*
G01X5638800Y2873140D02*
G01X5638800Y2899048D01*
G01X5564054Y2798394D02*
G01X5538146Y2798394D01*
G01X5713546Y2798394D02*
G01X5739454Y2798394D01*
G01X5918200Y6347143D02*
G01X5918200Y6373051D01*
G01X6017946Y6247397D02*
G01X6043854Y6247397D01*
G01X5818454Y6247397D02*
G01X5792546Y6247397D01*
G01X7340854Y6625336D02*
G01X7314946Y6625336D01*
G01X7416800Y6549390D02*
G01X7416800Y6523482D01*
G01X7416800Y6701282D02*
G01X7416800Y6727190D01*
G01X5765800Y6677260D02*
G01X5765800Y6651352D01*
G01X5765800Y6826752D02*
G01X5765800Y6852660D01*
G01X5691054Y6752006D02*
G01X5665146Y6752006D01*
G01X5840546Y6752006D02*
G01X5866454Y6752006D01*
G01X5410200Y6850126D02*
G01X5410200Y6876034D01*
G01X5410200Y6662674D02*
G01X5410200Y6636766D01*
G01X5503926Y6756400D02*
G01X5529834Y6756400D01*
G01X5316474Y6756400D02*
G01X5290566Y6756400D01*
G01X9732648Y7899400D02*
G01X9706740Y7899400D01*
G01X9872139Y7899400D02*
G01X9898047Y7899400D01*
G01X9802393Y7969146D02*
G01X9802393Y7995054D01*
G01X9802393Y7829654D02*
G01X9802393Y7803746D01*
G01X9940652Y8712200D02*
G01X9914744Y8712200D01*
G01X10090144Y8712200D02*
G01X10116052Y8712200D01*
G01X10015398Y8786946D02*
G01X10015398Y8812854D01*
G01X10015398Y8637454D02*
G01X10015398Y8611546D01*
G01X10490200Y357454D02*
G01X10490200Y331546D01*
G01X10639946Y457200D02*
G01X10665854Y457200D01*
G01X10340454Y457200D02*
G01X10314546Y457200D01*
G01X11887200Y8348139D02*
G01X11887200Y8374047D01*
G01X11817454Y8278393D02*
G01X11791546Y8278393D01*
G01X941654Y4013200D02*
G01X915746Y4013200D01*
G01X1141146Y4013200D02*
G01X1167054Y4013200D01*
G01X635000Y5164661D02*
G01X635000Y5138753D01*
G01X635000Y5304152D02*
G01X635000Y5330060D01*
G01X565254Y5234407D02*
G01X539346Y5234407D01*
G01X704746Y5234407D02*
G01X730654Y5234407D01*
G01X3251200Y643461D02*
G01X3251200Y617553D01*
G01X3251200Y782952D02*
G01X3251200Y808860D01*
G01X3181454Y713207D02*
G01X3155546Y713207D01*
G01X3320946Y713207D02*
G01X3346854Y713207D01*
G01X3200400Y8034861D02*
G01X3200400Y8008953D01*
G01X3200400Y8174352D02*
G01X3200400Y8200260D01*
G01X3130654Y8104607D02*
G01X3104746Y8104607D01*
G01X3270146Y8104607D02*
G01X3296054Y8104607D01*
G04 Copper End*

G04 Pad Start*
G54D12*
G01X9067800Y6045200D03*
G54D13*
G01X9321800Y7569200D03*
G01X9829800Y7569200D03*
G01X10337800Y7569200D03*
G01X10845800Y7569200D03*
G01X11353800Y7569200D03*
G01X11861800Y7569200D03*
G01X12369800Y7569200D03*
G01X12623800Y6045200D03*
G01X12115800Y6045200D03*
G01X11607800Y6045200D03*
G01X11099800Y6045200D03*
G01X10591800Y6045200D03*
G01X10083800Y6045200D03*
G01X9575800Y6045200D03*
G01X9321800Y6045200D03*
G01X9829800Y6045200D03*
G01X10337800Y6045200D03*
G01X10845800Y6045200D03*
G01X11353800Y6045200D03*
G01X11861800Y6045200D03*
G01X12369800Y6045200D03*
G01X12623800Y7569200D03*
G01X12115800Y7569200D03*
G01X11607800Y7569200D03*
G01X11099800Y7569200D03*
G01X10591800Y7569200D03*
G01X10083800Y7569200D03*
G01X9575800Y7569200D03*
G54D12*
G01X9067800Y7569200D03*
G54D14*
G01X10198098Y292101D03*
G01X10198098Y1231899D03*
G01X8648702Y1231899D03*
G01X8648702Y292101D03*
G54D15*
G01X9802393Y7899400D03*
G01X9552407Y7899400D03*
G54D16*
G01X6781800Y5486400D03*
G54D18*
G01X7035800Y5486400D03*
G01X7289800Y5486400D03*
G54D15*
G01X635000Y5484393D03*
G01X635000Y5234407D03*
G54D19*
G01X660400Y4876799D03*
G01X660400Y4622800D03*
G01X660400Y4368800D03*
G01X660400Y4114801D03*
G54D20*
G01X8176768Y6625336D03*
G01X7926832Y6625336D03*
G01X7666736Y6625336D03*
G01X7416800Y6625336D03*
G01X12522200Y2311400D03*
G01X12522200Y2057400D03*
G54D15*
G01X7135393Y2184400D03*
G01X6885407Y2184400D03*
G01X6961607Y6985000D03*
G01X7211593Y6985000D03*
G54D21*
G01X10355402Y8712200D03*
G01X10015398Y8712200D03*
G54D22*
G01X12293600Y8051800D03*
G54D20*
G01X12293600Y8305800D03*
G01X12293600Y8559800D03*
G54D15*
G01X8966200Y8278393D03*
G01X8966200Y8028407D03*
G01X11353800Y8278393D03*
G01X11353800Y8028407D03*
G54D13*
G01X584200Y8432800D03*
G01X584200Y8686800D03*
G01X584200Y381000D03*
G01X584200Y635000D03*
G54D23*
G01X-101600Y8686800D03*
G01X-101600Y8432800D03*
G01X-101600Y635000D03*
G01X-101600Y381000D03*
G54D18*
G01X5588000Y1574800D03*
G01X5334000Y1574800D03*
G54D16*
G01X5080000Y1574800D03*
G54D24*
G01X5410200Y7772400D03*
G01X5410200Y6756400D03*
G01X5969000Y1778000D03*
G01X5969000Y2794000D03*
G54D21*
G01X2565400Y8644199D03*
G01X2794000Y8520199D03*
G01X2565400Y8396199D03*
G01X2794000Y8272201D03*
G01X2616200Y744799D03*
G01X2844800Y620799D03*
G01X2616200Y496799D03*
G01X2844800Y372801D03*
G01X7056806Y5918200D03*
G01X7776794Y5918200D03*
G01X12522200Y1629994D03*
G01X12522200Y910006D03*
G01X10079406Y7899400D03*
G01X10799394Y7899400D03*
G01X5765800Y6752006D03*
G01X5765800Y7471994D03*
G01X10062794Y8280400D03*
G01X9342806Y8280400D03*
G01X5638800Y2078406D03*
G01X5638800Y2798394D03*
G01X10333406Y8280400D03*
G01X11053394Y8280400D03*
G01X5334000Y2078406D03*
G01X5334000Y2798394D03*
G54D13*
G01X4108399Y5283195D03*
G01X3308401Y5283195D03*
G54D21*
G01X4017594Y3606800D03*
G01X3297606Y3606800D03*
G54D14*
G01X5168898Y3949701D03*
G01X5168898Y4889499D03*
G01X3619502Y4889499D03*
G01X3619502Y3949701D03*
G54D25*
G01X6535801Y7331608D03*
G01X7535799Y7331608D03*
G01X7535799Y1761592D03*
G01X6535801Y1761592D03*
G54D26*
G01X4876800Y4775200D03*
G54D19*
G01X4876800Y4521200D03*
G01X4876800Y4267200D03*
G01X4876800Y4013200D03*
G54D26*
G01X10490200Y1219200D03*
G54D19*
G01X10490200Y965200D03*
G01X10490200Y711200D03*
G01X10490200Y457200D03*
G54D27*
G01X10642595Y1704599D03*
G01X10642595Y2054611D03*
G01X8760201Y1879595D03*
G01X8410189Y1879595D03*
G01X9651995Y1704599D03*
G01X9651995Y2054611D03*
G01X2768600Y5613397D03*
G01X3022600Y5613397D03*
G01X3276600Y5613397D03*
G01X3530597Y5613397D03*
G01X3784597Y5613397D03*
G01X4038597Y5613397D03*
G01X4292597Y5613397D03*
G01X4546597Y5613397D03*
G01X4546597Y3327403D03*
G01X4292597Y3327403D03*
G01X4038597Y3327403D03*
G01X3784597Y3327403D03*
G01X3530597Y3327403D03*
G01X3276600Y3327403D03*
G01X3022600Y3327403D03*
G01X2768600Y3327403D03*
G01X1041400Y5283200D03*
G01X1041400Y5029200D03*
G01X1041400Y4775200D03*
G01X1041400Y4521200D03*
G01X1041400Y4267200D03*
G01X1041400Y4013200D03*
G54D28*
G01X1041400Y3759200D03*
G54D27*
G01X5918200Y5487403D03*
G01X5918200Y6247397D03*
G54D29*
G01X3280207Y2088007D03*
G01X3730193Y2088007D03*
G01X3280207Y2737993D03*
G01X3730219Y2737993D03*
G01X2365807Y2088007D03*
G01X2815793Y2088007D03*
G01X2365807Y2737993D03*
G01X2815819Y2737993D03*
G54D30*
G01X12027004Y1085393D03*
G01X11557003Y1085393D03*
G01X11087001Y1085393D03*
G54D29*
G01X10906991Y235407D03*
G01X12206989Y235407D03*
G54D27*
G01X4546605Y2740401D03*
G01X4546605Y2390389D03*
G54D31*
G01X7805205Y4787899D03*
G01X7805205Y3517901D03*
G54D32*
G01X5638800Y4800600D03*
G01X5638800Y4546600D03*
G01X5638800Y4292600D03*
G01X5638800Y4038600D03*
G01X5638800Y3784600D03*
G01X5638800Y3530600D03*
G01X7162800Y3530600D03*
G01X7162800Y3784600D03*
G01X7162800Y4038600D03*
G01X7162800Y4292600D03*
G01X7162800Y4546600D03*
G01X7162800Y4800600D03*
G54D15*
G01X3200400Y8354593D03*
G01X3200400Y8104607D03*
G54D21*
G01X5414594Y8737600D03*
G01X4694606Y8737600D03*
G54D15*
G01X3251200Y963193D03*
G01X3251200Y713207D03*
G54D33*
G01X-584200Y8356600D03*
G54D27*
G01X-584200Y8610600D03*
G01X-584200Y8864600D03*
G54D33*
G01X-584200Y711200D03*
G54D27*
G01X-584200Y457200D03*
G01X-584200Y203200D03*
G54D34*
G01X3691630Y8407400D03*
G54D27*
G01X3911600Y8534400D03*
G01X4131570Y8661400D03*
G54D35*
G01X3691630Y685800D03*
G54D27*
G01X3911600Y558800D03*
G01X4131570Y431800D03*
G54D21*
G01X4415206Y5156200D03*
G01X5135194Y5156200D03*
G54D36*
G01X4292600Y6223000D03*
G54D37*
G01X4546600Y6223000D03*
G01X4800600Y6223000D03*
G54D36*
G01X4292600Y6479540D03*
G54D37*
G01X4546600Y6479540D03*
G01X4800600Y6479540D03*
G54D36*
G01X4292600Y6738620D03*
G54D37*
G01X4546600Y6738620D03*
G01X4800600Y6738620D03*
G54D15*
G01X11887200Y8028407D03*
G01X11887200Y8278393D03*
G54D27*
G01X11455400Y2185403D03*
G01X11455400Y1675397D03*
G54D38*
G01X11963400Y1676400D03*
G54D39*
G01X11963400Y2184399D03*
G04 Pad End*

G04 Via Start*
G54D40*
G01X11760200Y6883400D03*
G01X11430000Y5715000D03*
G01X10972800Y5689600D03*
G01X5994400Y1219200D03*
G01X9931400Y5473700D03*
G01X1498600Y4800600D03*
G01X6223000Y6985000D03*
G01X9423400Y6324600D03*
G01X1600200Y4902200D03*
G01X6146800Y6908800D03*
G01X9296400Y6248400D03*
G01X4495800Y4775200D03*
G01X8763000Y3759200D03*
G01X1778000Y5689600D03*
G01X3632200Y4445000D03*
G01X8559800Y8356600D03*
G01X8006146Y5156200D03*
G01X8628975Y5352375D03*
G01X3759200Y6448338D03*
G01X4724400Y5309543D03*
G01X4978400Y5740400D03*
G01X6045200Y6477000D03*
G01X6527800Y6273800D03*
G01X7696200Y5562600D03*
G01X8331200Y5181600D03*
G01X9271000Y5842000D03*
G01X8839200Y5842000D03*
G01X5384800Y5334000D03*
G01X5080000Y6096000D03*
G01X10058400Y4775200D03*
G01X10058400Y4318000D03*
G01X4241800Y4267200D03*
G01X7543800Y2260600D03*
G01X7899400Y2463800D03*
G04 Via End*

G04 Track Start*
G54D41*
G01X12029417Y1087806D02*
G01X12027004Y1085393D01*
G54D42*
G01X10439400Y965200D02*
G01X10261600Y965200D01*
G01X10198098Y1028702D02*
G01X10198098Y1231899D01*
G01X10261600Y965200D02*
G01X10198098Y1028702D01*
G54D43*
G01X10083800Y6045200D02*
G01X9728200Y6400800D01*
G01X8077200Y6400800D01*
G01X7926832Y6551168D01*
G01X7926832Y6625336D01*
G01X8176768Y6625336D02*
G01X8274304Y6527800D01*
G01X9855200Y6527800D01*
G01X10337800Y6045200D01*
G54D42*
G01X5080000Y4521200D02*
G01X4927600Y4521200D01*
G01X5168898Y4610098D02*
G01X5080000Y4521200D01*
G54D10*
G01X3619502Y4889499D02*
G01X3848101Y4889499D01*
G01X4017594Y4720006D02*
G01X4017594Y3606800D01*
G01X3848101Y4889499D02*
G01X4017594Y4720006D01*
G54D42*
G01X4546597Y3327403D02*
G01X4546597Y3606800D01*
G54D10*
G01X4017594Y3606800D02*
G01X4546597Y3606800D01*
G54D42*
G01X4546597Y3327403D02*
G01X4546597Y2743203D01*
G54D10*
G01X3911600Y558800D02*
G01X4724400Y1371600D01*
G01X4724400Y1625600D01*
G01X4902200Y1803400D01*
G01X5384800Y1803400D01*
G01X5638800Y2057400D01*
G01X5638800Y2078406D01*
G01X6781800Y5461000D02*
G01X6755397Y5487403D01*
G01X5918200Y5487403D01*
G54D43*
G01X7162800Y4800600D02*
G01X7315200Y4800600D01*
G01X10972800Y5689600D02*
G01X10845800Y5816600D01*
G01X10845800Y6045200D01*
G01X5334000Y1574800D02*
G01X5689600Y1219200D01*
G01X5994400Y1219200D01*
G01X9931400Y5473700D02*
G01X10020300Y5473700D01*
G01X10591800Y6045200D01*
G01X11760200Y6883400D02*
G01X11607800Y6731000D01*
G01X11607800Y6045200D01*
G01X6223000Y6985000D02*
G01X6883400Y6324600D01*
G01X9423400Y6324600D01*
G01X6146800Y6908800D02*
G01X6807200Y6248400D01*
G01X9296400Y6248400D01*
G54D10*
G01X3759200Y7569200D02*
G01X4140200Y7950200D01*
G01X4140200Y8652770D01*
G01X4131570Y8661400D01*
G54D43*
G01X1778000Y5689600D02*
G01X1778000Y7205401D01*
G01X6818650Y6183650D02*
G01X6705600Y6070600D01*
G01X9437350Y6183650D02*
G01X6818650Y6183650D01*
G01X9575800Y6045200D02*
G01X9437350Y6183650D01*
G01X9067800Y6045200D02*
G01X9017000Y6096000D01*
G01X6832600Y6096000D01*
G01X6731000Y5994400D01*
G01X3632200Y4445000D02*
G01X3022600Y3835400D01*
G01X3022600Y3327403D01*
G01X9017000Y7162800D02*
G01X8559800Y7620000D01*
G01X8559800Y8356600D01*
G01X11353800Y6045200D02*
G01X11353800Y6502400D01*
G01X10693400Y7162800D01*
G01X9017000Y7162800D01*
G01X7315200Y4800600D02*
G01X7518400Y4597400D01*
G01X10312400Y4597400D01*
G01X11430000Y5715000D01*
G01X7162800Y4546600D02*
G01X7188200Y4521200D01*
G01X10337800Y4521200D01*
G01X11861800Y6045200D01*
G01X9321800Y6045200D02*
G01X8628975Y5352375D01*
G54D10*
G01X3759200Y6448338D02*
G01X3759200Y7569200D01*
G01X4495800Y4775200D02*
G01X4724400Y5003800D01*
G01X4724400Y5309543D01*
G54D43*
G01X4108399Y5283195D02*
G01X4260804Y5435600D01*
G01X660400Y4622800D02*
G01X838200Y4622800D01*
G01X864135Y4648735D01*
G01X939800Y4648735D01*
G54D44*
G01X939800Y4648735D02*
G01X1140629Y4648735D01*
G01X1141163Y4648200D01*
G54D43*
G01X1141163Y4648200D02*
G01X1344894Y4648200D01*
G01X1497294Y4800600D01*
G01X1498600Y4800600D01*
G54D44*
G01X938260Y4392658D02*
G01X1117600Y4392658D01*
G54D43*
G01X912860Y4392658D02*
G01X938260Y4392658D01*
G01X887461Y4367258D02*
G01X912860Y4392658D01*
G01X661942Y4367258D02*
G01X887461Y4367258D01*
G01X660400Y4368800D02*
G01X661942Y4367258D01*
G01X1119142Y4394200D02*
G01X1244600Y4394200D01*
G01X1600200Y4749800D01*
G01X1600200Y4902200D01*
G54D42*
G01X4546597Y3606800D02*
G01X4546597Y3860797D01*
G01X4699000Y4013200D01*
G01X4927600Y4013200D01*
G54D43*
G01X6731000Y5994400D02*
G01X4800600Y5994400D01*
G01X4673600Y6121400D01*
G54D42*
G01X5168898Y4889499D02*
G01X5168898Y4610098D01*
G01X12027004Y1085393D02*
G01X12027004Y1333396D01*
G01X11912600Y1447800D01*
G01X10820400Y1041400D02*
G01X10744200Y965200D01*
G01X10490200Y965200D01*
G01X7162800Y4292600D02*
G01X8839200Y4292600D01*
G01X8648702Y292101D02*
G01X8648702Y774698D01*
G01X8331200Y1092200D01*
G01X8331200Y1800606D01*
G01X8410189Y1879595D01*
G01X6045200Y6477000D02*
G01X6248400Y6273800D01*
G01X6527800Y6273800D01*
G54D43*
G01X4694606Y8737600D02*
G01X4415206Y9017000D01*
G54D42*
G01X8331200Y5181600D02*
G01X7950200Y5562600D01*
G01X7696200Y5562600D01*
G54D43*
G01X4673600Y6121400D02*
G01X4673600Y6350000D01*
G01X4546600Y6477000D01*
G01X6705600Y6070600D02*
G01X5207000Y6070600D01*
G01X4978400Y6299200D01*
G01X4978400Y6807200D01*
G01X4902200Y6883400D01*
G01X4437380Y6883400D01*
G01X4290060Y6736080D01*
G01X4260804Y5435600D02*
G01X4673600Y5435600D01*
G01X4978400Y5740400D01*
G01X8006146Y5156200D02*
G01X5562600Y5156200D01*
G01X5384800Y5334000D01*
G01X5080000Y6096000D02*
G01X4927600Y6096000D01*
G01X4800600Y6223000D01*
G54D42*
G01X11887200Y8028407D02*
G01X12164593Y8305800D01*
G01X12293600Y8305800D01*
G01X9552407Y7899400D02*
G01X9448800Y7899400D01*
G01X9321800Y7772400D01*
G01X9321800Y7569200D01*
G01X4876800Y4267200D02*
G01X4241800Y4267200D01*
G54D43*
G01X1778000Y7205401D02*
G01X2794000Y8221401D01*
G01X2794000Y8272201D01*
G01X4415206Y9017000D02*
G01X2938201Y9017000D01*
G01X2565400Y8644199D01*
G54D42*
G01X8839200Y4292600D02*
G01X9651995Y3479805D01*
G01X9651995Y2054611D01*
G01X7543800Y2260600D02*
G01X7696200Y2260600D01*
G01X7899400Y2463800D01*
G54D43*
G01X5638800Y2078406D02*
G01X6049594Y2489200D01*
G01X7620000Y2489200D01*
G01X8763000Y3632200D01*
G01X8763000Y3759200D01*
G54D42*
G01X10820400Y1320800D02*
G01X10820400Y1041400D01*
G01X11912600Y1447800D02*
G01X10924804Y1447800D01*
G01X10668005Y1704599D01*
G01X10642595Y1704599D01*
G01X10642595Y1498605D01*
G01X10820400Y1320800D01*
G54D10*
G01X5168898Y4924159D02*
G01X5168898Y4889499D01*
G01X5197739Y4953000D02*
G01X5168898Y4924159D01*
G01X5892800Y4953000D02*
G01X5197739Y4953000D01*
G01X6426200Y4419600D02*
G01X5892800Y4953000D01*
G01X8890000Y4419600D02*
G01X6426200Y4419600D01*
G01X9829800Y3479800D02*
G01X8890000Y4419600D01*
G01X9829800Y2133600D02*
G01X9829800Y3479800D01*
G54D42*
G01X9423400Y1930400D02*
G01X9643658Y1710142D01*
G01X9423400Y3479800D02*
G01X9423400Y1930400D01*
G01X8864600Y4038600D02*
G01X9423400Y3479800D01*
G01X7162800Y4038600D02*
G01X8864600Y4038600D01*
G01X9643658Y1710142D02*
G01X10637052Y1710142D01*
G01X10642595Y1704599D01*
G54D10*
G01X10637052Y1710142D02*
G01X10518394Y1828800D01*
G01X10134600Y1828800D01*
G01X9829800Y2133600D01*
G54D11*
G01X11455400Y2185403D02*
G01X11455400Y2057400D01*
G01X11422561Y2024561D01*
G01X11455400Y1803400D02*
G01X11455400Y1675397D01*
G01X11422561Y2024561D02*
G01X11422561Y1963239D01*
G01X11500939Y1884861D01*
G01X11500939Y1848939D01*
G01X11455400Y1803400D01*
G54D41*
G01X12547600Y910006D02*
G01X12369800Y1087806D01*
G01X12029417Y1087806D01*
G01X12522200Y2057400D02*
G01X12522200Y1655394D01*
G01X12547600Y1629994D01*
G04 Track End*

M02*

