G04 Layer: TopSolderMaskLayer*
G04 EasyEDA Pro v2.2.40.8, 2025-10-14 12:36:16*
G04 Gerber Generator version 0.3*
G04 Scale: 100 percent, Rotated: No, Reflected: No*
G04 Dimensions in millimeters*
G04 Leading zeros omitted, absolute positions, 4 integers and 5 decimals*
G04 Generated by one-click*
%FSLAX45Y45*%
%MOMM*%
%AMRoundRect*1,1,$1,$2,$3*1,1,$1,$4,$5*1,1,$1,0-$2,0-$3*1,1,$1,0-$4,0-$5*20,1,$1,$2,$3,$4,$5,0*20,1,$1,$4,$5,0-$2,0-$3,0*20,1,$1,0-$2,0-$3,0-$4,0-$5,0*20,1,$1,0-$4,0-$5,$2,$3,0*4,1,4,$2,$3,$4,$5,0-$2,0-$3,0-$4,0-$5,$2,$3,0*%
%ADD10RoundRect,0.09588X-0.80286X0.80286X0.80286X0.80286*%
%ADD11C,1.7016*%
%ADD12RoundRect,0.18604X-1.00858X1.00858X1.00858X1.00858*%
%ADD13C,1.50002*%
%ADD14RoundRect,0.09645X-0.90257X-0.90257X-0.90257X0.90257*%
%ADD15C,1.9016*%
%ADD16O,3.0X2.0*%
%ADD17C,1.7272*%
%ADD18C,1.6366*%
%ADD19C,1.6256*%
%ADD20C,1.7032*%
%ADD21RoundRect,0.09422X-0.7649X-0.7649X-0.7649X0.7649*%
%ADD22C,1.62403*%
%ADD23C,1.7526*%
%ADD24C,1.9812*%
%ADD25C,1.6016*%
%ADD26C,2.4032*%
%ADD27RoundRect,0.09691X-1.50234X-1.00234X-1.50234X1.00234*%
%ADD28O,3.1016X2.1016*%
%ADD29C,2.1016*%
%ADD30RoundRect,0.09579X-1.0029X-0.7903X-1.0029X0.7903*%
%ADD31O,2.1016X3.1016*%
%ADD32O,2.6016X4.1016*%
%ADD33O,4.1016X2.6016*%
%ADD34O,3.1016X1.7016*%
%ADD35RoundRect,0.09618X-0.85271X-1.00271X-0.85271X1.00271*%
%ADD36RoundRect,0.09618X-1.29473X0.23711X0.44202X1.23982*%
%ADD37RoundRect,0.09618X0.44202X-1.23982X-1.29473X-0.23711*%
%ADD38RoundRect,0.09476X-0.85263X0.85263X0.85263X0.85263*%
%ADD39C,1.80002*%
%ADD40R,2.4X2.4*%
%ADD41C,2.4*%
G75*


G04 Pad Start*
G54D10*
G01X9067800Y6045200D03*
G54D11*
G01X9321800Y7569200D03*
G01X9829800Y7569200D03*
G01X10337800Y7569200D03*
G01X10845800Y7569200D03*
G01X11353800Y7569200D03*
G01X11861800Y7569200D03*
G01X12369800Y7569200D03*
G01X12623800Y6045200D03*
G01X12115800Y6045200D03*
G01X11607800Y6045200D03*
G01X11099800Y6045200D03*
G01X10591800Y6045200D03*
G01X10083800Y6045200D03*
G01X9575800Y6045200D03*
G01X9321800Y6045200D03*
G01X9829800Y6045200D03*
G01X10337800Y6045200D03*
G01X10845800Y6045200D03*
G01X11353800Y6045200D03*
G01X11861800Y6045200D03*
G01X12369800Y6045200D03*
G01X12623800Y7569200D03*
G01X12115800Y7569200D03*
G01X11607800Y7569200D03*
G01X11099800Y7569200D03*
G01X10591800Y7569200D03*
G01X10083800Y7569200D03*
G01X9575800Y7569200D03*
G54D10*
G01X9067800Y7569200D03*
G54D12*
G01X10198098Y292101D03*
G01X10198098Y1231899D03*
G01X8648702Y1231899D03*
G01X8648702Y292101D03*
G54D13*
G01X9802393Y7899400D03*
G01X9552407Y7899400D03*
G54D14*
G01X6781800Y5486400D03*
G54D15*
G01X7035800Y5486400D03*
G01X7289800Y5486400D03*
G54D13*
G01X635000Y5484393D03*
G01X635000Y5234407D03*
G54D16*
G01X660400Y4876799D03*
G01X660400Y4622800D03*
G01X660400Y4368800D03*
G01X660400Y4114801D03*
G54D17*
G01X8176768Y6625336D03*
G01X7926832Y6625336D03*
G01X7666736Y6625336D03*
G01X7416800Y6625336D03*
G54D19*
G01X12522200Y2311400D03*
G01X12522200Y2057400D03*
G54D13*
G01X7135393Y2184400D03*
G01X6885407Y2184400D03*
G01X6961607Y6985000D03*
G01X7211593Y6985000D03*
G54D20*
G01X10355402Y8712200D03*
G01X10015398Y8712200D03*
G54D21*
G01X12293600Y8051800D03*
G54D22*
G01X12293600Y8305800D03*
G01X12293600Y8559800D03*
G54D13*
G01X8966200Y8278393D03*
G01X8966200Y8028407D03*
G01X11353800Y8278393D03*
G01X11353800Y8028407D03*
G54D11*
G01X584200Y8432800D03*
G01X584200Y8686800D03*
G01X584200Y381000D03*
G01X584200Y635000D03*
G54D23*
G01X-101600Y8686800D03*
G01X-101600Y8432800D03*
G01X-101600Y635000D03*
G01X-101600Y381000D03*
G54D15*
G01X5588000Y1574800D03*
G01X5334000Y1574800D03*
G54D14*
G01X5080000Y1574800D03*
G54D24*
G01X5410200Y7772400D03*
G01X5410200Y6756400D03*
G01X5969000Y1778000D03*
G01X5969000Y2794000D03*
G54D25*
G01X2565400Y8644199D03*
G01X2794000Y8520199D03*
G01X2565400Y8396199D03*
G01X2794000Y8272201D03*
G01X2616200Y744799D03*
G01X2844800Y620799D03*
G01X2616200Y496799D03*
G01X2844800Y372801D03*
G01X7056806Y5918200D03*
G01X7776794Y5918200D03*
G01X12522200Y1629994D03*
G01X12522200Y910006D03*
G01X10079406Y7899400D03*
G01X10799394Y7899400D03*
G01X5765800Y6752006D03*
G01X5765800Y7471994D03*
G01X10062794Y8280400D03*
G01X9342806Y8280400D03*
G01X5638800Y2078406D03*
G01X5638800Y2798394D03*
G01X10333406Y8280400D03*
G01X11053394Y8280400D03*
G01X5334000Y2078406D03*
G01X5334000Y2798394D03*
G54D11*
G01X4108399Y5283195D03*
G01X3308401Y5283195D03*
G54D25*
G01X4017594Y3606800D03*
G01X3297606Y3606800D03*
G54D12*
G01X5168898Y3949701D03*
G01X5168898Y4889499D03*
G01X3619502Y4889499D03*
G01X3619502Y3949701D03*
G54D26*
G01X6535801Y7331608D03*
G01X7535799Y7331608D03*
G01X7535799Y1761592D03*
G01X6535801Y1761592D03*
G54D27*
G01X4876800Y4775200D03*
G54D28*
G01X4876800Y4521200D03*
G01X4876800Y4267200D03*
G01X4876800Y4013200D03*
G54D27*
G01X10490200Y1219200D03*
G54D28*
G01X10490200Y965200D03*
G01X10490200Y711200D03*
G01X10490200Y457200D03*
G54D29*
G01X10642595Y1704599D03*
G01X10642595Y2054611D03*
G01X8760201Y1879595D03*
G01X8410189Y1879595D03*
G01X9651995Y1704599D03*
G01X9651995Y2054611D03*
G01X2768600Y5613397D03*
G01X3022600Y5613397D03*
G01X3276600Y5613397D03*
G01X3530597Y5613397D03*
G01X3784597Y5613397D03*
G01X4038597Y5613397D03*
G01X4292597Y5613397D03*
G01X4546597Y5613397D03*
G01X4546597Y3327403D03*
G01X4292597Y3327403D03*
G01X4038597Y3327403D03*
G01X3784597Y3327403D03*
G01X3530597Y3327403D03*
G01X3276600Y3327403D03*
G01X3022600Y3327403D03*
G01X2768600Y3327403D03*
G01X1041400Y5283200D03*
G01X1041400Y5029200D03*
G01X1041400Y4775200D03*
G01X1041400Y4521200D03*
G01X1041400Y4267200D03*
G01X1041400Y4013200D03*
G54D30*
G01X1041400Y3759200D03*
G54D29*
G01X5918200Y5487403D03*
G01X5918200Y6247397D03*
G54D31*
G01X3280207Y2088007D03*
G01X3730193Y2088007D03*
G01X3280207Y2737993D03*
G01X3730219Y2737993D03*
G01X2365807Y2088007D03*
G01X2815793Y2088007D03*
G01X2365807Y2737993D03*
G01X2815819Y2737993D03*
G54D32*
G01X12027004Y1085393D03*
G01X11557003Y1085393D03*
G01X11087001Y1085393D03*
G54D31*
G01X10906991Y235407D03*
G01X12206989Y235407D03*
G54D29*
G01X4546605Y2740401D03*
G01X4546605Y2390389D03*
G54D33*
G01X7805205Y4787899D03*
G01X7805205Y3517901D03*
G54D34*
G01X5638800Y4800600D03*
G01X5638800Y4546600D03*
G01X5638800Y4292600D03*
G01X5638800Y4038600D03*
G01X5638800Y3784600D03*
G01X5638800Y3530600D03*
G01X7162800Y3530600D03*
G01X7162800Y3784600D03*
G01X7162800Y4038600D03*
G01X7162800Y4292600D03*
G01X7162800Y4546600D03*
G01X7162800Y4800600D03*
G54D13*
G01X3200400Y8354593D03*
G01X3200400Y8104607D03*
G54D25*
G01X5414594Y8737600D03*
G01X4694606Y8737600D03*
G54D13*
G01X3251200Y963193D03*
G01X3251200Y713207D03*
G54D35*
G01X-584200Y8356600D03*
G54D29*
G01X-584200Y8610600D03*
G01X-584200Y8864600D03*
G54D35*
G01X-584200Y711200D03*
G54D29*
G01X-584200Y457200D03*
G01X-584200Y203200D03*
G54D36*
G01X3691630Y8407400D03*
G54D29*
G01X3911600Y8534400D03*
G01X4131570Y8661400D03*
G54D37*
G01X3691630Y685800D03*
G54D29*
G01X3911600Y558800D03*
G01X4131570Y431800D03*
G54D25*
G01X4415206Y5156200D03*
G01X5135194Y5156200D03*
G54D38*
G01X4292600Y6223000D03*
G54D39*
G01X4546600Y6223000D03*
G01X4800600Y6223000D03*
G54D38*
G01X4292600Y6479540D03*
G54D39*
G01X4546600Y6479540D03*
G01X4800600Y6479540D03*
G54D38*
G01X4292600Y6738620D03*
G54D39*
G01X4546600Y6738620D03*
G01X4800600Y6738620D03*
G54D13*
G01X11887200Y8028407D03*
G01X11887200Y8278393D03*
G54D29*
G01X11455400Y2185403D03*
G01X11455400Y1675397D03*
G54D40*
G01X11963400Y1676400D03*
G54D41*
G01X11963400Y2184399D03*
G04 Pad End*

M02*

