G04 Layer: DrillDrawingLayer*
G04 EasyEDA Pro v2.2.40.8, 2025-10-14 12:36:16*
G04 Gerber Generator version 0.3*
G04 Scale: 100 percent, Rotated: No, Reflected: No*
G04 Dimensions in millimeters*
G04 Leading zeros omitted, absolute positions, 4 integers and 5 decimals*
G04 Generated by one-click*
%FSLAX45Y45*%
%MOMM*%
%AMIconRect*4,1,4,0.2,-0.2,-0.2,-0.2,-0.2,0.2,0.2,0.2,0.2,-0.2,0*4,0,4,0.166667,-0.166667,0.166667,0.166667,-0.166667,0.166667,-0.166667,-0.166667,0.166667,-0.166667,0*%
%AMIconTriangle*4,1,3,-0.242567,0.171767,0.242567,0.171767,0,-0.2706,-0.242567,0.171767,0*4,0,3,-0.189767,0.1386,0,-0.1953,0.190167,0.1386,-0.189767,0.1386,0*%
%AMIconStar6*4,1,12,0.0862,0.1492,0.213233,0.123367,0.172367,0,0.213233,-0.1229,0.0862,-0.148733,0,-0.245767,-0.085767,-0.148733,-0.213267,-0.1229,-0.171933,0,-0.213267,0.1229,-0.085767,0.1492,0,0.245767,0.0862,0.1492,0*4,0,12,-0.000333,0.195333,-0.064333,0.122667,-0.169667,0.097667,-0.138333,-0.005333,-0.169667,-0.098,-0.064333,-0.122667,-0.000333,-0.195667,0.064333,-0.122667,0.169667,-0.098,0.138667,0.005,0.169667,0.098,0.064333,0.122333,-0.000333,0.195333,0*%
%AMIconStar4*4,1,8,-0.222667,0.222667,0,0.144667,0.222667,0.222667,0.144667,0,0.222667,-0.222667,0,-0.144667,-0.217433,-0.222667,-0.144667,0,-0.222667,0.222667,0*4,0,8,0.166667,-0.166667,0.108,0,0.166667,0.166667,0,0.108,-0.166667,0.166667,-0.108,0,-0.166667,-0.166667,0,-0.108,0.166667,-0.166667,0*%
%AMIconPlus*4,1,12,0.124,-0.2,-0.124,-0.2,-0.124,-0.124,-0.2,-0.124,-0.2,0.124,-0.124,0.124,-0.124,0.2,0.124,0.2,0.124,0.124,0.2,0.124,0.2,-0.124,0.124,-0.124,0.124,-0.2,0*4,0,12,0.090667,-0.166667,0.090667,-0.090667,0.166667,-0.090667,0.166667,0.090667,0.090667,0.090667,0.090667,0.166667,-0.090667,0.166667,-0.090667,0.090667,-0.166667,0.090667,-0.166667,-0.090667,-0.090667,-0.090667,-0.090667,-0.166667,0.090667,-0.166667,0*%
%AMIconX*4,1,16,0.2,-0.2,0.054533,-0.2,0,-0.145467,-0.054533,-0.2,-0.2,-0.2,-0.2,-0.054533,-0.145467,0,-0.2,0.054533,-0.2,0.2,-0.054533,0.2,0,0.145467,0.054533,0.2,0.2,0.2,0.2,0.054533,0.145467,0,0.2,-0.054533,0.2,-0.2,0*4,0,16,0.1668,-0.1664,0.1668,-0.068467,0.097933,0.000067,0.1668,0.068467,0.1668,0.1665,0.068467,0.1665,0,0.097933,-0.068467,0.1665,-0.1668,0.1665,-0.1668,0.068467,-0.097933,0.000067,-0.1668,-0.068467,-0.1668,-0.1664,-0.068467,-0.1664,0,-0.097933,0.068467,-0.1664,0.1668,-0.1664,0*%
%AMIconDiamond*4,1,4,0,-0.26,-0.26,0,0,0.26,0.26,0,0,-0.26,0*4,0,4,0,-0.203433,0.203433,0,0,0.2036,-0.203433,0,0,-0.203433,0*%
%AMIconRect2*4,1,6,0.2,-0.2,-0.2,-0.2,-0.2,0.2,-0.1668,0.1665,-0.166667,-0.166667,0.1668,-0.166667,0.2,-0.2,0*4,1,6,0.2,-0.2,0.1668,-0.166667,0.1668,0.1665,-0.1668,0.1665,-0.2,0.2,0.2,0.2,0.2,-0.2,0*4,1,6,0.133467,-0.133333,-0.133333,-0.133333,-0.133333,0.133467,-0.1,0.100133,-0.1,-0.1,0.100133,-0.1,0.133467,-0.133333,0*4,1,6,0.133467,-0.133333,0.100133,-0.1,0.100133,0.100133,-0.1,0.100133,-0.133333,0.133467,0.133467,0.133467,0.133467,-0.133333,0*%
%AMCharA*4,1,8,-0.122067,-0.1864,-0.1532,-0.174533,-0.015133,0.1864,0.016,0.1864,0.1532,-0.174533,0.122067,-0.1864,0.0764,-0.0662,-0.076133,-0.0662,-0.122067,-0.1864,0*4,0,3,-0.063333,-0.032867,0.063667,-0.032867,0.000333,0.1338,-0.063333,-0.032867,0*%
%AMCharB*4,1,17,-0.131133,-0.1894,-0.131133,0.1894,0.033533,0.1894,0.088067,0.172467,0.1114,0.151733,0.131133,0.114133,0.131,0.066467,0.114333,0.0338,0.094733,0.0128,0.086467,0.0084,0.094733,0.003867,0.114333,-0.017133,0.131,-0.0498,0.131133,-0.114133,0.1114,-0.151733,0.088067,-0.1726,0.033533,-0.1894,-0.131133,-0.1894,0*4,0,10,-0.0978,-0.156067,0.030867,-0.156067,0.073867,-0.142,0.085867,-0.130133,0.099533,-0.1028,0.099533,-0.0614,0.085867,-0.034533,0.073867,-0.0226,0.030867,-0.008667,-0.0978,-0.008667,-0.0978,-0.156067,0*4,0,10,-0.0978,0.024667,0.0308,0.024667,0.073867,0.039267,0.085867,0.051267,0.099533,0.078067,0.099533,0.102667,0.085867,0.130133,0.073867,0.142,0.030867,0.156067,-0.0978,0.156067,-0.0978,0.024667,0*%
%AMCharC*4,1,36,-0.027533,-0.1894,-0.071933,-0.1684,-0.1084,-0.130667,-0.125333,-0.096,-0.1428,-0.041333,-0.1428,0.041333,-0.1244,0.098,-0.105267,0.135067,-0.067533,0.171667,-0.027533,0.1894,0.038533,0.1894,0.083067,0.1684,0.119467,0.130667,0.1428,0.083,0.112867,0.0684,0.090867,0.113467,0.0614,0.142933,0.034733,0.156067,-0.0236,0.156067,-0.050333,0.142933,-0.079733,0.113467,-0.094067,0.084333,-0.109467,0.0386,-0.109467,-0.0386,-0.094067,-0.084333,-0.079733,-0.113467,-0.050333,-0.142867,-0.0236,-0.156067,0.034733,-0.156067,0.0614,-0.142867,0.090867,-0.113467,0.112867,-0.0684,0.1428,-0.083,0.119467,-0.130667,0.083067,-0.1684,0.038533,-0.1894,-0.027533,-0.1894,0*%
%AMCharD*4,1,12,-0.132,-0.1894,-0.132,0.1894,-0.000067,0.1894,0.054533,0.172467,0.0968,0.130933,0.1144,0.096067,0.132,0.041333,0.132,-0.041333,0.113467,-0.098267,0.093933,-0.134933,0.054533,-0.1726,-0.000067,-0.1894,-0.132,-0.1894,0*4,0,12,-0.098667,-0.156067,-0.002667,-0.156067,0.040333,-0.142133,0.068333,-0.113467,0.083267,-0.0842,0.098667,-0.0386,0.098667,0.0386,0.083267,0.0842,0.068333,0.113467,0.040333,0.142133,-0.002667,0.156067,-0.098667,0.156067,-0.098667,-0.156067,0*%
%ADD10IconRect*%
%ADD11C,0.44X0.373333*%
%ADD12IconTriangle*%
%ADD13IconStar6*%
%ADD14IconStar4*%
%ADD15IconPlus*%
%ADD16IconX*%
%ADD17IconDiamond*%
%ADD18IconRect2*%
%ADD19CharA*%
%ADD20CharB*%
%ADD21CharC*%
%ADD22CharD*%
G75*


G04 Drill Drawing Start*
G54D10*
G01X10906981Y235407D03*
G01X12206978Y235407D03*
G54D11*
G01X68426Y1145057D03*
G01X68426Y7926857D03*
G54D12*
G01X11087001Y1085393D03*
G01X11557003Y1085393D03*
G01X12027009Y1085393D03*
G54D13*
G01X-101600Y8432800D03*
G01X-101600Y381000D03*
G01X-101600Y8686800D03*
G01X-101600Y635000D03*
G54D14*
G01X5410200Y6756400D03*
G01X5410200Y7772400D03*
G01X5969000Y1778000D03*
G01X5969000Y2794000D03*
G54D15*
G01X3619502Y3949701D03*
G01X3619502Y4889499D03*
G01X5168898Y3949701D03*
G01X5168898Y4889499D03*
G01X8648702Y292101D03*
G01X8648702Y1231899D03*
G01X10198098Y292101D03*
G01X10198098Y1231899D03*
G01X11963400Y1676400D03*
G01X11963400Y2184399D03*
G54D16*
G01X-508000Y1701800D03*
G01X-500000Y7289800D03*
G01X2357846Y3721200D03*
G01X2357846Y5321200D03*
G01X6135802Y8356600D03*
G01X6135802Y736600D03*
G01X7935798Y736600D03*
G01X7935798Y8356600D03*
G01X11684000Y3721200D03*
G01X11684000Y5321200D03*
G54D17*
G01X5638800Y3530600D03*
G01X5638800Y3784600D03*
G01X5638800Y4038600D03*
G01X5638800Y4292600D03*
G01X5638800Y4546600D03*
G01X5638800Y4800600D03*
G01X7162800Y3530600D03*
G01X7162800Y3784600D03*
G01X7162800Y4038600D03*
G01X7162800Y4292600D03*
G01X7162800Y4546600D03*
G01X7162800Y4800600D03*
G01X7416800Y6625336D03*
G01X7666736Y6625336D03*
G01X7805205Y3517901D03*
G01X7805205Y4787899D03*
G01X7926832Y6625336D03*
G01X8176768Y6625336D03*
G01X12293600Y8051800D03*
G01X12293600Y8305800D03*
G01X12293600Y8559800D03*
G01X12522200Y2057400D03*
G01X12522200Y2311400D03*
G54D18*
G01X1497294Y4648200D03*
G01X1600200Y4902200D03*
G01X1778000Y5689600D03*
G01X3632200Y4445000D03*
G01X3759200Y6448338D03*
G01X4241800Y4267200D03*
G01X4495800Y4775200D03*
G01X4724400Y5309543D03*
G01X4978400Y5740400D03*
G01X5080000Y6096000D03*
G01X5384800Y5334000D03*
G01X5994400Y1219200D03*
G01X6045200Y6477000D03*
G01X6146800Y6908800D03*
G01X6223000Y6985000D03*
G01X6527800Y6273800D03*
G01X7543800Y2260600D03*
G01X7696200Y5562600D03*
G01X7899400Y2463800D03*
G01X8006146Y5156200D03*
G01X8331200Y5181600D03*
G01X8458200Y6248400D03*
G01X8559800Y8356600D03*
G01X8628975Y5352375D03*
G01X8763000Y3759200D03*
G01X8839200Y5842000D03*
G01X9118600Y6324600D03*
G01X9271000Y5842000D03*
G01X9931400Y5473700D03*
G01X10058400Y4318000D03*
G01X10058400Y4775200D03*
G01X10972800Y5689600D03*
G01X11430000Y5715000D03*
G01X11760200Y6883400D03*
G54D19*
G01X-584200Y203200D03*
G01X-584200Y457200D03*
G01X-584200Y711200D03*
G01X-584200Y8356600D03*
G01X-584200Y8610600D03*
G01X-584200Y8864600D03*
G01X1041400Y3759200D03*
G01X1041400Y4013200D03*
G01X1041400Y4267200D03*
G01X1041400Y4521200D03*
G01X1041400Y4775200D03*
G01X1041400Y5029200D03*
G01X1041400Y5283200D03*
G01X3691630Y685800D03*
G01X3691630Y8407400D03*
G01X3911600Y558800D03*
G01X3911600Y8534400D03*
G01X4131570Y431800D03*
G01X4131570Y8661400D03*
G01X4292600Y6223000D03*
G01X4292600Y6479540D03*
G01X4292600Y6738620D03*
G01X4546600Y6223000D03*
G01X4546600Y6479540D03*
G01X4546600Y6738620D03*
G01X4800600Y6223000D03*
G01X4800600Y6479540D03*
G01X4800600Y6738620D03*
G01X4876800Y4013200D03*
G01X4876800Y4267200D03*
G01X4876800Y4521200D03*
G01X4876800Y4775200D03*
G01X10490200Y457200D03*
G01X10490200Y711200D03*
G01X10490200Y965200D03*
G01X10490200Y1219200D03*
G54D20*
G01X584200Y381000D03*
G01X584200Y635000D03*
G01X584200Y8432800D03*
G01X584200Y8686800D03*
G01X660400Y4114801D03*
G01X660400Y4368800D03*
G01X660400Y4622800D03*
G01X660400Y4876799D03*
G01X2365807Y2088007D03*
G01X2365807Y2737993D03*
G01X2815793Y2088007D03*
G01X2815819Y2737993D03*
G01X3280207Y2088007D03*
G01X3280207Y2737993D03*
G01X3730193Y2088007D03*
G01X3730219Y2737993D03*
G01X4546600Y2390384D03*
G01X4546600Y2740396D03*
G01X5080000Y1574800D03*
G01X5334000Y1574800D03*
G01X5588000Y1574800D03*
G01X5918200Y5487401D03*
G01X5918200Y6247399D03*
G01X6535801Y1761599D03*
G01X6535801Y7331601D03*
G01X6781800Y5486400D03*
G01X7035800Y5486400D03*
G01X7289800Y5486400D03*
G01X7535799Y1761599D03*
G01X7535799Y7331601D03*
G01X8410184Y1879600D03*
G01X8760196Y1879600D03*
G01X9652000Y1704604D03*
G01X9652000Y2054616D03*
G01X10642600Y1704604D03*
G01X10642600Y2054616D03*
G01X11455397Y2185396D03*
G01X11455403Y1675397D03*
G54D21*
G01X2768600Y3327403D03*
G01X2768600Y5613397D03*
G01X3022600Y3327403D03*
G01X3022600Y5613397D03*
G01X3276600Y3327403D03*
G01X3276600Y5613397D03*
G01X3530597Y3327403D03*
G01X3530597Y5613397D03*
G01X3784597Y3327403D03*
G01X3784597Y5613397D03*
G01X4038597Y3327403D03*
G01X4038597Y5613397D03*
G01X4292597Y3327403D03*
G01X4292597Y5613397D03*
G01X4546597Y3327403D03*
G01X4546597Y5613397D03*
G01X9067800Y6045200D03*
G01X9067800Y7569200D03*
G01X9321800Y6045197D03*
G01X9321800Y7569200D03*
G01X9575752Y6045246D03*
G01X9575808Y7569197D03*
G01X9829800Y6045197D03*
G01X9829856Y7569246D03*
G01X10083749Y6045246D03*
G01X10083805Y7569197D03*
G01X10337800Y6045197D03*
G01X10337853Y7569246D03*
G01X10591747Y6045246D03*
G01X10591805Y7569197D03*
G01X10845797Y6045197D03*
G01X10845853Y7569246D03*
G01X11099749Y6045246D03*
G01X11099805Y7569197D03*
G01X11353797Y6045197D03*
G01X11353853Y7569246D03*
G01X11607749Y6045246D03*
G01X11607805Y7569197D03*
G01X11861797Y6045197D03*
G01X11861853Y7569246D03*
G01X12115749Y6045246D03*
G01X12115805Y7569197D03*
G01X12369797Y6045197D03*
G01X12369853Y7569246D03*
G01X12623800Y6045200D03*
G01X12623803Y7569197D03*
G54D22*
G01X635000Y5234399D03*
G01X635000Y5484401D03*
G01X2565400Y8396199D03*
G01X2565400Y8644199D03*
G01X2616200Y496799D03*
G01X2616200Y744799D03*
G01X2794000Y8272201D03*
G01X2794000Y8520199D03*
G01X2844800Y372801D03*
G01X2844800Y620799D03*
G01X3200400Y8104599D03*
G01X3200400Y8354601D03*
G01X3251200Y713199D03*
G01X3251200Y963201D03*
G01X3297601Y3606800D03*
G01X3308401Y5283190D03*
G01X4017599Y3606800D03*
G01X4108399Y5283190D03*
G01X4415201Y5156200D03*
G01X4694601Y8737600D03*
G01X5135199Y5156200D03*
G01X5334000Y2078401D03*
G01X5334000Y2798399D03*
G01X5414599Y8737600D03*
G01X5638800Y2078401D03*
G01X5638800Y2798399D03*
G01X5765800Y6752001D03*
G01X5765800Y7471999D03*
G01X6885399Y2184400D03*
G01X6961599Y6985000D03*
G01X7056801Y5918200D03*
G01X7135401Y2184400D03*
G01X7211601Y6985000D03*
G01X7776799Y5918200D03*
G01X8966200Y8028399D03*
G01X8966200Y8278401D03*
G01X9342801Y8280400D03*
G01X9552399Y7899400D03*
G01X9802401Y7899400D03*
G01X10015398Y8712200D03*
G01X10062799Y8280400D03*
G01X10079401Y7899400D03*
G01X10333401Y8280400D03*
G01X10355402Y8712200D03*
G01X10799399Y7899400D03*
G01X11053399Y8280400D03*
G01X11353800Y8028399D03*
G01X11353800Y8278401D03*
G01X11887200Y8028399D03*
G01X11887200Y8278401D03*
G01X12522200Y910001D03*
G01X12522200Y1629999D03*
G04 Drill Drawing End*

M02*

