G04 Layer: BottomLayer*
G04 EasyEDA Pro v2.2.40.8, 2025-10-14 12:36:16*
G04 Gerber Generator version 0.3*
G04 Scale: 100 percent, Rotated: No, Reflected: No*
G04 Dimensions in millimeters*
G04 Leading zeros omitted, absolute positions, 4 integers and 5 decimals*
G04 Generated by one-click*
%FSLAX45Y45*%
%MOMM*%
%AMRect*21,1,$1,$2,0,0,$3*%
%ADD10C,0.508*%
%ADD11C,0.254*%
%ADD12R,1.6X1.6*%
%ADD13C,1.6*%
%ADD14R,2.0X2.0*%
%ADD15C,1.4*%
%ADD16R,1.8X1.8*%
%ADD17C,1.8*%
%ADD18O,3.0031X2.0*%
%ADD19O,3.0X2.0*%
%ADD20C,1.524*%
%ADD21C,1.5*%
%ADD22R,1.524X1.524*%
%ADD23C,1.651*%
%ADD24C,1.8796*%
%ADD25C,2.2*%
%ADD26R,3.0X2.0*%
%ADD27C,2.0*%
%ADD28R,2.0X1.5748*%
%ADD29O,2.0X3.0*%
%ADD30O,2.5X4.0*%
%ADD31O,4.0X2.5*%
%ADD32O,3.0X1.6*%
%ADD33R,1.7X2.0*%
%ADD34Rect,2.0X1.7X30.0*%
%ADD35Rect,2.0X1.7X150.0*%
%ADD36R,1.7X1.7*%
%ADD37C,1.7*%
%ADD38R,2.4X2.4*%
%ADD39C,2.4*%
%ADD40C,0.61*%
%ADD41C,0.6096*%
%ADD42C,1.016*%
%ADD43C,0.381*%
%ADD44C,1.27*%
G75*

G54D10*

G04 Copper Start*
G01X654969Y1777462D02*
G03X-129055Y1620734I1J-2039394D01*
G01X-129055Y2135996D01*
G03X-117833Y2147285I-371164J380228D01*
G03X43911Y2532986I-357695J376763D01*
G01X43916Y2556861D01*
G01X43916Y2556861D01*
G01X44332Y4504677D01*
G01X44332Y4504677D01*
G01X38378Y6463694D01*
G03X-108973Y6860058I-530598J28318D01*
G03X-129055Y6879888I-383247J-368047D01*
G01X-129055Y7384546D01*
G03X682519Y7216107I811576J1870955D01*
G01X688232Y7216115D01*
G03X787938Y7302524I-282J101055D01*
G03X889000Y7213346I101062J12676D01*
G03X897167Y7213674I0J101853D01*
G03X2295225Y8047132I-147796J1837209D01*
G03X2311654Y8102600I-85425J55468D01*
G01X2311654Y8683804D01*
G02X2421922Y8883692I267347J-17123D01*
G03X2464054Y8966200I-59722J82508D01*
G03X2425391Y9046082I-101854J0D01*
G01X5623934Y9046082D01*
G01X5439101Y8861249D01*
G03X5325461Y8648466I-24507J-123649D01*
G03X5538243Y8762107I89134J89134D01*
G01X5723032Y8946896D01*
G01X8098962Y8946896D01*
G01X8489696Y8556162D01*
G01X8489696Y8398271D01*
G03X8559800Y8275046I70104J-41671D01*
G03X8629904Y8398271I0J81554D01*
G01X8629904Y8585200D01*
G03X8609371Y8634771I-70104J0D01*
G01X8198060Y9046082D01*
G01X11962047Y9046082D01*
G02X12671511Y8771453I3433J-1044845D01*
G02X13006501Y8090604I-706032J-770215D01*
G01X13006500Y978582D01*
G02X12336703Y108002I-1017126J89595D01*
G03X12358043Y185407I-129714J77405D01*
G01X12358043Y285407D01*
G03X12055934Y285407I-151054J0D01*
G01X12055934Y185407D01*
G03X12128113Y56582I151054J0D01*
G02X11989374Y47112I-138739J1011595D01*
G02X11966994Y47357I0J1021066D01*
G01X11965903Y47369D01*
G01X10968333Y47369D01*
G03X11058045Y185407I-61342J138038D01*
G01X11058045Y285407D01*
G03X10755937Y285407I-151054J0D01*
G01X10755937Y185407D01*
G03X10845649Y47369I151054J0D01*
G01X2346817Y47370D01*
G03X2362454Y101600I-86217J54230D01*
G03X2308842Y191305I-101854J0D01*
G02X2258637Y275308I45175J84003D01*
G02X2259709Y289571I95388J-2D01*
G03X2260854Y304800I-100709J15228D01*
G01X2260854Y889000D01*
G03X2244425Y944468I-101854J0D01*
G03X846367Y1777926I-1545854J-1003751D01*
G03X838200Y1778254I-8167J-101525D01*
G03X748843Y1725284I0J-101854D01*
G03X660681Y1777454I-88444J-48885D01*
G01X654969Y1777462D01*
G01X528618Y4241801D02*
G03X610400Y3963747I81783J-127000D01*
G01X710400Y3963747D01*
G03X792182Y4241801I0J151054D01*
G03X792182Y4495800I-81783J127000D01*
G03X792182Y4749799I-81783J127000D01*
G03X736854Y5025519I-81783J127000D01*
G01X736854Y5168986D01*
G03X635000Y5355460I-101854J65420D01*
G03X533146Y5168986I0J-121054D01*
G01X533146Y5006603D01*
G03X528618Y4749799I77254J-129804D01*
G03X528618Y4495800I81783J-127000D01*
G03X528618Y4241801I81783J-127000D01*
G01X635000Y5363340D02*
G03X635000Y5605447I0J121054D01*
G03X635000Y5363340I0J-121054D01*
G01X890346Y4521200D02*
G03X959618Y4394200I151054J0D01*
G03X890346Y4267200I81782J-127000D01*
G03X959618Y4140200I151054J0D01*
G03X955434Y3888994I81782J-127000D01*
G01X941400Y3888994D01*
G03X890346Y3837940I0J-51054D01*
G01X890346Y3680460D01*
G03X941400Y3629406I51054J0D01*
G01X1141400Y3629406D01*
G03X1192454Y3680460I0J51054D01*
G01X1192454Y3837940D01*
G03X1141400Y3888994I-51054J0D01*
G01X1127366Y3888994D01*
G03X1123182Y4140200I-85966J124206D01*
G03X1175201Y4197096I-81782J127000D01*
G01X1219200Y4197096D01*
G03X1268771Y4217629I0J70104D01*
G01X1471971Y4420829D01*
G03X1492504Y4470400I-49571J49571D01*
G01X1492504Y4566787D01*
G03X1566964Y4605807I4790J81413D01*
G03X1567398Y4689871I-69670J42393D01*
G01X1567398Y4827533D01*
G03X1661286Y4848167I32802J74667D01*
G03X1670304Y4943871I-61086J54033D01*
G01X1670304Y5939962D01*
G01X1832438Y6102096D01*
G01X3251200Y6102096D01*
G03X3300771Y6122629I0J70104D01*
G01X4016838Y6838696D01*
G01X4158823Y6838696D01*
G03X4156546Y6823620I48777J-15076D01*
G01X4156546Y6653620D01*
G03X4182647Y6609080I51054J0D01*
G03X4156546Y6564540I24954J-44540D01*
G01X4156546Y6394540D01*
G03X4180504Y6351270I51054J0D01*
G03X4156546Y6308000I27096J-43270D01*
G01X4156546Y6138000D01*
G03X4207600Y6086946I51054J0D01*
G01X4270818Y6086946D01*
G01X4471060Y5886704D01*
G01X3966038Y5886704D01*
G01X3829304Y6023438D01*
G01X3829304Y6406666D01*
G03X3759200Y6529892I-70104J41671D01*
G03X3689096Y6406666I0J-81554D01*
G01X3689096Y5994400D01*
G03X3709629Y5944829I70104J0D01*
G01X3887429Y5767029D01*
G03X3937000Y5746496I49571J49571D01*
G01X3967168Y5746496D01*
G03X3911597Y5695180I71429J-133099D01*
G03X3657597Y5695180I-127000J-81782D01*
G03X3403599Y5695182I-127000J-81782D01*
G03X3149600Y5695180I-126999J-81784D01*
G03X2895600Y5695180I-127000J-81782D01*
G03X2617546Y5613397I-127000J-81782D01*
G03X2895600Y5531615I151054J0D01*
G03X3149600Y5531615I127000J81782D01*
G03X3403599Y5531613I127000J81782D01*
G03X3657597Y5531615I126999J81784D01*
G03X3911597Y5531615I127000J81782D01*
G03X4165597Y5531615I127000J81782D01*
G03X4419597Y5531615I127000J81782D01*
G03X4654296Y5507481I127000J81782D01*
G01X4654296Y5351214D01*
G03X4724400Y5227989I70104J-41671D01*
G03X4794504Y5351214I0J81554D01*
G01X4794504Y5563260D01*
G01X5065090Y5292674D01*
G01X5065090Y5260962D01*
G03X5085041Y5040553I70104J-104762D01*
G01X5068899Y5040553D01*
G03X5017845Y4989499I0J-51054D01*
G01X5017845Y4926254D01*
G01X4726800Y4926254D01*
G03X4675746Y4875200I0J-51054D01*
G01X4675746Y4675200D01*
G03X4717127Y4625071I51054J0D01*
G03X4745018Y4394200I109673J-103871D01*
G03X4745018Y4140200I81782J-127000D01*
G03X4826800Y3862146I81782J-127000D01*
G01X4926800Y3862146D01*
G03X5017845Y3892667I0J151054D01*
G01X5017845Y3849701D01*
G03X5068899Y3798647I51054J0D01*
G01X5268898Y3798647D01*
G03X5319952Y3849701I0J51054D01*
G01X5319952Y4049701D01*
G03X5268898Y4100755I-51054J0D01*
G01X5068899Y4100755D01*
G03X5051910Y4097845I0J-51054D01*
G03X5008582Y4140200I-125110J-84645D01*
G03X5008582Y4394200I-81782J127000D01*
G03X5036473Y4625071I-81782J127000D01*
G03X5077854Y4675200I-9673J50129D01*
G01X5077854Y4738445D01*
G01X5268898Y4738445D01*
G03X5319952Y4789499I0J51054D01*
G01X5319952Y4989499D01*
G03X5268898Y5040553I-51054J0D01*
G01X5185347Y5040553D01*
G03X5205298Y5260962I-50153J115647D01*
G01X5205298Y5321712D01*
G03X5184765Y5371283I-70104J0D01*
G01X4427728Y6128321D01*
G03X4428654Y6138000I-50128J9680D01*
G01X4428654Y6155182D01*
G03X4663202Y6152896I117946J67818D01*
G01X4683998Y6152896D01*
G03X4908296Y6139860I116602J70104D01*
G01X4908296Y5782071D01*
G03X4916846Y5686901I70104J-41671D01*
G03X5009896Y5665173I61554J53499D01*
G01X5009896Y5638800D01*
G03X5030429Y5589229I70104J0D01*
G01X5305763Y5313895D01*
G03X5442467Y5276333I79037J20105D01*
G03X5404905Y5413037I-57667J57667D01*
G01X5150104Y5667838D01*
G01X5150104Y6054329D01*
G03X5141554Y6149499I-70104J41671D01*
G03X5048504Y6171227I-61554J-53499D01*
G01X5048504Y6527800D01*
G03X5027971Y6577371I-70104J0D01*
G01X4956981Y6648361D01*
G03X4917030Y6668231I-49571J-49571D01*
G03X4892771Y6838696I-116430J70389D01*
G01X5290775Y6838696D01*
G03X5410200Y6611366I119425J-82296D01*
G03X5529625Y6838696I0J145034D01*
G01X5674288Y6838696D01*
G03X5765800Y6625952I91512J-86690D01*
G03X5857312Y6838696I0J126054D01*
G01X6105129Y6838696D01*
G03X6228189Y6903611I41671J70104D01*
G03X6300912Y7009100I-5189J81389D01*
G03X6181329Y7055104I-77912J-24100D01*
G01X6087446Y7055104D01*
G01X6375136Y7342794D01*
G03X6433947Y7206852I160665J-11185D01*
G01X6433947Y7027189D01*
G01X6150978Y6744221D01*
G03X6121146Y6672199I72022J-72022D01*
G01X6121146Y4995189D01*
G01X5781558Y4655602D01*
G03X5741144Y4673600I-72758J-109002D01*
G03X5708904Y4931654I-32344J127000D01*
G01X5708904Y5938959D01*
G01X5873159Y6103214D01*
G03X6025011Y6354208I45041J144183D01*
G03X5774017Y6202356I-106811J-106811D01*
G01X5589229Y6017568D01*
G03X5568696Y5967997I49571J-49571D01*
G01X5568696Y4931654D01*
G03X5536456Y4673600I104J-131054D01*
G03X5536456Y4419600I32344J-127000D01*
G03X5536456Y4165600I32344J-127000D01*
G03X5536456Y3911600I32344J-127000D01*
G03X5536456Y3657600I32344J-127000D01*
G03X5568800Y3399546I32344J-127000D01*
G01X5708800Y3399546D01*
G03X5741144Y3657600I0J131054D01*
G03X5791268Y3682746I-32344J127000D01*
G01X5825211Y3682746D01*
G01X6783553Y2724404D01*
G01X6783553Y2286254D01*
G01X6654800Y2286254D01*
G03X6582778Y2256422I0J-101854D01*
G01X6463779Y2137423D01*
G03X6433947Y2065401I72022J-72022D01*
G01X6433947Y1886348D01*
G03X6535801Y1600538I101854J-124756D01*
G03X6637655Y1886348I0J161054D01*
G01X6637655Y2023212D01*
G01X6696989Y2082546D01*
G01X6819986Y2082546D01*
G03X6971005Y2098802I65420J101854D01*
G03X6987261Y2249820I-85598J85598D01*
G01X6987261Y2766593D01*
G03X6986909Y2775048I-101854J0D01*
G01X7033539Y2728417D01*
G01X7033539Y2249820D01*
G03X7049795Y2098802I101854J-65420D01*
G03X7200814Y2082546I85598J85598D01*
G01X7349211Y2082546D01*
G01X7433945Y1997812D01*
G01X7433945Y1886348D01*
G03X7392445Y1688188I101854J-124756D01*
G03X7577483Y1606026I143354J73404D01*
G01X7260762Y1289304D01*
G01X6036071Y1289304D01*
G03X5912846Y1219200I-41671J-70104D01*
G03X6036071Y1149096I81554J0D01*
G01X7289800Y1149096D01*
G03X7339371Y1169629I0J70104D01*
G01X7771171Y1601429D01*
G03X7791704Y1651000I-49571J49571D01*
G01X7791704Y2438400D01*
G03X7771171Y2487971I-70104J0D01*
G01X7461504Y2797638D01*
G01X7461504Y3526962D01*
G01X7593371Y3658829D01*
G03X7613904Y3708400I-49571J49571D01*
G01X7613904Y4974762D01*
G01X8042738Y5403596D01*
G01X8154457Y5403596D01*
G01X8152750Y5401946D01*
G01X7986041Y5235237D01*
G03X7948478Y5098533I20105J-79037D01*
G03X8085183Y5136095I57667J57667D01*
G01X8231359Y5282271D01*
G01X8587303Y5282271D01*
G03X8690608Y5298967I41671J70104D01*
G03X8692437Y5403596I-61633J53408D01*
G01X9889729Y5403596D01*
G03X9979679Y5407972I41671J70104D01*
G03X10010759Y5492496I-48279J65728D01*
G01X10076034Y5492496D01*
G03X10314200Y4944744I238165J-222098D01*
G03X10552365Y5492496I0J325654D01*
G01X10845800Y5492496D01*
G03X10895371Y5513029I0J70104D01*
G01X10992905Y5610563D01*
G03X11030467Y5747267I-20105J79037D01*
G03X10893763Y5709705I-57667J-57667D01*
G01X10816762Y5632704D01*
G01X10786446Y5632704D01*
G01X11071075Y5917333D01*
G03X11226800Y6012856I28725J127867D01*
G03X11480800Y6012856I127000J32344D01*
G03X11734800Y6012856I127000J32344D01*
G03X11900397Y5919959I127000J32344D01*
G01X11759192Y5778754D01*
G01X11480858Y5778754D01*
G03X11348446Y5715000I-50858J-63754D01*
G03X11480858Y5651246I81554J0D01*
G01X11785600Y5651246D01*
G03X11830681Y5669919I0J63754D01*
G01X12079916Y5919155D01*
G03X12242800Y6012856I35884J126045D01*
G03X12496800Y6012856I127000J32344D01*
G03X12735511Y5976675I127000J32344D01*
G03X12595075Y6173067I-111711J68525D01*
G01X12405442Y6362700D01*
G01X12673371Y6630629D01*
G03X12693904Y6680200I-49571J49571D01*
G01X12693904Y7458473D01*
G03X12700784Y7675259I-70104J110727D01*
G03X12496800Y7601544I-76984J-106059D01*
G03X12343285Y7697544I-127000J-32344D01*
G03X12363704Y7747000I-49685J49456D01*
G01X12363704Y7924546D01*
G01X12369800Y7924546D01*
G03X12420854Y7975600I0J51054D01*
G01X12420854Y8128000D01*
G03X12369800Y8179054I-51054J0D01*
G01X12304959Y8179054D01*
G03X12301636Y8432800I-11359J126746D01*
G03X12413007Y8603795I-8036J127000D01*
G03X12217315Y8661654I-119407J-43995D01*
G01X12168607Y8661654D01*
G03X12096585Y8631822I0J-101854D01*
G01X11861437Y8396674D01*
G03X11801602Y8192795I25763J-118281D01*
G03X12005481Y8252631I85598J85598D01*
G01X12210796Y8457946D01*
G01X12217315Y8457946D01*
G03X12285564Y8432800I76285J101854D01*
G03X12282241Y8179054I8036J-127000D01*
G01X12217400Y8179054D01*
G03X12166346Y8128000I0J-51054D01*
G01X12166346Y7975600D01*
G03X12217400Y7924546I51054J0D01*
G01X12223496Y7924546D01*
G01X12223496Y7776038D01*
G01X12193229Y7745771D01*
G03X12172696Y7696200I49571J-49571D01*
G01X12172696Y7687259D01*
G03X11988800Y7601544I-56896J-118059D01*
G03X11734800Y7601544I-127000J-32344D01*
G03X11480800Y7601544I-127000J-32344D01*
G03X11353800Y7700254I-127000J-32344D01*
G03X11226800Y7601544I0J-131054D01*
G03X11099800Y7700254I-127000J-32344D01*
G03X10972800Y7601544I0J-131054D01*
G03X10845800Y7700254I-127000J-32344D01*
G03X10718800Y7601544I0J-131054D01*
G03X10676944Y7668827I-127000J-32344D01*
G01X10782588Y7774471D01*
G03X10915853Y7851161I16806J124929D01*
G03X10875848Y7999622I-116459J48239D01*
G01X10875848Y8268208D01*
G03X10853455Y8322269I-76454J0D01*
G01X10480331Y8695394D01*
G03X10266269Y8801334I-124928J16806D01*
G03X10372208Y8587272I89134J-89134D01*
G01X10722940Y8236540D01*
G01X10722940Y7999622D01*
G03X10674466Y7882594I76454J-100222D01*
G01X10537739Y7745867D01*
G03X10515346Y7691806I54061J-54061D01*
G01X10515346Y7675642D01*
G03X10464800Y7601544I76454J-106442D01*
G03X10403510Y7682590I-127000J-32344D01*
G01X10403510Y8175638D01*
G03X10362922Y8402949I-70104J104762D01*
G03X10223292Y8219044I-29517J-122549D01*
G01X10186443Y8255893D01*
G03X9973661Y8369534I-123649J24507D01*
G03X10087301Y8156751I89134J-89134D01*
G01X10191496Y8052556D01*
G01X10191496Y7957066D01*
G03X9953352Y7899400I-112090J-57666D01*
G03X10191496Y7841734I126054J0D01*
G01X10191496Y7750638D01*
G01X10131947Y7691089D01*
G03X9956800Y7601544I-48147J-121889D01*
G03X9931654Y7651667I-127000J-32344D01*
G01X9931654Y7871993D01*
G03X9922554Y7914075I-101854J0D01*
G03X9742773Y8004754I-120161J-14675D01*
G03X9727946Y7803945I59620J-105354D01*
G01X9727946Y7651667D01*
G03X9702800Y7601544I101854J-82467D01*
G03X9575800Y7700254I-127000J-32344D01*
G03X9448800Y7601544I0J-131054D01*
G03X9198854Y7614580I-127000J-32344D01*
G01X9198854Y7649200D01*
G03X9147800Y7700254I-51054J0D01*
G01X8987800Y7700254D01*
G03X8936746Y7649200I0J-51054D01*
G01X8936746Y7489200D01*
G03X8944912Y7461504I51054J0D01*
G01X8919038Y7461504D01*
G01X8507771Y7872771D01*
G03X8458200Y7893304I-49571J-49571D01*
G01X8449646Y7893304D01*
G01X8764631Y8208289D01*
G01X8867511Y8208289D01*
G03X9061655Y8203946I98689J70104D01*
G01X9242584Y8203946D01*
G03X9468860Y8280400I100222J76454D01*
G03X9242584Y8356854I-126054J0D01*
G01X9058384Y8356854D01*
G03X8867511Y8348497I-92184J-78461D01*
G01X8735593Y8348497D01*
G03X8686022Y8327964I0J-70104D01*
G01X8327562Y7969504D01*
G01X5820238Y7969504D01*
G01X5485171Y8304571D01*
G03X5435600Y8325104I-49571J-49571D01*
G01X4220038Y8325104D01*
G01X4055783Y8489359D01*
G03X4062476Y8527075I-144183J45041D01*
G03X4262387Y8736927I69094J134325D01*
G03X3980694Y8668725I-130817J-75527D01*
G03X3765439Y8572534I-69094J-134325D01*
G03X3710205Y8575226I-29706J-41522D01*
G01X3537000Y8475226D01*
G03X3518313Y8405485I25527J-44214D01*
G01X3603313Y8258261D01*
G03X3673054Y8239574I44214J25527D01*
G01X3749416Y8283662D01*
G01X3959139Y8073939D01*
G03X4013200Y8051546I54061J54061D01*
G01X5022932Y8051546D01*
G01X5268991Y7805487D01*
G03X5512755Y7669845I141209J-33087D01*
G03X5377113Y7913609I-102555J102555D01*
G01X5108661Y8182061D01*
G03X5105669Y8184896I-54061J-54061D01*
G01X5406562Y8184896D01*
G01X5741629Y7849829D01*
G03X5791200Y7829296I49571J49571D01*
G01X6023960Y7829296D01*
G01X5790307Y7595643D01*
G03X5655650Y7410704I-24507J-123649D01*
G01X3784600Y7410704D01*
G03X3735029Y7390171I0J-70104D01*
G01X3044362Y6699504D01*
G01X1651000Y6699504D01*
G03X1601429Y6678971I0J-70104D01*
G01X1093429Y6170971D01*
G03X1072896Y6121400I49571J-49571D01*
G01X1072896Y5430934D01*
G03X901751Y5340780I-31496J-147734D01*
G03X959618Y5156200I139649J-57580D01*
G03X890346Y5029200I81782J-127000D01*
G03X959618Y4902200I151054J0D01*
G03X890346Y4775200I81782J-127000D01*
G03X959618Y4648200I151054J0D01*
G03X890346Y4521200I81782J-127000D01*
G01X1707896Y1828800D02*
G03X1728429Y1779229I70104J0D01*
G01X2546096Y961562D01*
G01X2546096Y849561D01*
G03X2593539Y620799I70104J-104762D01*
G03X2539746Y396577I22661J-124000D01*
G01X2539746Y279400D01*
G03X2562139Y225339I76454J0D01*
G01X2638339Y149139D01*
G03X2692400Y126746I54061J54061D01*
G01X3048000Y126746D01*
G03X3102061Y149139I0J76454D01*
G01X3305261Y352339D01*
G03X3327654Y406400I-54061J54061D01*
G01X3327654Y619351D01*
G03X3251200Y834260I-76454J93855D01*
G03X3174746Y619351I0J-121054D01*
G01X3174746Y438068D01*
G01X3016332Y279654D01*
G01X2929731Y279654D01*
G03X2867468Y496800I-84931J93147D01*
G03X2844800Y746853I-22668J123999D01*
G03X2822132Y496800I0J-126054D01*
G03X2759869Y279654I22668J-123999D01*
G01X2724068Y279654D01*
G01X2692654Y311068D01*
G01X2692654Y396577D01*
G03X2638861Y620799I-76454J100222D01*
G03X2686304Y849561I-22661J124000D01*
G01X2686304Y990600D01*
G03X2665771Y1040171I-70104J0D01*
G01X1848104Y1857838D01*
G01X1848104Y5647929D01*
G03X1778000Y5771154I-70104J41671D01*
G03X1707896Y5647929I0J-81554D01*
G01X1707896Y1828800D01*
G01X2156792Y3721200D02*
G03X2558900Y3721200I201054J0D01*
G03X2156792Y3721200I-201054J0D01*
G01X2156792Y5321200D02*
G03X2558900Y5321200I201054J0D01*
G03X2156792Y5321200I-201054J0D01*
G01X3238297Y3718030D02*
G03X3227502Y3502038I59309J-111230D01*
G01X3227502Y3470255D01*
G03X3149600Y3409185I49098J-142852D01*
G03X3022600Y3478457I-127000J-81782D01*
G03X2895600Y3409185I0J-151054D01*
G03X2704609Y3464233I-127000J-81782D01*
G03X2624417Y3282362I63991J-136830D01*
G01X2316236Y2974180D01*
G03X2295703Y2924609I49571J-49571D01*
G01X2295703Y2921794D01*
G03X2214753Y2787993I70104J-133801D01*
G01X2214753Y2687993D01*
G03X2295703Y2554192I151054J0D01*
G01X2295703Y2271808D01*
G03X2214753Y2138007I70104J-133801D01*
G01X2214753Y2038007D01*
G03X2516861Y2038007I151054J0D01*
G01X2516861Y2138007D01*
G03X2435911Y2271808I-151054J0D01*
G01X2435911Y2554192D01*
G03X2516861Y2687993I-70104J133801D01*
G01X2516861Y2787993D01*
G03X2452225Y2911885I-151054J0D01*
G01X2723559Y3183220D01*
G03X2895600Y3245620I45041J144183D01*
G03X3022600Y3176348I127000J81782D01*
G03X3149600Y3245620I0J151054D01*
G03X3403599Y3245618I127000J81782D01*
G03X3657597Y3245620I126999J81784D01*
G03X3911597Y3245620I127000J81782D01*
G03X3933025Y3219367I127000J81782D01*
G01X3684229Y2970571D01*
G03X3663746Y2923635I49571J-49571D01*
G03X3579165Y2787993I66473J-135642D01*
G01X3579165Y2687993D01*
G03X3663696Y2552376I151054J0D01*
G01X3663696Y2273637D01*
G03X3579139Y2138007I66497J-135630D01*
G01X3579139Y2038007D01*
G03X3881247Y2038007I151054J0D01*
G01X3881247Y2138007D01*
G03X3803904Y2269855I-151054J0D01*
G01X3803904Y2556130D01*
G03X3881273Y2687993I-73685J131863D01*
G01X3881273Y2787993D01*
G03X3820809Y2908867I-151054J0D01*
G01X4088168Y3176226D01*
G03X4097956Y3188500I-49571J49571D01*
G03X4165597Y3245620I-59359J138902D01*
G03X4419597Y3245620I127000J81782D01*
G03X4697652Y3327403I127000J81782D01*
G03X4419597Y3409185I-151054J0D01*
G03X4165597Y3409185I-127000J-81782D01*
G03X4038597Y3478457I-127000J-81782D01*
G03X3911597Y3409185I0J-151054D01*
G03X3657597Y3409185I-127000J-81782D01*
G03X3403599Y3409187I-127000J-81782D01*
G03X3367710Y3447886I-126999J-81784D01*
G01X3367710Y3502038D01*
G03X3378505Y3703469I-70104J104762D01*
G01X3378505Y5172468D01*
G03X3308401Y5414249I-70104J110727D01*
G03X3238297Y5172468I0J-131054D01*
G01X3238297Y3718030D01*
G01X3106545Y8028153D02*
G03X3321454Y8104607I93855J76454D01*
G03X3106545Y8181061I-121054J0D01*
G01X2881081Y8181061D01*
G03X2816668Y8396200I-87081J91140D01*
G03X2794000Y8646253I-22668J123999D01*
G03X2771332Y8396200I0J-126054D01*
G03X2706919Y8181061I22668J-123999D01*
G01X2696662Y8181061D01*
G01X2641854Y8235868D01*
G01X2641854Y8295977D01*
G03X2588061Y8520199I-76454J100222D01*
G03X2565400Y8770253I-22661J124000D01*
G03X2542739Y8520199I0J-126054D01*
G03X2488946Y8295977I22661J-124000D01*
G01X2488946Y8204200D01*
G03X2511339Y8150139I76454J0D01*
G01X2610932Y8050545D01*
G03X2664993Y8028153I54061J54061D01*
G01X3106545Y8028153D01*
G01X2664739Y2138007D02*
G01X2664739Y2038007D01*
G03X2966847Y2038007I151054J0D01*
G01X2966847Y2138007D01*
G03X2664739Y2138007I-151054J0D01*
G01X2664765Y2787993D02*
G01X2664765Y2687993D01*
G03X2966873Y2687993I151054J0D01*
G01X2966873Y2787993D01*
G03X2664765Y2787993I-151054J0D01*
G01X3200400Y8233540D02*
G03X3200400Y8475647I0J121054D01*
G03X3200400Y8233540I0J-121054D01*
G01X3129153Y2787993D02*
G01X3129153Y2687993D01*
G03X3431261Y2687993I151054J0D01*
G01X3431261Y2787993D01*
G03X3129153Y2787993I-151054J0D01*
G01X3129153Y2138007D02*
G01X3129153Y2038007D01*
G03X3431261Y2038007I151054J0D01*
G01X3431261Y2138007D01*
G03X3129153Y2138007I-151054J0D01*
G01X3251200Y842140D02*
G03X3251200Y1084247I0J121054D01*
G03X3251200Y842140I0J-121054D01*
G01X3519502Y4100755D02*
G03X3468448Y4049701I0J-51054D01*
G01X3468448Y3849701D01*
G03X3519502Y3798647I51054J0D01*
G01X3719501Y3798647D01*
G03X3770555Y3849701I0J51054D01*
G01X3770555Y4049701D01*
G03X3719501Y4100755I-51054J0D01*
G01X3519502Y4100755D01*
G01X3519502Y5040553D02*
G03X3468448Y4989499I0J-51054D01*
G01X3468448Y4789499D01*
G03X3519502Y4738445I51054J0D01*
G01X3719501Y4738445D01*
G03X3770555Y4789499I0J51054D01*
G01X3770555Y4989499D01*
G03X3719501Y5040553I-51054J0D01*
G01X3519502Y5040553D01*
G01X4419346Y3911600D02*
G03X4441739Y3857539I76454J0D01*
G01X5003546Y3295732D01*
G01X5003546Y1715854D01*
G01X4990000Y1715854D01*
G03X4938946Y1664800I0J-51054D01*
G01X4938946Y1541868D01*
G01X4591132Y1194054D01*
G01X4064000Y1194054D01*
G03X4009939Y1171661I0J-76454D01*
G01X3685004Y846727D01*
G01X3673054Y853626D01*
G03X3603313Y834939I-25527J-44214D01*
G01X3518313Y687715D01*
G03X3537000Y617974I44214J-25527D01*
G01X3710205Y517974D01*
G03X3765439Y520666I25527J44214D01*
G03X3980694Y424475I146161J38134D01*
G03X4261848Y355346I150876J7325D01*
G01X4902200Y355346D01*
G03X4956261Y377739I0J76454D01*
G01X6023061Y1444539D01*
G03X6045454Y1498600I-54061J54061D01*
G01X6045454Y1654754D01*
G03X5969000Y1923034I-76454J123246D01*
G03X5892546Y1654754I0J-145034D01*
G01X5892546Y1530268D01*
G01X4870532Y508254D01*
G01X4261848Y508254D01*
G03X4062476Y566125I-130277J-76454D01*
G03X3871544Y704446I-150876J-7325D01*
G03X3846259Y753626I-50812J4966D01*
G01X3822098Y767576D01*
G01X4095668Y1041146D01*
G01X4622800Y1041146D01*
G03X4676861Y1063539I0J76454D01*
G01X5047068Y1433746D01*
G01X5170000Y1433746D01*
G03X5221054Y1484800I0J51054D01*
G01X5221054Y1490305D01*
G03X5461000Y1513423I112946J84495D01*
G03X5729054Y1574800I127000J61377D01*
G03X5461000Y1636177I-141054J0D01*
G03X5404104Y1697199I-127000J-61377D01*
G01X5404104Y1973644D01*
G03X5334000Y2204460I-70104J104762D01*
G03X5263896Y1973644I0J-126054D01*
G01X5263896Y1697199D01*
G03X5221054Y1659295I70104J-122399D01*
G01X5221054Y1664800D01*
G03X5170000Y1715854I-51054J0D01*
G01X5156454Y1715854D01*
G01X5156454Y3327400D01*
G03X5134061Y3381461I-76454J0D01*
G01X4572254Y3943268D01*
G01X4572254Y4746812D01*
G03X4495800Y4856754I-76454J28388D01*
G03X4419346Y4746812I0J-81554D01*
G01X4419346Y3911600D01*
G01X3574533Y4387333D02*
G03X3711237Y4424895I57667J57667D01*
G01X4340794Y5054452D01*
G03X4537820Y5185445I74411J101748D01*
G03X4302881Y5213408I-122615J-29245D01*
G03X4293829Y5205771I40519J-57208D01*
G01X3612095Y4524037D01*
G03X3574533Y4387333I20105J-79037D01*
G01X4143648Y3606800D02*
G03X3891540Y3606800I-126054J0D01*
G03X4143648Y3606800I126054J0D01*
G01X3977345Y5283195D02*
G03X4239453Y5283195I131054J0D01*
G03X3977345Y5283195I-131054J0D01*
G01X4395551Y2740401D02*
G03X4697659Y2740401I151054J0D01*
G03X4395551Y2740401I-151054J0D01*
G01X4395551Y2390389D02*
G03X4697659Y2390389I151054J0D01*
G03X4395551Y2390389I-151054J0D01*
G01X4820660Y8737600D02*
G03X4568552Y8737600I-126054J0D01*
G03X4820660Y8737600I126054J0D01*
G01X5334000Y2672340D02*
G03X5334000Y2924448I0J126054D01*
G03X5334000Y2672340I0J-126054D01*
G01X5638800Y2672340D02*
G03X5638800Y2924448I0J126054D01*
G03X5638800Y2672340I0J-126054D01*
G01X5638800Y1952352D02*
G03X5638800Y2204460I0J126054D01*
G03X5638800Y1952352I0J-126054D01*
G01X5918200Y5638457D02*
G03X5918200Y5336349I0J-151054D01*
G03X5918200Y5638457I0J151054D01*
G01X5785146Y8356600D02*
G03X6486454Y8356600I350654J0D01*
G03X5785146Y8356600I-350654J0D01*
G01X5785148Y736600D02*
G03X6486456Y736600I350654J0D01*
G03X5785148Y736600I-350654J0D01*
G01X5969000Y2648966D02*
G03X5969000Y2939034I0J145034D01*
G03X5969000Y2648966I0J-145034D01*
G01X12084353Y2063446D02*
G03X11954578Y2355225I-120953J120953D01*
G01X11592511Y2717292D01*
G03X11892469Y3265674I69686J318111D01*
G03X11344087Y2965716I-230272J-230272D01*
G01X10710900Y3598903D01*
G03X10629898Y3632455I-81002J-81002D01*
G01X8013893Y3632455D01*
G03X7880205Y3693955I-133688J-114554D01*
G01X7730205Y3693955D01*
G03X7730205Y3341847I0J-176054D01*
G01X7880205Y3341847D01*
G03X8013893Y3403347I0J176054D01*
G01X10582448Y3403347D01*
G01X11792574Y2193221D01*
G03X12084353Y2063446I170826J-8822D01*
G01X7585144Y8356600D02*
G03X8286452Y8356600I350654J0D01*
G03X7585144Y8356600I-350654J0D01*
G01X7585146Y736600D02*
G03X8286454Y736600I350654J0D01*
G03X7585146Y736600I-350654J0D01*
G01X8410189Y2030649D02*
G03X8410189Y1728541I0J-151054D01*
G03X8410189Y2030649I0J151054D01*
G01X8548702Y443155D02*
G03X8497648Y392101I0J-51054D01*
G01X8497648Y192101D01*
G03X8548702Y141047I51054J0D01*
G01X8748701Y141047D01*
G03X8799755Y192101I0J51054D01*
G01X8799755Y392101D01*
G03X8748701Y443155I-51054J0D01*
G01X8548702Y443155D01*
G01X8546848Y1382919D02*
G03X8497648Y1331899I1854J-51020D01*
G01X8497648Y1131899D01*
G03X8548702Y1080845I51054J0D01*
G01X8748701Y1080845D01*
G03X8799755Y1131899I0J51054D01*
G01X8799755Y1331899D01*
G03X8750556Y1382919I-51054J0D01*
G01X8750556Y1443712D01*
G01X8835022Y1528178D01*
G03X8864854Y1600200I-72022J72022D01*
G01X8864854Y1770668D01*
G03X8756410Y2030601I-104653J108927D01*
G03X8661146Y1765553I3791J-151006D01*
G01X8661146Y1642389D01*
G01X8576680Y1557923D01*
G03X8546848Y1485902I72022J-72022D01*
G01X8546848Y1382919D01*
G01X8639549Y3035402D02*
G03X9290856Y3035402I325654J0D01*
G03X8639549Y3035402I-325654J0D01*
G01X10105562Y3829304D02*
G01X8804671Y3829304D01*
G03X8681446Y3759200I-41671J-70104D01*
G03X8804671Y3689096I81554J0D01*
G01X10134600Y3689096D01*
G03X10184171Y3709629I0J70104D01*
G01X11332038Y4857496D01*
G01X12065000Y4857496D01*
G03X12114571Y4878029I0J70104D01*
G01X12952771Y5716229D01*
G03X12973304Y5765800I-49571J49571D01*
G01X12973304Y8255000D01*
G03X12952771Y8304571I-70104J0D01*
G01X12444771Y8812571D01*
G03X12395200Y8833104I-49571J-49571D01*
G01X11838407Y8833104D01*
G03X11788836Y8812571I0J-70104D01*
G01X11374012Y8397748D01*
G03X11261616Y8356854I-20212J-119354D01*
G01X11153616Y8356854D01*
G03X10927340Y8280400I-100222J-76454D01*
G03X11153616Y8203946I126054J0D01*
G01X11258345Y8203946D01*
G03X11402615Y8167618I95455J74447D01*
G03X11473154Y8298606I-48815J110775D01*
G01X11867445Y8692896D01*
G01X12366162Y8692896D01*
G01X12833096Y8225962D01*
G01X12833096Y5794838D01*
G01X12035962Y4997704D01*
G01X11303000Y4997704D01*
G03X11253429Y4977171I0J-70104D01*
G01X10105562Y3829304D01*
G01X8966200Y7907353D02*
G03X8966200Y8149460I0J121054D01*
G03X8966200Y7907353I0J-121054D01*
G01X9431353Y7899400D02*
G03X9673460Y7899400I121054J0D01*
G03X9431353Y7899400I-121054J0D01*
G01X9803049Y2054611D02*
G03X9500941Y2054611I-151054J0D01*
G03X9803049Y2054611I151054J0D01*
G01X9803049Y1704599D02*
G03X9500941Y1704599I-151054J0D01*
G03X9803049Y1704599I151054J0D01*
G01X9889344Y8712200D02*
G03X10141452Y8712200I126054J0D01*
G03X9889344Y8712200I-126054J0D01*
G01X9956546Y4775200D02*
G01X9956546Y4318000D01*
G03X10160254Y4318000I101854J0D01*
G01X10160254Y4775200D01*
G03X9956546Y4775200I-101854J0D01*
G01X10358418Y838200D02*
G03X10358418Y584200I81782J-127000D01*
G03X10289800Y443155I81782J-127000D01*
G01X10098099Y443155D01*
G03X10047045Y392101I0J-51054D01*
G01X10047045Y192101D01*
G03X10098099Y141047I51054J0D01*
G01X10298098Y141047D01*
G03X10349152Y192101I0J51054D01*
G01X10349152Y336669D01*
G03X10440200Y306146I91048J120531D01*
G01X10540200Y306146D01*
G03X10621982Y584200I0J151054D01*
G03X10621982Y838200I-81782J127000D01*
G03X10649873Y1069071I-81782J127000D01*
G03X10691254Y1119200I-9673J50129D01*
G01X10691254Y1319200D01*
G03X10640200Y1370254I-51054J0D01*
G01X10340200Y1370254D01*
G03X10332455Y1369663I0J-51054D01*
G03X10298098Y1382953I-34356J-37764D01*
G01X10098099Y1382953D01*
G03X10047045Y1331899I0J-51054D01*
G01X10047045Y1131899D01*
G03X10098099Y1080845I51054J0D01*
G01X10298098Y1080845D01*
G03X10305843Y1081436I0J51054D01*
G03X10330527Y1069071I34357J37764D01*
G03X10358418Y838200I109673J-103871D01*
G01X10793649Y2054611D02*
G03X10491541Y2054611I-151054J0D01*
G03X10793649Y2054611I151054J0D01*
G01X10793649Y1704599D02*
G03X10491541Y1704599I-151054J0D01*
G03X10793649Y1704599I151054J0D01*
G01X11263055Y1010393D02*
G01X11263055Y1160393D01*
G03X10910947Y1160393I-176054J0D01*
G01X10910947Y1010393D01*
G03X11263055Y1010393I176054J0D01*
G01X11353800Y7907353D02*
G03X11353800Y8149460I0J121054D01*
G03X11353800Y7907353I0J-121054D01*
G01X11792346Y1556400D02*
G03X11843400Y1505346I51054J0D01*
G01X12083400Y1505346D01*
G03X12134454Y1556400I0J51054D01*
G01X12134454Y1796400D01*
G03X12083400Y1847454I-51054J0D01*
G01X11955353Y1847454D01*
G01X11606025Y2196782D01*
G03X11348589Y2292215I-150625J-11379D01*
G03X11444021Y2034778I106811J-106811D01*
G01X11792346Y1686453D01*
G01X11792346Y1556400D01*
G01X11671557Y1573794D02*
G03X11638004Y1654796I-114554J0D01*
G01X11606025Y1686776D01*
G03X11349148Y1782764I-150625J-11379D01*
G03X11442449Y1524899I106252J-107368D01*
G01X11442449Y1294080D01*
G03X11380949Y1160393I114554J-133688D01*
G01X11380949Y1010393D01*
G03X11733057Y1010393I176054J0D01*
G01X11733057Y1160393D01*
G03X11671557Y1294080I-176054J0D01*
G01X11671557Y1573794D01*
G01X11482946Y3721200D02*
G03X11885054Y3721200I201054J0D01*
G03X11482946Y3721200I-201054J0D01*
G01X11482946Y5321200D02*
G03X11885054Y5321200I201054J0D01*
G03X11482946Y5321200I-201054J0D01*
G01X11887200Y8149460D02*
G03X11887200Y7907353I0J-121054D01*
G03X11887200Y8149460I0J121054D01*
G01X12203058Y1010393D02*
G01X12203058Y1160393D01*
G03X11850950Y1160393I-176054J0D01*
G01X11850950Y1010393D01*
G03X12203058Y1010393I176054J0D01*
G01X12522200Y1930146D02*
G03X12530236Y2184400I0J127254D01*
G03X12522200Y2438654I-8036J127000D01*
G03X12514164Y2184400I0J-127254D01*
G03X12522200Y1930146I8036J-127000D01*
G01X12522200Y1036060D02*
G03X12522200Y783952I0J-126054D01*
G03X12522200Y1036060I0J126054D01*
G01X12522200Y1756048D02*
G03X12522200Y1503940I0J-126054D01*
G03X12522200Y1756048I0J126054D01*
G01X-129055Y7289881D02*
G01X-62051Y7356886D01*
G01X-129055Y7146197D02*
G01X43541Y7318794D01*
G01X-129055Y7002513D02*
G01X154168Y7285737D01*
G01X-118327Y6869557D02*
G01X270315Y7258199D01*
G01X-53062Y6791138D02*
G01X392617Y7236817D01*
G01X-2448Y6698069D02*
G01X521924Y7222440D01*
G01X30512Y6587344D02*
G01X659406Y7216238D01*
G01X2453835Y9010667D02*
G01X2489250Y9046082D01*
G01X38415Y6451563D02*
G01X823801Y7236949D01*
G01X2319306Y8732454D02*
G01X2632934Y9046082D01*
G01X38851Y6308315D02*
G01X949132Y7218596D01*
G01X2311654Y8581118D02*
G01X2776618Y9046082D01*
G01X39286Y6165066D02*
G01X1119506Y7245286D01*
G01X2311654Y8437434D02*
G01X2455927Y8581707D01*
G01X2627892Y8753672D02*
G01X2920302Y9046082D01*
G01X39721Y6021817D02*
G01X1314379Y7296475D01*
G01X2311654Y8293750D02*
G01X2442612Y8424708D01*
G01X2536890Y8518986D02*
G01X2538872Y8520968D01*
G01X2688631Y8670727D02*
G01X3063986Y9046082D01*
G01X40157Y5878568D02*
G01X1554453Y7392865D01*
G01X2311654Y8150066D02*
G01X2472541Y8310953D01*
G01X2650646Y8489057D02*
G01X2668634Y8507046D01*
G01X2807153Y8645565D02*
G01X3207670Y9046082D01*
G01X40592Y5735320D02*
G01X2491169Y8185897D01*
G01X2691020Y8385748D02*
G01X2722002Y8416730D01*
G01X2897469Y8592197D02*
G01X3351354Y9046082D01*
G01X41027Y5592071D02*
G01X2555217Y8106261D01*
G01X2663339Y8214383D02*
G01X2676226Y8227269D01*
G01X2838932Y8389975D02*
G01X2864996Y8416039D01*
G01X2898159Y8449203D02*
G01X3495038Y9046082D01*
G01X41463Y5448822D02*
G01X2629521Y8036880D01*
G01X2911214Y8318574D02*
G01X3638722Y9046082D01*
G01X41898Y5305573D02*
G01X2764477Y8028153D01*
G01X2917385Y8181061D02*
G01X3079853Y8343528D01*
G01X3211465Y8475140D02*
G01X3782406Y9046082D01*
G01X42333Y5162325D02*
G01X2908161Y8028153D01*
G01X3061069Y8181061D02*
G01X3133629Y8253620D01*
G01X3301373Y8421365D02*
G01X3926091Y9046082D01*
G01X42769Y5019076D02*
G01X514095Y5490403D01*
G01X628991Y5605298D02*
G01X1072896Y6049203D01*
G01X1723197Y6699504D02*
G01X3051845Y8028153D01*
G01X3241986Y8218293D02*
G01X4069775Y9046082D01*
G01X43204Y4875827D02*
G01X558199Y5390822D01*
G01X728571Y5561195D02*
G01X1072896Y5905519D01*
G01X1866881Y6699504D02*
G01X3158436Y7991059D01*
G01X3313948Y8146571D02*
G01X3538279Y8370902D01*
G01X3747958Y8580581D02*
G01X3786633Y8619256D01*
G01X3826744Y8659367D02*
G01X4213459Y9046082D01*
G01X43640Y4732578D02*
G01X517275Y5206214D01*
G01X663193Y5352132D02*
G01X685384Y5374323D01*
G01X745070Y5434009D02*
G01X1072896Y5761835D01*
G01X2010565Y6699504D02*
G01X3590871Y8279810D01*
G01X3980094Y8669033D02*
G01X3980744Y8669683D01*
G01X4123288Y8812227D02*
G01X4357143Y9046082D01*
G01X44075Y4589330D02*
G01X533146Y5078401D01*
G01X743279Y5288534D02*
G01X1072896Y5618151D01*
G01X2154249Y6699504D02*
G01X3723368Y8268623D01*
G01X4230390Y8775645D02*
G01X4500827Y9046082D01*
G01X44306Y4445877D02*
G01X460105Y4861676D01*
G01X736854Y5138425D02*
G01X890613Y5292184D01*
G01X1032416Y5433987D02*
G01X1072896Y5474467D01*
G01X2297933Y6699504D02*
G01X3815753Y8217324D01*
G01X4071786Y8473356D02*
G01X4110283Y8511853D01*
G01X4281117Y8682688D02*
G01X4644511Y9046082D01*
G01X44245Y4302132D02*
G01X507930Y4765816D01*
G01X761177Y5019063D02*
G01X926849Y5184735D01*
G01X1670304Y5928191D02*
G01X1844209Y6102096D01*
G01X2441617Y6699504D02*
G01X3887596Y8145482D01*
G01X4143628Y8401514D02*
G01X4788195Y9046082D01*
G01X44190Y4158393D02*
G01X465596Y4579799D01*
G01X840072Y4954275D02*
G01X892093Y5006295D01*
G01X1670304Y5784507D02*
G01X1987893Y6102096D01*
G01X2585301Y6699504D02*
G01X3959438Y8073641D01*
G01X4215470Y8329672D02*
G01X4577288Y8691490D01*
G01X4740715Y8854918D02*
G01X4931879Y9046082D01*
G01X44140Y4014658D02*
G01X491687Y4462206D01*
G01X516995Y4487513D02*
G01X526602Y4497121D01*
G01X850959Y4821477D02*
G01X943580Y4914098D01*
G01X1670304Y5640822D02*
G01X1698966Y5669484D01*
G01X1798116Y5768634D02*
G01X2131578Y6102096D01*
G01X2728986Y6699504D02*
G01X4081028Y8051546D01*
G01X4354586Y8325104D02*
G01X4649409Y8619927D01*
G01X4812278Y8782797D02*
G01X5075563Y9046082D01*
G01X44094Y3870929D02*
G01X475001Y4301835D01*
G01X851051Y4677886D02*
G01X898733Y4725567D01*
G01X1670304Y5497138D02*
G01X1707896Y5534730D01*
G01X1859488Y5686323D02*
G01X2275262Y6102096D01*
G01X2872670Y6699504D02*
G01X4224712Y8051546D01*
G01X4498270Y8325104D02*
G01X5219247Y9046082D01*
G01X44054Y3727205D02*
G01X462538Y4145688D01*
G01X804117Y4487267D02*
G01X907001Y4590152D01*
G01X1670304Y5353454D02*
G01X1707896Y5391046D01*
G01X1848104Y5531254D02*
G01X2418946Y6102096D01*
G01X3016354Y6699504D02*
G01X4368396Y8051546D01*
G01X4641954Y8325104D02*
G01X5362932Y9046082D01*
G01X44019Y3583485D02*
G01X487505Y4026971D01*
G01X858593Y4398059D02*
G01X909006Y4448473D01*
G01X1670304Y5209770D02*
G01X1707896Y5247362D01*
G01X1848104Y5387570D02*
G01X2562630Y6102096D01*
G01X3871238Y7410704D02*
G01X4512080Y8051546D01*
G01X4785638Y8325104D02*
G01X5506616Y9046082D01*
G01X43989Y3439771D02*
G01X572736Y3968518D01*
G01X821434Y4217216D02*
G01X891716Y4287498D01*
G01X1670304Y5066086D02*
G01X1707896Y5103678D01*
G01X1848104Y5243886D02*
G01X2706314Y6102096D01*
G01X4014922Y7410704D02*
G01X4655764Y8051546D01*
G01X4929322Y8325104D02*
G01X5296838Y8692620D01*
G01X43964Y3296062D02*
G01X711654Y3963752D01*
G01X861449Y4113547D02*
G01X922252Y4174350D01*
G01X1567398Y4819496D02*
G01X1573161Y4825259D01*
G01X1677141Y4929239D02*
G01X1707896Y4959994D01*
G01X1848104Y5100202D02*
G01X2849998Y6102096D01*
G01X4158606Y7410704D02*
G01X4799448Y8051546D01*
G01X5073006Y8325104D02*
G01X5368269Y8620367D01*
G01X43944Y3152358D02*
G01X890978Y3999392D01*
G01X1572151Y4680565D02*
G01X1707896Y4816310D01*
G01X1848104Y4956518D02*
G01X2163043Y5271457D01*
G01X2407589Y5516003D02*
G01X2993682Y6102096D01*
G01X4302290Y7410704D02*
G01X4943132Y8051546D01*
G01X5216690Y8325104D02*
G01X5838482Y8946896D01*
G01X43929Y3008659D02*
G01X895439Y3860169D01*
G01X919171Y3883901D02*
G01X938182Y3902912D01*
G01X1151688Y4116418D02*
G01X1233932Y4198661D01*
G01X1490939Y4455668D02*
G01X1707896Y4672626D01*
G01X1848104Y4812834D02*
G01X2214993Y5179723D01*
G01X2499323Y5464053D02*
G01X2620244Y5584974D01*
G01X2797023Y5761753D02*
G01X3137366Y6102096D01*
G01X4445974Y7410704D02*
G01X5054874Y8019604D01*
G01X5162996Y8127726D02*
G01X5220166Y8184896D01*
G01X5360374Y8325104D02*
G01X5982166Y8946896D01*
G01X43920Y2864965D02*
G01X890346Y3711392D01*
G01X1192454Y4013499D02*
G01X1707896Y4528942D01*
G01X1848104Y4669150D02*
G01X2305921Y5126967D01*
G01X2552079Y5373125D02*
G01X2674327Y5495372D01*
G01X2886625Y5707671D02*
G01X4017650Y6838696D01*
G01X4589658Y7410704D02*
G01X5126716Y7947762D01*
G01X5234838Y8055884D02*
G01X5363850Y8184896D01*
G01X5484341Y8305387D02*
G01X6125850Y8946896D01*
G01X43915Y2721277D02*
G01X952044Y3629406D01*
G01X1185793Y3863155D02*
G01X1707896Y4385258D01*
G01X1848104Y4525466D02*
G01X2785986Y5463347D01*
G01X3076967Y5754329D02*
G01X3689096Y6366458D01*
G01X3822454Y6499816D02*
G01X4157889Y6835250D01*
G01X4733342Y7410704D02*
G01X5198558Y7875920D01*
G01X5306680Y7984042D02*
G01X5457048Y8134410D01*
G01X5556190Y8233552D02*
G01X5810736Y8488097D01*
G01X6004303Y8681664D02*
G01X6269534Y8946896D01*
G01X43915Y2577593D02*
G01X1095729Y3629406D01*
G01X1192454Y3726132D02*
G01X1707896Y4241573D01*
G01X1848104Y4381781D02*
G01X2948238Y5481915D01*
G01X3219611Y5753289D02*
G01X3689096Y6222773D01*
G01X3829304Y6362981D02*
G01X4156546Y6690224D01*
G01X4877027Y7410704D02*
G01X5268191Y7801869D01*
G01X5380731Y7914409D02*
G01X5528890Y8062568D01*
G01X5628032Y8161710D02*
G01X5786992Y8320669D01*
G01X6171731Y8705408D02*
G01X6413219Y8946896D01*
G01X34326Y2424319D02*
G01X1707896Y4097889D01*
G01X1848104Y4238097D02*
G01X3086559Y5476552D01*
G01X3353449Y5743442D02*
G01X3689096Y6079089D01*
G01X3829304Y6219297D02*
G01X4156546Y6546540D01*
G01X5020711Y7410704D02*
G01X5294695Y7684688D01*
G01X5497912Y7887905D02*
G01X5600732Y7990726D01*
G01X5699874Y8089868D02*
G01X5818131Y8208125D01*
G01X6284275Y8674269D02*
G01X6556903Y8946896D01*
G01X-129055Y2117254D02*
G01X1707896Y3954205D01*
G01X1848104Y4094413D02*
G01X3225089Y5471398D01*
G01X3517580Y5763890D02*
G01X3704387Y5950696D01*
G01X3829304Y6075613D02*
G01X4156546Y6402855D01*
G01X5164395Y7410704D02*
G01X5383530Y7629839D01*
G01X5552761Y7799070D02*
G01X5672574Y7918884D01*
G01X5771716Y8018026D02*
G01X5875424Y8121733D01*
G01X6370667Y8616976D02*
G01X6700587Y8946896D01*
G01X-129055Y1973570D02*
G01X1707896Y3810521D01*
G01X1848104Y3950729D02*
G01X3177386Y5280011D01*
G01X3311585Y5414210D02*
G01X3414334Y5516960D01*
G01X3627035Y5729660D02*
G01X3775916Y5878542D01*
G01X3875058Y5977684D02*
G01X4156546Y6259171D01*
G01X5308079Y7410704D02*
G01X5744495Y7847120D01*
G01X5866879Y7969504D02*
G01X5954081Y8056706D01*
G01X6435694Y8538319D02*
G01X6844271Y8946896D01*
G01X-129055Y1829886D02*
G01X1707896Y3666837D01*
G01X1848104Y3807045D02*
G01X3223998Y5182939D01*
G01X3408657Y5367598D02*
G01X3505502Y5464443D01*
G01X3804229Y5763170D02*
G01X3847758Y5806700D01*
G01X3946900Y5905842D02*
G01X4160169Y6119110D01*
G01X5451763Y7410704D02*
G01X5870355Y7829296D01*
G01X6010563Y7969504D02*
G01X6056167Y8015108D01*
G01X6477292Y8436233D02*
G01X6987955Y8946896D01*
G01X-129055Y1686202D02*
G01X1707896Y3523153D01*
G01X1848104Y3663361D02*
G01X3238297Y5053554D01*
G01X3435334Y5250591D02*
G01X3684772Y5500029D01*
G01X3897965Y5713222D02*
G01X3931458Y5746715D01*
G01X4071447Y5886704D02*
G01X4271254Y6086511D01*
G01X4936060Y6751317D02*
G01X5023439Y6838696D01*
G01X5595447Y7410704D02*
G01X5640762Y7456019D01*
G01X5781775Y7597032D02*
G01X6014039Y7829296D01*
G01X6154247Y7969504D02*
G01X6195873Y8011130D01*
G01X6481270Y8296527D02*
G01X7131639Y8946896D01*
G01X-3254Y1668319D02*
G01X1707896Y3379469D01*
G01X1848104Y3519677D02*
G01X3238297Y4909870D01*
G01X3378505Y5050078D02*
G01X3790902Y5462475D01*
G01X4215131Y5886704D02*
G01X4343096Y6014669D01*
G01X4442238Y6113811D02*
G01X4452839Y6124412D01*
G01X4966885Y6638457D02*
G01X5167123Y6838696D01*
G01X6297931Y7969504D02*
G01X7275323Y8946896D01*
G01X197632Y1725521D02*
G01X1707896Y3235785D01*
G01X1848104Y3375993D02*
G01X2159633Y3687522D01*
G01X2391524Y3919413D02*
G01X3238297Y4766186D01*
G01X3378505Y4906394D02*
G01X3468983Y4996872D01*
G01X3512129Y5040018D02*
G01X3957849Y5485738D01*
G01X4358815Y5886704D02*
G01X4414938Y5942827D01*
G01X4514080Y6041969D02*
G01X4559688Y6087577D01*
G01X5037546Y6565435D02*
G01X5271766Y6799655D01*
G01X6441615Y7969504D02*
G01X7419007Y8946896D01*
G01X373779Y1757983D02*
G01X1707896Y3092101D01*
G01X1848104Y3232309D02*
G01X2205637Y3589842D01*
G01X2489205Y3873409D02*
G01X3238297Y4622502D01*
G01X3378505Y4762710D02*
G01X3468448Y4852652D01*
G01X3656348Y5040553D02*
G01X4085656Y5469861D01*
G01X4585922Y5970127D02*
G01X4725408Y6109612D01*
G01X5048504Y6432709D02*
G01X5290419Y6674624D01*
G01X6585299Y7969504D02*
G01X7562691Y8946896D01*
G01X533309Y1773829D02*
G01X1707896Y2948417D01*
G01X1848104Y3088625D02*
G01X2291047Y3531567D01*
G01X2547479Y3787999D02*
G01X3238297Y4478817D01*
G01X3378505Y4619025D02*
G01X3501285Y4741806D01*
G01X3767195Y5007715D02*
G01X3988890Y5229411D01*
G01X4162183Y5402704D02*
G01X4233755Y5474276D01*
G01X4657764Y5898285D02*
G01X4860150Y6100671D01*
G01X5048504Y6289025D02*
G01X5375145Y6615666D01*
G01X5550934Y6791455D02*
G01X5598175Y6838696D01*
G01X6728983Y7969504D02*
G01X7706375Y8946896D01*
G01X678908Y1775745D02*
G01X1707896Y2804733D01*
G01X1848104Y2944941D02*
G01X2441572Y3538409D01*
G01X2540637Y3637474D02*
G01X3238297Y4335133D01*
G01X3378505Y4475341D02*
G01X3641609Y4738445D01*
G01X3770555Y4867392D02*
G01X4063307Y5160143D01*
G01X4231451Y5328288D02*
G01X4425829Y5522665D01*
G01X4729606Y5826442D02*
G01X4908296Y6005133D01*
G01X5080714Y6177551D02*
G01X5640592Y6737428D01*
G01X6872667Y7969504D02*
G01X7850059Y8946896D01*
G01X824124Y1777277D02*
G01X1707896Y2661048D01*
G01X1848104Y2801256D02*
G01X3238297Y4191449D01*
G01X3378505Y4331657D02*
G01X4512979Y5466132D01*
G01X4801448Y5754600D02*
G01X4908296Y5861448D01*
G01X5159777Y6112930D02*
G01X5694739Y6647891D01*
G01X5869915Y6823067D02*
G01X5885544Y6838696D01*
G01X6101952Y7055104D02*
G01X6374789Y7327941D01*
G01X7016352Y7969504D02*
G01X7993744Y8946896D01*
G01X956287Y1765755D02*
G01X1707896Y2517364D01*
G01X1848104Y2657572D02*
G01X3238297Y4047765D01*
G01X3378505Y4187973D02*
G01X3576222Y4385691D01*
G01X4463265Y5272733D02*
G01X4654296Y5463764D01*
G01X4873290Y5682758D02*
G01X4902109Y5711577D01*
G01X5150104Y5959572D02*
G01X5842517Y6651985D01*
G01X5865821Y6675289D02*
G01X6029228Y6838696D01*
G01X6251823Y7061291D02*
G01X6415293Y7224761D01*
G01X7160036Y7969504D02*
G01X7587472Y8396941D01*
G01X7895458Y8704926D02*
G01X8118195Y8927663D01*
G01X8217337Y9026805D02*
G01X8236614Y9046082D01*
G01X1078495Y1744280D02*
G01X1707896Y2373680D01*
G01X1848104Y2513888D02*
G01X2622657Y3288441D01*
G01X2807561Y3473345D02*
G01X3238297Y3904081D01*
G01X3378505Y4044289D02*
G01X4371998Y5037782D01*
G01X4533623Y5199408D02*
G01X4642851Y5308635D01*
G01X4794504Y5460288D02*
G01X4845990Y5511774D01*
G01X4945132Y5610916D02*
G01X4994709Y5660493D01*
G01X5150104Y5815888D02*
G01X6163109Y6828893D01*
G01X6226707Y6892491D02*
G01X6239309Y6905093D01*
G01X6302907Y6968691D02*
G01X6433947Y7099731D01*
G01X7303720Y7969504D02*
G01X7597726Y8263510D01*
G01X8028888Y8694672D02*
G01X8190037Y8855821D01*
G01X8289179Y8954963D02*
G01X8380298Y9046082D01*
G01X1193944Y1716044D02*
G01X1707896Y2229996D01*
G01X1848104Y2370204D02*
G01X2214753Y2736853D01*
G01X2892174Y3414274D02*
G01X3238297Y3760397D01*
G01X3378505Y3900605D02*
G01X3468448Y3990548D01*
G01X3578655Y4100755D02*
G01X4707631Y5229731D01*
G01X4804211Y5326312D02*
G01X4917832Y5439932D01*
G01X5016974Y5539074D02*
G01X5048779Y5570879D01*
G01X5150104Y5672204D02*
G01X5775860Y6297960D01*
G01X5867637Y6389737D02*
G01X6121146Y6643246D01*
G01X7447404Y7969504D02*
G01X7642427Y8164527D01*
G01X8127871Y8649971D02*
G01X8261879Y8783979D01*
G01X8361021Y8883121D02*
G01X8523982Y9046082D01*
G01X1303387Y1681803D02*
G01X1707896Y2086312D01*
G01X1848104Y2226520D02*
G01X2234647Y2613063D01*
G01X2492237Y2870653D02*
G01X2801576Y3179992D01*
G01X3086063Y3464479D02*
G01X3180855Y3559271D01*
G01X3378505Y3756921D02*
G01X3468523Y3846939D01*
G01X3722264Y4100680D02*
G01X4416720Y4795136D01*
G01X4475864Y4854280D02*
G01X4989674Y5368090D01*
G01X5088816Y5467232D02*
G01X5120621Y5499037D01*
G01X5219763Y5598179D02*
G01X5568696Y5947112D01*
G01X5997528Y6375944D02*
G01X6121146Y6499562D01*
G01X7591088Y7969504D02*
G01X7709949Y8088365D01*
G01X8204034Y8582450D02*
G01X8333721Y8712137D01*
G01X8432863Y8811279D02*
G01X8667666Y9046082D01*
G01X1407386Y1642117D02*
G01X1707896Y1942628D01*
G01X1848104Y2082836D02*
G01X2295703Y2530435D01*
G01X2516861Y2751593D02*
G01X2956733Y3191465D01*
G01X3415822Y3650554D02*
G01X3563915Y3798647D01*
G01X3770555Y4005287D02*
G01X4419346Y4654078D01*
G01X4571301Y4806033D02*
G01X5061516Y5296248D01*
G01X5160658Y5395390D02*
G01X5192463Y5427195D01*
G01X5291605Y5526337D02*
G01X5568696Y5803428D01*
G01X6061233Y6295965D02*
G01X6121146Y6355878D01*
G01X7734772Y7969504D02*
G01X7798999Y8033731D01*
G01X8258667Y8493399D02*
G01X8405563Y8640295D01*
G01X8504705Y8739437D02*
G01X8811350Y9046082D01*
G01X1506367Y1597415D02*
G01X1712574Y1803621D01*
G01X1848104Y1939152D02*
G01X2295703Y2386751D01*
G01X2435911Y2526959D02*
G01X2664765Y2755812D01*
G01X2845128Y2936176D02*
G01X3151579Y3242626D01*
G01X3367710Y3458758D02*
G01X3707599Y3798647D01*
G01X3770555Y3861603D02*
G01X4419346Y4510394D01*
G01X4572254Y4663302D02*
G01X4675746Y4766794D01*
G01X4835206Y4926254D02*
G01X5018208Y5109256D01*
G01X5205298Y5296346D02*
G01X5264305Y5355353D01*
G01X5363447Y5454495D02*
G01X5568696Y5659744D01*
G01X5708904Y5799952D02*
G01X6121146Y6212194D01*
G01X7878456Y7969504D02*
G01X7915487Y8006535D01*
G01X8285864Y8376911D02*
G01X8477405Y8568453D01*
G01X8576547Y8667595D02*
G01X8955034Y9046082D01*
G01X1600656Y1548020D02*
G01X1780147Y1727511D01*
G01X1879289Y1826653D02*
G01X2217085Y2164449D01*
G01X2435911Y2383275D02*
G01X2678247Y2625611D01*
G01X2934312Y2881676D02*
G01X3234865Y3182229D01*
G01X3531092Y3478456D02*
G01X4419346Y4366710D01*
G01X4572254Y4519618D02*
G01X4691221Y4638585D01*
G01X4978890Y4926254D02*
G01X5017845Y4965208D01*
G01X5253188Y5200552D02*
G01X5328058Y5275422D01*
G01X5443378Y5390742D02*
G01X5568696Y5516060D01*
G01X5708904Y5656268D02*
G01X6121146Y6068510D01*
G01X8022140Y7969504D02*
G01X8098739Y8046103D01*
G01X8246296Y8193659D02*
G01X8489696Y8437060D01*
G01X8629904Y8577268D02*
G01X9098718Y9046082D01*
G01X1690502Y1494182D02*
G01X1851989Y1655669D01*
G01X1951131Y1754811D02*
G01X2215883Y2019563D01*
G01X2455712Y2259392D02*
G01X2748894Y2552574D01*
G01X2966873Y2770552D02*
G01X3420404Y3224084D01*
G01X3633916Y3437596D02*
G01X4419346Y4223026D01*
G01X4572254Y4375934D02*
G01X4680383Y4484062D01*
G01X5236873Y5040553D02*
G01X5568696Y5372376D01*
G01X5708904Y5512584D02*
G01X6121146Y5924826D01*
G01X8165824Y7969504D02*
G01X8498795Y8302475D01*
G01X8629904Y8433584D02*
G01X9242402Y9046082D01*
G01X1776091Y1436087D02*
G01X1923831Y1583827D01*
G01X2022973Y1682969D02*
G01X2265272Y1925268D01*
G01X2512800Y2172796D02*
G01X2909511Y2569507D01*
G01X2934305Y2594301D02*
G01X3129157Y2789153D01*
G01X3279047Y2939043D02*
G01X3516969Y3176965D01*
G01X3815307Y3475302D02*
G01X3900395Y3560390D01*
G01X4064004Y3724000D02*
G01X4419346Y4079342D01*
G01X4572254Y4232250D02*
G01X4738585Y4398581D01*
G01X5077854Y4737849D02*
G01X5078450Y4738445D01*
G01X5319952Y4979948D02*
G01X5568696Y5228692D01*
G01X5708904Y5368900D02*
G01X5776120Y5436115D01*
G01X5969488Y5629484D02*
G01X6121146Y5781142D01*
G01X8309508Y7969504D02*
G01X9386086Y9046082D01*
G01X1857559Y1373870D02*
G01X1995673Y1511985D01*
G01X2094815Y1611127D02*
G01X2370722Y1887033D01*
G01X2516781Y2033092D02*
G01X2674133Y2190444D01*
G01X2763356Y2279667D02*
G01X3133943Y2650254D01*
G01X3382670Y2898982D02*
G01X3691858Y3208169D01*
G01X3903831Y3420142D02*
G01X3972700Y3489012D01*
G01X4135383Y3651694D02*
G01X4419346Y3935657D01*
G01X4572254Y4088565D02*
G01X4689004Y4205316D01*
G01X5065264Y4581575D02*
G01X5222134Y4738445D01*
G01X5319952Y4836264D02*
G01X5568696Y5085007D01*
G01X5708904Y5225215D02*
G01X5841160Y5357472D01*
G01X6048132Y5564443D02*
G01X6121146Y5637457D01*
G01X8832186Y8348497D02*
G01X9529771Y9046082D01*
G01X1934996Y1307624D02*
G01X2067515Y1440143D01*
G01X2166657Y1539285D02*
G01X2664740Y2037368D01*
G01X2894381Y2267008D02*
G01X3192432Y2565059D01*
G01X3430501Y2803128D02*
G01X3805122Y3177749D01*
G01X4094932Y3467559D02*
G01X4463325Y3835953D01*
G01X4572254Y3944881D02*
G01X4681356Y4053983D01*
G01X5016275Y4388903D02*
G01X5438141Y4810768D01*
G01X5558632Y4931259D02*
G01X5568696Y4941323D01*
G01X5708904Y5081531D02*
G01X5974677Y5347305D01*
G01X6058299Y5430926D02*
G01X6121146Y5493773D01*
G01X8503810Y7876438D02*
G01X8835662Y8208289D01*
G01X9016070Y8388698D02*
G01X9673455Y9046082D01*
G01X2008456Y1237399D02*
G01X2139357Y1368301D01*
G01X2238499Y1467443D02*
G01X2705670Y1934613D01*
G01X2958521Y2187464D02*
G01X3311212Y2540155D01*
G01X3428045Y2656988D02*
G01X3580728Y2809671D01*
G01X4240096Y3469039D02*
G01X4535167Y3764110D01*
G01X4643290Y3872233D02*
G01X4700857Y3929800D01*
G01X5073649Y4302592D02*
G01X5477570Y4706513D01*
G01X5708904Y4937847D02*
G01X6121146Y5350089D01*
G01X8575799Y7804743D02*
G01X8863422Y8092365D01*
G01X8902242Y8131185D02*
G01X8933030Y8161973D01*
G01X9127911Y8356854D02*
G01X9817139Y9046082D01*
G01X2077952Y1163211D02*
G01X2211199Y1296459D01*
G01X2310341Y1395601D02*
G01X2802298Y1887557D01*
G01X2966847Y2052106D02*
G01X3580770Y2666029D01*
G01X3822400Y2907659D02*
G01X4107952Y3193212D01*
G01X4371160Y3456419D02*
G01X4607009Y3692268D01*
G01X4715132Y3800391D02*
G01X4783289Y3868548D01*
G01X5034180Y4119439D02*
G01X5439567Y4524827D01*
G01X5804682Y4889941D02*
G01X6121146Y5206405D01*
G01X8647641Y7732901D02*
G01X8869855Y7955114D01*
G01X9039492Y8124751D02*
G01X9118687Y8203946D01*
G01X9318909Y8404168D02*
G01X9960823Y9046082D01*
G01X2143463Y1085038D02*
G01X2283041Y1224617D01*
G01X2382183Y1323759D02*
G01X3129153Y2070728D01*
G01X3336575Y2278150D02*
G01X3631815Y2573390D01*
G01X3877946Y2819521D02*
G01X4243110Y3184685D01*
G01X4536547Y3478122D02*
G01X4678851Y3620426D01*
G01X4786974Y3728549D02*
G01X4920571Y3862146D01*
G01X5159180Y4100755D02*
G01X5496031Y4437606D01*
G01X5838187Y4779762D02*
G01X6121146Y5062721D01*
G01X8719483Y7661059D02*
G01X8965778Y7907353D01*
G01X9087253Y8028828D02*
G01X9251704Y8193279D01*
G01X9429927Y8371502D02*
G01X10104507Y9046082D01*
G01X2204930Y1002821D02*
G01X2354884Y1152774D01*
G01X2454026Y1251916D02*
G01X3155248Y1953139D01*
G01X3412686Y2210577D02*
G01X3663696Y2461587D01*
G01X3880998Y2678889D02*
G01X4431585Y3229476D01*
G01X4644524Y3442415D02*
G01X4750693Y3548584D01*
G01X4858816Y3656707D02*
G01X5025279Y3823170D01*
G01X5295429Y4093320D02*
G01X5446812Y4244703D01*
G01X8791326Y7589216D02*
G01X9357290Y8155181D01*
G01X9468025Y8265916D02*
G01X9891436Y8689327D01*
G01X10038270Y8836161D02*
G01X10248191Y9046082D01*
G01X2258142Y912349D02*
G01X2426726Y1080932D01*
G01X2525868Y1180074D02*
G01X3238592Y1892799D01*
G01X3431261Y2085468D02*
G01X3663696Y2317903D01*
G01X3803904Y2458111D02*
G01X4523862Y3178069D01*
G01X4695931Y3350138D02*
G01X4822535Y3476742D01*
G01X4930658Y3584865D02*
G01X5144440Y3798647D01*
G01X5319952Y3974159D02*
G01X5467318Y4121524D01*
G01X5485876Y4140082D02*
G01X5517708Y4171915D01*
G01X8863168Y7517374D02*
G01X8936746Y7590953D01*
G01X9046047Y7700254D02*
G01X9950144Y8604351D01*
G01X10123247Y8777454D02*
G01X10391875Y9046082D01*
G01X2260854Y771377D02*
G01X2498568Y1009090D01*
G01X2597710Y1108232D02*
G01X3579139Y2089662D01*
G01X3803904Y2314427D02*
G01X4894377Y3404900D01*
G01X5002500Y3513023D02*
G01X5295766Y3806289D01*
G01X5312311Y3822833D02*
G01X5458034Y3968557D01*
G01X9179050Y7689573D02*
G01X9445313Y7955836D01*
G01X9495971Y8006494D02*
G01X10233407Y8743930D01*
G01X10323672Y8834195D02*
G01X10535559Y9046082D01*
G01X2260854Y627693D02*
G01X2546096Y912935D01*
G01X2669407Y1036246D02*
G01X3598028Y1964866D01*
G01X3855509Y2222347D02*
G01X4397452Y2764291D01*
G01X4522715Y2889554D02*
G01X4966220Y3333058D01*
G01X5074342Y3441180D02*
G01X5439574Y3806413D01*
G01X9332941Y7699779D02*
G01X9457463Y7824302D01*
G01X9627505Y7994344D02*
G01X9939421Y8306260D01*
G01X10036934Y8403773D02*
G01X10261390Y8628228D01*
G01X10439374Y8806212D02*
G01X10679243Y9046082D01*
G01X2260854Y484009D02*
G01X2493360Y716515D01*
G01X2686304Y909459D02*
G01X3674457Y1897612D01*
G01X3881247Y2104402D02*
G01X4426128Y2649282D01*
G01X4637724Y2860878D02*
G01X5003546Y3226701D01*
G01X5144807Y3367962D02*
G01X5472527Y3695681D01*
G01X9425795Y7648950D02*
G01X9555224Y7778379D01*
G01X9673428Y7896582D02*
G01X9681452Y7904606D01*
G01X9797187Y8020342D02*
G01X9970929Y8194084D01*
G01X10149110Y8372265D02*
G01X10363235Y8586390D01*
G01X10481212Y8704367D02*
G01X10822927Y9046082D01*
G01X2260854Y340324D02*
G01X2555082Y634553D01*
G01X2726446Y805917D02*
G01X4513540Y2593010D01*
G01X4693996Y2773466D02*
G01X5003546Y3083016D01*
G01X5156454Y3235924D02*
G01X5438369Y3517839D01*
G01X9614835Y7694305D02*
G01X9726014Y7805484D01*
G01X9896309Y7975780D02*
G01X10075520Y8154990D01*
G01X10188204Y8267675D02*
G01X10207524Y8286995D01*
G01X10326811Y8406281D02*
G01X10440005Y8519475D01*
G01X10548127Y8627597D02*
G01X10966612Y9046082D01*
G01X2279716Y215502D02*
G01X2503851Y439638D01*
G01X2673361Y609147D02*
G01X2725387Y661173D01*
G01X2804426Y740212D02*
G01X4404206Y2339992D01*
G01X4597002Y2532788D02*
G01X5003546Y2939332D01*
G01X5156454Y3092240D02*
G01X5490055Y3425841D01*
G01X9692685Y7628471D02*
G01X9727946Y7663732D01*
G01X9931654Y7867440D02*
G01X9953739Y7889526D01*
G01X10089280Y8025067D02*
G01X10154133Y8089919D01*
G01X10427967Y8363753D02*
G01X10511847Y8447633D01*
G01X10619969Y8555755D02*
G01X11110296Y9046082D01*
G01X2352794Y144896D02*
G01X2539746Y331848D01*
G01X2737823Y529926D02*
G01X2747979Y540081D01*
G01X2925518Y717620D02*
G01X3135497Y927600D01*
G01X3286794Y1078896D02*
G01X4468807Y2260910D01*
G01X4676084Y2468187D02*
G01X5003546Y2795648D01*
G01X5156454Y2948556D02*
G01X5607444Y3399546D01*
G01X5815121Y3607223D02*
G01X5857927Y3650029D01*
G01X9931654Y7723756D02*
G01X10005316Y7797418D01*
G01X10181388Y7973490D02*
G01X10191496Y7983598D01*
G01X10454976Y8247078D02*
G01X10583689Y8375791D01*
G01X10691811Y8483913D02*
G01X11253980Y9046082D01*
G01X2398951Y47370D02*
G01X2569530Y217948D01*
G01X2692654Y341072D02*
G01X2718867Y367285D01*
G01X2970845Y619263D02*
G01X3203511Y851929D01*
G01X3362464Y1010883D02*
G01X4601082Y2249500D01*
G01X4687494Y2335912D02*
G01X5003546Y2651964D01*
G01X5156454Y2804872D02*
G01X5762746Y3411164D01*
G01X5828236Y3476654D02*
G01X5929769Y3578187D01*
G01X9956026Y7604444D02*
G01X9958202Y7606620D01*
G01X10046380Y7694798D02*
G01X10141003Y7789421D01*
G01X10189385Y7837803D02*
G01X10191496Y7839914D01*
G01X10403510Y8051928D02*
G01X10655531Y8303949D01*
G01X10763653Y8412071D02*
G01X11397664Y9046082D01*
G01X2542636Y47370D02*
G01X2641457Y146191D01*
G01X2944805Y449539D02*
G01X3146947Y651681D01*
G01X3312725Y817459D02*
G01X5003546Y2508280D01*
G01X5156454Y2661188D02*
G01X5227009Y2731743D01*
G01X5400652Y2905386D02*
G01X6001611Y3506345D01*
G01X10403510Y7908244D02*
G01X10722940Y8227674D01*
G01X10835495Y8340229D02*
G01X11541348Y9046082D01*
G01X2686320Y47370D02*
G01X2765696Y126746D01*
G01X2959527Y320577D02*
G01X3174746Y535796D01*
G01X3370808Y731858D02*
G01X5003546Y2364596D01*
G01X5156454Y2517504D02*
G01X5313044Y2674094D01*
G01X5458300Y2819350D02*
G01X6073453Y3434503D01*
G01X10403510Y7764560D02*
G01X10722940Y8083990D01*
G01X10875848Y8236898D02*
G01X10927611Y8288661D01*
G01X11045133Y8406183D02*
G01X11685032Y9046082D01*
G01X2830004Y47370D02*
G01X2909380Y126746D01*
G01X3327654Y545020D02*
G01X3583833Y801199D01*
G01X3642889Y860255D02*
G01X5003546Y2220912D01*
G01X5156454Y2373820D02*
G01X5525591Y2742957D01*
G01X5694237Y2911603D02*
G01X6145295Y3362661D01*
G01X7613904Y4831270D02*
G01X7925662Y5143028D01*
G01X10437220Y7654586D02*
G01X10673621Y7890987D01*
G01X10875848Y8093214D02*
G01X10969211Y8186577D01*
G01X11147217Y8364583D02*
G01X11828716Y9046082D01*
G01X2973688Y47370D02*
G01X3053244Y126926D01*
G01X3327474Y401156D02*
G01X3541623Y615305D01*
G01X4120372Y1194054D02*
G01X5003546Y2077228D01*
G01X5156454Y2230136D02*
G01X5603656Y2677338D01*
G01X5759856Y2833538D02*
G01X6217137Y3290819D01*
G01X7613904Y4687586D02*
G01X8001119Y5074801D01*
G01X10900713Y7974394D02*
G01X11084584Y8158266D01*
G01X11321329Y8395011D02*
G01X11972383Y9046065D01*
G01X3117372Y47370D02*
G01X3632715Y562713D01*
G01X3831912Y761909D02*
G01X4111148Y1041146D01*
G01X4264056Y1194054D02*
G01X5003546Y1933544D01*
G01X5156454Y2086452D02*
G01X5828403Y2758401D01*
G01X6004599Y2934597D02*
G01X6288980Y3218977D01*
G01X7613904Y4543902D02*
G01X8352273Y5282271D01*
G01X10705088Y7635086D02*
G01X10857582Y7787580D01*
G01X10911215Y7841212D02*
G01X11265543Y8195540D01*
G01X11903106Y8833104D02*
G01X12106526Y9036524D01*
G01X3261056Y47370D02*
G01X3725797Y512110D01*
G01X3923102Y709416D02*
G01X4254832Y1041146D01*
G01X4407740Y1194054D02*
G01X5003546Y1789860D01*
G01X5156454Y1942768D02*
G01X5226410Y2012724D01*
G01X5399682Y2185995D02*
G01X5887629Y2673943D01*
G01X6089057Y2875371D02*
G01X6360822Y3147135D01*
G01X7613904Y4400218D02*
G01X8495957Y5282271D01*
G01X10901510Y7687823D02*
G01X11233082Y8019396D01*
G01X11362811Y8149125D02*
G01X11372475Y8158789D01*
G01X11473405Y8259718D02*
G01X11906582Y8692896D01*
G01X12046790Y8833104D02*
G01X12226616Y9012929D01*
G01X3404740Y47370D02*
G01X3807098Y449728D01*
G01X4020672Y663302D02*
G01X4398517Y1041146D01*
G01X4551425Y1194054D02*
G01X4938946Y1581576D01*
G01X5156454Y1799083D02*
G01X5263896Y1906525D01*
G01X5458067Y2100697D02*
G01X6013253Y2655882D01*
G01X6107118Y2749747D02*
G01X6432664Y3075293D01*
G01X7613904Y4256533D02*
G01X8628195Y5270824D01*
G01X8710525Y5353154D02*
G01X8760967Y5403596D01*
G01X10969591Y7612221D02*
G01X10980239Y7622869D01*
G01X11046131Y7688761D02*
G01X11285697Y7928327D01*
G01X11453880Y8096510D02*
G01X12050267Y8692896D01*
G01X12190475Y8833104D02*
G01X12335678Y8978307D01*
G01X3548424Y47370D02*
G01X3908826Y407771D01*
G01X4071413Y570358D02*
G01X4542201Y1041146D01*
G01X5203968Y1702914D02*
G01X5263896Y1762841D01*
G01X5404104Y1903049D02*
G01X5525080Y2024025D01*
G01X5693181Y2192126D02*
G01X6504506Y3003451D01*
G01X7613904Y4112849D02*
G01X8904651Y5403596D01*
G01X11176511Y7675457D02*
G01X11766808Y8265753D01*
G01X12162527Y8661472D02*
G01X12193951Y8692896D01*
G01X12334159Y8833104D02*
G01X12435470Y8934415D01*
G01X3692108Y47370D02*
G01X4000848Y356110D01*
G01X4207261Y562522D02*
G01X5078485Y1433746D01*
G01X5404104Y1759365D02*
G01X5602446Y1957708D01*
G01X5759498Y2114759D02*
G01X6576348Y2931609D01*
G01X7613904Y3969165D02*
G01X9048335Y5403596D01*
G01X11344674Y7699936D02*
G01X11821475Y8176736D01*
G01X12327260Y8682522D02*
G01X12337635Y8692896D01*
G01X12451040Y8806302D02*
G01X12527071Y8882332D01*
G01X3835792Y47370D02*
G01X4078717Y290294D01*
G01X4296677Y508254D02*
G01X5249947Y1461525D01*
G01X5447275Y1658853D02*
G01X6648190Y2859767D01*
G01X7613904Y3825481D02*
G01X9192019Y5403596D01*
G01X11448361Y7659938D02*
G01X11773983Y7985560D01*
G01X11930047Y8141624D02*
G01X12235174Y8446751D01*
G01X12406649Y8618226D02*
G01X12423740Y8635318D01*
G01X12522882Y8734460D02*
G01X12611142Y8822719D01*
G01X3979477Y47370D02*
G01X4287453Y355346D01*
G01X4440361Y508254D02*
G01X5370715Y1438608D01*
G01X5638580Y1706473D02*
G01X6720032Y2787925D01*
G01X7603073Y3670966D02*
G01X9335703Y5403596D01*
G01X11630398Y7698291D02*
G01X11846505Y7914398D01*
G01X12001209Y8069102D02*
G01X12180189Y8248082D01*
G01X12351318Y8419211D02*
G01X12495582Y8563476D01*
G01X12594724Y8662618D02*
G01X12688058Y8755951D01*
G01X4123161Y47370D02*
G01X4431137Y355346D01*
G01X4584045Y508254D02*
G01X5524592Y1448801D01*
G01X5713999Y1638208D02*
G01X5826548Y1750757D01*
G01X5996243Y1920452D02*
G01X6783553Y2707762D01*
G01X7461504Y3385713D02*
G01X7557840Y3482049D01*
G01X7769746Y3693955D02*
G01X9479387Y5403596D01*
G01X11717180Y7641389D02*
G01X12166346Y8090555D01*
G01X12254845Y8179054D02*
G01X12259102Y8183311D01*
G01X12416089Y8340298D02*
G01X12567424Y8491633D01*
G01X12666567Y8590776D02*
G01X12757966Y8682175D01*
G01X4266845Y47370D02*
G01X4574821Y355346D01*
G01X4727729Y508254D02*
G01X5881676Y1662201D01*
G01X6084799Y1865324D02*
G01X6783553Y2564077D01*
G01X6987254Y2767779D02*
G01X6990716Y2771241D01*
G01X7461504Y3242029D02*
G01X7609353Y3389878D01*
G01X7910759Y3691284D02*
G01X9623071Y5403596D01*
G01X11910389Y7690914D02*
G01X12171906Y7952431D01*
G01X12392969Y8173494D02*
G01X12639267Y8419791D01*
G01X12738409Y8518933D02*
G01X12820812Y8601336D01*
G01X4410529Y47370D02*
G01X4718505Y355346D01*
G01X6110827Y1747667D02*
G01X6434098Y2070938D01*
G01X6649263Y2286103D02*
G01X6783553Y2420393D01*
G01X6987261Y2624101D02*
G01X7033539Y2670380D01*
G01X7461504Y3098345D02*
G01X7706597Y3343437D01*
G01X8005121Y3641962D02*
G01X9766755Y5403596D01*
G01X11982770Y7619611D02*
G01X12010854Y7647695D01*
G01X12037305Y7674146D02*
G01X12223496Y7860337D01*
G01X12420854Y8057695D02*
G01X12711109Y8347949D01*
G01X12810251Y8447091D02*
G01X12876326Y8513166D01*
G01X4554213Y47370D02*
G01X4862189Y355346D01*
G01X6045454Y1538611D02*
G01X6433947Y1927104D01*
G01X6987261Y2480417D02*
G01X7033539Y2526696D01*
G01X7461504Y2954661D02*
G01X7848691Y3341847D01*
G01X8139299Y3632455D02*
G01X9903801Y5396958D01*
G01X12363704Y7856861D02*
G01X12782951Y8276107D01*
G01X12882093Y8375249D02*
G01X12923986Y8417143D01*
G01X4697897Y47370D02*
G01X6378331Y1727804D01*
G01X6637655Y1987128D02*
G01X6733073Y2082546D01*
G01X6987261Y2336733D02*
G01X7033539Y2383012D01*
G01X7461504Y2810977D02*
G01X8053875Y3403347D01*
G01X8282983Y3632455D02*
G01X9997733Y5347206D01*
G01X12349143Y7698616D02*
G01X12833096Y8182569D01*
G01X12953921Y8303394D02*
G01X12962922Y8312395D01*
G01X4841581Y47370D02*
G01X5947027Y1152816D01*
G01X6083516Y1289304D02*
G01X6432360Y1638148D01*
G01X6659244Y1865033D02*
G01X6860209Y2065998D01*
G01X7003809Y2209597D02*
G01X7022624Y2228412D01*
G01X7526677Y2732465D02*
G01X8197559Y3403347D01*
G01X8426667Y3632455D02*
G01X9995881Y5201669D01*
G01X12459220Y7665008D02*
G01X12833096Y8038884D01*
G01X12973304Y8179092D02*
G01X12991728Y8197516D01*
G01X4985265Y47370D02*
G01X5814164Y876268D01*
G01X5996134Y1058238D02*
G01X6086992Y1149096D01*
G01X6227200Y1289304D02*
G01X6538455Y1600559D01*
G01X6696833Y1758938D02*
G01X7043497Y2105602D01*
G01X7598519Y2660623D02*
G01X8341243Y3403347D01*
G01X8570351Y3632455D02*
G01X8682722Y3744827D01*
G01X8777373Y3839478D02*
G01X10037146Y5099250D01*
G01X12637438Y7699542D02*
G01X12833096Y7895200D01*
G01X12973304Y8035408D02*
G01X13006501Y8068605D01*
G01X5128949Y47370D02*
G01X5786575Y704995D01*
G01X6167407Y1085827D02*
G01X6230676Y1149096D01*
G01X6370884Y1289304D02*
G01X7145335Y2063755D01*
G01X7670361Y2588781D02*
G01X8484927Y3403347D01*
G01X8714035Y3632455D02*
G01X8759309Y3677729D01*
G01X8910884Y3829304D02*
G01X10103592Y5022013D01*
G01X10562585Y5481005D02*
G01X10574076Y5492496D01*
G01X12728972Y7647392D02*
G01X12833096Y7751516D01*
G01X12973304Y7891724D02*
G01X13006501Y7924921D01*
G01X5272633Y47370D02*
G01X5816636Y591372D01*
G01X6281030Y1055766D02*
G01X6374360Y1149096D01*
G01X6514568Y1289304D02*
G01X7307810Y2082546D01*
G01X7742203Y2516939D02*
G01X8628611Y3403347D01*
G01X8857719Y3632455D02*
G01X8914360Y3689096D01*
G01X9054568Y3829304D02*
G01X9956546Y4731282D01*
G01X10095371Y4870107D02*
G01X10193287Y4968023D01*
G01X10616574Y5391311D02*
G01X10717760Y5492496D01*
G01X10993696Y5768432D02*
G01X11148993Y5923729D01*
G01X11221271Y5996007D02*
G01X11229359Y6004095D01*
G01X12745271Y7520007D02*
G01X12833096Y7607832D01*
G01X12973304Y7748040D02*
G01X13006501Y7781237D01*
G01X5416317Y47370D02*
G01X5873187Y504239D01*
G01X6368163Y999215D02*
G01X6518044Y1149096D01*
G01X6658252Y1289304D02*
G01X7400352Y2031404D01*
G01X7791704Y2422756D02*
G01X8772295Y3403347D01*
G01X9001403Y3632455D02*
G01X9058044Y3689096D01*
G01X9198252Y3829304D02*
G01X9956546Y4587598D01*
G01X10159144Y4790196D02*
G01X10313692Y4944744D01*
G01X10639853Y5270905D02*
G01X10863792Y5494844D01*
G01X11054240Y5685292D02*
G01X11296355Y5927407D01*
G01X12693904Y7324956D02*
G01X12833096Y7464148D01*
G01X12973304Y7604356D02*
G01X13006501Y7637553D01*
G01X5560002Y47370D02*
G01X5951141Y438509D01*
G01X6433893Y921261D02*
G01X6661728Y1149096D01*
G01X6801936Y1289304D02*
G01X7433945Y1921313D01*
G01X7791704Y2279072D02*
G01X8659059Y3146427D01*
G01X8854178Y3341546D02*
G01X8915979Y3403347D01*
G01X9145087Y3632455D02*
G01X9201728Y3689096D01*
G01X9341936Y3829304D02*
G01X9956546Y4443914D01*
G01X10160254Y4647622D02*
G01X11493578Y5980946D01*
G01X12693904Y7181272D02*
G01X12833096Y7320464D01*
G01X12973304Y7460672D02*
G01X13006501Y7493869D01*
G01X5703686Y47370D02*
G01X6052340Y396023D01*
G01X6476378Y820062D02*
G01X6805412Y1149096D01*
G01X6945620Y1289304D02*
G01X7379413Y1723097D01*
G01X7791704Y2135388D02*
G01X8643185Y2986869D01*
G01X9013735Y3357419D02*
G01X9059663Y3403347D01*
G01X9288771Y3632455D02*
G01X9345412Y3689096D01*
G01X9485620Y3829304D02*
G01X9957881Y4301565D01*
G01X10160254Y4503938D02*
G01X11351013Y5694697D01*
G01X11450303Y5793987D02*
G01X11574709Y5918393D01*
G01X12693904Y7037588D02*
G01X12833096Y7176780D01*
G01X12973304Y7316988D02*
G01X13006501Y7350184D01*
G01X5847370Y47370D02*
G01X6190190Y390189D01*
G01X6482212Y682212D02*
G01X6949096Y1149096D01*
G01X7089304Y1289304D02*
G01X7435546Y1635545D01*
G01X7791704Y1991704D02*
G01X8679365Y2879365D01*
G01X9121240Y3321239D02*
G01X9203347Y3403347D01*
G01X9432455Y3632455D02*
G01X9489096Y3689096D01*
G01X9629304Y3829304D02*
G01X10022633Y4222633D01*
G01X10160254Y4360254D02*
G01X11433522Y5633522D01*
G01X11578754Y5778754D02*
G01X11761203Y5961203D01*
G01X12693904Y6893904D02*
G01X12833096Y7033096D01*
G01X12973304Y7173304D02*
G01X13006500Y7206500D01*
G01X5991054Y47370D02*
G01X7092780Y1149096D01*
G01X7232988Y1289304D02*
G01X7544455Y1600770D01*
G01X7791704Y1848020D02*
G01X8741977Y2798293D01*
G01X9202312Y3258628D02*
G01X9347032Y3403347D01*
G01X9576140Y3632455D02*
G01X9632780Y3689096D01*
G01X9772988Y3829304D02*
G01X11594930Y5651246D01*
G01X11722438Y5778754D02*
G01X11857889Y5914205D01*
G01X12693904Y6750220D02*
G01X12833096Y6889412D01*
G01X12973304Y7029620D02*
G01X13006500Y7062816D01*
G01X6134738Y47370D02*
G01X7236464Y1149096D01*
G01X7791704Y1704336D02*
G01X8827611Y2740243D01*
G01X9260362Y3172994D02*
G01X9490716Y3403347D01*
G01X9719824Y3632455D02*
G01X9776464Y3689096D01*
G01X9916672Y3829304D02*
G01X11510990Y5423621D01*
G01X11581579Y5494210D02*
G01X11738614Y5651246D01*
G01X12427755Y6340387D02*
G01X12833096Y6745728D01*
G01X12973304Y6885936D02*
G01X13006500Y6919132D01*
G01X6278422Y47370D02*
G01X8941653Y2710601D01*
G01X9290004Y3058951D02*
G01X9634400Y3403347D01*
G01X9863508Y3632455D02*
G01X9920148Y3689096D01*
G01X10060356Y3829304D02*
G01X11492142Y5261090D01*
G01X11744110Y5513058D02*
G01X12149644Y5918592D01*
G01X12242408Y6011356D02*
G01X12243028Y6011975D01*
G01X12499597Y6268545D02*
G01X12833096Y6602044D01*
G01X12973304Y6742252D02*
G01X13006500Y6775448D01*
G01X6422106Y47370D02*
G01X8259214Y1884477D01*
G01X8405307Y2030570D02*
G01X9128230Y2753493D01*
G01X9247111Y2872375D02*
G01X9778084Y3403347D01*
G01X10007192Y3632455D02*
G01X10063833Y3689096D01*
G01X11372441Y4997704D02*
G01X11547927Y5173190D01*
G01X11832010Y5457273D02*
G01X12305654Y5930918D01*
G01X12571439Y6196703D02*
G01X12833096Y6458359D01*
G01X12973304Y6598567D02*
G01X13006500Y6631764D01*
G01X6565790Y47370D02*
G01X8297464Y1779044D01*
G01X8510740Y1992319D02*
G01X9921768Y3403347D01*
G01X10150876Y3632455D02*
G01X11375917Y4857496D01*
G01X11516125Y4997704D02*
G01X11642828Y5124407D01*
G01X11880793Y5362372D02*
G01X12506062Y5987642D01*
G01X12681358Y6162938D02*
G01X12833096Y6314675D01*
G01X12973304Y6454883D02*
G01X13006500Y6488080D01*
G01X6709474Y47370D02*
G01X8391773Y1729668D01*
G01X8560116Y1898011D02*
G01X10065452Y3403347D01*
G01X10294560Y3632455D02*
G01X11519601Y4857496D01*
G01X11659809Y4997704D02*
G01X12582822Y5920717D01*
G01X12748283Y6086178D02*
G01X12833096Y6170991D01*
G01X12973304Y6311199D02*
G01X13006500Y6344396D01*
G01X6853158Y47370D02*
G01X7588144Y782355D01*
G01X7890045Y1084256D02*
G01X8622746Y1816957D01*
G01X8822839Y2017050D02*
G01X10209136Y3403347D01*
G01X10438244Y3632455D02*
G01X11663285Y4857496D01*
G01X11803493Y4997704D02*
G01X12833096Y6027307D01*
G01X12973304Y6167515D02*
G01X13006500Y6200712D01*
G01X6996843Y47370D02*
G01X7596721Y647248D01*
G01X8025152Y1075679D02*
G01X8661146Y1711673D01*
G01X8895743Y1946270D02*
G01X10352820Y3403347D01*
G01X10581928Y3632455D02*
G01X11806969Y4857496D01*
G01X11947177Y4997704D02*
G01X12833096Y5883623D01*
G01X12973304Y6023831D02*
G01X13006500Y6057027D01*
G01X7140527Y47370D02*
G01X7640564Y547407D01*
G01X8124993Y1031836D02*
G01X8546848Y1453690D01*
G01X8877162Y1784005D02*
G01X10496504Y3403347D01*
G01X10700930Y3607773D02*
G01X11950653Y4857496D01*
G01X12973304Y5880147D02*
G01X13006500Y5913343D01*
G01X7284211Y47370D02*
G01X7707386Y470545D01*
G01X8201855Y965014D02*
G01X8497648Y1260807D01*
G01X8864854Y1628013D02*
G01X10611318Y3374477D01*
G01X10773322Y3536481D02*
G01X13006500Y5769659D01*
G01X7427895Y47370D02*
G01X7795683Y415157D01*
G01X8257243Y876717D02*
G01X8499350Y1118825D01*
G01X8761776Y1381250D02*
G01X10683160Y3302635D01*
G01X10845164Y3464639D02*
G01X13006500Y5625975D01*
G01X7571579Y47370D02*
G01X7911031Y386822D01*
G01X8285578Y761369D02*
G01X8605055Y1080845D01*
G01X8799755Y1275546D02*
G01X9515058Y1990849D01*
G01X9715757Y2191548D02*
G01X10755002Y3230793D01*
G01X10917006Y3392797D02*
G01X13006500Y5482291D01*
G01X7715263Y47370D02*
G01X8089148Y421255D01*
G01X8251145Y583252D02*
G01X8748739Y1080845D01*
G01X8799755Y1131862D02*
G01X9586424Y1918531D01*
G01X9788075Y2120182D02*
G01X10826844Y3158951D01*
G01X10988848Y3320955D02*
G01X13006500Y5338607D01*
G01X7858947Y47370D02*
G01X9501642Y1690064D01*
G01X9666530Y1854952D02*
G01X10898686Y3087109D01*
G01X11060690Y3249113D02*
G01X11487997Y3676419D01*
G01X11728781Y3917204D02*
G01X13006500Y5194923D01*
G01X8002631Y47370D02*
G01X9549189Y1593927D01*
G01X9762667Y1807405D02*
G01X10970528Y3015267D01*
G01X11132532Y3177271D02*
G01X11538114Y3582853D01*
G01X11822348Y3867086D02*
G01X13006500Y5051239D01*
G01X8146315Y47370D02*
G01X8498143Y399198D01*
G01X8541605Y442659D02*
G01X9652492Y1553546D01*
G01X9803048Y1704102D02*
G01X11042370Y2943425D01*
G01X11204374Y3105429D02*
G01X11627263Y3528318D01*
G01X11876882Y3777937D02*
G01X13006500Y4907555D01*
G01X8289999Y47370D02*
G01X8497648Y255018D01*
G01X8685785Y443155D02*
G01X11114213Y2871583D01*
G01X11276216Y3033586D02*
G01X11343113Y3100483D01*
G01X11597117Y3354487D02*
G01X11798713Y3556083D01*
G01X11849117Y3606487D02*
G01X13006500Y4763871D01*
G01X8433683Y47370D02*
G01X8530657Y144343D01*
G01X8796460Y410146D02*
G01X10506532Y2120219D01*
G01X10576987Y2190674D02*
G01X11186055Y2799741D01*
G01X11738343Y3352029D02*
G01X13006500Y4620186D01*
G01X8577368Y47370D02*
G01X8671045Y141047D01*
G01X8799755Y269757D02*
G01X10510801Y1980803D01*
G01X10716403Y2186405D02*
G01X11257897Y2727899D01*
G01X11838927Y3308929D02*
G01X13006500Y4476502D01*
G01X8721052Y47370D02*
G01X10587604Y1913922D01*
G01X10783284Y2109602D02*
G01X11329739Y2656057D01*
G01X11914716Y3241034D02*
G01X13006500Y4332818D01*
G01X8864736Y47369D02*
G01X10047045Y1229678D01*
G01X10200319Y1382953D02*
G01X10494128Y1676762D01*
G01X10670432Y1853066D02*
G01X11401581Y2584214D01*
G01X11967115Y3149749D02*
G01X13006500Y4189134D01*
G01X9008420Y47369D02*
G01X10059515Y1098465D01*
G01X10331532Y1370482D02*
G01X10547935Y1586884D01*
G01X10760310Y1799259D02*
G01X11473423Y2512372D01*
G01X11635427Y2674376D02*
G01X11670915Y2709865D01*
G01X11987734Y3026684D02*
G01X13006500Y4045450D01*
G01X9152104Y47369D02*
G01X10185580Y1080845D01*
G01X10474988Y1370254D02*
G01X10659194Y1554460D01*
G01X10792734Y1688000D02*
G01X11305088Y2200353D01*
G01X11440450Y2335716D02*
G01X11545265Y2440530D01*
G01X11707269Y2602534D02*
G01X13006500Y3901766D01*
G01X9295788Y47369D02*
G01X10320513Y1072094D01*
G01X10618673Y1370254D02*
G01X11338346Y2089927D01*
G01X11550876Y2302457D02*
G01X11617107Y2368688D01*
G01X11779111Y2530692D02*
G01X13006500Y3758082D01*
G01X9439472Y47369D02*
G01X10300310Y908208D01*
G01X10691254Y1299151D02*
G01X11428811Y2036708D01*
G01X11604095Y2211993D02*
G01X11688949Y2296846D01*
G01X11850953Y2458850D02*
G01X13006500Y3614398D01*
G01X9583156Y47369D02*
G01X10298032Y762246D01*
G01X10691254Y1155467D02*
G01X11507293Y1971506D01*
G01X11669297Y2133510D02*
G01X11760791Y2225004D01*
G01X11922795Y2387008D02*
G01X13006500Y3470714D01*
G01X9726840Y47369D02*
G01X10047045Y367574D01*
G01X10122626Y443155D02*
G01X10311535Y632064D01*
G01X10685603Y1006132D02*
G01X10948323Y1268852D01*
G01X10978542Y1299071D02*
G01X11310890Y1631419D01*
G01X11499378Y1819907D02*
G01X11579135Y1899664D01*
G01X11741139Y2061668D02*
G01X11803394Y2123923D01*
G01X12023876Y2344405D02*
G01X13006500Y3327030D01*
G01X9870524Y47369D02*
G01X10047045Y223890D01*
G01X10266310Y443155D02*
G01X10289418Y466263D01*
G01X10644049Y820894D02*
G01X10910947Y1087792D01*
G01X11148508Y1325353D02*
G01X11372366Y1549211D01*
G01X11581585Y1758430D02*
G01X11650977Y1827822D01*
G01X11812981Y1989826D02*
G01X11866556Y2043401D01*
G01X12104398Y2281243D02*
G01X13006500Y3183345D01*
G01X10014209Y47369D02*
G01X10107886Y141047D01*
G01X10690721Y723882D02*
G01X10920379Y953540D01*
G01X11229969Y1263130D02*
G01X11442449Y1475610D01*
G01X11629820Y1662981D02*
G01X11722819Y1755980D01*
G01X11884823Y1917984D02*
G01X11981103Y2014264D01*
G01X12133535Y2166696D02*
G01X13006500Y3039661D01*
G01X10157893Y47369D02*
G01X10251570Y141047D01*
G01X10349152Y238629D02*
G01X10418270Y307746D01*
G01X10659883Y549359D02*
G01X10980630Y870107D01*
G01X11263055Y1152532D02*
G01X11442449Y1331925D01*
G01X11671557Y1561033D02*
G01X11792346Y1681823D01*
G01X11957977Y1847454D02*
G01X12397343Y2286819D01*
G01X12546781Y2436257D02*
G01X13006500Y2895977D01*
G01X10301577Y47369D02*
G01X10561923Y307716D01*
G01X10689684Y435477D02*
G01X11088553Y834346D01*
G01X11263048Y1008841D02*
G01X11380949Y1126741D01*
G01X11671557Y1417349D02*
G01X11794842Y1540634D01*
G01X12099166Y1844958D02*
G01X12456578Y2202371D01*
G01X12631229Y2377022D02*
G01X13006500Y2752293D01*
G01X10445261Y47369D02*
G01X11382802Y984911D01*
G01X11682131Y1284239D02*
G01X11903238Y1505346D01*
G01X12134454Y1736562D02*
G01X12405214Y2007322D01*
G01X12572278Y2174386D02*
G01X13006500Y2608609D01*
G01X10588945Y47369D02*
G01X10755937Y214362D01*
G01X10966024Y424448D02*
G01X11430022Y888446D01*
G01X11730697Y1189121D02*
G01X12046922Y1505346D01*
G01X12134454Y1592878D02*
G01X12479205Y1937629D01*
G01X12641971Y2100395D02*
G01X13006500Y2464925D01*
G01X10732629Y47369D02*
G01X10783573Y98314D01*
G01X11040785Y355525D02*
G01X11522927Y837668D01*
G01X11733057Y1047797D02*
G01X11851032Y1165773D01*
G01X12021624Y1336365D02*
G01X13006500Y2321241D01*
G01X11058045Y229102D02*
G01X11850950Y1022007D01*
G01X12131226Y1302283D02*
G01X12407237Y1578293D01*
G01X12573901Y1744958D02*
G01X13006500Y2177557D01*
G01X11019997Y47369D02*
G01X11882481Y909854D01*
G01X12192652Y1220024D02*
G01X12482863Y1510235D01*
G01X12641959Y1669331D02*
G01X13006500Y2033873D01*
G01X11163681Y47369D02*
G01X11962782Y846470D01*
G01X12203058Y1086746D02*
G01X13006500Y1890188D01*
G01X11307365Y47369D02*
G01X12122457Y862461D01*
G01X12174936Y914940D02*
G01X13006500Y1746504D01*
G01X11451049Y47369D02*
G01X13006500Y1602820D01*
G01X11594734Y47369D02*
G01X12406754Y859390D01*
G01X12572815Y1025451D02*
G01X13006500Y1459136D01*
G01X11738418Y47369D02*
G01X12481688Y790639D01*
G01X12641566Y950518D02*
G01X13006500Y1315452D01*
G01X11882102Y47369D02*
G01X12055934Y221202D01*
G01X12261150Y426417D02*
G01X13006500Y1171768D01*
G01X12026193Y47776D02*
G01X12080798Y102382D01*
G01X12338368Y359951D02*
G01X13006500Y1028084D01*
G01X12358043Y235942D02*
G01X12990755Y868655D01*
G01X12398404Y132620D02*
G01X12924931Y659147D01*
G01X-129055Y1659634D02*
G01X-101425Y1632004D01*
G01X-129055Y1803319D02*
G01X3616Y1670648D01*
G01X-129055Y1947003D02*
G01X113642Y1704306D01*
G01X-129055Y2090687D02*
G01X229125Y1732506D01*
G01X-80876Y2186192D02*
G01X350682Y1754633D01*
G01X-21876Y2270875D02*
G01X479133Y1769867D01*
G01X21109Y2371574D02*
G01X615602Y1777082D01*
G01X43077Y2493291D02*
G01X777889Y1758478D01*
G01X2258667Y277701D02*
G01X2488998Y47370D01*
G01X43915Y2636137D02*
G01X908144Y1771908D01*
G01X2260854Y419198D02*
G01X2632682Y47370D01*
G01X43916Y2779820D02*
G01X1079713Y1744023D01*
G01X2260854Y562882D02*
G01X2539746Y283990D01*
G01X2696990Y126746D02*
G01X2776366Y47370D01*
G01X43923Y2923497D02*
G01X1276513Y1690907D01*
G01X2260854Y706566D02*
G01X2491966Y475454D01*
G01X2840674Y126746D02*
G01X2920050Y47370D01*
G01X43935Y3067169D02*
G01X1520810Y1590294D01*
G01X2260854Y850250D02*
G01X2526124Y584980D01*
G01X2704381Y406723D02*
G01X2720071Y391033D01*
G01X2984358Y126746D02*
G01X3063735Y47370D01*
G01X43952Y3210837D02*
G01X2491508Y763280D01*
G01X2741120Y513668D02*
G01X2776221Y478567D01*
G01X2950566Y304222D02*
G01X2975134Y279654D01*
G01X3103855Y150933D02*
G01X3207419Y47370D01*
G01X43974Y3354499D02*
G01X2546096Y852376D01*
G01X2722079Y676394D02*
G01X2728664Y669809D01*
G01X2893810Y504663D02*
G01X3067575Y330897D01*
G01X3175697Y222775D02*
G01X3351103Y47370D01*
G01X44001Y3498156D02*
G01X1707896Y1834260D01*
G01X2686304Y855852D02*
G01X2802583Y739573D01*
G01X2963574Y578582D02*
G01X3139417Y402739D01*
G01X3247539Y294617D02*
G01X3494787Y47370D01*
G01X44033Y3641808D02*
G01X1707896Y1977945D01*
G01X2685644Y1000196D02*
G01X3174746Y511095D01*
G01X3317505Y368336D02*
G01X3638471Y47370D01*
G01X44070Y3785455D02*
G01X1707896Y2121629D01*
G01X1848104Y1981421D02*
G01X3131045Y698479D01*
G01X3327654Y501871D02*
G01X3782155Y47370D01*
G01X44112Y3929097D02*
G01X1707896Y2265313D01*
G01X1848104Y2125105D02*
G01X3170116Y803092D01*
G01X3341086Y632123D02*
G01X3925839Y47370D01*
G01X44159Y4072733D02*
G01X1707896Y2408997D01*
G01X1848104Y2268789D02*
G01X3132090Y984802D01*
G01X3272809Y844084D02*
G01X3288533Y828360D01*
G01X3366353Y750540D02*
G01X4069523Y47370D01*
G01X44212Y4216365D02*
G01X1707896Y2552681D01*
G01X1848104Y2412473D02*
G01X2214753Y2045824D01*
G01X2373431Y1887146D02*
G01X3191867Y1068710D01*
G01X3356716Y903861D02*
G01X3538279Y722298D01*
G01X3747958Y512619D02*
G01X3786633Y473944D01*
G01X3826744Y433833D02*
G01X4213207Y47370D01*
G01X44269Y4359992D02*
G01X1707896Y2696365D01*
G01X1848104Y2556157D02*
G01X2221527Y2182734D01*
G01X2472841Y1931420D02*
G01X3590871Y813390D01*
G01X3980094Y424167D02*
G01X3980744Y423517D01*
G01X4123288Y280973D02*
G01X4356891Y47370D01*
G01X44332Y4503613D02*
G01X462159Y4085786D01*
G01X581386Y3966559D02*
G01X1707896Y2840049D01*
G01X1848104Y2699841D02*
G01X2283365Y2264580D01*
G01X2516709Y2031236D02*
G01X3693111Y854834D01*
G01X4230390Y317555D02*
G01X4500576Y47370D01*
G01X43897Y4647732D02*
G01X488130Y4203499D01*
G01X726971Y3964658D02*
G01X890346Y3801283D01*
G01X1062223Y3629406D02*
G01X1707896Y2983733D01*
G01X1848104Y2843525D02*
G01X2295703Y2395926D01*
G01X2510607Y2181023D02*
G01X2665182Y2026447D01*
G01X2804233Y1887396D02*
G01X3764953Y926676D01*
G01X3873076Y818553D02*
G01X4110283Y581347D01*
G01X4336283Y355346D02*
G01X4644260Y47370D01*
G01X43459Y4791854D02*
G01X459509Y4375805D01*
G01X822148Y4013166D02*
G01X946319Y3888994D01*
G01X1183595Y3651718D02*
G01X1707896Y3127417D01*
G01X1848104Y2987209D02*
G01X2295703Y2539611D01*
G01X2435911Y2399403D02*
G01X2667674Y2167639D01*
G01X2912960Y1922353D02*
G01X3836796Y998518D01*
G01X3944918Y890396D02*
G01X4327059Y508254D01*
G01X4479967Y355346D02*
G01X4787944Y47370D01*
G01X43021Y4935976D02*
G01X503487Y4475510D01*
G01X861429Y4117569D02*
G01X903700Y4075297D01*
G01X1192454Y3786543D02*
G01X1707896Y3271101D01*
G01X1848104Y3130893D02*
G01X2214753Y2764245D01*
G01X2435911Y2543087D02*
G01X2722326Y2256671D01*
G01X2964937Y2014060D02*
G01X3908638Y1070360D01*
G01X4016760Y962238D02*
G01X4470743Y508254D01*
G01X4623651Y355346D02*
G01X4931628Y47370D01*
G01X42583Y5080098D02*
G01X463735Y4658947D01*
G01X836716Y4285966D02*
G01X895836Y4226845D01*
G01X1176683Y3945999D02*
G01X1707896Y3414786D01*
G01X1848104Y3274578D02*
G01X2244576Y2878106D01*
G01X2501354Y2621328D02*
G01X2834824Y2287857D01*
G01X2965644Y2157038D02*
G01X3139424Y1983258D01*
G01X3225457Y1897224D02*
G01X3980480Y1142202D01*
G01X4088602Y1034080D02*
G01X4614428Y508254D01*
G01X4767336Y355346D02*
G01X5075312Y47370D01*
G01X42145Y5224220D02*
G01X521467Y4744899D01*
G01X855470Y4410896D02*
G01X915580Y4350786D01*
G01X1124986Y4141380D02*
G01X1133230Y4133136D01*
G01X1161336Y4105030D02*
G01X1707896Y3558470D01*
G01X1848104Y3418262D02*
G01X2305691Y2960674D01*
G01X2516861Y2749505D02*
G01X3129153Y2137213D01*
G01X3357900Y1908465D02*
G01X4072312Y1194054D01*
G01X4225220Y1041146D02*
G01X4758112Y508254D01*
G01X4910561Y355805D02*
G01X5218996Y47370D01*
G01X41707Y5368342D02*
G01X472223Y4937827D01*
G01X848485Y4561564D02*
G01X890353Y4519696D01*
G01X1212954Y4197096D02*
G01X1707896Y3702154D01*
G01X1848104Y3561946D02*
G01X2376053Y3033997D01*
G01X2475195Y2934855D02*
G01X2664765Y2745285D01*
G01X2864911Y2545139D02*
G01X3169391Y2240658D01*
G01X3422562Y1987487D02*
G01X4215996Y1194054D01*
G01X4368904Y1041146D02*
G01X4886164Y523886D01*
G01X4994286Y415764D02*
G01X5362680Y47370D01*
G01X41269Y5512465D02*
G01X533146Y5020588D01*
G01X799160Y4754574D02*
G01X930248Y4623486D01*
G01X1302438Y4251296D02*
G01X1707896Y3845838D01*
G01X1848104Y3705630D02*
G01X2447895Y3105839D01*
G01X2547037Y3006697D02*
G01X2686945Y2866789D01*
G01X2944633Y2609100D02*
G01X3265400Y2288334D01*
G01X3431261Y2122473D02*
G01X4359680Y1194054D01*
G01X4512588Y1041146D02*
G01X4958006Y595728D01*
G01X5066128Y487606D02*
G01X5506364Y47370D01*
G01X40831Y5656587D02*
G01X533146Y5164272D01*
G01X857006Y4840412D02*
G01X893166Y4804252D01*
G01X1374280Y4323138D02*
G01X1707896Y3989522D01*
G01X1848104Y3849314D02*
G01X2519737Y3177681D01*
G01X2618879Y3078539D02*
G01X2766611Y2930807D01*
G01X2966873Y2730545D02*
G01X3579139Y2118279D01*
G01X3795580Y1901838D02*
G01X4503364Y1194054D01*
G01X4650915Y1046503D02*
G01X5029848Y667570D01*
G01X5137970Y559448D02*
G01X5650048Y47370D01*
G01X40393Y5800709D02*
G01X536428Y5304674D01*
G01X736854Y5104248D02*
G01X947545Y4893557D01*
G01X1446122Y4394980D02*
G01X1707896Y4133206D01*
G01X1848104Y3992998D02*
G01X2161047Y3680055D01*
G01X2316701Y3524401D02*
G01X2591579Y3249523D01*
G01X2690721Y3150381D02*
G01X3129153Y2711949D01*
G01X3302508Y2538594D02*
G01X3610696Y2230406D01*
G01X3867043Y1974059D02*
G01X4619090Y1222012D01*
G01X4727212Y1113890D02*
G01X5101690Y739412D01*
G01X5209812Y631290D02*
G01X5793732Y47370D01*
G01X39955Y5944831D02*
G01X514807Y5469979D01*
G01X620585Y5364201D02*
G01X629453Y5355333D01*
G01X755927Y5228859D02*
G01X900679Y5084107D01*
G01X1492504Y4492282D02*
G01X1707896Y4276890D01*
G01X1848104Y4136682D02*
G01X2176589Y3808197D01*
G01X2444843Y3539943D02*
G01X2621798Y3362989D01*
G01X2804186Y3180600D02*
G01X3140168Y2844618D01*
G01X3394989Y2589797D02*
G01X3663696Y2321090D01*
G01X3881247Y2103539D02*
G01X4690932Y1293854D01*
G01X4799054Y1185732D02*
G01X5173532Y811254D01*
G01X5281654Y703132D02*
G01X5937417Y47370D01*
G01X39517Y6088953D02*
G01X554061Y5574409D01*
G01X725016Y5403454D02*
G01X901004Y5227466D01*
G01X1545818Y4582652D02*
G01X1707896Y4420574D01*
G01X1848104Y4280366D02*
G01X2242556Y3885914D01*
G01X2522561Y3605910D02*
G01X2679263Y3449207D01*
G01X2890404Y3238066D02*
G01X3207870Y2920600D01*
G01X3431261Y2697209D02*
G01X3663696Y2464774D01*
G01X3803904Y2324566D02*
G01X4762774Y1365696D01*
G01X4870896Y1257574D02*
G01X5245374Y883096D01*
G01X5353496Y774974D02*
G01X6081101Y47370D01*
G01X39079Y6233075D02*
G01X672741Y5599414D01*
G01X750020Y5522134D02*
G01X911635Y5360520D01*
G01X1567398Y4704756D02*
G01X1707896Y4564258D01*
G01X1848104Y4424050D02*
G01X2350051Y3922103D01*
G01X2558749Y3713405D02*
G01X2796250Y3475904D01*
G01X3083142Y3189012D02*
G01X3350415Y2921740D01*
G01X3413953Y2858201D02*
G01X3579165Y2692990D01*
G01X3803904Y2468250D02*
G01X4834616Y1437538D01*
G01X4942738Y1329416D02*
G01X5317216Y954938D01*
G01X5425338Y846816D02*
G01X6224785Y47370D01*
G01X38641Y6377197D02*
G01X990440Y5425398D01*
G01X1595028Y4820810D02*
G01X1707896Y4707942D01*
G01X1848104Y4567734D02*
G01X2953906Y3461933D01*
G01X3233087Y3182751D02*
G01X3585285Y2830554D01*
G01X3835837Y2580002D02*
G01X4906458Y1509380D01*
G01X5014580Y1401258D02*
G01X5389058Y1026780D01*
G01X5497180Y918658D02*
G01X5810739Y605100D01*
G01X6004301Y411537D02*
G01X6368469Y47370D01*
G01X38332Y6521191D02*
G01X1072896Y5486627D01*
G01X1678859Y4880663D02*
G01X1707896Y4851627D01*
G01X1848104Y4711419D02*
G01X3106527Y3452995D01*
G01X3148193Y3411330D02*
G01X3149890Y3409633D01*
G01X3358830Y3200692D02*
G01X3646079Y2913444D01*
G01X3880977Y2678546D02*
G01X4938946Y1620576D01*
G01X5125776Y1433746D02*
G01X5460900Y1098622D01*
G01X5569022Y990500D02*
G01X5786993Y772529D01*
G01X6171731Y387791D02*
G01X6512153Y47370D01*
G01X-8338Y6711544D02*
G01X1072896Y5630311D01*
G01X1670304Y5032903D02*
G01X1707896Y4995311D01*
G01X1848104Y4855103D02*
G01X3227502Y3475705D01*
G01X3526811Y3176396D02*
G01X3708432Y2994774D01*
G01X3876128Y2827078D02*
G01X4987418Y1715788D01*
G01X5220988Y1482218D02*
G01X5532742Y1170464D01*
G01X5640864Y1062342D02*
G01X5818133Y885074D01*
G01X6284276Y418931D02*
G01X6655837Y47370D01*
G01X-129055Y6975946D02*
G01X1072896Y5773995D01*
G01X1670304Y5176587D02*
G01X1707896Y5138995D01*
G01X1848104Y4998787D02*
G01X3184481Y3662410D01*
G01X3367710Y3479181D02*
G01X3418376Y3428515D01*
G01X3631710Y3215181D02*
G01X3780274Y3066616D01*
G01X3879416Y2967474D02*
G01X4404708Y2442183D01*
G01X4598399Y2248492D02*
G01X5003546Y1843345D01*
G01X5397860Y1449030D02*
G01X5604584Y1242306D01*
G01X5712706Y1134184D02*
G01X5875425Y971466D01*
G01X6370668Y476223D02*
G01X6799521Y47370D01*
G01X-129055Y7119630D02*
G01X1072896Y5917679D01*
G01X1670304Y5320271D02*
G01X1707896Y5282679D01*
G01X1848104Y5142471D02*
G01X3238297Y3752278D01*
G01X3418719Y3571855D02*
G01X3513131Y3477443D01*
G01X3811763Y3178811D02*
G01X3852116Y3138458D01*
G01X3951258Y3039316D02*
G01X4469998Y2520576D01*
G01X4676792Y2313782D02*
G01X5003546Y1987029D01*
G01X5156454Y1834121D02*
G01X5263896Y1726679D01*
G01X5552213Y1438361D02*
G01X5676426Y1314149D01*
G01X5784549Y1206026D02*
G01X5954081Y1036493D01*
G01X6435695Y554880D02*
G01X6943205Y47370D01*
G01X-129055Y7263314D02*
G01X1072896Y6061363D01*
G01X1670304Y5463955D02*
G01X1707896Y5426363D01*
G01X1848104Y5286155D02*
G01X3238297Y3895962D01*
G01X3378505Y3755754D02*
G01X3689497Y3444762D01*
G01X3901957Y3232302D02*
G01X3923958Y3210300D01*
G01X4023100Y3111158D02*
G01X4395561Y2738698D01*
G01X4544902Y2589356D02*
G01X4604246Y2530013D01*
G01X4686229Y2448030D02*
G01X5003546Y2130713D01*
G01X5156454Y1977805D02*
G01X5263896Y1870363D01*
G01X5404104Y1730155D02*
G01X5475016Y1659243D01*
G01X5672443Y1461816D02*
G01X5748268Y1385991D01*
G01X5856391Y1277868D02*
G01X5912875Y1221384D01*
G01X5996584Y1137675D02*
G01X6056167Y1078092D01*
G01X6477294Y656965D02*
G01X7086889Y47370D01*
G01X-90240Y7368183D02*
G01X1100200Y6177743D01*
G01X1670304Y5607639D02*
G01X1707896Y5570047D01*
G01X1848104Y5429839D02*
G01X3238297Y4039646D01*
G01X3378505Y3899438D02*
G01X3800305Y3477638D01*
G01X4094477Y3183466D02*
G01X4435358Y2842585D01*
G01X4648789Y2629154D02*
G01X5003546Y2274397D01*
G01X5156454Y2121489D02*
G01X5208247Y2069696D01*
G01X5404104Y1873839D02*
G01X5564125Y1713818D01*
G01X5727018Y1550925D02*
G01X5820110Y1457833D01*
G01X5928233Y1349710D02*
G01X5978712Y1299231D01*
G01X6128847Y1149096D02*
G01X6195873Y1082070D01*
G01X6481272Y796671D02*
G01X7230573Y47370D01*
G01X128953Y7292674D02*
G01X1172043Y6249585D01*
G01X1670304Y5751323D02*
G01X1702125Y5719502D01*
G01X1848104Y5573523D02*
G01X2168761Y5252866D01*
G01X2289512Y5132115D02*
G01X3238297Y4183330D01*
G01X3378505Y4043122D02*
G01X3468448Y3953179D01*
G01X3622980Y3798647D02*
G01X3963285Y3458343D01*
G01X4233043Y3188584D02*
G01X4530982Y2890645D01*
G01X4696849Y2724778D02*
G01X5003546Y2418081D01*
G01X5156454Y2265173D02*
G01X5249596Y2172031D01*
G01X5427625Y1994002D02*
G01X5891952Y1529675D01*
G01X6000075Y1421552D02*
G01X6132323Y1289304D01*
G01X6272531Y1149096D02*
G01X7374258Y47370D01*
G01X315998Y7249314D02*
G01X1243885Y6321427D01*
G01X1670304Y5895007D02*
G01X1796218Y5769093D01*
G01X1857493Y5707818D02*
G01X2170681Y5394630D01*
G01X2431276Y5134035D02*
G01X3238297Y4327014D01*
G01X3378505Y4186806D02*
G01X3481508Y4083803D01*
G01X3753604Y3811707D02*
G01X3903957Y3661354D01*
G01X4072148Y3493163D02*
G01X4099816Y3465495D01*
G01X4368505Y3196806D02*
G01X5003546Y2561765D01*
G01X5156454Y2408857D02*
G01X5364629Y2200682D01*
G01X5456276Y2109035D02*
G01X5516196Y2049115D01*
G01X5609509Y1955802D02*
G01X5830566Y1734745D01*
G01X6045454Y1519857D02*
G01X6276007Y1289304D01*
G01X6416215Y1149096D02*
G01X7517942Y47370D01*
G01X483116Y7225879D02*
G01X1315727Y6393269D01*
G01X1719669Y5989327D02*
G01X2231445Y5477550D01*
G01X2514197Y5194799D02*
G01X3238297Y4470698D01*
G01X3378505Y4330490D02*
G01X3608241Y4100755D01*
G01X3770555Y3938440D02*
G01X3981438Y3727557D01*
G01X4138352Y3570644D02*
G01X4239994Y3469001D01*
G01X4531933Y3177062D02*
G01X5003546Y2705449D01*
G01X5156454Y2552541D02*
G01X5545656Y2163340D01*
G01X5723734Y1985262D02*
G01X5849219Y1859776D01*
G01X6050776Y1658219D02*
G01X6419691Y1289304D01*
G01X6559899Y1149096D02*
G01X7661626Y47370D01*
G01X636042Y7216637D02*
G01X1387569Y6465111D01*
G01X1791511Y6061169D02*
G01X2332083Y5520596D01*
G01X2557243Y5295437D02*
G01X3238297Y4614383D01*
G01X3378505Y4474175D02*
G01X4429659Y3423020D01*
G01X4642215Y3210464D02*
G01X5003546Y2849133D01*
G01X5156454Y2696225D02*
G01X5648601Y2204078D01*
G01X5764472Y2088207D02*
G01X5933945Y1918734D01*
G01X6109734Y1742945D02*
G01X6563375Y1289304D01*
G01X6703583Y1149096D02*
G01X7805310Y47370D01*
G01X754894Y7241469D02*
G01X1459411Y6536953D01*
G01X1894267Y6102096D02*
G01X3238297Y4758067D01*
G01X3378505Y4617859D02*
G01X3550649Y4445714D01*
G01X3632914Y4363449D02*
G01X4520227Y3476137D01*
G01X4695332Y3301032D02*
G01X5003546Y2992817D01*
G01X5156454Y2839909D02*
G01X5208376Y2787987D01*
G01X5323593Y2672771D02*
G01X6707059Y1289304D01*
G01X6847267Y1149096D02*
G01X7948994Y47370D01*
G01X924016Y7216032D02*
G01X1531253Y6608795D01*
G01X2037952Y6102096D02*
G01X3238297Y4901751D01*
G01X3378505Y4761543D02*
G01X3614053Y4525995D01*
G01X3713195Y4426853D02*
G01X5003546Y3136502D01*
G01X5156454Y2983594D02*
G01X5248775Y2891272D01*
G01X5426878Y2713169D02*
G01X6374789Y1765259D01*
G01X6539468Y1600579D02*
G01X6850744Y1289304D01*
G01X6990952Y1149096D02*
G01X8092678Y47370D01*
G01X1051124Y7232607D02*
G01X1603123Y6680609D01*
G01X2181636Y6102096D02*
G01X2624627Y5659105D01*
G01X2814307Y5469425D02*
G01X3238297Y5045435D01*
G01X3378505Y4905227D02*
G01X3468448Y4815284D01*
G01X3545286Y4738445D02*
G01X3685895Y4597837D01*
G01X3785037Y4498695D02*
G01X5003546Y3280186D01*
G01X5156454Y3127278D02*
G01X5362562Y2921170D01*
G01X5456775Y2826956D02*
G01X5516713Y2767018D01*
G01X5607424Y2676307D02*
G01X6415293Y1868439D01*
G01X6642648Y1641084D02*
G01X6994428Y1289304D01*
G01X7134636Y1149096D02*
G01X7587474Y696257D01*
G01X7895457Y388274D02*
G01X8236362Y47370D01*
G01X1170841Y7256574D02*
G01X1727912Y6699504D01*
G01X2325320Y6102096D02*
G01X2686940Y5740476D01*
G01X2941376Y5486040D02*
G01X3183313Y5244103D01*
G01X3378505Y5048911D02*
G01X3468448Y4958968D01*
G01X3688971Y4738445D02*
G01X3757737Y4669679D01*
G01X3856879Y4570537D02*
G01X4419346Y4008070D01*
G01X5156454Y3270962D02*
G01X5544911Y2882504D01*
G01X5722910Y2704506D02*
G01X6433947Y1993469D01*
G01X6694315Y1733101D02*
G01X7138112Y1289304D01*
G01X7278320Y1149096D02*
G01X7597728Y829688D01*
G01X8028888Y398528D02*
G01X8380046Y47370D01*
G01X1284092Y7287008D02*
G01X1871596Y6699504D01*
G01X2469004Y6102096D02*
G01X2813465Y5757635D01*
G01X3091914Y5479186D02*
G01X3206052Y5365048D01*
G01X3390254Y5180846D02*
G01X3530547Y5040553D01*
G01X3770555Y4800545D02*
G01X3829579Y4741521D01*
G01X3928721Y4642379D02*
G01X4419346Y4151754D01*
G01X4572254Y3998846D02*
G01X5646913Y2924187D01*
G01X5764593Y2806507D02*
G01X5836842Y2734258D01*
G01X5909258Y2661842D02*
G01X6450319Y2120781D01*
G01X6637655Y1933445D02*
G01X7271279Y1299821D01*
G01X7370421Y1200679D02*
G01X7642428Y928671D01*
G01X8127871Y443228D02*
G01X8523730Y47370D01*
G01X1391553Y7323231D02*
G01X2015280Y6699504D01*
G01X2612688Y6102096D02*
G01X2962712Y5752072D01*
G01X3250097Y5464687D02*
G01X3300758Y5414026D01*
G01X3439232Y5275552D02*
G01X3674231Y5040553D01*
G01X3770555Y4944229D02*
G01X3901421Y4813363D01*
G01X4000563Y4714221D02*
G01X4419346Y4295438D01*
G01X4572254Y4142530D02*
G01X4677654Y4037130D01*
G01X4852638Y3862146D02*
G01X5845211Y2869573D01*
G01X6044573Y2670211D02*
G01X6520570Y2194214D01*
G01X6664614Y2050170D02*
G01X7343121Y1371663D01*
G01X7442263Y1272521D02*
G01X7709949Y1004835D01*
G01X8204035Y510749D02*
G01X8497648Y217136D01*
G01X8573737Y141047D02*
G01X8667414Y47370D01*
G01X1493735Y7364733D02*
G01X2158964Y6699504D01*
G01X2756372Y6102096D02*
G01X3155194Y5703274D01*
G01X3366477Y5491991D02*
G01X3973263Y4885205D01*
G01X4072405Y4786063D02*
G01X4419346Y4439122D01*
G01X4572254Y4286214D02*
G01X4729623Y4128845D01*
G01X4984760Y3873708D02*
G01X5018850Y3839618D01*
G01X5058815Y3799653D02*
G01X5925966Y2932502D01*
G01X6107502Y2750966D02*
G01X6593060Y2265408D01*
G01X6775922Y2082546D02*
G01X7414963Y1443505D01*
G01X7514105Y1344363D02*
G01X7799000Y1059468D01*
G01X8258668Y599800D02*
G01X8497648Y360820D01*
G01X8717421Y141047D02*
G01X8811099Y47370D01*
G01X1591025Y7411127D02*
G01X2302648Y6699504D01*
G01X2900056Y6102096D02*
G01X3241771Y5760381D01*
G01X3539544Y5462609D02*
G01X4045105Y4957047D01*
G01X4144247Y4857905D02*
G01X4419346Y4582806D01*
G01X4572254Y4429898D02*
G01X4684441Y4317711D01*
G01X5203505Y3798647D02*
G01X5441288Y3560864D01*
G01X5602606Y3399546D02*
G01X6715898Y2286254D01*
G01X6930210Y2071942D02*
G01X7486805Y1515347D01*
G01X7585947Y1416205D02*
G01X7915487Y1086665D01*
G01X8285865Y716287D02*
G01X8558997Y443155D01*
G01X8799755Y202397D02*
G01X8954783Y47369D01*
G01X1683719Y7462117D02*
G01X2446332Y6699504D01*
G01X3043740Y6102096D02*
G01X3424711Y5721126D01*
G01X3638326Y5507511D02*
G01X4116947Y5028889D01*
G01X4216089Y4929747D02*
G01X4419346Y4726490D01*
G01X4572254Y4573582D02*
G01X4691206Y4454631D01*
G01X5315950Y3829886D02*
G01X5502305Y3643532D01*
G01X5742012Y3403824D02*
G01X6783553Y2362284D01*
G01X7000115Y2145721D02*
G01X7375010Y1770826D01*
G01X7545034Y1600803D02*
G01X7558647Y1587189D01*
G01X7657789Y1488047D02*
G01X8098737Y1047099D01*
G01X8246299Y899537D02*
G01X8702681Y443155D01*
G01X8799755Y346081D02*
G01X9098467Y47369D01*
G01X1772041Y7517479D02*
G01X2590016Y6699504D01*
G01X3187424Y6102096D02*
G01X3525167Y5764354D01*
G01X3822376Y5467144D02*
G01X3980014Y5309507D01*
G01X4134711Y5154810D02*
G01X4188789Y5100731D01*
G01X4287931Y5001589D02*
G01X4448141Y4841379D01*
G01X4572254Y4717266D02*
G01X4694829Y4594691D01*
G01X5070099Y4219422D02*
G01X5188766Y4100755D01*
G01X5319952Y3969568D02*
G01X5449869Y3839651D01*
G01X5823077Y3466444D02*
G01X6783553Y2505968D01*
G01X6987261Y2302260D02*
G01X7033539Y2255981D01*
G01X7206974Y2082546D02*
G01X7418049Y1871471D01*
G01X7729631Y1559889D02*
G01X9242151Y47369D01*
G01X1856160Y7577044D02*
G01X2733700Y6699504D01*
G01X3305673Y6127531D02*
G01X3696852Y5736353D01*
G01X3907553Y5525652D02*
G01X4038901Y5394303D01*
G01X4219508Y5213697D02*
G01X4260631Y5172573D01*
G01X4402407Y5030797D02*
G01X4675746Y4757458D01*
G01X5025957Y4407247D02*
G01X5450055Y3983149D01*
G01X5513350Y3919855D02*
G01X5525064Y3908141D01*
G01X5766348Y3666857D02*
G01X6783553Y2649652D01*
G01X6987261Y2445944D02*
G01X7033539Y2399665D01*
G01X7791133Y1642071D02*
G01X9385835Y47369D01*
G01X1936194Y7640694D02*
G01X2877385Y6699504D01*
G01X3377515Y6199373D02*
G01X3815667Y5761222D01*
G01X4101036Y5475852D02*
G01X4199035Y5377854D01*
G01X4203058Y5373831D02*
G01X4328856Y5248033D01*
G01X4507039Y5069850D02*
G01X4680397Y4896491D01*
G01X5076424Y4500465D02*
G01X5462140Y4114749D01*
G01X6987261Y2589628D02*
G01X7033539Y2543349D01*
G01X7791704Y1785185D02*
G01X9529519Y47369D01*
G01X2012221Y7708351D02*
G01X3021069Y6699504D01*
G01X3449357Y6271215D02*
G01X3689096Y6031477D01*
G01X4252927Y5467646D02*
G01X4440982Y5279590D01*
G01X4538596Y5181977D02*
G01X4794319Y4926254D01*
G01X5070972Y4649601D02*
G01X5438141Y4282432D01*
G01X6987261Y2733312D02*
G01X7033539Y2687033D01*
G01X7791704Y1928869D02*
G01X8497648Y1222925D01*
G01X8639727Y1080845D02*
G01X9673203Y47369D01*
G01X2084280Y7779977D02*
G01X3104557Y6759699D01*
G01X3521199Y6343057D02*
G01X3689096Y6175161D01*
G01X3829304Y6034953D02*
G01X3977553Y5886704D01*
G01X4376481Y5487776D02*
G01X4938003Y4926254D01*
G01X5125812Y4738445D02*
G01X5477570Y4386687D01*
G01X7791704Y2072553D02*
G01X8505366Y1358890D01*
G01X8775693Y1088564D02*
G01X9816887Y47369D01*
G01X2152371Y7855570D02*
G01X3176399Y6831541D01*
G01X3593041Y6414899D02*
G01X3689096Y6318845D01*
G01X3829304Y6178637D02*
G01X4121237Y5886704D01*
G01X4545594Y5462347D02*
G01X4654296Y5353645D01*
G01X4767582Y5240359D02*
G01X5017848Y4990093D01*
G01X5269492Y4738449D02*
G01X5439567Y4568373D01*
G01X7791704Y2216237D02*
G01X8546848Y1461093D01*
G01X8799755Y1208186D02*
G01X9960571Y47369D01*
G01X2216461Y7935164D02*
G01X3248241Y6903383D01*
G01X3664883Y6486741D02*
G01X3680806Y6470819D01*
G01X3829304Y6322321D02*
G01X4264921Y5886704D01*
G01X4649142Y5502483D02*
G01X4654296Y5497329D01*
G01X4794504Y5357121D02*
G01X5009984Y5141641D01*
G01X5319952Y4831673D02*
G01X5496031Y4655594D01*
G01X7791704Y2359921D02*
G01X8259644Y1891981D01*
G01X8422575Y1729050D02*
G01X8585191Y1566434D01*
G01X8750556Y1401069D02*
G01X8777724Y1373901D01*
G01X8790704Y1360921D02*
G01X10104255Y47369D01*
G01X2276477Y8018832D02*
G01X3320084Y6975226D01*
G01X3736726Y6558584D02*
G01X3765675Y6529634D01*
G01X3840497Y6454812D02*
G01X4156546Y6138763D01*
G01X4208363Y6086946D02*
G01X4408605Y5886704D01*
G01X4794504Y5500805D02*
G01X5048040Y5247270D01*
G01X5226264Y5069045D02*
G01X5254756Y5040553D01*
G01X5319952Y4975357D02*
G01X5446812Y4848497D01*
G01X7461504Y2833805D02*
G01X8306176Y1989133D01*
G01X8519727Y1775582D02*
G01X8657033Y1638276D01*
G01X8801076Y1494233D02*
G01X10047045Y248264D01*
G01X10154262Y141047D02*
G01X10247940Y47369D01*
G01X2311654Y8127339D02*
G01X3391926Y7047068D01*
G01X3808568Y6630426D02*
G01X4156546Y6282447D01*
G01X5258978Y5180015D02*
G01X5517708Y4921285D01*
G01X5759319Y4679674D02*
G01X5782475Y4656518D01*
G01X7461504Y2977489D02*
G01X8408355Y2030638D01*
G01X8561232Y1877761D02*
G01X8623355Y1815639D01*
G01X8862142Y1576851D02*
G01X10047045Y391948D01*
G01X10297946Y141047D02*
G01X10391624Y47369D01*
G01X2311654Y8271023D02*
G01X3463768Y7118910D01*
G01X3880410Y6702268D02*
G01X4156546Y6426131D01*
G01X4428654Y6154023D02*
G01X4430329Y6152349D01*
G01X4475949Y6106729D02*
G01X5568696Y5013981D01*
G01X5830557Y4752120D02*
G01X5854317Y4728360D01*
G01X7461504Y3121173D02*
G01X8628719Y1953958D01*
G01X8864854Y1717823D02*
G01X10139522Y443155D01*
G01X10349152Y233525D02*
G01X10535308Y47369D01*
G01X2311654Y8414707D02*
G01X2488946Y8237415D01*
G01X2698209Y8028153D02*
G01X3535610Y7190752D01*
G01X3952252Y6774110D02*
G01X4156794Y6569567D01*
G01X4618725Y6107637D02*
G01X4908296Y5818065D01*
G01X5446124Y5280237D02*
G01X5568696Y5157665D01*
G01X5708904Y5017457D02*
G01X5926159Y4800202D01*
G01X7461504Y3264857D02*
G01X8705835Y2020526D01*
G01X8901132Y1825229D02*
G01X10283207Y443155D01*
G01X10418674Y307688D02*
G01X10678992Y47369D01*
G01X2311654Y8558391D02*
G01X2443143Y8426903D01*
G01X2841893Y8028153D02*
G01X3607452Y7262594D01*
G01X4031349Y6838696D02*
G01X4156546Y6713499D01*
G01X4781793Y6088252D02*
G01X4908296Y5961749D01*
G01X5150104Y5719941D02*
G01X5568696Y5301349D01*
G01X5708904Y5161141D02*
G01X5998001Y4872044D01*
G01X7461504Y3408541D02*
G01X10320591Y549455D01*
G01X10562277Y307768D02*
G01X10822676Y47369D01*
G01X2313247Y8700482D02*
G01X2506228Y8507501D01*
G01X2676703Y8337027D02*
G01X2682579Y8331150D01*
G01X2985577Y8028153D02*
G01X3679294Y7334436D01*
G01X4891743Y6121987D02*
G01X4908296Y6105434D01*
G01X5150104Y5863626D02*
G01X5568696Y5445034D01*
G01X5708904Y5304826D02*
G01X6069843Y4943886D01*
G01X7474136Y3539594D02*
G01X7571012Y3442717D01*
G01X7655021Y3358708D02*
G01X10289693Y724037D01*
G01X10654864Y358866D02*
G01X10755937Y257792D01*
G01X2350649Y8806764D02*
G01X2454078Y8703335D01*
G01X2624536Y8532877D02*
G01X2673188Y8484226D01*
G01X2758027Y8399387D02*
G01X2763024Y8394390D01*
G01X2916189Y8241225D02*
G01X2976353Y8181061D01*
G01X3169975Y7987438D02*
G01X3753826Y7403588D01*
G01X5150104Y6007310D02*
G01X5568696Y5588718D01*
G01X5708904Y5448510D02*
G01X6121146Y5036268D01*
G01X7545978Y3611436D02*
G01X7568923Y3588491D01*
G01X7815566Y3341847D02*
G01X9513798Y1643615D01*
G01X9591011Y1566402D02*
G01X10336438Y820976D01*
G01X10690971Y466443D02*
G01X10784130Y373284D01*
G01X11041243Y116171D02*
G01X11110044Y47369D01*
G01X2419316Y8881782D02*
G01X2534652Y8766446D01*
G01X2687646Y8613451D02*
G01X2698557Y8602541D01*
G01X2876342Y8424756D02*
G01X3112870Y8188228D01*
G01X3284021Y8017076D02*
G01X3890394Y7410704D01*
G01X5048504Y6252594D02*
G01X5568696Y5732402D01*
G01X5708904Y5592194D02*
G01X5772790Y5528308D01*
G01X5959105Y5341993D02*
G01X6121146Y5179952D01*
G01X7611371Y3689727D02*
G01X7635064Y3666034D01*
G01X7946352Y3354746D02*
G01X9521103Y1779995D01*
G01X9727391Y1573707D02*
G01X10047045Y1254053D01*
G01X10220253Y1080845D02*
G01X10294835Y1006263D01*
G01X10668929Y632168D02*
G01X10869391Y431707D01*
G01X11058045Y243053D02*
G01X11253728Y47369D01*
G01X2462828Y8981954D02*
G01X2798613Y8646168D01*
G01X2919970Y8524812D02*
G01X3079793Y8364989D01*
G01X3210795Y8233987D02*
G01X3220864Y8223918D01*
G01X3319712Y8125070D02*
G01X4034078Y7410704D01*
G01X5048504Y6396278D02*
G01X5568696Y5876086D01*
G01X5708904Y5735878D02*
G01X5832790Y5611992D01*
G01X6042789Y5401993D02*
G01X6121146Y5323636D01*
G01X7613904Y3830878D02*
G01X7750827Y3693955D01*
G01X8041435Y3403347D02*
G01X9598804Y1845978D01*
G01X9793374Y1651408D02*
G01X10070155Y1374627D01*
G01X10682273Y762509D02*
G01X11397412Y47369D01*
G01X2542384Y9046082D02*
G01X3133190Y8455276D01*
G01X3301082Y8287384D02*
G01X4177762Y7410704D01*
G01X4918223Y6670243D02*
G01X4920878Y6667588D01*
G01X5047198Y6541268D02*
G01X5580918Y6007548D01*
G01X5708904Y5879562D02*
G01X5954414Y5634052D01*
G01X6064849Y5523617D02*
G01X6121146Y5467320D01*
G01X7613904Y3974562D02*
G01X7895146Y3693320D01*
G01X8185119Y3403347D02*
G01X8656368Y2932098D01*
G01X8861898Y2726568D02*
G01X9503934Y2084532D01*
G01X9681916Y1906550D02*
G01X10205513Y1382953D01*
G01X10680139Y908327D02*
G01X11541097Y47369D01*
G01X2686068Y9046082D02*
G01X4321446Y7410704D01*
G01X4893454Y6838696D02*
G01X5651906Y6080244D01*
G01X5751048Y5981102D02*
G01X6121146Y5611004D01*
G01X7613904Y4118246D02*
G01X8099695Y3632455D01*
G01X8328803Y3403347D02*
G01X8643870Y3088280D01*
G01X9018080Y2714070D02*
G01X9558722Y2173428D01*
G01X9770812Y1961338D02*
G01X10361896Y1370254D01*
G01X10660006Y1072144D02*
G01X11684781Y47369D01*
G01X2829752Y9046082D02*
G01X3583833Y8292001D01*
G01X3642889Y8232945D02*
G01X4465130Y7410704D01*
G01X5037138Y6838696D02*
G01X5723748Y6152086D01*
G01X5822890Y6052944D02*
G01X6121146Y5754688D01*
G01X7613904Y4261930D02*
G01X8243379Y3632455D01*
G01X8472487Y3403347D02*
G01X8681157Y3194677D01*
G01X9124478Y2751356D02*
G01X9671424Y2204410D01*
G01X9801794Y2074040D02*
G01X10505580Y1370254D01*
G01X10691254Y1184580D02*
G01X10919429Y956405D01*
G01X11033013Y842821D02*
G01X11828465Y47369D01*
G01X2973436Y9046082D02*
G01X3541623Y8477895D01*
G01X3740820Y8278699D02*
G01X4608814Y7410704D01*
G01X5180822Y6838696D02*
G01X5265181Y6754338D01*
G01X5408138Y6611381D02*
G01X5767225Y6252293D01*
G01X5923096Y6096422D02*
G01X6121146Y5898372D01*
G01X7613904Y4405614D02*
G01X8387063Y3632455D01*
G01X8616171Y3403347D02*
G01X8744582Y3274937D01*
G01X9204737Y2814781D02*
G01X10650266Y1369252D01*
G01X10690252Y1329267D02*
G01X10910947Y1108571D01*
G01X11166306Y853212D02*
G01X11972263Y47256D01*
G01X3117121Y9046082D02*
G01X3632715Y8530487D01*
G01X4111656Y8051546D02*
G01X4752498Y7410704D01*
G01X5511042Y6652161D02*
G01X5810198Y6353004D01*
G01X6023807Y6139395D02*
G01X6121146Y6042056D01*
G01X7613904Y4549298D02*
G01X8530747Y3632455D01*
G01X8759855Y3403347D02*
G01X8831058Y3332144D01*
G01X9261944Y2901258D02*
G01X10496327Y1666875D01*
G01X10604871Y1558331D02*
G01X10927750Y1235453D01*
G01X11239967Y923235D02*
G01X12109052Y54150D01*
G01X3260805Y9046082D02*
G01X3725797Y8581090D01*
G01X4255340Y8051546D02*
G01X4896182Y7410704D01*
G01X5555159Y6751728D02*
G01X5908733Y6398154D01*
G01X6068957Y6237929D02*
G01X6121146Y6185740D01*
G01X7613904Y4692982D02*
G01X8674431Y3632455D01*
G01X8903539Y3403347D02*
G01X8946375Y3360511D01*
G01X9290312Y3016575D02*
G01X10517548Y1789338D01*
G01X10727334Y1579553D02*
G01X10995864Y1311022D01*
G01X11263055Y1043831D02*
G01X12055934Y250952D01*
G01X3404489Y9046082D02*
G01X3807098Y8643472D01*
G01X4399025Y8051546D02*
G01X5039867Y7410704D01*
G01X5611875Y6838696D02*
G01X5649631Y6800939D01*
G01X5814733Y6635837D02*
G01X6121146Y6329425D01*
G01X7613904Y4836667D02*
G01X8681988Y3768583D01*
G01X8772383Y3678188D02*
G01X8818115Y3632455D01*
G01X9047223Y3403347D02*
G01X9141115Y3309456D01*
G01X9239256Y3211315D02*
G01X10600811Y1849759D01*
G01X10787755Y1662815D02*
G01X11116636Y1333935D01*
G01X11260543Y1190028D02*
G01X11380949Y1069622D01*
G01X11608524Y842046D02*
G01X12081332Y369239D01*
G01X12338850Y111720D02*
G01X12341002Y109568D01*
G01X3548173Y9046082D02*
G01X3908826Y8685429D01*
G01X4071413Y8522842D02*
G01X4269151Y8325104D01*
G01X4542709Y8051546D02*
G01X5183551Y7410704D01*
G01X5884546Y6709709D02*
G01X6121146Y6473109D01*
G01X7616698Y4977556D02*
G01X8753999Y3840256D01*
G01X8905159Y3689096D02*
G01X8961799Y3632455D01*
G01X9190907Y3403347D02*
G01X10497530Y2096724D01*
G01X10684708Y1909546D02*
G01X11387235Y1207019D01*
G01X11694195Y900060D02*
G01X12164031Y430224D01*
G01X12358043Y236212D02*
G01X12441557Y152697D01*
G01X3691857Y9046082D02*
G01X4000848Y8737090D01*
G01X4207261Y8530678D02*
G01X4412835Y8325104D01*
G01X4686393Y8051546D02*
G01X5327235Y7410704D01*
G01X5899243Y6838696D02*
G01X6121146Y6616793D01*
G01X7688540Y5049398D02*
G01X8908635Y3829304D01*
G01X9048843Y3689096D02*
G01X9105483Y3632455D01*
G01X9334591Y3403347D02*
G01X10558110Y2179829D01*
G01X10767813Y1970126D02*
G01X11442449Y1295490D01*
G01X11732973Y1004966D02*
G01X12533662Y204277D01*
G01X3835541Y9046082D02*
G01X4078717Y8802906D01*
G01X4273076Y8608547D02*
G01X4556519Y8325104D01*
G01X4830077Y8051546D02*
G01X5470919Y7410704D01*
G01X6042927Y6838696D02*
G01X6144511Y6737112D01*
G01X7760382Y5121240D02*
G01X9052319Y3829304D01*
G01X9192527Y3689096D02*
G01X9249168Y3632455D01*
G01X9478276Y3403347D02*
G01X10680893Y2200729D01*
G01X10788713Y2092910D02*
G01X11442449Y1439174D01*
G01X11733057Y1148566D02*
G01X11850950Y1030673D01*
G01X12046231Y835392D02*
G01X12618033Y263590D01*
G01X3979225Y9046082D02*
G01X4700203Y8325104D01*
G01X4973761Y8051546D02*
G01X5265734Y7759573D01*
G01X5397373Y7627934D02*
G01X5614603Y7410704D01*
G01X6187296Y6838011D02*
G01X6216032Y6809275D01*
G01X7832224Y5193082D02*
G01X9196003Y3829304D01*
G01X9336211Y3689096D02*
G01X9392852Y3632455D01*
G01X9621960Y3403347D02*
G01X11309775Y1715532D01*
G01X11671557Y1353750D02*
G01X11851465Y1173842D01*
G01X12145301Y880006D02*
G01X12695074Y330233D01*
G01X4122909Y9046082D02*
G01X4843887Y8325104D01*
G01X5505724Y7663267D02*
G01X5649171Y7519820D01*
G01X6100667Y7068324D02*
G01X6113887Y7055104D01*
G01X6257764Y6911227D02*
G01X6287874Y6881117D01*
G01X7904067Y5264924D02*
G01X7951897Y5217094D01*
G01X8067040Y5101951D02*
G01X9339687Y3829304D01*
G01X9479895Y3689096D02*
G01X9536536Y3632455D01*
G01X9765644Y3403347D02*
G01X11369407Y1799584D01*
G01X11671557Y1497434D02*
G01X11893653Y1275338D01*
G01X12198481Y970510D02*
G01X12764943Y404048D01*
G01X4266593Y9046082D02*
G01X4568713Y8743963D01*
G01X4700968Y8611707D02*
G01X4987571Y8325104D01*
G01X5127779Y8184896D02*
G01X5395944Y7916732D01*
G01X5554532Y7758144D02*
G01X5722352Y7590324D01*
G01X6172509Y7140167D02*
G01X6251124Y7061551D01*
G01X6299551Y7013124D02*
G01X6359716Y6952959D01*
G01X7975909Y5336767D02*
G01X8031739Y5280936D01*
G01X8130882Y5181794D02*
G01X9483371Y3829304D01*
G01X9623579Y3689096D02*
G01X9680220Y3632455D01*
G01X9909328Y3403347D02*
G01X11490315Y1822360D01*
G01X11602364Y1710312D02*
G01X11982061Y1330614D01*
G01X12203058Y1109617D02*
G01X12396307Y916368D01*
G01X12528563Y784113D02*
G01X12827580Y485095D01*
G01X4410277Y9046082D02*
G01X4618371Y8837988D01*
G01X4794994Y8661365D02*
G01X5131255Y8325104D01*
G01X5271463Y8184896D02*
G01X5825511Y7630848D01*
G01X6244351Y7212009D02*
G01X6431558Y7024801D01*
G01X8052763Y5403596D02*
G01X8103582Y5352778D01*
G01X8202724Y5253636D02*
G01X9627055Y3829304D01*
G01X9767263Y3689096D02*
G01X9823904Y3632455D01*
G01X10053012Y3403347D02*
G01X11309291Y2147068D01*
G01X11417064Y2039295D02*
G01X11792346Y1664013D01*
G01X11951013Y1505346D02*
G01X12445965Y1010394D01*
G01X12622588Y833771D02*
G01X12882698Y573661D01*
G01X4553961Y9046082D02*
G01X4748484Y8851559D01*
G01X4808565Y8791478D02*
G01X5274939Y8325104D01*
G01X5766100Y7833944D02*
G01X5897354Y7702690D01*
G01X6316193Y7283851D02*
G01X6433947Y7166096D01*
G01X8317773Y5282271D02*
G01X9770739Y3829304D01*
G01X9910947Y3689096D02*
G01X9967588Y3632455D01*
G01X10196696Y3403347D02*
G01X11330171Y2269872D01*
G01X12093656Y1506387D02*
G01X12576078Y1023965D01*
G01X12636159Y963884D02*
G01X12929733Y670310D01*
G01X4697646Y9046082D02*
G01X5418623Y8325104D01*
G01X5914431Y7829296D02*
G01X5969196Y7774532D01*
G01X8461457Y5282271D02*
G01X9914423Y3829304D01*
G01X10054631Y3689096D02*
G01X10111272Y3632455D01*
G01X10340380Y3403347D02*
G01X11413265Y2330462D01*
G01X12134454Y1609274D02*
G01X12967739Y775988D01*
G01X4841330Y9046082D02*
G01X5917908Y7969504D01*
G01X8615464Y5271947D02*
G01X10058108Y3829304D01*
G01X10180874Y3706538D02*
G01X10254956Y3632455D01*
G01X10484064Y3403347D02*
G01X12039958Y1847454D01*
G01X12134454Y1752958D02*
G01X12995168Y892244D01*
G01X4985014Y9046082D02*
G01X5288634Y8742462D01*
G01X5419456Y8611640D02*
G01X5814160Y8216935D01*
G01X5996135Y8034960D02*
G01X6061592Y7969504D01*
G01X8705875Y5325220D02*
G01X10153677Y3877419D01*
G01X10252819Y3778277D02*
G01X10398640Y3632455D01*
G01X12010995Y2020100D02*
G01X12396240Y1634856D01*
G01X12527062Y1504034D02*
G01X13006500Y1024595D01*
G01X5128698Y9046082D02*
G01X5337472Y8837308D01*
G01X5514302Y8660477D02*
G01X5786573Y8388206D01*
G01X6167406Y8007373D02*
G01X6205276Y7969504D01*
G01X8771184Y5403596D02*
G01X10225519Y3949261D01*
G01X10324661Y3850119D02*
G01X10542324Y3632455D01*
G01X12097089Y2077691D02*
G01X12445077Y1729702D01*
G01X12621908Y1552872D02*
G01X13006500Y1168279D01*
G01X5272382Y9046082D02*
G01X5448158Y8870306D01*
G01X5547300Y8771164D02*
G01X5816634Y8501829D01*
G01X6281029Y8037434D02*
G01X6348960Y7969504D01*
G01X8914868Y5403596D02*
G01X9956546Y4361918D01*
G01X10095371Y4223093D02*
G01X10297361Y4021103D01*
G01X10396503Y3921961D02*
G01X11341903Y2976560D01*
G01X11603356Y2715108D02*
G01X11963011Y2355452D01*
G01X12134453Y2184010D02*
G01X12573188Y1745276D01*
G01X12637481Y1680982D02*
G01X13006500Y1311964D01*
G01X5416066Y9046082D02*
G01X5520000Y8942148D01*
G01X5619142Y8843006D02*
G01X5873186Y8588962D01*
G01X6368162Y8093986D02*
G01X6492644Y7969504D01*
G01X9058552Y5403596D02*
G01X9956546Y4505602D01*
G01X10159144Y4303004D02*
G01X10369203Y4092945D01*
G01X10468345Y3993803D02*
G01X11346568Y3115580D01*
G01X11742375Y2719773D02*
G01X12395297Y2066850D01*
G01X12531650Y1930497D02*
G01X13006500Y1455648D01*
G01X5559750Y9046082D02*
G01X5591842Y9013990D01*
G01X5690984Y8914848D02*
G01X5951140Y8654692D01*
G01X6433892Y8171940D02*
G01X6636328Y7969504D01*
G01X9202236Y5403596D02*
G01X9956546Y4649286D01*
G01X10160254Y4445578D02*
G01X10441045Y4164787D01*
G01X10540187Y4065645D02*
G01X11390659Y3215173D01*
G01X11841968Y2763864D02*
G01X12446295Y2159537D01*
G01X12624337Y1981495D02*
G01X13006500Y1599332D01*
G01X5802620Y8946896D02*
G01X6052339Y8697177D01*
G01X6476377Y8273139D02*
G01X6780012Y7969504D01*
G01X9345920Y5403596D02*
G01X9957881Y4791635D01*
G01X10160254Y4589262D02*
G01X10512887Y4236629D01*
G01X10612029Y4137487D02*
G01X11459351Y3290165D01*
G01X11916960Y2832556D02*
G01X12400601Y2348915D01*
G01X12559715Y2189801D02*
G01X12577511Y2172005D01*
G01X12636805Y2112711D02*
G01X13006500Y1743016D01*
G01X5946304Y8946896D02*
G01X6190190Y8703010D01*
G01X6482210Y8410990D02*
G01X6923696Y7969504D01*
G01X9489604Y5403596D02*
G01X10022633Y4870567D01*
G01X10160254Y4732946D02*
G01X10584729Y4308471D01*
G01X10683871Y4209329D02*
G01X11551526Y3341674D01*
G01X11968469Y2924731D02*
G01X12467096Y2426104D01*
G01X12636904Y2256296D02*
G01X13006500Y1886700D01*
G01X6089988Y8946896D02*
G01X7067380Y7969504D01*
G01X9633288Y5403596D02*
G01X10656571Y4380313D01*
G01X10755713Y4281171D02*
G01X11676126Y3360758D01*
G01X11987553Y3049331D02*
G01X13006500Y2030384D01*
G01X6233672Y8946896D02*
G01X7211064Y7969504D01*
G01X9776972Y5403596D02*
G01X10001662Y5178907D01*
G01X10222709Y4957860D02*
G01X10728413Y4452155D01*
G01X10827555Y4353013D02*
G01X11484526Y3696042D01*
G01X11658842Y3521726D02*
G01X13006500Y2174068D01*
G01X6377356Y8946896D02*
G01X7354748Y7969504D01*
G01X9932104Y5392149D02*
G01X9994079Y5330174D01*
G01X10373976Y4950277D02*
G01X10800255Y4523997D01*
G01X10899397Y4424855D02*
G01X11507243Y3817010D01*
G01X11779810Y3544443D02*
G01X13006500Y2317752D01*
G01X6521041Y8946896D02*
G01X7498433Y7969504D01*
G01X10011176Y5456761D02*
G01X10033107Y5434829D01*
G01X10478631Y4989306D02*
G01X10872097Y4595839D01*
G01X10971239Y4496697D02*
G01X11576705Y3891231D01*
G01X11854031Y3613906D02*
G01X13006500Y2461436D01*
G01X6664725Y8946896D02*
G01X7642117Y7969504D01*
G01X10557587Y5054034D02*
G01X10943939Y4667681D01*
G01X11043081Y4568539D02*
G01X11689440Y3922180D01*
G01X11884980Y3726640D02*
G01X13006500Y2605120D01*
G01X6808409Y8946896D02*
G01X7785801Y7969504D01*
G01X10613422Y5141882D02*
G01X11015781Y4739523D01*
G01X11114923Y4640381D02*
G01X13006500Y2748804D01*
G01X6952093Y8946896D02*
G01X7588142Y8310847D01*
G01X7890045Y8008944D02*
G01X7929485Y7969504D01*
G01X10639665Y5259324D02*
G01X11087623Y4811365D01*
G01X11186765Y4712223D02*
G01X13006500Y2892489D01*
G01X7095777Y8946896D02*
G01X7596720Y8445953D01*
G01X8025152Y8017521D02*
G01X8073169Y7969504D01*
G01X10567047Y5475626D02*
G01X11159465Y4883208D01*
G01X11258608Y4784065D02*
G01X13006500Y3036173D01*
G01X7239461Y8946896D02*
G01X7640563Y8545794D01*
G01X8124992Y8061365D02*
G01X8216853Y7969504D01*
G01X10693861Y5492496D02*
G01X11231308Y4955050D01*
G01X11330450Y4855908D02*
G01X13006500Y3179857D01*
G01X7383145Y8946896D02*
G01X7707385Y8622656D01*
G01X8201854Y8128187D02*
G01X8344050Y7985992D01*
G01X10837545Y5492496D02*
G01X11332337Y4997704D01*
G01X11472545Y4857496D02*
G01X13006500Y3323541D01*
G01X7526829Y8946896D02*
G01X7795682Y8678043D01*
G01X8257241Y8216484D02*
G01X8415892Y8057834D01*
G01X8515034Y7958692D02*
G01X8936746Y7536979D01*
G01X10813734Y5659992D02*
G01X10828892Y5644834D01*
G01X10928034Y5545692D02*
G01X11476021Y4997704D01*
G01X11616229Y4857496D02*
G01X13006500Y3467225D01*
G01X7670513Y8946896D02*
G01X7911031Y8706378D01*
G01X8285577Y8331833D02*
G01X8487734Y8129676D01*
G01X8586876Y8030534D02*
G01X8943259Y7674151D01*
G01X10885576Y5731834D02*
G01X10897206Y5720204D01*
G01X11003404Y5614006D02*
G01X11619705Y4997704D01*
G01X11759913Y4857496D02*
G01X13006500Y3610909D01*
G01X7814197Y8946896D02*
G01X8089150Y8671944D01*
G01X8251142Y8509952D02*
G01X8559576Y8201518D01*
G01X8658718Y8102376D02*
G01X9060840Y7700254D01*
G01X10957418Y5803676D02*
G01X10992307Y5768787D01*
G01X11051987Y5709107D02*
G01X11489047Y5272046D01*
G01X11634846Y5126247D02*
G01X11763389Y4997704D01*
G01X11903597Y4857496D02*
G01X13006500Y3754593D01*
G01X7957882Y8946896D02*
G01X8489696Y8415082D01*
G01X8611363Y8293415D02*
G01X8631418Y8273360D01*
G01X8730560Y8174218D02*
G01X8848418Y8056360D01*
G01X8994153Y7910624D02*
G01X9236276Y7668501D01*
G01X11029260Y5875518D02*
G01X11500784Y5403993D01*
G01X11766793Y5137984D02*
G01X11907074Y4997704D01*
G01X12047282Y4857496D02*
G01X13006500Y3898277D01*
G01X8629904Y8418558D02*
G01X8706353Y8342108D01*
G01X8840172Y8208289D02*
G01X8911875Y8136586D01*
G01X9074380Y7974082D02*
G01X9351653Y7696808D01*
G01X11130636Y5917826D02*
G01X11350177Y5698284D01*
G01X11413284Y5635177D02*
G01X11565119Y5483342D01*
G01X11846142Y5202319D02*
G01X12043360Y5005102D01*
G01X12142502Y4905960D02*
G01X13006500Y4041961D01*
G01X8629904Y8562242D02*
G01X8843648Y8348497D01*
G01X9021458Y8170687D02*
G01X9509752Y7682394D01*
G01X11212994Y5979152D02*
G01X11400943Y5791202D01*
G01X11540900Y5651246D02*
G01X11670355Y5521790D01*
G01X11884590Y5307555D02*
G01X12115202Y5076944D01*
G01X12214344Y4977802D02*
G01X13006500Y4185645D01*
G01X8289748Y9046082D02*
G01X8939389Y8396441D01*
G01X9131884Y8203946D02*
G01X9431455Y7904375D01*
G01X9557381Y7778448D02*
G01X9711095Y7624735D01*
G01X11409335Y5926495D02*
G01X11557076Y5778754D01*
G01X11684584Y5651246D02*
G01X12187044Y5148786D01*
G01X12286186Y5049644D02*
G01X13006500Y4329329D01*
G01X8433432Y9046082D02*
G01X9122660Y8356854D01*
G01X9323714Y8155800D02*
G01X9481791Y7997723D01*
G01X9650730Y7828784D02*
G01X9727946Y7751568D01*
G01X11477525Y6001989D02*
G01X11488450Y5991064D01*
G01X11553664Y5925850D02*
G01X11700760Y5778754D01*
G01X11818888Y5660626D02*
G01X12258886Y5220628D01*
G01X12358028Y5121486D02*
G01X13006500Y4473014D01*
G01X8577116Y9046082D02*
G01X9253668Y8369530D01*
G01X9431936Y8191263D02*
G01X9687052Y7936146D01*
G01X9931654Y7691544D02*
G01X9977436Y7645762D01*
G01X11684362Y5938836D02*
G01X11801818Y5821380D01*
G01X11891980Y5731218D02*
G01X12330728Y5292470D01*
G01X12429870Y5193328D02*
G01X13006500Y4616698D01*
G01X8720800Y9046082D02*
G01X9361880Y8405003D01*
G01X9467408Y8299474D02*
G01X9755768Y8011114D01*
G01X9931654Y7835228D02*
G01X10067630Y7699252D01*
G01X11852398Y5914484D02*
G01X11873660Y5893222D01*
G01X11963822Y5803060D02*
G01X12402570Y5364312D01*
G01X12501712Y5265170D02*
G01X13006500Y4760382D01*
G01X8864484Y9046082D02*
G01X9962941Y7947625D01*
G01X10127631Y7782936D02*
G01X10175712Y7734854D01*
G01X12035664Y5874902D02*
G01X12474412Y5436154D01*
G01X12573554Y5337012D02*
G01X13006500Y4904066D01*
G01X9008168Y9046082D02*
G01X10036370Y8017880D01*
G01X12138179Y5916071D02*
G01X12546254Y5507996D01*
G01X12645396Y5408854D02*
G01X13006500Y5047750D01*
G01X9151852Y9046082D02*
G01X9938495Y8259439D01*
G01X10041833Y8156101D02*
G01X10191496Y8006438D01*
G01X10403510Y7794425D02*
G01X10515346Y7682588D01*
G01X12225078Y5972857D02*
G01X12618096Y5579838D01*
G01X12717238Y5480696D02*
G01X13006500Y5191434D01*
G01X9295537Y9046082D02*
G01X9972876Y8368742D01*
G01X10403510Y7938109D02*
G01X10566745Y7774873D01*
G01X10702889Y7638730D02*
G01X10724013Y7617605D01*
G01X12418205Y5923413D02*
G01X12689938Y5651680D01*
G01X12789080Y5552538D02*
G01X13006500Y5335118D01*
G01X9439221Y9046082D02*
G01X10080033Y8405270D01*
G01X10187664Y8297639D02*
G01X10207376Y8277927D01*
G01X10403510Y8081793D02*
G01X10638587Y7846715D01*
G01X10746710Y7738593D02*
G01X10795208Y7690095D01*
G01X12490695Y5994608D02*
G01X12519648Y5965655D01*
G01X12544255Y5941048D02*
G01X12761780Y5723522D01*
G01X12860922Y5624380D02*
G01X13006500Y5478802D01*
G01X9582905Y9046082D02*
G01X9891838Y8737149D01*
G01X10040347Y8588640D02*
G01X10252186Y8376800D01*
G01X10429806Y8199181D02*
G01X10682475Y7946512D01*
G01X10846506Y7782481D02*
G01X10989310Y7639677D01*
G01X12694277Y5934710D02*
G01X12833096Y5795891D01*
G01X12932764Y5696222D02*
G01X13006500Y5622486D01*
G01X9726589Y9046082D02*
G01X9951697Y8820974D01*
G01X10124172Y8648499D02*
G01X10372400Y8400271D01*
G01X10453277Y8319394D02*
G01X10722940Y8049731D01*
G01X10917452Y7855219D02*
G01X11074820Y7697851D01*
G01X12407706Y6364964D02*
G01X12598820Y6173851D01*
G01X12752451Y6020220D02*
G01X12833096Y5939575D01*
G01X12973304Y5799367D02*
G01X13006500Y5766170D01*
G01X9870273Y9046082D02*
G01X10232600Y8683755D01*
G01X10326958Y8589397D02*
G01X10722940Y8193415D01*
G01X10875848Y8040507D02*
G01X11257868Y7658487D01*
G01X12479548Y6436806D02*
G01X12833096Y6083259D01*
G01X12973304Y5943051D02*
G01X13006500Y5909854D01*
G01X10013957Y9046082D02*
G01X10262567Y8797472D01*
G01X10875848Y8184191D02*
G01X11359929Y7700110D01*
G01X12551391Y6508649D02*
G01X12833096Y6226943D01*
G01X12973304Y6086735D02*
G01X13006500Y6053539D01*
G01X10157641Y9046082D02*
G01X10365908Y8837815D01*
G01X10481018Y8722706D02*
G01X10927406Y8276317D01*
G01X11049311Y8154412D02*
G01X11529461Y7674262D01*
G01X12623233Y6580491D02*
G01X12833096Y6370627D01*
G01X12973304Y6230419D02*
G01X13006500Y6197223D01*
G01X10301325Y9046082D02*
G01X10971327Y8376080D01*
G01X11149074Y8198333D02*
G01X11252589Y8094818D01*
G01X11420211Y7927196D02*
G01X11656563Y7690844D01*
G01X11729444Y7617963D02*
G01X11737296Y7610112D01*
G01X12690071Y6657336D02*
G01X12833096Y6514311D01*
G01X12973304Y6374103D02*
G01X13006500Y6340907D01*
G01X10445009Y9046082D02*
G01X11090100Y8400991D01*
G01X11331721Y8159370D02*
G01X11342189Y8148902D01*
G01X11474296Y8016796D02*
G01X11804183Y7686909D01*
G01X12693904Y6797187D02*
G01X12833096Y6657995D01*
G01X12973304Y6517787D02*
G01X13006500Y6484591D01*
G01X10588693Y9046082D02*
G01X11269503Y8365273D01*
G01X11440679Y8194096D02*
G01X12001486Y7633289D01*
G01X12693904Y6940871D02*
G01X12833096Y6801679D01*
G01X12973304Y6661471D02*
G01X13006500Y6628275D01*
G01X10732378Y9046082D02*
G01X11377362Y8401097D01*
G01X11476504Y8301955D02*
G01X11767395Y8011065D01*
G01X11869858Y7908601D02*
G01X12082505Y7695954D01*
G01X12693904Y7084556D02*
G01X12833096Y6945364D01*
G01X12973304Y6805156D02*
G01X13006500Y6771959D01*
G01X10876062Y9046082D02*
G01X11449204Y8472940D01*
G01X11548346Y8373797D02*
G01X11804933Y8117211D01*
G01X11976004Y7946140D02*
G01X12185523Y7736621D01*
G01X12693904Y7228240D02*
G01X12833096Y7089048D01*
G01X12973304Y6948840D02*
G01X13006500Y6915643D01*
G01X11019746Y9046082D02*
G01X11521046Y8544782D01*
G01X11620188Y8445640D02*
G01X11767756Y8298071D01*
G01X11906878Y8158950D02*
G01X11921257Y8144571D01*
G01X12003364Y8062463D02*
G01X12223496Y7842332D01*
G01X12354153Y7711675D02*
G01X12365640Y7700188D01*
G01X12693904Y7371924D02*
G01X12833096Y7232732D01*
G01X12973304Y7092524D02*
G01X13006500Y7059327D01*
G01X11163430Y9046082D02*
G01X11592888Y8616624D01*
G01X11692030Y8517482D02*
G01X11826426Y8383086D01*
G01X11991893Y8217619D02*
G01X12166346Y8043166D01*
G01X12363704Y7845808D02*
G01X12539755Y7669756D01*
G01X12724356Y7485155D02*
G01X12833096Y7376416D01*
G01X12973304Y7236208D02*
G01X13006500Y7203011D01*
G01X11307114Y9046082D02*
G01X11664730Y8688466D01*
G01X11763872Y8589324D02*
G01X11908980Y8444216D01*
G01X12053023Y8300173D02*
G01X12185408Y8167788D01*
G01X12409588Y7943608D02*
G01X12657295Y7695901D01*
G01X12750501Y7602695D02*
G01X12833096Y7520100D01*
G01X12973304Y7379892D02*
G01X13006501Y7346695D01*
G01X11450798Y9046082D02*
G01X11736572Y8760308D01*
G01X11835714Y8661166D02*
G01X11980822Y8516058D01*
G01X12124865Y8372015D02*
G01X12168386Y8328494D01*
G01X12316294Y8180586D02*
G01X12317826Y8179054D01*
G01X12420854Y8076026D02*
G01X12833096Y7663784D01*
G01X12973304Y7523576D02*
G01X13006501Y7490380D01*
G01X11594482Y9046082D02*
G01X11812445Y8828119D01*
G01X11947668Y8692896D02*
G01X12052664Y8587900D01*
G01X12196707Y8443857D02*
G01X12226585Y8413979D01*
G01X12401779Y8238785D02*
G01X12833096Y7807468D01*
G01X12973304Y7667260D02*
G01X13006501Y7634064D01*
G01X11738166Y9046082D02*
G01X11951144Y8833104D01*
G01X12091352Y8692896D02*
G01X12130138Y8654110D01*
G01X12342098Y8442150D02*
G01X12833096Y7951152D01*
G01X12973304Y7810944D02*
G01X13006501Y7777748D01*
G01X11881850Y9046082D02*
G01X12094828Y8833104D01*
G01X12235036Y8692896D02*
G01X12248964Y8678969D01*
G01X12412769Y8515164D02*
G01X12833096Y8094836D01*
G01X12973304Y7954628D02*
G01X13006501Y7921432D01*
G01X12027363Y9044253D02*
G01X12238512Y8833104D01*
G01X12973304Y8098312D02*
G01X13006501Y8065116D01*
G01X12194656Y9020644D02*
G01X12382196Y8833104D01*
G01X12973304Y8241996D02*
G01X12984886Y8230415D01*
G01X12414118Y8944866D02*
G01X12909108Y8449877D01*
G01X6447422Y4813494D02*
G03X6477254Y4885516I-72022J72022D01*
G01X6477254Y6587211D01*
G01X6595389Y6705346D01*
G01X7033793Y6705346D01*
G03X7105815Y6735178I0J101854D01*
G01X7237356Y6866719D01*
G03X7277014Y6883146I-25763J118281D01*
G01X7391400Y6883146D01*
G03X7463422Y6912978I0J101854D01*
G01X7607821Y7057377D01*
G03X7637653Y7129399I-72022J72022D01*
G01X7637653Y7206852D01*
G03X7646805Y7448296I-101854J124756D01*
G01X8327562Y7448296D01*
G01X8738829Y7037029D01*
G03X8788400Y7016496I49571J49571D01*
G01X11379200Y7016496D01*
G03X11428771Y7037029I0J70104D01*
G01X11833075Y7441333D01*
G03X11988800Y7536856I28725J127867D01*
G03X12172696Y7451141I127000J32344D01*
G01X12172696Y7395038D01*
G01X11740095Y6962437D01*
G03X11702533Y6825733I20105J-79037D01*
G03X11839237Y6863295I57667J57667D01*
G01X12292371Y7316429D01*
G03X12312904Y7366000I-49571J49571D01*
G01X12312904Y7451141D01*
G03X12496800Y7536856I56896J118059D01*
G03X12553696Y7458473I127000J32344D01*
G01X12553696Y6709238D01*
G01X12315362Y6470904D01*
G01X9050294Y6470904D01*
G03X9000723Y6450371I0J-70104D01*
G01X8868856Y6318504D01*
G01X8499871Y6318504D01*
G03X8376646Y6248400I-41671J-70104D01*
G03X8499871Y6178296I81554J0D01*
G01X8796954Y6178296D01*
G01X8606962Y5988304D01*
G01X7881556Y5988304D01*
G03X7650740Y5918200I-104762J-70104D01*
G03X7881556Y5848096I126054J0D01*
G01X8636000Y5848096D01*
G03X8685571Y5868629I0J70104D01*
G01X8936746Y6119804D01*
G01X8936746Y5965200D01*
G03X8941423Y5943854I51054J0D01*
G01X8839200Y5943854D01*
G03X8839200Y5740146I0J-101854D01*
G01X9271000Y5740146D01*
G03X9341389Y5915618I0J101854D01*
G03X9448800Y6012856I-19589J129582D01*
G03X9702800Y6012856I127000J32344D01*
G03X9956800Y6012856I127000J32344D01*
G03X10210800Y6012856I127000J32344D01*
G03X10464800Y6012856I127000J32344D01*
G03X10718800Y6012856I127000J32344D01*
G03X10872314Y5916856I127000J32344D01*
G01X10664362Y5708904D01*
G01X7950200Y5708904D01*
G03X7900629Y5688371I0J-70104D01*
G01X7341829Y5129571D01*
G03X7321296Y5080000I49571J-49571D01*
G01X7321296Y4897262D01*
G03X7232800Y4931654I-88496J-96662D01*
G01X7092800Y4931654D01*
G03X7060456Y4673600I0J-131054D01*
G03X7060456Y4419600I32344J-127000D01*
G03X7060456Y4165600I32344J-127000D01*
G03X7060456Y3911600I32344J-127000D01*
G03X7060456Y3657600I32344J-127000D01*
G03X7092800Y3399546I32344J-127000D01*
G01X7232800Y3399546D01*
G03X7321296Y3433938I0J131054D01*
G01X7321296Y2768600D01*
G03X7341829Y2719029I70104J0D01*
G01X7651496Y2409362D01*
G01X7651496Y1873630D01*
G03X7637653Y1886348I-115697J-112038D01*
G01X7637653Y2040001D01*
G03X7607821Y2112023I-101854J0D01*
G01X7463422Y2256422D01*
G03X7391400Y2286254I-72022J-72022D01*
G01X7237247Y2286254D01*
G01X7237247Y2770607D01*
G03X7207415Y2842628I-101854J0D01*
G01X5939422Y4110622D01*
G03X5867400Y4140454I-72022J-72022D01*
G01X5791268Y4140454D01*
G03X5741144Y4165600I-82468J-101854D01*
G03X5791791Y4191172I-32344J127000D01*
G03X5854506Y4220578I-9307J101428D01*
G01X6447422Y4813494D01*
G01X7162800Y5425023D02*
G03X7430854Y5486400I127000J61377D01*
G03X7162800Y5547777I-141054J0D01*
G03X7133260Y5588369I-127000J-61377D01*
G01X7133260Y5817978D01*
G03X7056806Y6044254I-76454J100222D01*
G03X6980352Y5817978I0J-126054D01*
G01X6980352Y5616098D01*
G03X6922854Y5570895I55448J-129698D01*
G01X6922854Y5576400D01*
G03X6871800Y5627454I-51054J0D01*
G01X6691800Y5627454D01*
G03X6640746Y5576400I0J-51054D01*
G01X6640746Y5396400D01*
G03X6691800Y5345346I51054J0D01*
G01X6871800Y5345346D01*
G03X6922854Y5396400I0J51054D01*
G01X6922854Y5401905D01*
G03X7162800Y5425023I112946J84495D01*
G01X7793990Y6625336D02*
G03X7541768Y6649348I-127254J0D01*
G03X7289546Y6625336I-124968J-24012D01*
G03X7541768Y6601324I127254J0D01*
G03X7793990Y6625336I124968J24012D01*
G01X8304022Y6625336D02*
G03X8051800Y6649348I-127254J0D01*
G03X7799578Y6625336I-124968J-24012D01*
G03X8051800Y6601324I127254J0D01*
G03X8304022Y6625336I124968J24012D01*
G01X6477254Y6568302D02*
G01X6614298Y6705346D01*
G01X6477254Y6424618D02*
G01X6757982Y6705346D01*
G01X6477254Y6280934D02*
G01X6901666Y6705346D01*
G01X6477254Y6137250D02*
G01X7046096Y6706092D01*
G01X7695127Y7355123D02*
G01X7788300Y7448296D01*
G01X6477254Y5993565D02*
G01X7366835Y6883146D01*
G01X7637653Y7153964D02*
G01X7931985Y7448296D01*
G01X6477254Y5849881D02*
G01X7297804Y6670432D01*
G01X7371704Y6744332D02*
G01X8075669Y7448296D01*
G01X6477254Y5706197D02*
G01X7317195Y6546138D01*
G01X7495998Y6724941D02*
G01X8219353Y7448296D01*
G01X6477254Y5562513D02*
G01X7412883Y6498142D01*
G01X7667329Y6752589D02*
G01X8345299Y7430559D01*
G01X6477254Y5418829D02*
G01X6641138Y5582713D01*
G01X6685487Y5627062D02*
G01X6937107Y5878682D01*
G01X7096324Y6037899D02*
G01X7585670Y6527245D01*
G01X7764827Y6706402D02*
G01X8417141Y7358717D01*
G01X6477254Y5275145D02*
G01X6640746Y5438637D01*
G01X6829563Y5627454D02*
G01X6980352Y5778243D01*
G01X7171844Y5969735D02*
G01X7706594Y6504485D01*
G01X7787587Y6585478D02*
G01X7802123Y6600014D01*
G01X7952154Y6750045D02*
G01X8488984Y7286874D01*
G01X6477254Y5131461D02*
G01X6691144Y5345350D01*
G01X6922850Y5577056D02*
G01X6980352Y5634559D01*
G01X7133260Y5787467D02*
G01X7861767Y6515974D01*
G01X8036194Y6690401D02*
G01X8560826Y7215032D01*
G01X6477254Y4987777D02*
G01X6834823Y5345346D01*
G01X7133260Y5643783D02*
G01X8061309Y6571831D01*
G01X8230273Y6740795D02*
G01X8632668Y7143190D01*
G01X5781080Y4147919D02*
G01X5846705Y4213544D01*
G01X6454456Y4821295D02*
G01X6987159Y5353998D01*
G01X7256669Y5623508D02*
G01X8137465Y6504304D01*
G01X8297800Y6664639D02*
G01X8704510Y7071348D01*
G01X5908596Y4131751D02*
G01X7177670Y5400825D01*
G01X7375375Y5598530D02*
G01X7656711Y5879865D01*
G01X7815129Y6038284D02*
G01X8793341Y7016496D01*
G01X5985286Y4064757D02*
G01X7267629Y5347100D01*
G01X7429100Y5508571D02*
G01X7724181Y5803651D01*
G01X7908834Y5988304D02*
G01X8937026Y7016496D01*
G01X6057128Y3992915D02*
G01X7912310Y5848096D01*
G01X8052518Y5988304D02*
G01X9080710Y7016496D01*
G01X6128971Y3921073D02*
G01X6968121Y4760223D01*
G01X7139552Y4931654D02*
G01X8055994Y5848096D01*
G01X8196202Y5988304D02*
G01X8399589Y6191692D01*
G01X8526402Y6318504D02*
G01X9224394Y7016496D01*
G01X6200813Y3849231D02*
G01X7034707Y4683125D01*
G01X7275934Y4924352D02*
G01X7321296Y4969714D01*
G01X8060486Y5708904D02*
G01X8199678Y5848096D01*
G01X8339886Y5988304D02*
G01X8529878Y6178296D01*
G01X8670086Y6318504D02*
G01X9368078Y7016496D01*
G01X6272655Y3777389D02*
G01X6978232Y4482966D01*
G01X8204170Y5708904D02*
G01X8343362Y5848096D01*
G01X8483570Y5988304D02*
G01X8673562Y6178296D01*
G01X8813770Y6318504D02*
G01X9511762Y7016496D01*
G01X6344497Y3705547D02*
G01X6966489Y4327539D01*
G01X7057861Y4418911D02*
G01X7058945Y4419995D01*
G01X8347854Y5708904D02*
G01X8487046Y5848096D01*
G01X9109854Y6470904D02*
G01X9655446Y7016496D01*
G01X6416339Y3633705D02*
G01X6991765Y4209131D01*
G01X8491538Y5708904D02*
G01X8630730Y5848096D01*
G01X9253538Y6470904D02*
G01X9799130Y7016496D01*
G01X6488181Y3561863D02*
G01X6961784Y4035465D01*
G01X8635222Y5708904D02*
G01X8741061Y5814743D01*
G01X8870172Y5943854D02*
G01X8936746Y6010428D01*
G01X9397222Y6470904D02*
G01X9942814Y7016496D01*
G01X6560023Y3490020D02*
G01X7008369Y3938367D01*
G01X8778906Y5708904D02*
G01X8813456Y5743453D01*
G01X9540906Y6470904D02*
G01X10086498Y7016496D01*
G01X6631865Y3418178D02*
G01X6965829Y3752143D01*
G01X8922590Y5708904D02*
G01X8953832Y5740146D01*
G01X9684590Y6470904D02*
G01X10230182Y7016496D01*
G01X6703707Y3346336D02*
G01X7028037Y3670666D01*
G01X9066275Y5708904D02*
G01X9097517Y5740146D01*
G01X9828275Y6470904D02*
G01X10373867Y7016496D01*
G01X6775549Y3274494D02*
G01X6974747Y3473692D01*
G01X9209959Y5708904D02*
G01X9241201Y5740146D01*
G01X9369390Y5868336D02*
G01X9469543Y5968489D01*
G01X9971959Y6470904D02*
G01X10517551Y7016496D01*
G01X6847391Y3202652D02*
G01X7051097Y3406358D01*
G01X9353643Y5708904D02*
G01X9559858Y5915119D01*
G01X10115643Y6470904D02*
G01X10661235Y7016496D01*
G01X6919233Y3130810D02*
G01X7187969Y3399546D01*
G01X9497327Y5708904D02*
G01X9739062Y5950639D01*
G01X10259327Y6470904D02*
G01X10804919Y7016496D01*
G01X6991075Y3058968D02*
G01X7321296Y3389189D01*
G01X9641011Y5708904D02*
G01X9847447Y5915340D01*
G01X10403011Y6470904D02*
G01X10948603Y7016496D01*
G01X7062917Y2987126D02*
G01X7321296Y3245505D01*
G01X9784695Y5708904D02*
G01X10011611Y5935820D01*
G01X10546695Y6470904D02*
G01X11092287Y7016496D01*
G01X7134759Y2915284D02*
G01X7321296Y3101821D01*
G01X9928379Y5708904D02*
G01X10154024Y5934549D01*
G01X10194451Y5974976D02*
G01X10216086Y5996611D01*
G01X10690379Y6470904D02*
G01X11235971Y7016496D01*
G01X7206601Y2843442D02*
G01X7321296Y2958137D01*
G01X10072063Y5708904D02*
G01X10287389Y5924230D01*
G01X10834063Y6470904D02*
G01X11379657Y7016497D01*
G01X7237247Y2730404D02*
G01X7321296Y2814453D01*
G01X10215747Y5708904D02*
G01X10481410Y5974566D01*
G01X10977747Y6470904D02*
G01X12005410Y7498566D01*
G01X7237247Y2586720D02*
G01X7355693Y2705165D01*
G01X10359431Y5708904D02*
G01X10567035Y5916507D01*
G01X11121431Y6470904D02*
G01X12091035Y7440507D01*
G01X7237247Y2443036D02*
G01X7427535Y2633323D01*
G01X10503116Y5708904D02*
G01X10749992Y5955780D01*
G01X11265116Y6470904D02*
G01X11678653Y6884441D01*
G01X7237247Y2299352D02*
G01X7499377Y2561481D01*
G01X10646800Y5708904D02*
G01X10852198Y5914302D01*
G01X11408800Y6470904D02*
G01X11741836Y6803940D01*
G01X12312904Y7375008D02*
G01X12376198Y7438302D01*
G01X7367834Y2286254D02*
G01X7571219Y2489639D01*
G01X11552484Y6470904D02*
G01X12545608Y7464028D01*
G01X7472554Y2247290D02*
G01X7643061Y2417797D01*
G01X11696168Y6470904D02*
G01X12553696Y7328432D01*
G01X7544396Y2175448D02*
G01X7651496Y2282548D01*
G01X11839852Y6470904D02*
G01X12553696Y7184748D01*
G01X7615744Y2103112D02*
G01X7651496Y2138864D01*
G01X11983536Y6470904D02*
G01X12553696Y7041064D01*
G01X7637653Y1981337D02*
G01X7651496Y1995180D01*
G01X12127220Y6470904D02*
G01X12553696Y6897380D01*
G01X12270904Y6470904D02*
G01X12553696Y6753696D01*
G01X7237247Y2339641D02*
G01X7290635Y2286254D01*
G01X7637653Y1939236D02*
G01X7651496Y1925393D01*
G01X7237247Y2483325D02*
G01X7651496Y2069077D01*
G01X7237247Y2627009D02*
G01X7651496Y2212761D01*
G01X5812631Y4195310D02*
G01X5867487Y4140454D01*
G01X7237247Y2770693D02*
G01X7651496Y2356445D01*
G01X5892776Y4258849D02*
G01X7321296Y2830329D01*
G01X5964618Y4330691D02*
G01X7321296Y2974013D01*
G01X6036460Y4402533D02*
G01X6991318Y3447676D01*
G01X7009876Y3429118D02*
G01X7321296Y3117697D01*
G01X6108302Y4474375D02*
G01X6982034Y3600643D01*
G01X7183131Y3399546D02*
G01X7321296Y3261381D01*
G01X6180144Y4546217D02*
G01X6963574Y3762787D01*
G01X7305080Y3421281D02*
G01X7321296Y3405065D01*
G01X6251986Y4618059D02*
G01X6996527Y3873519D01*
G01X6323828Y4689901D02*
G01X6962369Y4051361D01*
G01X6395670Y4761743D02*
G01X7014055Y4143359D01*
G01X6464654Y4836444D02*
G01X6968121Y4332977D01*
G01X6477254Y4967528D02*
G01X7034707Y4410075D01*
G01X6477254Y5111212D02*
G01X6978232Y4610234D01*
G01X6477254Y5254896D02*
G01X6966489Y4765661D01*
G01X7057861Y4674289D02*
G01X7058945Y4673205D01*
G01X6477254Y5398580D02*
G01X6991765Y4884069D01*
G01X6477254Y5542264D02*
G01X6646326Y5373192D01*
G01X6668592Y5350926D02*
G01X7087954Y4931564D01*
G01X6477254Y5685948D02*
G01X6640746Y5522456D01*
G01X6817856Y5345346D02*
G01X7231548Y4931654D01*
G01X6477254Y5829632D02*
G01X6680662Y5626224D01*
G01X6921624Y5385262D02*
G01X7321296Y4985590D01*
G01X6477254Y5973317D02*
G01X6823117Y5627454D01*
G01X7093073Y5357497D02*
G01X7332521Y5118050D01*
G01X6477254Y6117001D02*
G01X6978821Y5615433D01*
G01X7239718Y5354536D02*
G01X7403256Y5190998D01*
G01X6477254Y6260685D02*
G01X6980352Y5757587D01*
G01X7133260Y5604679D02*
G01X7172781Y5565158D01*
G01X7368558Y5369381D02*
G01X7475098Y5262840D01*
G01X6477254Y6404369D02*
G01X6934189Y5947434D01*
G01X7133260Y5748363D02*
G01X7257838Y5623785D01*
G01X7427185Y5454438D02*
G01X7546940Y5334682D01*
G01X6477254Y6548053D02*
G01X6996445Y6028862D01*
G01X7167468Y5857839D02*
G01X7618782Y5406524D01*
G01X6529517Y6639474D02*
G01X7690624Y5478367D01*
G01X6607329Y6705346D02*
G01X7762467Y5550209D01*
G01X6751013Y6705346D02*
G01X7834309Y5622051D01*
G01X6894697Y6705346D02*
G01X7653881Y5946163D01*
G01X7804757Y5795287D02*
G01X7906459Y5693584D01*
G01X7038282Y6705445D02*
G01X7715422Y6028305D01*
G01X7895631Y5848096D02*
G01X8034823Y5708904D01*
G01X7129024Y6758387D02*
G01X7293483Y6593929D01*
G01X7385393Y6502019D02*
G01X7899108Y5988304D01*
G01X8039316Y5848096D02*
G01X8178508Y5708904D01*
G01X7200866Y6830229D02*
G01X7321467Y6709628D01*
G01X7501092Y6530003D02*
G01X8042792Y5988304D01*
G01X8183000Y5848096D02*
G01X8322192Y5708904D01*
G01X7291634Y6883146D02*
G01X7422309Y6752471D01*
G01X7676335Y6498445D02*
G01X8186476Y5988304D01*
G01X8326684Y5848096D02*
G01X8465876Y5708904D01*
G01X7428371Y6890093D02*
G01X7590923Y6727541D01*
G01X7768941Y6549523D02*
G01X8330160Y5988304D01*
G01X8470368Y5848096D02*
G01X8609560Y5708904D01*
G01X7506296Y6955852D02*
G01X7722357Y6739791D01*
G01X7781191Y6680957D02*
G01X7803906Y6658242D01*
G01X7959738Y6502410D02*
G01X8473844Y5988304D01*
G01X8614052Y5848096D02*
G01X8753244Y5708904D01*
G01X7578138Y7027694D02*
G01X7867775Y6738056D01*
G01X8039552Y6566279D02*
G01X8379763Y6226069D01*
G01X8435869Y6169963D02*
G01X8612245Y5993587D01*
G01X8711387Y5894445D02*
G01X8740140Y5865692D01*
G01X8865686Y5740146D02*
G01X8896928Y5708904D01*
G01X7636351Y7113165D02*
G01X8064419Y6685097D01*
G01X8236529Y6512987D02*
G01X8426132Y6323385D01*
G01X8571220Y6178296D02*
G01X8684087Y6065429D01*
G01X8783229Y5966287D02*
G01X8809952Y5939564D01*
G01X9009370Y5740146D02*
G01X9040612Y5708904D01*
G01X7661845Y7231355D02*
G01X8144714Y6748487D01*
G01X8299919Y6593282D02*
G01X8574696Y6318504D01*
G01X8714904Y6178296D02*
G01X8755929Y6137271D01*
G01X8855071Y6038129D02*
G01X8937670Y5955530D01*
G01X9153054Y5740146D02*
G01X9184296Y5708904D01*
G01X7696620Y7340264D02*
G01X8718380Y6318504D01*
G01X8926913Y6109971D02*
G01X8936746Y6100138D01*
G01X9294087Y5742797D02*
G01X9327980Y5708904D01*
G01X7732272Y7448296D02*
G01X8862064Y6318504D01*
G01X9368390Y5812178D02*
G01X9471664Y5708904D01*
G01X7875956Y7448296D02*
G01X8937302Y6386950D01*
G01X9390597Y5933656D02*
G01X9615348Y5708904D01*
G01X8019641Y7448296D02*
G01X9009865Y6458072D01*
G01X9551522Y5916415D02*
G01X9759033Y5708904D01*
G01X8163325Y7448296D02*
G01X9140717Y6470904D01*
G01X9663661Y5947960D02*
G01X9902717Y5708904D01*
G01X8307009Y7448296D02*
G01X9284401Y6470904D01*
G01X9840704Y5914601D02*
G01X10046401Y5708904D01*
G01X8882493Y7016496D02*
G01X9428085Y6470904D01*
G01X9933684Y5965305D02*
G01X10190085Y5708904D01*
G01X9026177Y7016496D02*
G01X9571769Y6470904D01*
G01X10122639Y5920034D02*
G01X10333769Y5708904D01*
G01X9169861Y7016496D02*
G01X9715453Y6470904D01*
G01X10200598Y5985759D02*
G01X10477453Y5708904D01*
G01X9313545Y7016496D02*
G01X9859137Y6470904D01*
G01X10400126Y5929915D02*
G01X10621137Y5708904D01*
G01X9457229Y7016496D02*
G01X10002821Y6470904D01*
G01X10463970Y6009756D02*
G01X10466312Y6007413D01*
G01X10554013Y5919712D02*
G01X10714592Y5759134D01*
G01X9600913Y7016496D02*
G01X10146505Y6470904D01*
G01X10674155Y5943255D02*
G01X10786434Y5830976D01*
G01X9744597Y7016496D02*
G01X10290189Y6470904D01*
G01X10846942Y5914151D02*
G01X10858276Y5902818D01*
G01X9888282Y7016496D02*
G01X10433874Y6470904D01*
G01X10031966Y7016496D02*
G01X10577558Y6470904D01*
G01X10175650Y7016496D02*
G01X10721242Y6470904D01*
G01X10319334Y7016496D02*
G01X10864926Y6470904D01*
G01X10463018Y7016496D02*
G01X11008610Y6470904D01*
G01X10606702Y7016496D02*
G01X11152294Y6470904D01*
G01X10750386Y7016496D02*
G01X11295978Y6470904D01*
G01X10894070Y7016496D02*
G01X11439662Y6470904D01*
G01X11037754Y7016496D02*
G01X11583346Y6470904D01*
G01X11181438Y7016496D02*
G01X11727030Y6470904D01*
G01X11325123Y7016496D02*
G01X11870715Y6470904D01*
G01X11438522Y7046780D02*
G01X12014399Y6470904D01*
G01X11510364Y7118622D02*
G01X11695691Y6933296D01*
G01X11810096Y6818891D02*
G01X12158083Y6470904D01*
G01X11582206Y7190464D02*
G01X11775164Y6997506D01*
G01X11874306Y6898364D02*
G01X12301767Y6470904D01*
G01X11654048Y7262306D02*
G01X11847006Y7069348D01*
G01X11946148Y6970206D02*
G01X12380406Y6535948D01*
G01X11725891Y7334149D02*
G01X11918849Y7141191D01*
G01X12017991Y7042049D02*
G01X12452249Y6607791D01*
G01X11797733Y7405991D02*
G01X11990691Y7213033D01*
G01X12089833Y7113891D02*
G01X12524091Y6679633D01*
G01X11902712Y7444696D02*
G01X12062533Y7284875D01*
G01X12161675Y7185733D02*
G01X12553696Y6793711D01*
G01X11979509Y7511583D02*
G01X12134375Y7356717D01*
G01X12233517Y7257575D02*
G01X12553696Y6937395D01*
G01X12303627Y7331148D02*
G01X12553696Y7081079D01*
G01X12335836Y7442624D02*
G01X12553696Y7224764D01*
G01X12453657Y7468487D02*
G01X12553696Y7368448D01*
G01X12137562Y6178296D02*
G01X12142314Y6173544D01*
G03X11988800Y6077544I-26514J-128344D01*
G03X11861800Y6176254I-127000J-32344D01*
G03X11734800Y6077544I0J-131054D01*
G03X11480800Y6077544I-127000J-32344D01*
G03X11226800Y6077544I-127000J-32344D01*
G03X11099800Y6176254I-127000J-32344D01*
G03X10972800Y6077544I0J-131054D01*
G03X10845800Y6176254I-127000J-32344D01*
G03X10718800Y6077544I0J-131054D01*
G03X10464800Y6077544I-127000J-32344D01*
G03X10210800Y6077544I-127000J-32344D01*
G03X9956800Y6077544I-127000J-32344D01*
G03X9702800Y6077544I-127000J-32344D01*
G03X9448800Y6077544I-127000J-32344D01*
G03X9328626Y6176076I-127000J-32344D01*
G03X9198854Y6090580I-6826J-130876D01*
G01X9198854Y6125200D01*
G03X9147800Y6176254I-51054J0D01*
G01X8993196Y6176254D01*
G01X8995238Y6178296D01*
G01X12137562Y6178296D01*
G01X9102572Y6176254D02*
G01X9104614Y6178296D01*
G01X9198732Y6128729D02*
G01X9248298Y6178296D01*
G01X9377510Y6163823D02*
G01X9391982Y6178296D01*
G01X9445591Y6088221D02*
G01X9456239Y6098869D01*
G01X9522131Y6164761D02*
G01X9535667Y6178296D01*
G01X9652511Y6151457D02*
G01X9679351Y6178296D01*
G01X9820674Y6175936D02*
G01X9823035Y6178296D01*
G01X9924361Y6135938D02*
G01X9966719Y6178296D01*
G01X10106398Y6174291D02*
G01X10110403Y6178296D01*
G01X10193180Y6117389D02*
G01X10254087Y6178296D01*
G01X10386389Y6166914D02*
G01X10397771Y6178296D01*
G01X10458770Y6095611D02*
G01X10486854Y6123695D01*
G01X10513305Y6150146D02*
G01X10541455Y6178296D01*
G01X10662434Y6155590D02*
G01X10685139Y6178296D01*
G01X10825143Y6174616D02*
G01X10828823Y6178296D01*
G01X10935220Y6141008D02*
G01X10972508Y6178296D01*
G01X11113438Y6175542D02*
G01X11116192Y6178296D01*
G01X11204972Y6123392D02*
G01X11259876Y6178296D01*
G01X11394905Y6169641D02*
G01X11403560Y6178296D01*
G01X11471593Y6102645D02*
G01X11547244Y6178296D01*
G01X11672054Y6159422D02*
G01X11690928Y6178296D01*
G01X11734607Y6078291D02*
G01X11735130Y6078814D01*
G01X11828186Y6171870D02*
G01X11834612Y6178296D01*
G01X11945797Y6145797D02*
G01X11978296Y6178296D01*
G01X12119875Y6176190D02*
G01X12121980Y6178296D01*
G01X9002272Y6178296D02*
G01X9004315Y6176254D01*
G01X9145956Y6178296D02*
G01X9147999Y6176253D01*
G01X9198853Y6125399D02*
G01X9210256Y6113997D01*
G01X9289641Y6178296D02*
G01X9294548Y6173389D01*
G01X9433325Y6178296D02*
G01X9478560Y6133061D01*
G01X9577009Y6178296D02*
G01X9579092Y6176212D01*
G01X9720693Y6178296D02*
G01X9749905Y6149084D01*
G01X9864377Y6178296D02*
G01X9874152Y6168521D01*
G01X9953121Y6089552D02*
G01X9958634Y6084039D01*
G01X10008061Y6178296D02*
G01X10024359Y6161998D01*
G01X10151745Y6178296D02*
G01X10222515Y6107526D01*
G01X10295429Y6178296D02*
G01X10302356Y6171370D01*
G01X10439113Y6178296D02*
G01X10489855Y6127555D01*
G01X10582797Y6178296D02*
G01X10585015Y6176078D01*
G01X10726482Y6178296D02*
G01X10760276Y6144501D01*
G01X10870166Y6178296D02*
G01X10875653Y6172808D01*
G01X11013850Y6178296D02*
G01X11033752Y6158394D01*
G01X11157534Y6178296D02*
G01X11235095Y6100735D01*
G01X11301218Y6178296D02*
G01X11310589Y6168925D01*
G01X11444902Y6178296D02*
G01X11501436Y6121762D01*
G01X11588586Y6178296D02*
G01X11591630Y6175252D01*
G01X11732270Y6178296D02*
G01X11770931Y6139635D01*
G01X11875954Y6178296D02*
G01X11879150Y6175100D01*
G01X12019638Y6178296D02*
G01X12043457Y6154478D01*
G54D11*
G01X5268644Y3949701D02*
G01X5294552Y3949701D01*
G01X5168898Y3849955D02*
G01X5168898Y3824047D01*
G01X5168898Y4049447D02*
G01X5168898Y4075355D01*
G01X5026546Y4267200D02*
G01X5052454Y4267200D01*
G01X4727054Y4267200D02*
G01X4701146Y4267200D01*
G01X8410189Y1979341D02*
G01X8410189Y2005249D01*
G01X8410189Y1779849D02*
G01X8410189Y1753941D01*
G01X8509935Y1879595D02*
G01X8535843Y1879595D01*
G01X8310443Y1879595D02*
G01X8284535Y1879595D01*
G01X4446859Y2390389D02*
G01X4420951Y2390389D01*
G01X4646351Y2390389D02*
G01X4672259Y2390389D01*
G01X4546605Y2490135D02*
G01X4546605Y2516043D01*
G01X4546605Y2290643D02*
G01X4546605Y2264735D01*
G01X5334000Y2723648D02*
G01X5334000Y2697740D01*
G01X5334000Y2873140D02*
G01X5334000Y2899048D01*
G01X5259254Y2798394D02*
G01X5233346Y2798394D01*
G01X5408746Y2798394D02*
G01X5434654Y2798394D01*
G01X5588000Y1664546D02*
G01X5588000Y1690454D01*
G01X5588000Y1485054D02*
G01X5588000Y1459146D01*
G01X5677746Y1574800D02*
G01X5703654Y1574800D01*
G01X7742682Y6625336D02*
G01X7768590Y6625336D01*
G01X7666736Y6549390D02*
G01X7666736Y6523482D01*
G01X7666736Y6701282D02*
G01X7666736Y6727190D01*
G01X4885346Y6738620D02*
G01X4911254Y6738620D01*
G01X9482661Y7899400D02*
G01X9456753Y7899400D01*
G01X9622152Y7899400D02*
G01X9648060Y7899400D01*
G01X9552407Y7969146D02*
G01X9552407Y7995054D01*
G01X9552407Y7829654D02*
G01X9552407Y7803746D01*
G01X8966200Y7958661D02*
G01X8966200Y7932753D01*
G01X8966200Y8098152D02*
G01X8966200Y8124060D01*
G01X8896454Y8028407D02*
G01X8870546Y8028407D01*
G01X9035946Y8028407D02*
G01X9061854Y8028407D01*
G01X7289800Y5396654D02*
G01X7289800Y5370746D01*
G01X7289800Y5576146D02*
G01X7289800Y5602054D01*
G01X7379546Y5486400D02*
G01X7405454Y5486400D01*
G01X9751741Y2054611D02*
G01X9777649Y2054611D01*
G01X9552249Y2054611D02*
G01X9526341Y2054611D01*
G01X9651995Y1954865D02*
G01X9651995Y1928957D01*
G01X9651995Y2154357D02*
G01X9651995Y2180265D01*
G01X9829800Y5965454D02*
G01X9829800Y5939546D01*
G01X9829800Y6124946D02*
G01X9829800Y6150854D01*
G01X10004660Y7899400D02*
G01X9978752Y7899400D01*
G01X10079406Y7974146D02*
G01X10079406Y8000054D01*
G01X10079406Y7824654D02*
G01X10079406Y7798746D01*
G01X10297844Y292101D02*
G01X10323752Y292101D01*
G01X10098353Y292101D02*
G01X10072445Y292101D01*
G01X10198098Y192355D02*
G01X10198098Y166447D01*
G01X10198098Y391847D02*
G01X10198098Y417755D01*
G01X10639946Y711200D02*
G01X10665854Y711200D01*
G01X10340454Y711200D02*
G01X10314546Y711200D01*
G01X10742341Y2054611D02*
G01X10768249Y2054611D01*
G01X10542849Y2054611D02*
G01X10516941Y2054611D01*
G01X10642595Y1954865D02*
G01X10642595Y1928957D01*
G01X10642595Y2154357D02*
G01X10642595Y2180265D01*
G01X11006737Y235407D02*
G01X11032645Y235407D01*
G01X10807245Y235407D02*
G01X10781337Y235407D01*
G01X10906991Y385153D02*
G01X10906991Y411061D01*
G01X11353800Y7958661D02*
G01X11353800Y7932753D01*
G01X11353800Y8098152D02*
G01X11353800Y8124060D01*
G01X11284054Y8028407D02*
G01X11258146Y8028407D01*
G01X11423546Y8028407D02*
G01X11449454Y8028407D01*
G01X11887200Y8098152D02*
G01X11887200Y8124060D01*
G01X11887200Y7958661D02*
G01X11887200Y7932753D01*
G01X11956946Y8028407D02*
G01X11982854Y8028407D01*
G01X11817454Y8028407D02*
G01X11791546Y8028407D01*
G01X12306735Y235407D02*
G01X12332643Y235407D01*
G01X12107242Y235407D02*
G01X12081334Y235407D01*
G01X12206989Y385153D02*
G01X12206989Y411061D01*
G01X12522200Y2387346D02*
G01X12522200Y2413254D01*
G01X12446254Y2311400D02*
G01X12420346Y2311400D01*
G01X12598146Y2311400D02*
G01X12624054Y2311400D01*
G01X1041400Y3680714D02*
G01X1041400Y3654806D01*
G01X941654Y3759200D02*
G01X915746Y3759200D01*
G01X1141146Y3759200D02*
G01X1167054Y3759200D01*
G01X3719247Y3949701D02*
G01X3745155Y3949701D01*
G01X3519756Y3949701D02*
G01X3493848Y3949701D01*
G01X3619502Y3849955D02*
G01X3619502Y3824047D01*
G01X3619502Y4049447D02*
G01X3619502Y4075355D01*
G01X660400Y4015055D02*
G01X660400Y3989147D01*
G01X510654Y4114801D02*
G01X484746Y4114801D01*
G01X810146Y4114801D02*
G01X836054Y4114801D01*
G01X635000Y5414648D02*
G01X635000Y5388740D01*
G01X635000Y5554139D02*
G01X635000Y5580047D01*
G01X565254Y5484393D02*
G01X539346Y5484393D01*
G01X704746Y5484393D02*
G01X730654Y5484393D01*
G01X3784597Y3427149D02*
G01X3784597Y3453057D01*
G01X3784597Y3227656D02*
G01X3784597Y3201748D01*
G01X3251200Y893448D02*
G01X3251200Y867540D01*
G01X3251200Y1032939D02*
G01X3251200Y1058847D01*
G01X3181454Y963193D02*
G01X3155546Y963193D01*
G01X3320946Y963193D02*
G01X3346854Y963193D01*
G01X3200400Y8284848D02*
G01X3200400Y8258940D01*
G01X3200400Y8424339D02*
G01X3200400Y8450247D01*
G01X3130654Y8354593D02*
G01X3104746Y8354593D01*
G01X3270146Y8354593D02*
G01X3296054Y8354593D01*
G01X2716047Y2088007D02*
G01X2690139Y2088007D01*
G01X2915539Y2088007D02*
G01X2941447Y2088007D01*
G01X2815793Y2237753D02*
G01X2815793Y2263661D01*
G01X2815793Y1938261D02*
G01X2815793Y1912353D01*
G01X3180461Y2088007D02*
G01X3154553Y2088007D01*
G01X3379953Y2088007D02*
G01X3405861Y2088007D01*
G01X3280207Y2237753D02*
G01X3280207Y2263661D01*
G01X3280207Y1938261D02*
G01X3280207Y1912353D01*
G01X2716073Y2737993D02*
G01X2690165Y2737993D01*
G01X2915565Y2737993D02*
G01X2941473Y2737993D01*
G01X2815819Y2887739D02*
G01X2815819Y2913647D01*
G01X2815819Y2588247D02*
G01X2815819Y2562339D01*
G01X3180461Y2737993D02*
G01X3154553Y2737993D01*
G01X3379953Y2737993D02*
G01X3405861Y2737993D01*
G01X3280207Y2887739D02*
G01X3280207Y2913647D01*
G01X3280207Y2588247D02*
G01X3280207Y2562339D01*
G01X2844800Y695545D02*
G01X2844800Y721453D01*
G01X2770054Y620799D02*
G01X2744146Y620799D01*
G01X2919546Y620799D02*
G01X2945454Y620799D01*
G01X2794000Y8594945D02*
G01X2794000Y8620853D01*
G01X2719254Y8520199D02*
G01X2693346Y8520199D01*
G01X2868746Y8520199D02*
G01X2894654Y8520199D01*
G01X4292597Y5513651D02*
G01X4292597Y5487743D01*
G04 Copper End*

G04 Pad Start*
G54D12*
G01X9067800Y6045200D03*
G54D13*
G01X9321800Y7569200D03*
G01X9829800Y7569200D03*
G01X10337800Y7569200D03*
G01X10845800Y7569200D03*
G01X11353800Y7569200D03*
G01X11861800Y7569200D03*
G01X12369800Y7569200D03*
G01X12623800Y6045200D03*
G01X12115800Y6045200D03*
G01X11607800Y6045200D03*
G01X11099800Y6045200D03*
G01X10591800Y6045200D03*
G01X10083800Y6045200D03*
G01X9575800Y6045200D03*
G01X9321800Y6045200D03*
G01X9829800Y6045200D03*
G01X10337800Y6045200D03*
G01X10845800Y6045200D03*
G01X11353800Y6045200D03*
G01X11861800Y6045200D03*
G01X12369800Y6045200D03*
G01X12623800Y7569200D03*
G01X12115800Y7569200D03*
G01X11607800Y7569200D03*
G01X11099800Y7569200D03*
G01X10591800Y7569200D03*
G01X10083800Y7569200D03*
G01X9575800Y7569200D03*
G54D12*
G01X9067800Y7569200D03*
G54D14*
G01X10198098Y292101D03*
G01X10198098Y1231899D03*
G01X8648702Y1231899D03*
G01X8648702Y292101D03*
G54D15*
G01X9802393Y7899400D03*
G01X9552407Y7899400D03*
G54D16*
G01X6781800Y5486400D03*
G54D17*
G01X7035800Y5486400D03*
G01X7289800Y5486400D03*
G54D15*
G01X635000Y5484393D03*
G01X635000Y5234407D03*
G54D19*
G01X660400Y4876799D03*
G01X660400Y4622800D03*
G01X660400Y4368800D03*
G01X660400Y4114801D03*
G54D20*
G01X8176768Y6625336D03*
G01X7926832Y6625336D03*
G01X7666736Y6625336D03*
G01X7416800Y6625336D03*
G01X12522200Y2311400D03*
G01X12522200Y2057400D03*
G54D15*
G01X7135393Y2184400D03*
G01X6885407Y2184400D03*
G01X6961607Y6985000D03*
G01X7211593Y6985000D03*
G54D21*
G01X10355402Y8712200D03*
G01X10015398Y8712200D03*
G54D22*
G01X12293600Y8051800D03*
G54D20*
G01X12293600Y8305800D03*
G01X12293600Y8559800D03*
G54D15*
G01X8966200Y8278393D03*
G01X8966200Y8028407D03*
G01X11353800Y8278393D03*
G01X11353800Y8028407D03*
G54D13*
G01X584200Y8432800D03*
G01X584200Y8686800D03*
G01X584200Y381000D03*
G01X584200Y635000D03*
G54D23*
G01X-101600Y8686800D03*
G01X-101600Y8432800D03*
G01X-101600Y635000D03*
G01X-101600Y381000D03*
G54D17*
G01X5588000Y1574800D03*
G01X5334000Y1574800D03*
G54D16*
G01X5080000Y1574800D03*
G54D24*
G01X5410200Y7772400D03*
G01X5410200Y6756400D03*
G01X5969000Y1778000D03*
G01X5969000Y2794000D03*
G54D21*
G01X2565400Y8644199D03*
G01X2794000Y8520199D03*
G01X2565400Y8396199D03*
G01X2794000Y8272201D03*
G01X2616200Y744799D03*
G01X2844800Y620799D03*
G01X2616200Y496799D03*
G01X2844800Y372801D03*
G01X7056806Y5918200D03*
G01X7776794Y5918200D03*
G01X12522200Y1629994D03*
G01X12522200Y910006D03*
G01X10079406Y7899400D03*
G01X10799394Y7899400D03*
G01X5765800Y6752006D03*
G01X5765800Y7471994D03*
G01X10062794Y8280400D03*
G01X9342806Y8280400D03*
G01X5638800Y2078406D03*
G01X5638800Y2798394D03*
G01X10333406Y8280400D03*
G01X11053394Y8280400D03*
G01X5334000Y2078406D03*
G01X5334000Y2798394D03*
G54D13*
G01X4108399Y5283195D03*
G01X3308401Y5283195D03*
G54D21*
G01X4017594Y3606800D03*
G01X3297606Y3606800D03*
G54D14*
G01X5168898Y3949701D03*
G01X5168898Y4889499D03*
G01X3619502Y4889499D03*
G01X3619502Y3949701D03*
G54D25*
G01X6535801Y7331608D03*
G01X7535799Y7331608D03*
G01X7535799Y1761592D03*
G01X6535801Y1761592D03*
G54D26*
G01X4876800Y4775200D03*
G54D19*
G01X4876800Y4521200D03*
G01X4876800Y4267200D03*
G01X4876800Y4013200D03*
G54D26*
G01X10490200Y1219200D03*
G54D19*
G01X10490200Y965200D03*
G01X10490200Y711200D03*
G01X10490200Y457200D03*
G54D27*
G01X10642595Y1704599D03*
G01X10642595Y2054611D03*
G01X8760201Y1879595D03*
G01X8410189Y1879595D03*
G01X9651995Y1704599D03*
G01X9651995Y2054611D03*
G01X2768600Y5613397D03*
G01X3022600Y5613397D03*
G01X3276600Y5613397D03*
G01X3530597Y5613397D03*
G01X3784597Y5613397D03*
G01X4038597Y5613397D03*
G01X4292597Y5613397D03*
G01X4546597Y5613397D03*
G01X4546597Y3327403D03*
G01X4292597Y3327403D03*
G01X4038597Y3327403D03*
G01X3784597Y3327403D03*
G01X3530597Y3327403D03*
G01X3276600Y3327403D03*
G01X3022600Y3327403D03*
G01X2768600Y3327403D03*
G01X1041400Y5283200D03*
G01X1041400Y5029200D03*
G01X1041400Y4775200D03*
G01X1041400Y4521200D03*
G01X1041400Y4267200D03*
G01X1041400Y4013200D03*
G54D28*
G01X1041400Y3759200D03*
G54D27*
G01X5918200Y5487403D03*
G01X5918200Y6247397D03*
G54D29*
G01X3280207Y2088007D03*
G01X3730193Y2088007D03*
G01X3280207Y2737993D03*
G01X3730219Y2737993D03*
G01X2365807Y2088007D03*
G01X2815793Y2088007D03*
G01X2365807Y2737993D03*
G01X2815819Y2737993D03*
G54D30*
G01X12027004Y1085393D03*
G01X11557003Y1085393D03*
G01X11087001Y1085393D03*
G54D29*
G01X10906991Y235407D03*
G01X12206989Y235407D03*
G54D27*
G01X4546605Y2740401D03*
G01X4546605Y2390389D03*
G54D31*
G01X7805205Y4787899D03*
G01X7805205Y3517901D03*
G54D32*
G01X5638800Y4800600D03*
G01X5638800Y4546600D03*
G01X5638800Y4292600D03*
G01X5638800Y4038600D03*
G01X5638800Y3784600D03*
G01X5638800Y3530600D03*
G01X7162800Y3530600D03*
G01X7162800Y3784600D03*
G01X7162800Y4038600D03*
G01X7162800Y4292600D03*
G01X7162800Y4546600D03*
G01X7162800Y4800600D03*
G54D15*
G01X3200400Y8354593D03*
G01X3200400Y8104607D03*
G54D21*
G01X5414594Y8737600D03*
G01X4694606Y8737600D03*
G54D15*
G01X3251200Y963193D03*
G01X3251200Y713207D03*
G54D33*
G01X-584200Y8356600D03*
G54D27*
G01X-584200Y8610600D03*
G01X-584200Y8864600D03*
G54D33*
G01X-584200Y711200D03*
G54D27*
G01X-584200Y457200D03*
G01X-584200Y203200D03*
G54D34*
G01X3691630Y8407400D03*
G54D27*
G01X3911600Y8534400D03*
G01X4131570Y8661400D03*
G54D35*
G01X3691630Y685800D03*
G54D27*
G01X3911600Y558800D03*
G01X4131570Y431800D03*
G54D21*
G01X4415206Y5156200D03*
G01X5135194Y5156200D03*
G54D36*
G01X4292600Y6223000D03*
G54D37*
G01X4546600Y6223000D03*
G01X4800600Y6223000D03*
G54D36*
G01X4292600Y6479540D03*
G54D37*
G01X4546600Y6479540D03*
G01X4800600Y6479540D03*
G54D36*
G01X4292600Y6738620D03*
G54D37*
G01X4546600Y6738620D03*
G01X4800600Y6738620D03*
G54D15*
G01X11887200Y8028407D03*
G01X11887200Y8278393D03*
G54D27*
G01X11455400Y2185403D03*
G01X11455400Y1675397D03*
G54D38*
G01X11963400Y1676400D03*
G54D39*
G01X11963400Y2184399D03*
G04 Pad End*

G04 Via Start*
G54D40*
G01X11760200Y6883400D03*
G01X11430000Y5715000D03*
G01X10972800Y5689600D03*
G01X5994400Y1219200D03*
G01X9931400Y5473700D03*
G01X1497294Y4648200D03*
G01X6223000Y6985000D03*
G01X9118600Y6324600D03*
G01X1600200Y4902200D03*
G01X6146800Y6908800D03*
G01X8458200Y6248400D03*
G01X4495800Y4775200D03*
G01X8763000Y3759200D03*
G01X1778000Y5689600D03*
G01X3632200Y4445000D03*
G01X8559800Y8356600D03*
G01X8006146Y5156200D03*
G01X8628975Y5352375D03*
G01X3759200Y6448338D03*
G01X4724400Y5309543D03*
G01X4978400Y5740400D03*
G01X6045200Y6477000D03*
G01X6527800Y6273800D03*
G01X7696200Y5562600D03*
G01X8331200Y5181600D03*
G01X9271000Y5842000D03*
G01X8839200Y5842000D03*
G01X5384800Y5334000D03*
G01X5080000Y6096000D03*
G01X10058400Y4775200D03*
G01X10058400Y4318000D03*
G01X4241800Y4267200D03*
G01X7543800Y2260600D03*
G01X7899400Y2463800D03*
G04 Via End*

G04 Track Start*
G54D41*
G01X-101600Y8686800D02*
G01X-203200Y8788400D01*
G01X-508000Y8788400D02*
G01X-584200Y8864600D01*
G01X-203200Y8788400D02*
G01X-508000Y8788400D01*
G01X-101600Y8432800D02*
G01X-279400Y8610600D01*
G01X-584200Y8610600D01*
G01X584200Y8432800D02*
G01X406400Y8255000D01*
G01X-254000Y8255000D01*
G01X-355600Y8356600D01*
G01X-584200Y8356600D01*
G01X584200Y381000D02*
G01X406400Y203200D01*
G01X-584200Y203200D01*
G54D42*
G01X7535799Y7331608D02*
G01X7535799Y7129399D01*
G01X7391400Y6985000D01*
G01X7211593Y6985000D01*
G54D10*
G01X11353800Y8278393D02*
G01X11351793Y8280400D01*
G01X11053394Y8280400D01*
G01X10355402Y8712200D02*
G01X10799394Y8268208D01*
G01X10799394Y7899400D01*
G01X9342806Y8280400D02*
G01X8968207Y8280400D01*
G01X8966200Y8278393D01*
G54D42*
G01X6535801Y6985000D02*
G01X6961607Y6985000D01*
G01X6535801Y7331608D02*
G01X6535801Y6985000D01*
G01X6223000Y6672199D02*
G01X6535801Y6985000D01*
G01X6375400Y6629400D02*
G01X6553200Y6807200D01*
G01X7033793Y6807200D01*
G01X7211593Y6985000D01*
G01X6527800Y1769593D02*
G01X6535801Y1761592D01*
G01X7535799Y1761592D02*
G01X7535799Y2040001D01*
G01X7391400Y2184400D01*
G01X7135393Y2184400D01*
G54D43*
G01X3308401Y5283195D02*
G01X3308401Y3617595D01*
G01X3297606Y3606800D01*
G01X3297606Y3348408D01*
G01X3276600Y3327403D01*
G01X2768600Y3327403D02*
G01X2365807Y2924609D01*
G01X2365807Y2737993D01*
G01X4038597Y3327403D02*
G01X4038597Y3225797D01*
G01X3733800Y2921000D01*
G01X3733800Y2091614D02*
G01X3730193Y2088007D01*
G01X3733800Y2921000D02*
G01X3733800Y2091614D01*
G01X2365807Y2737993D02*
G01X2365807Y2088007D01*
G54D10*
G01X5080000Y1574800D02*
G01X4622800Y1117600D01*
G01X4064000Y1117600D01*
G01X3691630Y745230D01*
G01X3691630Y685800D01*
G54D43*
G01X5334000Y2078406D02*
G01X5334000Y1574800D01*
G54D10*
G01X5969000Y1778000D02*
G01X5969000Y1498600D01*
G01X4902200Y431800D01*
G01X4131570Y431800D01*
G01X7056806Y5918200D02*
G01X7056806Y5482006D01*
G01X7035800Y5461000D01*
G01X4013200Y8128000D02*
G01X3733800Y8407400D01*
G01X3691630Y8407400D01*
G54D43*
G01X10845800Y7569200D02*
G01X10845800Y7442200D01*
G01X10795000Y7391400D01*
G01X8890000Y7391400D01*
G01X3784600Y7340600D02*
G01X3073400Y6629400D01*
G01X1651000Y6629400D01*
G01X3111500Y6553200D02*
G01X1676400Y6553200D01*
G01X1219200Y6096000D01*
G01X3822700Y7264400D02*
G01X3111500Y6553200D01*
G01X1219200Y6096000D02*
G01X1219200Y5080000D01*
G01X1168400Y5029200D01*
G01X1041400Y5029200D01*
G01X11099800Y7569200D02*
G01X11099800Y7442200D01*
G01X10972800Y7315200D01*
G01X8864600Y7315200D01*
G01X11353800Y7569200D02*
G01X11353800Y7467600D01*
G01X11125200Y7239000D01*
G01X8839200Y7239000D01*
G01X3860800Y7200900D02*
G01X3136900Y6477000D01*
G01X1701800Y6477000D02*
G01X1282700Y6057900D01*
G01X1282700Y4864100D01*
G01X1193800Y4775200D01*
G01X1041400Y4775200D01*
G01X3136900Y6477000D02*
G01X1701800Y6477000D01*
G01X11607800Y7569200D02*
G01X11201400Y7162800D01*
G01X3175000Y6400800D02*
G01X1727200Y6400800D01*
G01X1346200Y6019800D01*
G01X1346200Y4648200D01*
G01X1219200Y4521200D01*
G01X1041400Y4521200D01*
G01X11201400Y7162800D02*
G01X8813800Y7162800D01*
G01X3911600Y7137400D02*
G01X3175000Y6400800D01*
G01X11861800Y7569200D02*
G01X11379200Y7086600D01*
G01X3937000Y7061200D02*
G01X3200400Y6324600D01*
G01X1752600Y6324600D01*
G01X1422400Y5994400D01*
G01X1422400Y4470400D01*
G01X1219200Y4267200D01*
G01X1041400Y4267200D01*
G01X11379200Y7086600D02*
G01X8788400Y7086600D01*
G01X8890000Y7391400D02*
G01X8458200Y7823200D01*
G01X8864600Y7315200D02*
G01X8432800Y7747000D01*
G01X8839200Y7239000D02*
G01X8407400Y7670800D01*
G01X8813800Y7162800D02*
G01X8382000Y7594600D01*
G01X8788400Y7086600D02*
G01X8356600Y7518400D01*
G01X3911600Y8534400D02*
G01X4191000Y8255000D01*
G01X5435600Y8255000D01*
G54D10*
G01X5410200Y7772400D02*
G01X5054600Y8128000D01*
G01X4013200Y8128000D01*
G54D43*
G01X8458200Y7823200D02*
G01X6350000Y7823200D01*
G01X5867400Y7340600D01*
G01X3784600Y7340600D01*
G01X8432800Y7747000D02*
G01X6375400Y7747000D01*
G01X5892800Y7264400D01*
G01X3822700Y7264400D01*
G01X8407400Y7670800D02*
G01X6400800Y7670800D01*
G01X5930900Y7200900D01*
G01X3860800Y7200900D01*
G01X8382000Y7594600D02*
G01X6426200Y7594600D01*
G01X5969000Y7137400D01*
G01X3911600Y7137400D01*
G01X8356600Y7518400D02*
G01X6451600Y7518400D01*
G01X5994400Y7061200D01*
G01X3937000Y7061200D01*
G01X8735593Y8278393D02*
G01X8966200Y8278393D01*
G01X8356600Y7899400D02*
G01X8735593Y8278393D01*
G01X5435600Y8255000D02*
G01X5791200Y7899400D01*
G01X5765800Y7471994D02*
G01X6190484Y7896678D01*
G01X6190484Y7899400D01*
G01X5791200Y7899400D02*
G01X6190484Y7899400D01*
G01X8356600Y7899400D01*
G54D42*
G01X5638800Y4292600D02*
G01X5782484Y4292600D01*
G01X6375400Y4885516D01*
G01X6375400Y6629400D01*
G54D43*
G01X12293600Y8051800D02*
G01X12293600Y7747000D01*
G01X12242800Y7696200D01*
G54D10*
G01X10591800Y7569200D02*
G01X10591800Y7691806D01*
G01X10799394Y7899400D01*
G54D43*
G01X1651000Y6629400D02*
G01X1143000Y6121400D01*
G01X1143000Y5384800D01*
G01X1041400Y5283200D01*
G54D11*
G01X11430000Y5715000D02*
G01X11785600Y5715000D01*
G01X12115800Y6045200D01*
G54D43*
G01X10693400Y5638800D02*
G01X11099800Y6045200D01*
G01X10845800Y5562600D02*
G01X10972800Y5689600D01*
G01X5994400Y1219200D02*
G01X7289800Y1219200D01*
G01X7721600Y1651000D01*
G01X12242800Y7696200D02*
G01X12242800Y7366000D01*
G01X11760200Y6883400D01*
G01X1778000Y6248400D02*
G01X3225800Y6248400D01*
G01X3962400Y6985000D01*
G01X6223000Y6985000D01*
G01X1600200Y4902200D02*
G01X1600200Y5969000D01*
G01X1803400Y6172200D01*
G01X3251200Y6172200D01*
G01X3987800Y6908800D01*
G01X6146800Y6908800D01*
G54D10*
G01X5080000Y1574800D02*
G01X5080000Y3327400D01*
G54D43*
G01X8763000Y3759200D02*
G01X10134600Y3759200D01*
G01X11303000Y4927600D01*
G01X12065000Y4927600D01*
G01X12903200Y5765800D01*
G01X11838407Y8763000D02*
G01X11353800Y8278393D01*
G01X12903200Y5765800D02*
G01X12903200Y8255000D01*
G01X12395200Y8763000D01*
G01X11838407Y8763000D01*
G54D10*
G01X5080000Y3327400D02*
G01X4495800Y3911600D01*
G01X4495800Y4775200D01*
G54D43*
G01X4343400Y5156200D02*
G01X3632200Y4445000D01*
G54D42*
G01X5638800Y4546600D02*
G01X5816600Y4546600D01*
G01X6223000Y4953000D01*
G01X6223000Y6672199D01*
G01X6535801Y1761592D02*
G01X6535801Y2065401D01*
G01X6654800Y2184400D01*
G01X6885407Y2184400D01*
G54D43*
G01X8559800Y8356600D02*
G01X8559800Y8585200D01*
G01X8128000Y9017000D01*
G01X8628975Y5352375D02*
G01X8202321Y5352375D01*
G01X8006146Y5156200D01*
G01X4724400Y5309543D02*
G01X4724400Y5664200D01*
G01X4572000Y5816600D01*
G01X3937000Y5816600D01*
G01X3759200Y5994400D01*
G01X3759200Y6448338D01*
G01X7162800Y3784600D02*
G01X7340600Y3784600D01*
G01X7950200Y5638800D02*
G01X10693400Y5638800D01*
G01X7975600Y5562600D02*
G01X10845800Y5562600D01*
G01X8013700Y5473700D02*
G01X9931400Y5473700D01*
G01X7340600Y3784600D02*
G01X7391400Y3835400D01*
G01X7391400Y5080000D01*
G01X7950200Y5638800D01*
G01X7467600Y5054600D02*
G01X7975600Y5562600D01*
G01X7543800Y5003800D02*
G01X8013700Y5473700D01*
G01X10333406Y8280400D02*
G01X10333406Y7573594D01*
G01X10337800Y7569200D01*
G01X10062794Y8280400D02*
G01X10261600Y8081594D01*
G01X10261600Y7721600D01*
G01X10109200Y7569200D01*
G01X10083800Y7569200D01*
G54D42*
G01X8648702Y1231899D02*
G01X8648702Y1485902D01*
G01X8763000Y1600200D01*
G01X8763000Y1876796D01*
G01X8760201Y1879595D01*
G54D43*
G01X8128000Y9017000D02*
G01X5693994Y9017000D01*
G01X5414594Y8737600D01*
G01X4415206Y5156200D02*
G01X4343400Y5156200D01*
G01X5638800Y4800600D02*
G01X5638800Y5967997D01*
G01X5918200Y6247397D01*
G01X4800600Y6223000D02*
G01X4546600Y6223000D01*
G01X4800600Y6477000D02*
G01X4546600Y6477000D01*
G01X4798060Y6736080D02*
G01X4544060Y6736080D01*
G01X4411850Y6598790D02*
G01X4292600Y6479540D01*
G01X4907410Y6598790D02*
G01X4411850Y6598790D01*
G01X4978400Y6527800D02*
G01X4907410Y6598790D01*
G54D42*
G01X9271000Y5842000D02*
G01X8839200Y5842000D01*
G54D43*
G01X4292600Y6164306D02*
G01X4292600Y6223000D01*
G01X5135194Y5156200D02*
G01X5135194Y5321712D01*
G01X4292600Y6164306D01*
G01X4978400Y5740400D02*
G01X4978400Y6527800D01*
G01X5384800Y5334000D02*
G01X5080000Y5638800D01*
G01X5080000Y6096000D01*
G54D42*
G01X11887200Y8278393D02*
G01X12168607Y8559800D01*
G01X12293600Y8559800D01*
G01X9802393Y7899400D02*
G01X9829800Y7871993D01*
G01X9829800Y7569200D01*
G01X10058400Y4318000D02*
G01X10058400Y4775200D01*
G01X635000Y5234407D02*
G01X635000Y4902199D01*
G01X660400Y4876799D01*
G01X4876800Y4267200D02*
G01X5029200Y4267200D01*
G01X5168898Y4127502D02*
G01X5168898Y3949701D01*
G01X5029200Y4267200D02*
G01X5168898Y4127502D01*
G01X4241800Y4267200D02*
G01X3962400Y4267200D01*
G01X3784597Y4089397D01*
G01X3619502Y3949701D02*
G01X3781229Y3949701D01*
G01X3784597Y3953069D01*
G01X3784597Y4089397D02*
G01X3784597Y3953069D01*
G01X3784597Y3327403D01*
G54D43*
G01X2616200Y744799D02*
G01X2616200Y990600D01*
G01X1778000Y1828800D01*
G01X1778000Y5689600D01*
G54D10*
G01X3200400Y8104607D02*
G01X2664993Y8104607D01*
G01X2565400Y8204200D01*
G01X2565400Y8396199D01*
G01X3251200Y713207D02*
G01X3251200Y406400D01*
G01X3048000Y203200D01*
G01X2692400Y203200D01*
G01X2616200Y279400D01*
G01X2616200Y496799D01*
G54D43*
G01X7467600Y3784600D02*
G01X7467600Y5054600D01*
G01X7213600Y3530600D02*
G01X7467600Y3784600D01*
G01X7162800Y3530600D02*
G01X7213600Y3530600D01*
G01X7543800Y3708400D02*
G01X7543800Y5003800D01*
G01X7391400Y3556000D02*
G01X7543800Y3708400D01*
G01X7721600Y1651000D02*
G01X7721600Y2438400D01*
G01X7391400Y2768600D01*
G01X7391400Y3556000D01*
G54D42*
G01X10642595Y2054611D02*
G01X9651995Y2054611D01*
G54D44*
G01X11455400Y1675397D02*
G01X11557003Y1573794D01*
G01X11557003Y1085393D01*
G01X7805205Y3517901D02*
G01X10629898Y3517901D01*
G01X11963400Y2184399D01*
G01X11963400Y1676400D02*
G01X11963400Y1677403D01*
G01X11455400Y2185403D01*
G54D42*
G01X5638800Y4038600D02*
G01X5867400Y4038600D01*
G01X7135393Y2770607D01*
G01X7135393Y2184400D01*
G01X5638800Y3784600D02*
G01X5867400Y3784600D01*
G01X6885407Y2766593D01*
G01X6885407Y2184400D01*
G54D43*
G01X7776794Y5918200D02*
G01X8636000Y5918200D01*
G01X8966200Y6248400D01*
G01X12166600Y6248400D01*
G01X12369800Y6045200D01*
G01X8458200Y6248400D02*
G01X8897894Y6248400D01*
G01X12623800Y6680200D02*
G01X12623800Y7569200D01*
G01X9118600Y6324600D02*
G01X12344400Y6324600D01*
G01X12623800Y6045200D01*
G01X8897894Y6248400D02*
G01X9050294Y6400800D01*
G01X12344400Y6400800D01*
G01X12623800Y6680200D01*
G01X1497294Y4648200D02*
G01X1497294Y5967694D01*
G01X1778000Y6248400D01*
G54D41*
G01X-584200Y8864600D02*
G01X-533400Y8915400D01*
G01X355600Y8915400D01*
G01X584200Y8686800D01*
G01X-127000Y609600D02*
G01X-457200Y609600D01*
G01X-533400Y685800D01*
G01X-558800Y685800D01*
G01X-101600Y635000D02*
G01X-127000Y609600D01*
G01X-558800Y685800D02*
G01X-584200Y711200D01*
G01X-101600Y381000D02*
G01X-355600Y381000D01*
G01X-431800Y457200D01*
G01X-584200Y457200D01*
G01X584200Y635000D02*
G01X406400Y812800D01*
G01X-482600Y812800D02*
G01X-584200Y711200D01*
G01X406400Y812800D02*
G01X-482600Y812800D01*
G04 Track End*

M02*

