ISO-10303-21;
HEADER;
/* Generated by software containing ST-Developer
 * from STEP Tools, Inc. (www.steptools.com) 
 */

FILE_DESCRIPTION(
/* description */ (''),
/* implementation_level */ '2;1');

FILE_NAME(
/* name */ 'side-sensor-cover.step',
/* time_stamp */ '2026-08-01T23:39:58+03:00',
/* author */ (''),
/* organization */ (''),
/* preprocessor_version */ 'ST-DEVELOPER v20.1',
/* originating_system */ 'Autodesk Translation Framework v15.8.0.0',
/* authorisation */ '');

FILE_SCHEMA (('AUTOMOTIVE_DESIGN { 1 0 10303 214 3 1 1 }'));
ENDSEC;

DATA;
#10=MECHANICAL_DESIGN_GEOMETRIC_PRESENTATION_REPRESENTATION('',(#13),#597);
#11=SHAPE_REPRESENTATION_RELATIONSHIP('SRR','None',#604,#12);
#12=ADVANCED_BREP_SHAPE_REPRESENTATION('',(#14),#596);
#13=STYLED_ITEM('',(#614),#14);
#14=MANIFOLD_SOLID_BREP('Body1',#337);
#15=FACE_BOUND('',#55,.T.);
#16=FACE_BOUND('',#63,.T.);
#17=FACE_BOUND('',#64,.T.);
#18=FACE_BOUND('',#67,.T.);
#19=FACE_BOUND('',#68,.T.);
#20=PLANE('',#360);
#21=PLANE('',#374);
#22=PLANE('',#376);
#23=PLANE('',#379);
#24=PLANE('',#380);
#25=PLANE('',#386);
#26=PLANE('',#387);
#27=PLANE('',#390);
#28=TOROIDAL_SURFACE('',#354,4.00000007450581,1.);
#29=TOROIDAL_SURFACE('',#362,3.50000007450581,1.5);
#30=TOROIDAL_SURFACE('',#369,3.50000007450581,1.5);
#31=FACE_OUTER_BOUND('',#51,.T.);
#32=FACE_OUTER_BOUND('',#52,.T.);
#33=FACE_OUTER_BOUND('',#53,.T.);
#34=FACE_OUTER_BOUND('',#54,.T.);
#35=FACE_OUTER_BOUND('',#56,.T.);
#36=FACE_OUTER_BOUND('',#57,.T.);
#37=FACE_OUTER_BOUND('',#58,.T.);
#38=FACE_OUTER_BOUND('',#59,.T.);
#39=FACE_OUTER_BOUND('',#60,.T.);
#40=FACE_OUTER_BOUND('',#61,.T.);
#41=FACE_OUTER_BOUND('',#62,.T.);
#42=FACE_OUTER_BOUND('',#65,.T.);
#43=FACE_OUTER_BOUND('',#66,.T.);
#44=FACE_OUTER_BOUND('',#69,.T.);
#45=FACE_OUTER_BOUND('',#70,.T.);
#46=FACE_OUTER_BOUND('',#71,.T.);
#47=FACE_OUTER_BOUND('',#72,.T.);
#48=FACE_OUTER_BOUND('',#73,.T.);
#49=FACE_OUTER_BOUND('',#74,.T.);
#50=FACE_OUTER_BOUND('',#75,.T.);
#51=EDGE_LOOP('',(#218,#219,#220,#221));
#52=EDGE_LOOP('',(#222,#223,#224,#225));
#53=EDGE_LOOP('',(#226,#227,#228,#229));
#54=EDGE_LOOP('',(#230,#231,#232,#233));
#55=EDGE_LOOP('',(#234));
#56=EDGE_LOOP('',(#235,#236,#237,#238));
#57=EDGE_LOOP('',(#239,#240,#241,#242));
#58=EDGE_LOOP('',(#243,#244,#245,#246));
#59=EDGE_LOOP('',(#247,#248,#249,#250));
#60=EDGE_LOOP('',(#251,#252,#253,#254,#255,#256,#257));
#61=EDGE_LOOP('',(#258,#259,#260,#261));
#62=EDGE_LOOP('',(#262,#263,#264,#265));
#63=EDGE_LOOP('',(#266));
#64=EDGE_LOOP('',(#267));
#65=EDGE_LOOP('',(#268,#269,#270,#271));
#66=EDGE_LOOP('',(#272,#273,#274,#275));
#67=EDGE_LOOP('',(#276));
#68=EDGE_LOOP('',(#277));
#69=EDGE_LOOP('',(#278,#279,#280,#281));
#70=EDGE_LOOP('',(#282));
#71=EDGE_LOOP('',(#283,#284,#285,#286,#287,#288));
#72=EDGE_LOOP('',(#289,#290,#291,#292));
#73=EDGE_LOOP('',(#293,#294,#295,#296));
#74=EDGE_LOOP('',(#297,#298,#299,#300,#301,#302,#303));
#75=EDGE_LOOP('',(#304,#305,#306,#307));
#76=LINE('',#506,#100);
#77=LINE('',#509,#101);
#78=LINE('',#520,#102);
#79=LINE('',#521,#103);
#80=LINE('',#523,#104);
#81=LINE('',#539,#105);
#82=LINE('',#540,#106);
#83=LINE('',#548,#107);
#84=LINE('',#549,#108);
#85=LINE('',#552,#109);
#86=LINE('',#554,#110);
#87=LINE('',#556,#111);
#88=LINE('',#557,#112);
#89=LINE('',#558,#113);
#90=LINE('',#560,#114);
#91=LINE('',#569,#115);
#92=LINE('',#570,#116);
#93=LINE('',#571,#117);
#94=LINE('',#574,#118);
#95=LINE('',#582,#119);
#96=LINE('',#586,#120);
#97=LINE('',#588,#121);
#98=LINE('',#590,#122);
#99=LINE('',#592,#123);
#100=VECTOR('',#398,10.);
#101=VECTOR('',#401,10.);
#102=VECTOR('',#414,10.);
#103=VECTOR('',#415,10.);
#104=VECTOR('',#418,10.);
#105=VECTOR('',#435,10.);
#106=VECTOR('',#436,10.);
#107=VECTOR('',#447,10.);
#108=VECTOR('',#448,10.);
#109=VECTOR('',#451,10.);
#110=VECTOR('',#452,10.);
#111=VECTOR('',#453,10.);
#112=VECTOR('',#454,10.);
#113=VECTOR('',#455,10.);
#114=VECTOR('',#458,10.);
#115=VECTOR('',#467,10.);
#116=VECTOR('',#468,10.);
#117=VECTOR('',#469,10.);
#118=VECTOR('',#472,10.);
#119=VECTOR('',#481,0.9);
#120=VECTOR('',#488,10.);
#121=VECTOR('',#491,3.);
#122=VECTOR('',#494,2.);
#123=VECTOR('',#497,10.);
#124=CIRCLE('',#352,1.);
#125=CIRCLE('',#353,1.);
#126=CIRCLE('',#355,1.);
#127=CIRCLE('',#356,5.00000007450581);
#128=CIRCLE('',#357,4.00000007450581);
#129=CIRCLE('',#359,1.);
#130=CIRCLE('',#361,2.);
#131=CIRCLE('',#363,1.5);
#132=CIRCLE('',#364,5.00000007450581);
#133=CIRCLE('',#365,1.5);
#134=CIRCLE('',#366,3.50000007450581);
#135=CIRCLE('',#368,1.5);
#136=CIRCLE('',#370,1.5);
#137=CIRCLE('',#371,3.50000007450581);
#138=CIRCLE('',#372,5.00000007450581);
#139=CIRCLE('',#377,3.);
#140=CIRCLE('',#378,2.);
#141=CIRCLE('',#381,5.00000007450581);
#142=CIRCLE('',#382,3.00000004470348);
#143=CIRCLE('',#383,0.9);
#144=CIRCLE('',#385,0.9);
#145=VERTEX_POINT('',#502);
#146=VERTEX_POINT('',#503);
#147=VERTEX_POINT('',#505);
#148=VERTEX_POINT('',#507);
#149=VERTEX_POINT('',#511);
#150=VERTEX_POINT('',#512);
#151=VERTEX_POINT('',#517);
#152=VERTEX_POINT('',#518);
#153=VERTEX_POINT('',#524);
#154=VERTEX_POINT('',#527);
#155=VERTEX_POINT('',#528);
#156=VERTEX_POINT('',#530);
#157=VERTEX_POINT('',#532);
#158=VERTEX_POINT('',#536);
#159=VERTEX_POINT('',#537);
#160=VERTEX_POINT('',#542);
#161=VERTEX_POINT('',#543);
#162=VERTEX_POINT('',#551);
#163=VERTEX_POINT('',#553);
#164=VERTEX_POINT('',#555);
#165=VERTEX_POINT('',#562);
#166=VERTEX_POINT('',#564);
#167=VERTEX_POINT('',#567);
#168=VERTEX_POINT('',#568);
#169=VERTEX_POINT('',#573);
#170=VERTEX_POINT('',#576);
#171=VERTEX_POINT('',#578);
#172=VERTEX_POINT('',#581);
#173=EDGE_CURVE('',#145,#146,#124,.T.);
#174=EDGE_CURVE('',#146,#147,#76,.T.);
#175=EDGE_CURVE('',#147,#148,#125,.F.);
#176=EDGE_CURVE('',#148,#145,#77,.T.);
#177=EDGE_CURVE('',#149,#150,#126,.T.);
#178=EDGE_CURVE('',#150,#146,#127,.T.);
#179=EDGE_CURVE('',#145,#149,#128,.T.);
#180=EDGE_CURVE('',#151,#152,#129,.F.);
#181=EDGE_CURVE('',#152,#150,#78,.T.);
#182=EDGE_CURVE('',#149,#151,#79,.T.);
#183=EDGE_CURVE('',#148,#151,#80,.T.);
#184=EDGE_CURVE('',#153,#153,#130,.T.);
#185=EDGE_CURVE('',#154,#155,#131,.T.);
#186=EDGE_CURVE('',#155,#156,#132,.T.);
#187=EDGE_CURVE('',#156,#157,#133,.T.);
#188=EDGE_CURVE('',#157,#154,#134,.T.);
#189=EDGE_CURVE('',#158,#159,#135,.T.);
#190=EDGE_CURVE('',#159,#157,#81,.T.);
#191=EDGE_CURVE('',#156,#158,#82,.T.);
#192=EDGE_CURVE('',#160,#161,#136,.T.);
#193=EDGE_CURVE('',#161,#159,#137,.T.);
#194=EDGE_CURVE('',#158,#160,#138,.T.);
#195=EDGE_CURVE('',#154,#161,#83,.T.);
#196=EDGE_CURVE('',#160,#155,#84,.T.);
#197=EDGE_CURVE('',#152,#162,#85,.T.);
#198=EDGE_CURVE('',#163,#162,#86,.T.);
#199=EDGE_CURVE('',#164,#163,#87,.T.);
#200=EDGE_CURVE('',#164,#158,#88,.T.);
#201=EDGE_CURVE('',#150,#156,#89,.T.);
#202=EDGE_CURVE('',#146,#155,#90,.T.);
#203=EDGE_CURVE('',#165,#165,#139,.T.);
#204=EDGE_CURVE('',#166,#166,#140,.T.);
#205=EDGE_CURVE('',#167,#168,#91,.T.);
#206=EDGE_CURVE('',#168,#163,#92,.T.);
#207=EDGE_CURVE('',#162,#167,#93,.T.);
#208=EDGE_CURVE('',#168,#169,#94,.T.);
#209=EDGE_CURVE('',#169,#164,#141,.T.);
#210=EDGE_CURVE('',#170,#170,#142,.T.);
#211=EDGE_CURVE('',#171,#171,#143,.T.);
#212=EDGE_CURVE('',#171,#172,#95,.T.);
#213=EDGE_CURVE('',#172,#172,#144,.T.);
#214=EDGE_CURVE('',#147,#167,#96,.T.);
#215=EDGE_CURVE('',#165,#170,#97,.T.);
#216=EDGE_CURVE('',#166,#153,#98,.T.);
#217=EDGE_CURVE('',#169,#160,#99,.T.);
#218=ORIENTED_EDGE('',*,*,#173,.T.);
#219=ORIENTED_EDGE('',*,*,#174,.T.);
#220=ORIENTED_EDGE('',*,*,#175,.T.);
#221=ORIENTED_EDGE('',*,*,#176,.T.);
#222=ORIENTED_EDGE('',*,*,#177,.T.);
#223=ORIENTED_EDGE('',*,*,#178,.T.);
#224=ORIENTED_EDGE('',*,*,#173,.F.);
#225=ORIENTED_EDGE('',*,*,#179,.T.);
#226=ORIENTED_EDGE('',*,*,#180,.T.);
#227=ORIENTED_EDGE('',*,*,#181,.T.);
#228=ORIENTED_EDGE('',*,*,#177,.F.);
#229=ORIENTED_EDGE('',*,*,#182,.T.);
#230=ORIENTED_EDGE('',*,*,#182,.F.);
#231=ORIENTED_EDGE('',*,*,#179,.F.);
#232=ORIENTED_EDGE('',*,*,#176,.F.);
#233=ORIENTED_EDGE('',*,*,#183,.T.);
#234=ORIENTED_EDGE('',*,*,#184,.F.);
#235=ORIENTED_EDGE('',*,*,#185,.T.);
#236=ORIENTED_EDGE('',*,*,#186,.T.);
#237=ORIENTED_EDGE('',*,*,#187,.T.);
#238=ORIENTED_EDGE('',*,*,#188,.T.);
#239=ORIENTED_EDGE('',*,*,#189,.T.);
#240=ORIENTED_EDGE('',*,*,#190,.T.);
#241=ORIENTED_EDGE('',*,*,#187,.F.);
#242=ORIENTED_EDGE('',*,*,#191,.T.);
#243=ORIENTED_EDGE('',*,*,#192,.T.);
#244=ORIENTED_EDGE('',*,*,#193,.T.);
#245=ORIENTED_EDGE('',*,*,#189,.F.);
#246=ORIENTED_EDGE('',*,*,#194,.T.);
#247=ORIENTED_EDGE('',*,*,#185,.F.);
#248=ORIENTED_EDGE('',*,*,#195,.T.);
#249=ORIENTED_EDGE('',*,*,#192,.F.);
#250=ORIENTED_EDGE('',*,*,#196,.T.);
#251=ORIENTED_EDGE('',*,*,#197,.T.);
#252=ORIENTED_EDGE('',*,*,#198,.F.);
#253=ORIENTED_EDGE('',*,*,#199,.F.);
#254=ORIENTED_EDGE('',*,*,#200,.T.);
#255=ORIENTED_EDGE('',*,*,#191,.F.);
#256=ORIENTED_EDGE('',*,*,#201,.F.);
#257=ORIENTED_EDGE('',*,*,#181,.F.);
#258=ORIENTED_EDGE('',*,*,#178,.F.);
#259=ORIENTED_EDGE('',*,*,#201,.T.);
#260=ORIENTED_EDGE('',*,*,#186,.F.);
#261=ORIENTED_EDGE('',*,*,#202,.F.);
#262=ORIENTED_EDGE('',*,*,#188,.F.);
#263=ORIENTED_EDGE('',*,*,#190,.F.);
#264=ORIENTED_EDGE('',*,*,#193,.F.);
#265=ORIENTED_EDGE('',*,*,#195,.F.);
#266=ORIENTED_EDGE('',*,*,#203,.T.);
#267=ORIENTED_EDGE('',*,*,#204,.T.);
#268=ORIENTED_EDGE('',*,*,#205,.T.);
#269=ORIENTED_EDGE('',*,*,#206,.T.);
#270=ORIENTED_EDGE('',*,*,#198,.T.);
#271=ORIENTED_EDGE('',*,*,#207,.T.);
#272=ORIENTED_EDGE('',*,*,#206,.F.);
#273=ORIENTED_EDGE('',*,*,#208,.T.);
#274=ORIENTED_EDGE('',*,*,#209,.T.);
#275=ORIENTED_EDGE('',*,*,#199,.T.);
#276=ORIENTED_EDGE('',*,*,#210,.T.);
#277=ORIENTED_EDGE('',*,*,#211,.T.);
#278=ORIENTED_EDGE('',*,*,#211,.F.);
#279=ORIENTED_EDGE('',*,*,#212,.T.);
#280=ORIENTED_EDGE('',*,*,#213,.T.);
#281=ORIENTED_EDGE('',*,*,#212,.F.);
#282=ORIENTED_EDGE('',*,*,#213,.F.);
#283=ORIENTED_EDGE('',*,*,#207,.F.);
#284=ORIENTED_EDGE('',*,*,#197,.F.);
#285=ORIENTED_EDGE('',*,*,#180,.F.);
#286=ORIENTED_EDGE('',*,*,#183,.F.);
#287=ORIENTED_EDGE('',*,*,#175,.F.);
#288=ORIENTED_EDGE('',*,*,#214,.T.);
#289=ORIENTED_EDGE('',*,*,#203,.F.);
#290=ORIENTED_EDGE('',*,*,#215,.T.);
#291=ORIENTED_EDGE('',*,*,#210,.F.);
#292=ORIENTED_EDGE('',*,*,#215,.F.);
#293=ORIENTED_EDGE('',*,*,#204,.F.);
#294=ORIENTED_EDGE('',*,*,#216,.T.);
#295=ORIENTED_EDGE('',*,*,#184,.T.);
#296=ORIENTED_EDGE('',*,*,#216,.F.);
#297=ORIENTED_EDGE('',*,*,#174,.F.);
#298=ORIENTED_EDGE('',*,*,#202,.T.);
#299=ORIENTED_EDGE('',*,*,#196,.F.);
#300=ORIENTED_EDGE('',*,*,#217,.F.);
#301=ORIENTED_EDGE('',*,*,#208,.F.);
#302=ORIENTED_EDGE('',*,*,#205,.F.);
#303=ORIENTED_EDGE('',*,*,#214,.F.);
#304=ORIENTED_EDGE('',*,*,#194,.F.);
#305=ORIENTED_EDGE('',*,*,#200,.F.);
#306=ORIENTED_EDGE('',*,*,#209,.F.);
#307=ORIENTED_EDGE('',*,*,#217,.T.);
#308=CYLINDRICAL_SURFACE('',#351,1.);
#309=CYLINDRICAL_SURFACE('',#358,1.);
#310=CYLINDRICAL_SURFACE('',#367,1.5);
#311=CYLINDRICAL_SURFACE('',#373,1.5);
#312=CYLINDRICAL_SURFACE('',#375,5.00000007450581);
#313=CYLINDRICAL_SURFACE('',#384,0.9);
#314=CYLINDRICAL_SURFACE('',#388,3.);
#315=CYLINDRICAL_SURFACE('',#389,2.);
#316=CYLINDRICAL_SURFACE('',#391,5.00000007450581);
#317=ADVANCED_FACE('',(#31),#308,.T.);
#318=ADVANCED_FACE('',(#32),#28,.T.);
#319=ADVANCED_FACE('',(#33),#309,.T.);
#320=ADVANCED_FACE('',(#34,#15),#20,.F.);
#321=ADVANCED_FACE('',(#35),#29,.T.);
#322=ADVANCED_FACE('',(#36),#310,.T.);
#323=ADVANCED_FACE('',(#37),#30,.T.);
#324=ADVANCED_FACE('',(#38),#311,.T.);
#325=ADVANCED_FACE('',(#39),#21,.T.);
#326=ADVANCED_FACE('',(#40),#312,.T.);
#327=ADVANCED_FACE('',(#41,#16,#17),#22,.T.);
#328=ADVANCED_FACE('',(#42),#23,.T.);
#329=ADVANCED_FACE('',(#43,#18,#19),#24,.T.);
#330=ADVANCED_FACE('',(#44),#313,.F.);
#331=ADVANCED_FACE('',(#45),#25,.T.);
#332=ADVANCED_FACE('',(#46),#26,.T.);
#333=ADVANCED_FACE('',(#47),#314,.F.);
#334=ADVANCED_FACE('',(#48),#315,.F.);
#335=ADVANCED_FACE('',(#49),#27,.T.);
#336=ADVANCED_FACE('',(#50),#316,.T.);
#337=CLOSED_SHELL('',(#317,#318,#319,#320,#321,#322,#323,#324,#325,#326,
#327,#328,#329,#330,#331,#332,#333,#334,#335,#336));
#338=DERIVED_UNIT_ELEMENT(#340,1.);
#339=DERIVED_UNIT_ELEMENT(#599,-3.);
#340=(
MASS_UNIT()
NAMED_UNIT(*)
SI_UNIT(.KILO.,.GRAM.)
);
#341=DERIVED_UNIT((#338,#339));
#342=MEASURE_REPRESENTATION_ITEM('density measure',
POSITIVE_RATIO_MEASURE(7850.),#341);
#343=PROPERTY_DEFINITION_REPRESENTATION(#348,#345);
#344=PROPERTY_DEFINITION_REPRESENTATION(#349,#346);
#345=REPRESENTATION('material name',(#347),#596);
#346=REPRESENTATION('density',(#342),#596);
#347=DESCRIPTIVE_REPRESENTATION_ITEM('Steel','Steel');
#348=PROPERTY_DEFINITION('material property','material name',#606);
#349=PROPERTY_DEFINITION('material property','density of part',#606);
#350=AXIS2_PLACEMENT_3D('',#500,#392,#393);
#351=AXIS2_PLACEMENT_3D('',#501,#394,#395);
#352=AXIS2_PLACEMENT_3D('',#504,#396,#397);
#353=AXIS2_PLACEMENT_3D('',#508,#399,#400);
#354=AXIS2_PLACEMENT_3D('',#510,#402,#403);
#355=AXIS2_PLACEMENT_3D('',#513,#404,#405);
#356=AXIS2_PLACEMENT_3D('',#514,#406,#407);
#357=AXIS2_PLACEMENT_3D('',#515,#408,#409);
#358=AXIS2_PLACEMENT_3D('',#516,#410,#411);
#359=AXIS2_PLACEMENT_3D('',#519,#412,#413);
#360=AXIS2_PLACEMENT_3D('',#522,#416,#417);
#361=AXIS2_PLACEMENT_3D('',#525,#419,#420);
#362=AXIS2_PLACEMENT_3D('',#526,#421,#422);
#363=AXIS2_PLACEMENT_3D('',#529,#423,#424);
#364=AXIS2_PLACEMENT_3D('',#531,#425,#426);
#365=AXIS2_PLACEMENT_3D('',#533,#427,#428);
#366=AXIS2_PLACEMENT_3D('',#534,#429,#430);
#367=AXIS2_PLACEMENT_3D('',#535,#431,#432);
#368=AXIS2_PLACEMENT_3D('',#538,#433,#434);
#369=AXIS2_PLACEMENT_3D('',#541,#437,#438);
#370=AXIS2_PLACEMENT_3D('',#544,#439,#440);
#371=AXIS2_PLACEMENT_3D('',#545,#441,#442);
#372=AXIS2_PLACEMENT_3D('',#546,#443,#444);
#373=AXIS2_PLACEMENT_3D('',#547,#445,#446);
#374=AXIS2_PLACEMENT_3D('',#550,#449,#450);
#375=AXIS2_PLACEMENT_3D('',#559,#456,#457);
#376=AXIS2_PLACEMENT_3D('',#561,#459,#460);
#377=AXIS2_PLACEMENT_3D('',#563,#461,#462);
#378=AXIS2_PLACEMENT_3D('',#565,#463,#464);
#379=AXIS2_PLACEMENT_3D('',#566,#465,#466);
#380=AXIS2_PLACEMENT_3D('',#572,#470,#471);
#381=AXIS2_PLACEMENT_3D('',#575,#473,#474);
#382=AXIS2_PLACEMENT_3D('',#577,#475,#476);
#383=AXIS2_PLACEMENT_3D('',#579,#477,#478);
#384=AXIS2_PLACEMENT_3D('',#580,#479,#480);
#385=AXIS2_PLACEMENT_3D('',#583,#482,#483);
#386=AXIS2_PLACEMENT_3D('',#584,#484,#485);
#387=AXIS2_PLACEMENT_3D('',#585,#486,#487);
#388=AXIS2_PLACEMENT_3D('',#587,#489,#490);
#389=AXIS2_PLACEMENT_3D('',#589,#492,#493);
#390=AXIS2_PLACEMENT_3D('',#591,#495,#496);
#391=AXIS2_PLACEMENT_3D('',#593,#498,#499);
#392=DIRECTION('axis',(0.,0.,1.));
#393=DIRECTION('refdir',(1.,0.,0.));
#394=DIRECTION('center_axis',(0.,1.,0.));
#395=DIRECTION('ref_axis',(-0.707106781186547,0.,-0.707106781186548));
#396=DIRECTION('center_axis',(0.,1.,0.));
#397=DIRECTION('ref_axis',(0.,0.,-1.));
#398=DIRECTION('',(0.,1.,0.));
#399=DIRECTION('center_axis',(0.,1.,0.));
#400=DIRECTION('ref_axis',(-0.707106781186547,0.,-0.707106781186548));
#401=DIRECTION('',(0.,-1.,0.));
#402=DIRECTION('center_axis',(0.,0.,1.));
#403=DIRECTION('ref_axis',(1.,0.,0.));
#404=DIRECTION('center_axis',(-1.11022302462516E-15,-1.,0.));
#405=DIRECTION('ref_axis',(0.,0.,-1.));
#406=DIRECTION('center_axis',(0.,0.,-1.));
#407=DIRECTION('ref_axis',(-6.12323399573677E-17,-1.,0.));
#408=DIRECTION('center_axis',(0.,0.,1.));
#409=DIRECTION('ref_axis',(-6.12323399573677E-17,-1.,0.));
#410=DIRECTION('center_axis',(0.,1.,0.));
#411=DIRECTION('ref_axis',(0.707106781186547,0.,-0.707106781186548));
#412=DIRECTION('center_axis',(0.,1.,0.));
#413=DIRECTION('ref_axis',(0.707106781186547,0.,-0.707106781186548));
#414=DIRECTION('',(0.,-1.,0.));
#415=DIRECTION('',(0.,1.,0.));
#416=DIRECTION('center_axis',(0.,0.,1.));
#417=DIRECTION('ref_axis',(1.,0.,0.));
#418=DIRECTION('',(1.,0.,0.));
#419=DIRECTION('center_axis',(0.,0.,-1.));
#420=DIRECTION('ref_axis',(1.,0.,0.));
#421=DIRECTION('center_axis',(0.,0.,1.));
#422=DIRECTION('ref_axis',(1.,0.,0.));
#423=DIRECTION('center_axis',(0.,-1.,0.));
#424=DIRECTION('ref_axis',(0.,0.,1.));
#425=DIRECTION('center_axis',(0.,0.,1.));
#426=DIRECTION('ref_axis',(-6.12323399573677E-17,-1.,0.));
#427=DIRECTION('center_axis',(-7.40148683083438E-16,-1.,0.));
#428=DIRECTION('ref_axis',(1.,-7.40148683083438E-16,0.));
#429=DIRECTION('center_axis',(0.,0.,-1.));
#430=DIRECTION('ref_axis',(-6.12323399573676E-17,-1.,0.));
#431=DIRECTION('center_axis',(0.,1.,0.));
#432=DIRECTION('ref_axis',(0.707106781186547,0.,0.707106781186548));
#433=DIRECTION('center_axis',(0.,-1.,0.));
#434=DIRECTION('ref_axis',(1.,0.,0.));
#435=DIRECTION('',(0.,-1.,0.));
#436=DIRECTION('',(0.,1.,0.));
#437=DIRECTION('center_axis',(0.,0.,1.));
#438=DIRECTION('ref_axis',(1.,0.,0.));
#439=DIRECTION('center_axis',(7.40148683083438E-16,1.,0.));
#440=DIRECTION('ref_axis',(-1.,7.40148683083438E-16,0.));
#441=DIRECTION('center_axis',(0.,0.,-1.));
#442=DIRECTION('ref_axis',(6.12323399573676E-17,1.,0.));
#443=DIRECTION('center_axis',(0.,0.,1.));
#444=DIRECTION('ref_axis',(6.12323399573677E-17,1.,0.));
#445=DIRECTION('center_axis',(0.,-1.,0.));
#446=DIRECTION('ref_axis',(-0.707106781186547,0.,0.707106781186548));
#447=DIRECTION('',(0.,1.,0.));
#448=DIRECTION('',(0.,-1.,0.));
#449=DIRECTION('center_axis',(1.,0.,0.));
#450=DIRECTION('ref_axis',(0.,1.,0.));
#451=DIRECTION('',(0.,0.,-1.));
#452=DIRECTION('',(0.,-0.707106781186548,0.707106781186547));
#453=DIRECTION('',(0.,-1.,0.));
#454=DIRECTION('',(0.,0.,1.));
#455=DIRECTION('',(0.,0.,1.));
#456=DIRECTION('center_axis',(0.,0.,1.));
#457=DIRECTION('ref_axis',(-1.,0.,0.));
#458=DIRECTION('',(0.,0.,1.));
#459=DIRECTION('center_axis',(0.,0.,1.));
#460=DIRECTION('ref_axis',(1.,0.,0.));
#461=DIRECTION('center_axis',(0.,0.,-1.));
#462=DIRECTION('ref_axis',(1.,0.,0.));
#463=DIRECTION('center_axis',(0.,0.,-1.));
#464=DIRECTION('ref_axis',(1.,0.,0.));
#465=DIRECTION('center_axis',(0.,-0.707106781186547,-0.707106781186548));
#466=DIRECTION('ref_axis',(-1.,0.,0.));
#467=DIRECTION('',(0.,0.707106781186548,-0.707106781186547));
#468=DIRECTION('',(1.,0.,0.));
#469=DIRECTION('',(-1.,0.,0.));
#470=DIRECTION('center_axis',(0.,0.,-1.));
#471=DIRECTION('ref_axis',(-1.,0.,0.));
#472=DIRECTION('',(0.,1.,0.));
#473=DIRECTION('center_axis',(0.,0.,-1.));
#474=DIRECTION('ref_axis',(-1.,0.,0.));
#475=DIRECTION('center_axis',(0.,0.,1.));
#476=DIRECTION('ref_axis',(-1.,0.,0.));
#477=DIRECTION('center_axis',(0.,0.,1.));
#478=DIRECTION('ref_axis',(-1.,0.,0.));
#479=DIRECTION('center_axis',(0.,0.,1.));
#480=DIRECTION('ref_axis',(-1.,0.,0.));
#481=DIRECTION('',(0.,0.,1.));
#482=DIRECTION('center_axis',(0.,0.,1.));
#483=DIRECTION('ref_axis',(-1.,0.,0.));
#484=DIRECTION('center_axis',(0.,0.,-1.));
#485=DIRECTION('ref_axis',(-1.,0.,0.));
#486=DIRECTION('center_axis',(0.,-1.,0.));
#487=DIRECTION('ref_axis',(-1.,0.,0.));
#488=DIRECTION('',(0.,0.,-1.));
#489=DIRECTION('center_axis',(0.,0.,1.));
#490=DIRECTION('ref_axis',(1.,0.,0.));
#491=DIRECTION('',(0.,0.,-1.));
#492=DIRECTION('center_axis',(0.,0.,1.));
#493=DIRECTION('ref_axis',(1.,0.,0.));
#494=DIRECTION('',(0.,0.,-1.));
#495=DIRECTION('center_axis',(-1.,0.,0.));
#496=DIRECTION('ref_axis',(0.,-1.,0.));
#497=DIRECTION('',(0.,0.,1.));
#498=DIRECTION('center_axis',(0.,0.,1.));
#499=DIRECTION('ref_axis',(1.,0.,0.));
#500=CARTESIAN_POINT('',(0.,0.,0.));
#501=CARTESIAN_POINT('Origin',(-4.00000007450581,2.00000002980232,1.));
#502=CARTESIAN_POINT('',(-4.00000007450581,-7.00000010430813,0.));
#503=CARTESIAN_POINT('',(-5.00000007450581,-7.00000010430813,1.));
#504=CARTESIAN_POINT('Origin',(-4.00000007450581,-7.00000010430813,1.));
#505=CARTESIAN_POINT('',(-5.00000007450581,-4.00000005960464,1.));
#506=CARTESIAN_POINT('',(-5.00000007450581,2.00000002980232,1.));
#507=CARTESIAN_POINT('',(-4.00000007450581,-4.00000005960464,0.));
#508=CARTESIAN_POINT('Origin',(-4.00000007450581,-4.00000005960464,1.));
#509=CARTESIAN_POINT('',(-4.00000007450581,2.00000002980232,0.));
#510=CARTESIAN_POINT('Origin',(-2.77555756156289E-16,-7.00000010430813,
1.));
#511=CARTESIAN_POINT('',(4.00000007450581,-7.00000010430813,0.));
#512=CARTESIAN_POINT('',(5.00000007450581,-7.00000010430813,1.));
#513=CARTESIAN_POINT('Origin',(4.00000007450581,-7.00000010430813,1.));
#514=CARTESIAN_POINT('Origin',(-2.77555756156289E-16,-7.00000010430813,
1.));
#515=CARTESIAN_POINT('Origin',(-2.77555756156289E-16,-7.00000010430813,
0.));
#516=CARTESIAN_POINT('Origin',(4.00000007450581,-4.00000005960464,1.));
#517=CARTESIAN_POINT('',(4.00000007450581,-4.00000005960464,0.));
#518=CARTESIAN_POINT('',(5.00000007450581,-4.00000005960464,1.));
#519=CARTESIAN_POINT('Origin',(4.00000007450581,-4.00000005960464,1.));
#520=CARTESIAN_POINT('',(5.00000007450581,-4.00000005960464,1.));
#521=CARTESIAN_POINT('',(4.00000007450581,-4.00000005960464,0.));
#522=CARTESIAN_POINT('Origin',(0.,-1.00000001490116,0.));
#523=CARTESIAN_POINT('',(2.5000000372529,-4.00000005960464,0.));
#524=CARTESIAN_POINT('',(-2.,-7.00000010430813,0.));
#525=CARTESIAN_POINT('Origin',(0.,-7.00000010430813,0.));
#526=CARTESIAN_POINT('Origin',(-2.77555756156289E-16,-7.00000010430813,
6.5));
#527=CARTESIAN_POINT('',(-3.50000007450581,-7.00000010430813,8.));
#528=CARTESIAN_POINT('',(-5.00000007450581,-7.00000010430813,6.5));
#529=CARTESIAN_POINT('Origin',(-3.50000007450581,-7.00000010430813,6.5));
#530=CARTESIAN_POINT('',(5.00000007450581,-7.00000010430813,6.5));
#531=CARTESIAN_POINT('Origin',(-2.77555756156289E-16,-7.00000010430813,
6.5));
#532=CARTESIAN_POINT('',(3.50000007450581,-7.00000010430813,8.));
#533=CARTESIAN_POINT('Origin',(3.50000007450581,-7.00000010430813,6.5));
#534=CARTESIAN_POINT('Origin',(-2.77555756156289E-16,-7.00000010430813,
8.));
#535=CARTESIAN_POINT('Origin',(3.50000007450581,-4.00000005960464,6.5));
#536=CARTESIAN_POINT('',(5.00000007450581,5.00000007450581,6.5));
#537=CARTESIAN_POINT('',(3.50000007450581,5.00000007450581,8.));
#538=CARTESIAN_POINT('Origin',(3.50000007450581,5.00000007450581,6.5));
#539=CARTESIAN_POINT('',(3.50000007450581,-4.00000005960464,8.));
#540=CARTESIAN_POINT('',(5.00000007450581,-4.00000005960464,6.5));
#541=CARTESIAN_POINT('Origin',(0.,5.00000007450581,6.5));
#542=CARTESIAN_POINT('',(-5.00000007450581,5.00000007450581,6.5));
#543=CARTESIAN_POINT('',(-3.50000007450581,5.00000007450581,8.));
#544=CARTESIAN_POINT('Origin',(-3.50000007450581,5.00000007450581,6.5));
#545=CARTESIAN_POINT('Origin',(0.,5.00000007450581,8.));
#546=CARTESIAN_POINT('Origin',(0.,5.00000007450581,6.5));
#547=CARTESIAN_POINT('Origin',(-3.50000007450581,2.00000002980232,6.5));
#548=CARTESIAN_POINT('',(-3.50000007450581,2.00000002980232,8.));
#549=CARTESIAN_POINT('',(-5.00000007450581,2.00000002980232,6.5));
#550=CARTESIAN_POINT('Origin',(5.00000007450581,-7.00000010430813,0.));
#551=CARTESIAN_POINT('',(5.00000007450581,-4.00000005960464,-2.5));
#552=CARTESIAN_POINT('',(5.00000007450581,-4.00000005960464,0.));
#553=CARTESIAN_POINT('',(5.00000007450581,-3.50000005960464,-3.));
#554=CARTESIAN_POINT('',(5.00000007450581,-5.25000007078052,-1.24999998882413));
#555=CARTESIAN_POINT('',(5.00000007450581,5.00000007450581,-3.));
#556=CARTESIAN_POINT('',(5.00000007450581,-4.00000005960464,-3.));
#557=CARTESIAN_POINT('',(5.00000007450581,5.00000007450581,0.));
#558=CARTESIAN_POINT('',(5.00000007450581,-7.00000010430813,0.));
#559=CARTESIAN_POINT('Origin',(-2.77555756156289E-16,-7.00000010430813,
0.));
#560=CARTESIAN_POINT('',(-5.00000007450581,-7.00000010430813,0.));
#561=CARTESIAN_POINT('Origin',(0.,-1.00000001490116,8.));
#562=CARTESIAN_POINT('',(-3.,0.,8.));
#563=CARTESIAN_POINT('Origin',(0.,0.,8.));
#564=CARTESIAN_POINT('',(-2.,-7.00000010430813,8.));
#565=CARTESIAN_POINT('Origin',(0.,-7.00000010430813,8.));
#566=CARTESIAN_POINT('Origin',(2.5000000372529,-3.75000005960464,-2.75));
#567=CARTESIAN_POINT('',(-5.00000007450581,-4.00000005960464,-2.5));
#568=CARTESIAN_POINT('',(-5.00000007450581,-3.50000005960464,-3.));
#569=CARTESIAN_POINT('',(-5.00000007450581,-2.25000002607703,-4.25000003352761));
#570=CARTESIAN_POINT('',(2.5000000372529,-3.50000005960464,-3.));
#571=CARTESIAN_POINT('',(2.5000000372529,-4.00000005960464,-2.5));
#572=CARTESIAN_POINT('Origin',(0.,3.00000004470348,-3.));
#573=CARTESIAN_POINT('',(-5.00000007450581,5.00000007450581,-3.));
#574=CARTESIAN_POINT('',(-5.00000007450581,-4.00000005960464,-3.));
#575=CARTESIAN_POINT('Origin',(0.,5.00000007450581,-3.));
#576=CARTESIAN_POINT('',(-3.,-3.67394039744206E-16,-3.));
#577=CARTESIAN_POINT('Origin',(0.,0.,-3.));
#578=CARTESIAN_POINT('',(0.9,5.90000009164214,-3.));
#579=CARTESIAN_POINT('Origin',(1.51788303178618E-18,5.90000009164214,-3.));
#580=CARTESIAN_POINT('Origin',(1.51788303178618E-18,5.90000009164214,-3.));
#581=CARTESIAN_POINT('',(0.9,5.90000009164214,5.));
#582=CARTESIAN_POINT('',(0.9,5.90000009164214,-3.));
#583=CARTESIAN_POINT('Origin',(1.51788303178618E-18,5.90000009164214,5.));
#584=CARTESIAN_POINT('Origin',(0.,5.90000009164214,5.));
#585=CARTESIAN_POINT('Origin',(5.00000007450581,-4.00000005960464,0.));
#586=CARTESIAN_POINT('',(-5.00000007450581,-4.00000005960464,0.));
#587=CARTESIAN_POINT('Origin',(0.,0.,0.));
#588=CARTESIAN_POINT('',(-3.,-3.67394039744206E-16,0.));
#589=CARTESIAN_POINT('Origin',(0.,-7.00000010430813,0.));
#590=CARTESIAN_POINT('',(-2.,-7.00000010430813,0.));
#591=CARTESIAN_POINT('Origin',(-5.00000007450581,5.00000007450581,0.));
#592=CARTESIAN_POINT('',(-5.00000007450581,5.00000007450581,0.));
#593=CARTESIAN_POINT('Origin',(0.,5.00000007450581,0.));
#594=UNCERTAINTY_MEASURE_WITH_UNIT(LENGTH_MEASURE(0.01),#598,
'DISTANCE_ACCURACY_VALUE',
'Maximum model space distance between geometric entities at asserted c
onnectivities');
#595=UNCERTAINTY_MEASURE_WITH_UNIT(LENGTH_MEASURE(0.01),#598,
'DISTANCE_ACCURACY_VALUE',
'Maximum model space distance between geometric entities at asserted c
onnectivities');
#596=(
GEOMETRIC_REPRESENTATION_CONTEXT(3)
GLOBAL_UNCERTAINTY_ASSIGNED_CONTEXT((#594))
GLOBAL_UNIT_ASSIGNED_CONTEXT((#598,#600,#601))
REPRESENTATION_CONTEXT('','3D')
);
#597=(
GEOMETRIC_REPRESENTATION_CONTEXT(3)
GLOBAL_UNCERTAINTY_ASSIGNED_CONTEXT((#595))
GLOBAL_UNIT_ASSIGNED_CONTEXT((#598,#600,#601))
REPRESENTATION_CONTEXT('','3D')
);
#598=(
LENGTH_UNIT()
NAMED_UNIT(*)
SI_UNIT(.MILLI.,.METRE.)
);
#599=(
LENGTH_UNIT()
NAMED_UNIT(*)
SI_UNIT($,.METRE.)
);
#600=(
NAMED_UNIT(*)
PLANE_ANGLE_UNIT()
SI_UNIT($,.RADIAN.)
);
#601=(
NAMED_UNIT(*)
SI_UNIT($,.STERADIAN.)
SOLID_ANGLE_UNIT()
);
#602=SHAPE_DEFINITION_REPRESENTATION(#603,#604);
#603=PRODUCT_DEFINITION_SHAPE('',$,#606);
#604=SHAPE_REPRESENTATION('',(#350),#596);
#605=PRODUCT_DEFINITION_CONTEXT('part definition',#610,'design');
#606=PRODUCT_DEFINITION('2026-08-01-17-39-35-455',
'ByByteNano_irSide_cover',#607,#605);
#607=PRODUCT_DEFINITION_FORMATION('',$,#612);
#608=PRODUCT_RELATED_PRODUCT_CATEGORY('ByByteNano_irSide_cover',
'ByByteNano_irSide_cover',(#612));
#609=APPLICATION_PROTOCOL_DEFINITION('international standard',
'automotive_design',2009,#610);
#610=APPLICATION_CONTEXT(
'Core Data for Automotive Mechanical Design Process');
#611=PRODUCT_CONTEXT('part definition',#610,'mechanical');
#612=PRODUCT('2026-08-01-17-39-35-455','ByByteNano_irSide_cover',$,(#611));
#613=PRESENTATION_STYLE_ASSIGNMENT((#615));
#614=PRESENTATION_STYLE_ASSIGNMENT((#616));
#615=SURFACE_STYLE_USAGE(.BOTH.,#617);
#616=SURFACE_STYLE_USAGE(.BOTH.,#618);
#617=SURFACE_SIDE_STYLE('',(#619));
#618=SURFACE_SIDE_STYLE('',(#620));
#619=SURFACE_STYLE_FILL_AREA(#621);
#620=SURFACE_STYLE_FILL_AREA(#622);
#621=FILL_AREA_STYLE('Steel - Satin',(#623));
#622=FILL_AREA_STYLE(
'EPX 150 - Air Baked (with Carbon M2 M3 L1 3D Printers)',(#624));
#623=FILL_AREA_STYLE_COLOUR('Steel - Satin',#625);
#624=FILL_AREA_STYLE_COLOUR(
'EPX 150 - Air Baked (with Carbon M2 M3 L1 3D Printers)',#626);
#625=COLOUR_RGB('Steel - Satin',0.627450980392157,0.627450980392157,0.627450980392157);
#626=COLOUR_RGB(
'EPX 150 - Air Baked (with Carbon M2 M3 L1 3D Printers)',0.247058823529412,
0.247058823529412,0.247058823529412);
ENDSEC;
END-ISO-10303-21;
